<?xml version="1.0" encoding="us-ascii" standalone="no"?><svg xmlns="http://www.w3.org/2000/svg" xmlns:xlink="http://www.w3.org/1999/xlink" contentStyleType="text/css" height="1073px" preserveAspectRatio="none" style="width:390px;height:1073px;background:#FFFFFF;" version="1.1" viewBox="0 0 390 1073" width="390px" zoomAndPan="magnify"><defs/><g><!--class Main--><g id="elem_Main"><rect codeLine="1" fill="#F1F1F1" height="64.2969" id="Main" rx="2.5" ry="2.5" style="stroke:#181818;stroke-width:0.5;" width="238" x="76" y="7"/><ellipse cx="174.25" cy="23" fill="#ADD1B2" rx="11" ry="11" style="stroke:#181818;stroke-width:1.0;"/><path d="M176.5938,18.6719 C175.6563,18.2344 175.0625,18.0938 174.1875,18.0938 C171.5625,18.0938 169.5625,20.1719 169.5625,22.8906 L169.5625,24.0156 C169.5625,26.5938 171.6719,28.4844 174.5625,28.4844 C175.7813,28.4844 176.9375,28.1875 177.6875,27.6406 C178.2656,27.2344 178.5938,26.7813 178.5938,26.3906 C178.5938,25.9375 178.2031,25.5469 177.7344,25.5469 C177.5156,25.5469 177.3125,25.625 177.125,25.8125 C176.6719,26.2969 176.6719,26.2969 176.4844,26.3906 C176.0625,26.6563 175.375,26.7813 174.6094,26.7813 C172.5625,26.7813 171.2656,25.6875 171.2656,23.9844 L171.2656,22.8906 C171.2656,21.1094 172.5156,19.7969 174.25,19.7969 C174.8281,19.7969 175.4375,19.9531 175.9063,20.2031 C176.3906,20.4844 176.5625,20.7031 176.6563,21.1094 C176.7188,21.5156 176.75,21.6406 176.8906,21.7656 C177.0313,21.9063 177.2656,22.0156 177.4844,22.0156 C177.75,22.0156 178.0156,21.875 178.1875,21.6563 C178.2969,21.5 178.3281,21.3125 178.3281,20.8906 L178.3281,19.4688 C178.3281,19.0313 178.3125,18.9063 178.2188,18.75 C178.0625,18.4844 177.7813,18.3438 177.4844,18.3438 C177.1875,18.3438 176.9844,18.4375 176.7656,18.75 L176.5938,18.6719 Z " fill="#000000"/><text fill="#000000" font-family="sans-serif" font-size="14" lengthAdjust="spacing" textLength="33" x="194.75" y="27.8467">Main</text><line style="stroke:#181818;stroke-width:0.5;" x1="77" x2="313" y1="39" y2="39"/><line style="stroke:#181818;stroke-width:0.5;" x1="77" x2="313" y1="47" y2="47"/><ellipse cx="87" cy="60.6484" fill="#84BE84" rx="3" ry="3" style="stroke:#038048;stroke-width:1.0;"/><text fill="#000000" font-family="sans-serif" font-size="14" lengthAdjust="spacing" textLength="212" x="96" y="63.9951">static void main(String[] args)</text></g><!--class SurveySystem--><g id="elem_SurveySystem"><rect codeLine="5" fill="#F1F1F1" height="178.375" id="SurveySystem" rx="2.5" ry="2.5" style="stroke:#181818;stroke-width:0.5;" width="328" x="31" y="131"/><ellipse cx="139.75" cy="147" fill="#ADD1B2" rx="11" ry="11" style="stroke:#181818;stroke-width:1.0;"/><path d="M142.0938,142.6719 C141.1563,142.2344 140.5625,142.0938 139.6875,142.0938 C137.0625,142.0938 135.0625,144.1719 135.0625,146.8906 L135.0625,148.0156 C135.0625,150.5938 137.1719,152.4844 140.0625,152.4844 C141.2813,152.4844 142.4375,152.1875 143.1875,151.6406 C143.7656,151.2344 144.0938,150.7813 144.0938,150.3906 C144.0938,149.9375 143.7031,149.5469 143.2344,149.5469 C143.0156,149.5469 142.8125,149.625 142.625,149.8125 C142.1719,150.2969 142.1719,150.2969 141.9844,150.3906 C141.5625,150.6563 140.875,150.7813 140.1094,150.7813 C138.0625,150.7813 136.7656,149.6875 136.7656,147.9844 L136.7656,146.8906 C136.7656,145.1094 138.0156,143.7969 139.75,143.7969 C140.3281,143.7969 140.9375,143.9531 141.4063,144.2031 C141.8906,144.4844 142.0625,144.7031 142.1563,145.1094 C142.2188,145.5156 142.25,145.6406 142.3906,145.7656 C142.5313,145.9063 142.7656,146.0156 142.9844,146.0156 C143.25,146.0156 143.5156,145.875 143.6875,145.6563 C143.7969,145.5 143.8281,145.3125 143.8281,144.8906 L143.8281,143.4688 C143.8281,143.0313 143.8125,142.9063 143.7188,142.75 C143.5625,142.4844 143.2813,142.3438 142.9844,142.3438 C142.6875,142.3438 142.4844,142.4375 142.2656,142.75 L142.0938,142.6719 Z " fill="#000000"/><text fill="#000000" font-family="sans-serif" font-size="14" lengthAdjust="spacing" textLength="102" x="160.25" y="151.8467">SurveySystem</text><line style="stroke:#181818;stroke-width:0.5;" x1="32" x2="358" y1="163" y2="163"/><rect fill="none" height="6" style="stroke:#C82930;stroke-width:1.0;" width="6" x="39" y="173.6484"/><text fill="#000000" font-family="sans-serif" font-size="14" lengthAdjust="spacing" textLength="111" x="51" y="179.9951">Patient patient</text><rect fill="none" height="6" style="stroke:#C82930;stroke-width:1.0;" width="6" x="39" y="189.9453"/><text fill="#000000" font-family="sans-serif" font-size="14" lengthAdjust="spacing" textLength="118" x="51" y="196.292">Scanner scanner</text><line style="stroke:#181818;stroke-width:0.5;" x1="32" x2="358" y1="203.5938" y2="203.5938"/><ellipse cx="42" cy="217.2422" fill="#84BE84" rx="3" ry="3" style="stroke:#038048;stroke-width:1.0;"/><text fill="#000000" font-family="sans-serif" font-size="14" lengthAdjust="spacing" textLength="112" x="51" y="220.5889">SurveySystem()</text><ellipse cx="42" cy="233.5391" fill="#84BE84" rx="3" ry="3" style="stroke:#038048;stroke-width:1.0;"/><text fill="#000000" font-family="sans-serif" font-size="14" lengthAdjust="spacing" textLength="102" x="51" y="236.8857">void execute()</text><rect fill="#F24D5C" height="6" style="stroke:#C82930;stroke-width:1.0;" width="6" x="39" y="246.8359"/><text fill="#000000" font-family="sans-serif" font-size="14" lengthAdjust="spacing" textLength="136" x="51" y="253.1826">void fillOutSurvey()</text><rect fill="#F24D5C" height="6" style="stroke:#C82930;stroke-width:1.0;" width="6" x="39" y="263.1328"/><text fill="#000000" font-family="sans-serif" font-size="14" lengthAdjust="spacing" textLength="302" x="51" y="269.4795">void fillIntake(Day day, String intakeType)</text><rect fill="#F24D5C" height="6" style="stroke:#C82930;stroke-width:1.0;" width="6" x="39" y="279.4297"/><text fill="#000000" font-family="sans-serif" font-size="14" lengthAdjust="spacing" textLength="162" x="51" y="285.7764">void displayStructure()</text><rect fill="#F24D5C" height="6" style="stroke:#C82930;stroke-width:1.0;" width="6" x="39" y="295.7266"/><text fill="#000000" font-family="sans-serif" font-size="14" lengthAdjust="spacing" textLength="220" x="51" y="302.0732">List&lt;String&gt; getIntakeTypes()</text></g><!--class Patient--><g id="elem_Patient"><rect codeLine="16" fill="#F1F1F1" height="162.0781" id="Patient" rx="2.5" ry="2.5" style="stroke:#181818;stroke-width:0.5;" width="293" x="48.5" y="369"/><ellipse cx="164.25" cy="385" fill="#ADD1B2" rx="11" ry="11" style="stroke:#181818;stroke-width:1.0;"/><path d="M166.5938,380.6719 C165.6563,380.2344 165.0625,380.0938 164.1875,380.0938 C161.5625,380.0938 159.5625,382.1719 159.5625,384.8906 L159.5625,386.0156 C159.5625,388.5938 161.6719,390.4844 164.5625,390.4844 C165.7813,390.4844 166.9375,390.1875 167.6875,389.6406 C168.2656,389.2344 168.5938,388.7813 168.5938,388.3906 C168.5938,387.9375 168.2031,387.5469 167.7344,387.5469 C167.5156,387.5469 167.3125,387.625 167.125,387.8125 C166.6719,388.2969 166.6719,388.2969 166.4844,388.3906 C166.0625,388.6563 165.375,388.7813 164.6094,388.7813 C162.5625,388.7813 161.2656,387.6875 161.2656,385.9844 L161.2656,384.8906 C161.2656,383.1094 162.5156,381.7969 164.25,381.7969 C164.8281,381.7969 165.4375,381.9531 165.9063,382.2031 C166.3906,382.4844 166.5625,382.7031 166.6563,383.1094 C166.7188,383.5156 166.75,383.6406 166.8906,383.7656 C167.0313,383.9063 167.2656,384.0156 167.4844,384.0156 C167.75,384.0156 168.0156,383.875 168.1875,383.6563 C168.2969,383.5 168.3281,383.3125 168.3281,382.8906 L168.3281,381.4688 C168.3281,381.0313 168.3125,380.9063 168.2188,380.75 C168.0625,380.4844 167.7813,380.3438 167.4844,380.3438 C167.1875,380.3438 166.9844,380.4375 166.7656,380.75 L166.5938,380.6719 Z " fill="#000000"/><text fill="#000000" font-family="sans-serif" font-size="14" lengthAdjust="spacing" textLength="53" x="184.75" y="389.8467">Patient</text><line style="stroke:#181818;stroke-width:0.5;" x1="49.5" x2="340.5" y1="401" y2="401"/><rect fill="none" height="6" style="stroke:#C82930;stroke-width:1.0;" width="6" x="56.5" y="411.6484"/><text fill="#000000" font-family="sans-serif" font-size="14" lengthAdjust="spacing" textLength="88" x="68.5" y="417.9951">String name</text><rect fill="none" height="6" style="stroke:#C82930;stroke-width:1.0;" width="6" x="56.5" y="427.9453"/><text fill="#000000" font-family="sans-serif" font-size="14" lengthAdjust="spacing" textLength="111" x="68.5" y="434.292">List&lt;Day&gt; days</text><line style="stroke:#181818;stroke-width:0.5;" x1="49.5" x2="340.5" y1="441.5938" y2="441.5938"/><ellipse cx="59.5" cy="455.2422" fill="#84BE84" rx="3" ry="3" style="stroke:#038048;stroke-width:1.0;"/><text fill="#000000" font-family="sans-serif" font-size="14" lengthAdjust="spacing" textLength="151" x="68.5" y="458.5889">Patient(String name)</text><ellipse cx="59.5" cy="471.5391" fill="#84BE84" rx="3" ry="3" style="stroke:#038048;stroke-width:1.0;"/><text fill="#000000" font-family="sans-serif" font-size="14" lengthAdjust="spacing" textLength="196" x="68.5" y="474.8857">void setName(String name)</text><ellipse cx="59.5" cy="487.8359" fill="#84BE84" rx="3" ry="3" style="stroke:#038048;stroke-width:1.0;"/><text fill="#000000" font-family="sans-serif" font-size="14" lengthAdjust="spacing" textLength="124" x="68.5" y="491.1826">String getName()</text><ellipse cx="59.5" cy="504.1328" fill="#84BE84" rx="3" ry="3" style="stroke:#038048;stroke-width:1.0;"/><text fill="#000000" font-family="sans-serif" font-size="14" lengthAdjust="spacing" textLength="267" x="68.5" y="507.4795">void addDay(int dayNumber, Day day)</text><ellipse cx="59.5" cy="520.4297" fill="#84BE84" rx="3" ry="3" style="stroke:#038048;stroke-width:1.0;"/><text fill="#000000" font-family="sans-serif" font-size="14" lengthAdjust="spacing" textLength="199" x="68.5" y="523.7764">Day getDay(int dayNumber)</text></g><!--class Day--><g id="elem_Day"><rect codeLine="26" fill="#F1F1F1" height="113.1875" id="Day" rx="2.5" ry="2.5" style="stroke:#181818;stroke-width:0.5;" width="376" x="7" y="591"/><ellipse cx="177.25" cy="607" fill="#ADD1B2" rx="11" ry="11" style="stroke:#181818;stroke-width:1.0;"/><path d="M179.5938,602.6719 C178.6563,602.2344 178.0625,602.0938 177.1875,602.0938 C174.5625,602.0938 172.5625,604.1719 172.5625,606.8906 L172.5625,608.0156 C172.5625,610.5938 174.6719,612.4844 177.5625,612.4844 C178.7813,612.4844 179.9375,612.1875 180.6875,611.6406 C181.2656,611.2344 181.5938,610.7813 181.5938,610.3906 C181.5938,609.9375 181.2031,609.5469 180.7344,609.5469 C180.5156,609.5469 180.3125,609.625 180.125,609.8125 C179.6719,610.2969 179.6719,610.2969 179.4844,610.3906 C179.0625,610.6563 178.375,610.7813 177.6094,610.7813 C175.5625,610.7813 174.2656,609.6875 174.2656,607.9844 L174.2656,606.8906 C174.2656,605.1094 175.5156,603.7969 177.25,603.7969 C177.8281,603.7969 178.4375,603.9531 178.9063,604.2031 C179.3906,604.4844 179.5625,604.7031 179.6563,605.1094 C179.7188,605.5156 179.75,605.6406 179.8906,605.7656 C180.0313,605.9063 180.2656,606.0156 180.4844,606.0156 C180.75,606.0156 181.0156,605.875 181.1875,605.6563 C181.2969,605.5 181.3281,605.3125 181.3281,604.8906 L181.3281,603.4688 C181.3281,603.0313 181.3125,602.9063 181.2188,602.75 C181.0625,602.4844 180.7813,602.3438 180.4844,602.3438 C180.1875,602.3438 179.9844,602.4375 179.7656,602.75 L179.5938,602.6719 Z " fill="#000000"/><text fill="#000000" font-family="sans-serif" font-size="14" lengthAdjust="spacing" textLength="27" x="197.75" y="611.8467">Day</text><line style="stroke:#181818;stroke-width:0.5;" x1="8" x2="382" y1="623" y2="623"/><rect fill="none" height="6" style="stroke:#C82930;stroke-width:1.0;" width="6" x="15" y="633.6484"/><text fill="#000000" font-family="sans-serif" font-size="14" lengthAdjust="spacing" textLength="151" x="27" y="639.9951">List&lt;Intake&gt; intakes</text><line style="stroke:#181818;stroke-width:0.5;" x1="8" x2="382" y1="647.2969" y2="647.2969"/><ellipse cx="18" cy="660.9453" fill="#84BE84" rx="3" ry="3" style="stroke:#038048;stroke-width:1.0;"/><text fill="#000000" font-family="sans-serif" font-size="14" lengthAdjust="spacing" textLength="37" x="27" y="664.292">Day()</text><ellipse cx="18" cy="677.2422" fill="#84BE84" rx="3" ry="3" style="stroke:#038048;stroke-width:1.0;"/><text fill="#000000" font-family="sans-serif" font-size="14" lengthAdjust="spacing" textLength="350" x="27" y="680.5889">void addIntake(String intakeType, Intake intake)</text><ellipse cx="18" cy="693.5391" fill="#84BE84" rx="3" ry="3" style="stroke:#038048;stroke-width:1.0;"/><text fill="#000000" font-family="sans-serif" font-size="14" lengthAdjust="spacing" textLength="261" x="27" y="696.8857">Intake getIntake(String intakeType)</text></g><!--class Intake--><g id="elem_Intake"><rect codeLine="33" fill="#F1F1F1" height="145.7813" id="Intake" rx="2.5" ry="2.5" style="stroke:#181818;stroke-width:0.5;" width="212" x="89" y="764"/><ellipse cx="167.75" cy="780" fill="#ADD1B2" rx="11" ry="11" style="stroke:#181818;stroke-width:1.0;"/><path d="M170.0938,775.6719 C169.1563,775.2344 168.5625,775.0938 167.6875,775.0938 C165.0625,775.0938 163.0625,777.1719 163.0625,779.8906 L163.0625,781.0156 C163.0625,783.5938 165.1719,785.4844 168.0625,785.4844 C169.2813,785.4844 170.4375,785.1875 171.1875,784.6406 C171.7656,784.2344 172.0938,783.7813 172.0938,783.3906 C172.0938,782.9375 171.7031,782.5469 171.2344,782.5469 C171.0156,782.5469 170.8125,782.625 170.625,782.8125 C170.1719,783.2969 170.1719,783.2969 169.9844,783.3906 C169.5625,783.6563 168.875,783.7813 168.1094,783.7813 C166.0625,783.7813 164.7656,782.6875 164.7656,780.9844 L164.7656,779.8906 C164.7656,778.1094 166.0156,776.7969 167.75,776.7969 C168.3281,776.7969 168.9375,776.9531 169.4063,777.2031 C169.8906,777.4844 170.0625,777.7031 170.1563,778.1094 C170.2188,778.5156 170.25,778.6406 170.3906,778.7656 C170.5313,778.9063 170.7656,779.0156 170.9844,779.0156 C171.25,779.0156 171.5156,778.875 171.6875,778.6563 C171.7969,778.5 171.8281,778.3125 171.8281,777.8906 L171.8281,776.4688 C171.8281,776.0313 171.8125,775.9063 171.7188,775.75 C171.5625,775.4844 171.2813,775.3438 170.9844,775.3438 C170.6875,775.3438 170.4844,775.4375 170.2656,775.75 L170.0938,775.6719 Z " fill="#000000"/><text fill="#000000" font-family="sans-serif" font-size="14" lengthAdjust="spacing" textLength="46" x="188.25" y="784.8467">Intake</text><line style="stroke:#181818;stroke-width:0.5;" x1="90" x2="300" y1="796" y2="796"/><rect fill="none" height="6" style="stroke:#C82930;stroke-width:1.0;" width="6" x="97" y="806.6484"/><text fill="#000000" font-family="sans-serif" font-size="14" lengthAdjust="spacing" textLength="127" x="109" y="812.9951">List&lt;Food&gt; foods</text><rect fill="none" height="6" style="stroke:#C82930;stroke-width:1.0;" width="6" x="97" y="822.9453"/><text fill="#000000" font-family="sans-serif" font-size="14" lengthAdjust="spacing" textLength="130" x="109" y="829.292">String intakeType</text><line style="stroke:#181818;stroke-width:0.5;" x1="90" x2="300" y1="836.5938" y2="836.5938"/><ellipse cx="100" cy="850.2422" fill="#84BE84" rx="3" ry="3" style="stroke:#038048;stroke-width:1.0;"/><text fill="#000000" font-family="sans-serif" font-size="14" lengthAdjust="spacing" textLength="186" x="109" y="853.5889">Intake(String intakeType)</text><ellipse cx="100" cy="866.5391" fill="#84BE84" rx="3" ry="3" style="stroke:#038048;stroke-width:1.0;"/><text fill="#000000" font-family="sans-serif" font-size="14" lengthAdjust="spacing" textLength="165" x="109" y="869.8857">String getIntakeType()</text><ellipse cx="100" cy="882.8359" fill="#84BE84" rx="3" ry="3" style="stroke:#038048;stroke-width:1.0;"/><text fill="#000000" font-family="sans-serif" font-size="14" lengthAdjust="spacing" textLength="177" x="109" y="886.1826">void addFood(Food food)</text><ellipse cx="100" cy="899.1328" fill="#84BE84" rx="3" ry="3" style="stroke:#038048;stroke-width:1.0;"/><text fill="#000000" font-family="sans-serif" font-size="14" lengthAdjust="spacing" textLength="164" x="109" y="902.4795">List&lt;Food&gt; getFoods()</text></g><!--class Food--><g id="elem_Food"><rect codeLine="42" fill="#F1F1F1" height="96.8906" id="Food" rx="2.5" ry="2.5" style="stroke:#181818;stroke-width:0.5;" width="159" x="115.5" y="970"/><ellipse cx="173.25" cy="986" fill="#ADD1B2" rx="11" ry="11" style="stroke:#181818;stroke-width:1.0;"/><path d="M175.5938,981.6719 C174.6563,981.2344 174.0625,981.0938 173.1875,981.0938 C170.5625,981.0938 168.5625,983.1719 168.5625,985.8906 L168.5625,987.0156 C168.5625,989.5938 170.6719,991.4844 173.5625,991.4844 C174.7813,991.4844 175.9375,991.1875 176.6875,990.6406 C177.2656,990.2344 177.5938,989.7813 177.5938,989.3906 C177.5938,988.9375 177.2031,988.5469 176.7344,988.5469 C176.5156,988.5469 176.3125,988.625 176.125,988.8125 C175.6719,989.2969 175.6719,989.2969 175.4844,989.3906 C175.0625,989.6563 174.375,989.7813 173.6094,989.7813 C171.5625,989.7813 170.2656,988.6875 170.2656,986.9844 L170.2656,985.8906 C170.2656,984.1094 171.5156,982.7969 173.25,982.7969 C173.8281,982.7969 174.4375,982.9531 174.9063,983.2031 C175.3906,983.4844 175.5625,983.7031 175.6563,984.1094 C175.7188,984.5156 175.75,984.6406 175.8906,984.7656 C176.0313,984.9063 176.2656,985.0156 176.4844,985.0156 C176.75,985.0156 177.0156,984.875 177.1875,984.6563 C177.2969,984.5 177.3281,984.3125 177.3281,983.8906 L177.3281,982.4688 C177.3281,982.0313 177.3125,981.9063 177.2188,981.75 C177.0625,981.4844 176.7813,981.3438 176.4844,981.3438 C176.1875,981.3438 175.9844,981.4375 175.7656,981.75 L175.5938,981.6719 Z " fill="#000000"/><text fill="#000000" font-family="sans-serif" font-size="14" lengthAdjust="spacing" textLength="35" x="193.75" y="990.8467">Food</text><line style="stroke:#181818;stroke-width:0.5;" x1="116.5" x2="273.5" y1="1002" y2="1002"/><rect fill="none" height="6" style="stroke:#C82930;stroke-width:1.0;" width="6" x="123.5" y="1012.6484"/><text fill="#000000" font-family="sans-serif" font-size="14" lengthAdjust="spacing" textLength="88" x="135.5" y="1018.9951">String name</text><line style="stroke:#181818;stroke-width:0.5;" x1="116.5" x2="273.5" y1="1026.2969" y2="1026.2969"/><ellipse cx="126.5" cy="1039.9453" fill="#84BE84" rx="3" ry="3" style="stroke:#038048;stroke-width:1.0;"/><text fill="#000000" font-family="sans-serif" font-size="14" lengthAdjust="spacing" textLength="133" x="135.5" y="1043.292">Food(String name)</text><ellipse cx="126.5" cy="1056.2422" fill="#84BE84" rx="3" ry="3" style="stroke:#038048;stroke-width:1.0;"/><text fill="#000000" font-family="sans-serif" font-size="14" lengthAdjust="spacing" textLength="118" x="135.5" y="1059.5889">String toString()</text></g><!--link Main to SurveySystem--><g id="link_Main_SurveySystem"><path codeLine="48" d="M195,71.179 C195,87.907 195,103.449 195,124.885 " fill="none" id="Main-to-SurveySystem" style="stroke:#181818;stroke-width:1.0;"/><polygon fill="#181818" points="195,130.885,199,121.885,195,125.885,191,121.885,195,130.885" style="stroke:#181818;stroke-width:1.0;"/></g><!--link SurveySystem to Patient--><g id="link_SurveySystem_Patient"><path codeLine="49" d="M195,309.151 C195,328.825 195,343.583 195,362.91 " fill="none" id="SurveySystem-to-Patient" style="stroke:#181818;stroke-width:1.0;"/><polygon fill="#181818" points="195,368.91,199,359.91,195,363.91,191,359.91,195,368.91" style="stroke:#181818;stroke-width:1.0;"/></g><!--link Patient to Day--><g id="link_Patient_Day"><path codeLine="50" d="M195,531.081 C195,551.117 195,566.176 195,584.741 " fill="none" id="Patient-to-Day" style="stroke:#181818;stroke-width:1.0;"/><polygon fill="#181818" points="195,590.741,199,581.741,195,585.741,191,581.741,195,590.741" style="stroke:#181818;stroke-width:1.0;"/></g><!--link Day to Intake--><g id="link_Day_Intake"><path codeLine="51" d="M195,704.249 C195,722.924 195,738.021 195,757.771 " fill="none" id="Day-to-Intake" style="stroke:#181818;stroke-width:1.0;"/><polygon fill="#181818" points="195,763.771,199,754.771,195,758.771,191,754.771,195,763.771" style="stroke:#181818;stroke-width:1.0;"/></g><!--link Intake to Food--><g id="link_Intake_Food"><path codeLine="52" d="M195,910.234 C195,930.302 195,945.586 195,963.8584 " fill="none" id="Intake-to-Food" style="stroke:#181818;stroke-width:1.0;"/><polygon fill="#181818" points="195,969.8584,199,960.8584,195,964.8584,191,960.8584,195,969.8584" style="stroke:#181818;stroke-width:1.0;"/></g><!--SRC=[TLDDRuCm3BtdL_YOgkKVJ9ocIPMsTXAxJJjaaA9e4109rL2r_xuuTcde1mS8ptvvVdPIDievU5F6mab0UDREAszAE7QcWZRWil23iVNd5wYXTYln9qGPISKu7FLKJCxhbidPU-1gww6dBu55gQpL0pZwaapAbYl2egR-rUNeDMDPn0wcQVQZ9yvDP6kz-j7oMKrGgMa3L32O27zClKu9bN5zewQGCvP-76QTL-Fy4p5pgBNVpcmd4zDdW-oNfQngTR9Dg2J7KXpPOevCabF3JljTWEw46Qav8IMfgWegCdX4eTtOVkjX0zm2JiI_mBt9I-nWoYcfd5pdt3itxtEjpIs_wVG6AC8GinYRkohlJ6WkYPFJgbwwhihX4DvkqVOBFzMH3-QVjFCot6jZA2Nn5UKuc1GHoBXOd8cO_k10hEE63qVhErhGTl4QPbc-k5fYSSymokT9dCyYOc560eU9Qt8dk968O17_]--></g></svg>