<?xml version="1.0" encoding="us-ascii" standalone="no"?><svg xmlns="http://www.w3.org/2000/svg" xmlns:xlink="http://www.w3.org/1999/xlink" contentStyleType="text/css" height="953px" preserveAspectRatio="none" style="width:386px;height:953px;background:#FFFFFF;" version="1.1" viewBox="0 0 386 953" width="386px" zoomAndPan="magnify"><defs/><g><!--class DataProvider--><g id="elem_DataProvider"><rect codeLine="1" fill="#F1F1F1" height="64.2969" id="DataProvider" rx="2.5" ry="2.5" style="stroke:#181818;stroke-width:0.5;" width="140" x="7" y="507"/><ellipse cx="28.75" cy="523" fill="#B4A7E5" rx="11" ry="11" style="stroke:#181818;stroke-width:1.0;"/><path d="M29.7031,519.7813 L31.4219,519.7813 C31.8125,519.7813 32,519.75 32.125,519.6719 C32.3906,519.5156 32.5313,519.2344 32.5313,518.9375 C32.5313,518.6719 32.4219,518.4063 32.1875,518.2344 C32.0156,518.125 31.875,518.0938 31.4219,518.0938 L26.2813,518.0938 C25.8438,518.0938 25.7188,518.1094 25.5625,518.2031 C25.3125,518.3594 25.1563,518.6563 25.1563,518.9375 C25.1563,519.2188 25.2969,519.4688 25.5156,519.6406 C25.6719,519.75 25.8594,519.7813 26.2813,519.7813 L28,519.7813 L28,526.2969 L26.2813,526.2969 C25.8438,526.2969 25.7188,526.3125 25.5625,526.4219 C25.3125,526.5781 25.1563,526.8594 25.1563,527.1563 C25.1563,527.4063 25.2969,527.6719 25.5156,527.8281 C25.6719,527.9531 25.875,528 26.2813,528 L31.4219,528 C32.1719,528 32.5313,527.7188 32.5313,527.1563 C32.5313,526.875 32.4219,526.625 32.1875,526.4531 C32.0156,526.3281 31.875,526.2969 31.4219,526.2969 L29.7031,526.2969 L29.7031,519.7813 Z " fill="#000000"/><text fill="#000000" font-family="sans-serif" font-size="14" font-style="italic" lengthAdjust="spacing" textLength="93" x="44.25" y="527.8467">DataProvider</text><line style="stroke:#181818;stroke-width:0.5;" x1="8" x2="146" y1="539" y2="539"/><line style="stroke:#181818;stroke-width:0.5;" x1="8" x2="146" y1="547" y2="547"/><ellipse cx="18" cy="560.6484" fill="#84BE84" rx="3" ry="3" style="stroke:#038048;stroke-width:1.0;"/><text fill="#000000" font-family="sans-serif" font-size="14" lengthAdjust="spacing" textLength="114" x="27" y="563.9951">void printData()</text></g><!--class World--><g id="elem_World"><rect codeLine="4" fill="#F1F1F1" height="48" id="World" rx="2.5" ry="2.5" style="stroke:#181818;stroke-width:0.5;" width="74" x="283" y="7"/><ellipse cx="298" cy="23" fill="#ADD1B2" rx="11" ry="11" style="stroke:#181818;stroke-width:1.0;"/><path d="M300.3438,18.6719 C299.4063,18.2344 298.8125,18.0938 297.9375,18.0938 C295.3125,18.0938 293.3125,20.1719 293.3125,22.8906 L293.3125,24.0156 C293.3125,26.5938 295.4219,28.4844 298.3125,28.4844 C299.5313,28.4844 300.6875,28.1875 301.4375,27.6406 C302.0156,27.2344 302.3438,26.7813 302.3438,26.3906 C302.3438,25.9375 301.9531,25.5469 301.4844,25.5469 C301.2656,25.5469 301.0625,25.625 300.875,25.8125 C300.4219,26.2969 300.4219,26.2969 300.2344,26.3906 C299.8125,26.6563 299.125,26.7813 298.3594,26.7813 C296.3125,26.7813 295.0156,25.6875 295.0156,23.9844 L295.0156,22.8906 C295.0156,21.1094 296.2656,19.7969 298,19.7969 C298.5781,19.7969 299.1875,19.9531 299.6563,20.2031 C300.1406,20.4844 300.3125,20.7031 300.4063,21.1094 C300.4688,21.5156 300.5,21.6406 300.6406,21.7656 C300.7813,21.9063 301.0156,22.0156 301.2344,22.0156 C301.5,22.0156 301.7656,21.875 301.9375,21.6563 C302.0469,21.5 302.0781,21.3125 302.0781,20.8906 L302.0781,19.4688 C302.0781,19.0313 302.0625,18.9063 301.9688,18.75 C301.8125,18.4844 301.5313,18.3438 301.2344,18.3438 C300.9375,18.3438 300.7344,18.4375 300.5156,18.75 L300.3438,18.6719 Z " fill="#000000"/><text fill="#000000" font-family="sans-serif" font-size="14" lengthAdjust="spacing" textLength="42" x="312" y="27.8467">World</text><line style="stroke:#181818;stroke-width:0.5;" x1="284" x2="356" y1="39" y2="39"/><line style="stroke:#181818;stroke-width:0.5;" x1="284" x2="356" y1="47" y2="47"/></g><!--class Client--><g id="elem_Client"><rect codeLine="5" fill="#F1F1F1" height="48" id="Client" rx="2.5" ry="2.5" style="stroke:#181818;stroke-width:0.5;" width="75" x="282.5" y="132"/><ellipse cx="297.5" cy="148" fill="#ADD1B2" rx="11" ry="11" style="stroke:#181818;stroke-width:1.0;"/><path d="M299.8438,143.6719 C298.9063,143.2344 298.3125,143.0938 297.4375,143.0938 C294.8125,143.0938 292.8125,145.1719 292.8125,147.8906 L292.8125,149.0156 C292.8125,151.5938 294.9219,153.4844 297.8125,153.4844 C299.0313,153.4844 300.1875,153.1875 300.9375,152.6406 C301.5156,152.2344 301.8438,151.7813 301.8438,151.3906 C301.8438,150.9375 301.4531,150.5469 300.9844,150.5469 C300.7656,150.5469 300.5625,150.625 300.375,150.8125 C299.9219,151.2969 299.9219,151.2969 299.7344,151.3906 C299.3125,151.6563 298.625,151.7813 297.8594,151.7813 C295.8125,151.7813 294.5156,150.6875 294.5156,148.9844 L294.5156,147.8906 C294.5156,146.1094 295.7656,144.7969 297.5,144.7969 C298.0781,144.7969 298.6875,144.9531 299.1563,145.2031 C299.6406,145.4844 299.8125,145.7031 299.9063,146.1094 C299.9688,146.5156 300,146.6406 300.1406,146.7656 C300.2813,146.9063 300.5156,147.0156 300.7344,147.0156 C301,147.0156 301.2656,146.875 301.4375,146.6563 C301.5469,146.5 301.5781,146.3125 301.5781,145.8906 L301.5781,144.4688 C301.5781,144.0313 301.5625,143.9063 301.4688,143.75 C301.3125,143.4844 301.0313,143.3438 300.7344,143.3438 C300.4375,143.3438 300.2344,143.4375 300.0156,143.75 L299.8438,143.6719 Z " fill="#000000"/><text fill="#000000" font-family="sans-serif" font-size="14" lengthAdjust="spacing" textLength="43" x="311.5" y="152.8467">Client</text><line style="stroke:#181818;stroke-width:0.5;" x1="283.5" x2="356.5" y1="164" y2="164"/><line style="stroke:#181818;stroke-width:0.5;" x1="283.5" x2="356.5" y1="172" y2="172"/></g><!--class Survey--><g id="elem_Survey"><rect codeLine="6" fill="#F1F1F1" height="48" id="Survey" rx="2.5" ry="2.5" style="stroke:#181818;stroke-width:0.5;" width="80" x="280" y="257"/><ellipse cx="295" cy="273" fill="#ADD1B2" rx="11" ry="11" style="stroke:#181818;stroke-width:1.0;"/><path d="M297.3438,268.6719 C296.4063,268.2344 295.8125,268.0938 294.9375,268.0938 C292.3125,268.0938 290.3125,270.1719 290.3125,272.8906 L290.3125,274.0156 C290.3125,276.5938 292.4219,278.4844 295.3125,278.4844 C296.5313,278.4844 297.6875,278.1875 298.4375,277.6406 C299.0156,277.2344 299.3438,276.7813 299.3438,276.3906 C299.3438,275.9375 298.9531,275.5469 298.4844,275.5469 C298.2656,275.5469 298.0625,275.625 297.875,275.8125 C297.4219,276.2969 297.4219,276.2969 297.2344,276.3906 C296.8125,276.6563 296.125,276.7813 295.3594,276.7813 C293.3125,276.7813 292.0156,275.6875 292.0156,273.9844 L292.0156,272.8906 C292.0156,271.1094 293.2656,269.7969 295,269.7969 C295.5781,269.7969 296.1875,269.9531 296.6563,270.2031 C297.1406,270.4844 297.3125,270.7031 297.4063,271.1094 C297.4688,271.5156 297.5,271.6406 297.6406,271.7656 C297.7813,271.9063 298.0156,272.0156 298.2344,272.0156 C298.5,272.0156 298.7656,271.875 298.9375,271.6563 C299.0469,271.5 299.0781,271.3125 299.0781,270.8906 L299.0781,269.4688 C299.0781,269.0313 299.0625,268.9063 298.9688,268.75 C298.8125,268.4844 298.5313,268.3438 298.2344,268.3438 C297.9375,268.3438 297.7344,268.4375 297.5156,268.75 L297.3438,268.6719 Z " fill="#000000"/><text fill="#000000" font-family="sans-serif" font-size="14" lengthAdjust="spacing" textLength="48" x="309" y="277.8467">Survey</text><line style="stroke:#181818;stroke-width:0.5;" x1="281" x2="359" y1="289" y2="289"/><line style="stroke:#181818;stroke-width:0.5;" x1="281" x2="359" y1="297" y2="297"/></g><!--class Day--><g id="elem_Day"><rect codeLine="7" fill="#F1F1F1" height="48" id="Day" rx="2.5" ry="2.5" style="stroke:#181818;stroke-width:0.5;" width="59" x="200.5" y="382"/><ellipse cx="215.5" cy="398" fill="#ADD1B2" rx="11" ry="11" style="stroke:#181818;stroke-width:1.0;"/><path d="M217.8438,393.6719 C216.9063,393.2344 216.3125,393.0938 215.4375,393.0938 C212.8125,393.0938 210.8125,395.1719 210.8125,397.8906 L210.8125,399.0156 C210.8125,401.5938 212.9219,403.4844 215.8125,403.4844 C217.0313,403.4844 218.1875,403.1875 218.9375,402.6406 C219.5156,402.2344 219.8438,401.7813 219.8438,401.3906 C219.8438,400.9375 219.4531,400.5469 218.9844,400.5469 C218.7656,400.5469 218.5625,400.625 218.375,400.8125 C217.9219,401.2969 217.9219,401.2969 217.7344,401.3906 C217.3125,401.6563 216.625,401.7813 215.8594,401.7813 C213.8125,401.7813 212.5156,400.6875 212.5156,398.9844 L212.5156,397.8906 C212.5156,396.1094 213.7656,394.7969 215.5,394.7969 C216.0781,394.7969 216.6875,394.9531 217.1563,395.2031 C217.6406,395.4844 217.8125,395.7031 217.9063,396.1094 C217.9688,396.5156 218,396.6406 218.1406,396.7656 C218.2813,396.9063 218.5156,397.0156 218.7344,397.0156 C219,397.0156 219.2656,396.875 219.4375,396.6563 C219.5469,396.5 219.5781,396.3125 219.5781,395.8906 L219.5781,394.4688 C219.5781,394.0313 219.5625,393.9063 219.4688,393.75 C219.3125,393.4844 219.0313,393.3438 218.7344,393.3438 C218.4375,393.3438 218.2344,393.4375 218.0156,393.75 L217.8438,393.6719 Z " fill="#000000"/><text fill="#000000" font-family="sans-serif" font-size="14" lengthAdjust="spacing" textLength="27" x="229.5" y="402.8467">Day</text><line style="stroke:#181818;stroke-width:0.5;" x1="201.5" x2="258.5" y1="414" y2="414"/><line style="stroke:#181818;stroke-width:0.5;" x1="201.5" x2="258.5" y1="422" y2="422"/></g><!--class Brunch--><g id="elem_Brunch"><rect codeLine="8" fill="#F1F1F1" height="48" id="Brunch" rx="2.5" ry="2.5" style="stroke:#181818;stroke-width:0.5;" width="82" x="182" y="515"/><ellipse cx="197" cy="531" fill="#ADD1B2" rx="11" ry="11" style="stroke:#181818;stroke-width:1.0;"/><path d="M199.3438,526.6719 C198.4063,526.2344 197.8125,526.0938 196.9375,526.0938 C194.3125,526.0938 192.3125,528.1719 192.3125,530.8906 L192.3125,532.0156 C192.3125,534.5938 194.4219,536.4844 197.3125,536.4844 C198.5313,536.4844 199.6875,536.1875 200.4375,535.6406 C201.0156,535.2344 201.3438,534.7813 201.3438,534.3906 C201.3438,533.9375 200.9531,533.5469 200.4844,533.5469 C200.2656,533.5469 200.0625,533.625 199.875,533.8125 C199.4219,534.2969 199.4219,534.2969 199.2344,534.3906 C198.8125,534.6563 198.125,534.7813 197.3594,534.7813 C195.3125,534.7813 194.0156,533.6875 194.0156,531.9844 L194.0156,530.8906 C194.0156,529.1094 195.2656,527.7969 197,527.7969 C197.5781,527.7969 198.1875,527.9531 198.6563,528.2031 C199.1406,528.4844 199.3125,528.7031 199.4063,529.1094 C199.4688,529.5156 199.5,529.6406 199.6406,529.7656 C199.7813,529.9063 200.0156,530.0156 200.2344,530.0156 C200.5,530.0156 200.7656,529.875 200.9375,529.6563 C201.0469,529.5 201.0781,529.3125 201.0781,528.8906 L201.0781,527.4688 C201.0781,527.0313 201.0625,526.9063 200.9688,526.75 C200.8125,526.4844 200.5313,526.3438 200.2344,526.3438 C199.9375,526.3438 199.7344,526.4375 199.5156,526.75 L199.3438,526.6719 Z " fill="#000000"/><text fill="#000000" font-family="sans-serif" font-size="14" lengthAdjust="spacing" textLength="50" x="211" y="535.8467">Brunch</text><line style="stroke:#181818;stroke-width:0.5;" x1="183" x2="263" y1="547" y2="547"/><line style="stroke:#181818;stroke-width:0.5;" x1="183" x2="263" y1="555" y2="555"/></g><!--class Food--><g id="elem_Food"><rect codeLine="9" fill="#F1F1F1" height="48" id="Food" rx="2.5" ry="2.5" style="stroke:#181818;stroke-width:0.5;" width="67" x="90.5" y="648"/><ellipse cx="105.5" cy="664" fill="#ADD1B2" rx="11" ry="11" style="stroke:#181818;stroke-width:1.0;"/><path d="M107.8438,659.6719 C106.9063,659.2344 106.3125,659.0938 105.4375,659.0938 C102.8125,659.0938 100.8125,661.1719 100.8125,663.8906 L100.8125,665.0156 C100.8125,667.5938 102.9219,669.4844 105.8125,669.4844 C107.0313,669.4844 108.1875,669.1875 108.9375,668.6406 C109.5156,668.2344 109.8438,667.7813 109.8438,667.3906 C109.8438,666.9375 109.4531,666.5469 108.9844,666.5469 C108.7656,666.5469 108.5625,666.625 108.375,666.8125 C107.9219,667.2969 107.9219,667.2969 107.7344,667.3906 C107.3125,667.6563 106.625,667.7813 105.8594,667.7813 C103.8125,667.7813 102.5156,666.6875 102.5156,664.9844 L102.5156,663.8906 C102.5156,662.1094 103.7656,660.7969 105.5,660.7969 C106.0781,660.7969 106.6875,660.9531 107.1563,661.2031 C107.6406,661.4844 107.8125,661.7031 107.9063,662.1094 C107.9688,662.5156 108,662.6406 108.1406,662.7656 C108.2813,662.9063 108.5156,663.0156 108.7344,663.0156 C109,663.0156 109.2656,662.875 109.4375,662.6563 C109.5469,662.5 109.5781,662.3125 109.5781,661.8906 L109.5781,660.4688 C109.5781,660.0313 109.5625,659.9063 109.4688,659.75 C109.3125,659.4844 109.0313,659.3438 108.7344,659.3438 C108.4375,659.3438 108.2344,659.4375 108.0156,659.75 L107.8438,659.6719 Z " fill="#000000"/><text fill="#000000" font-family="sans-serif" font-size="14" lengthAdjust="spacing" textLength="35" x="119.5" y="668.8467">Food</text><line style="stroke:#181818;stroke-width:0.5;" x1="91.5" x2="156.5" y1="680" y2="680"/><line style="stroke:#181818;stroke-width:0.5;" x1="91.5" x2="156.5" y1="688" y2="688"/></g><!--class Nutrient--><g id="elem_Nutrient"><rect codeLine="10" fill="#F1F1F1" height="48" id="Nutrient" rx="2.5" ry="2.5" style="stroke:#181818;stroke-width:0.5;" width="92" x="70" y="773"/><ellipse cx="85" cy="789" fill="#ADD1B2" rx="11" ry="11" style="stroke:#181818;stroke-width:1.0;"/><path d="M87.3438,784.6719 C86.4063,784.2344 85.8125,784.0938 84.9375,784.0938 C82.3125,784.0938 80.3125,786.1719 80.3125,788.8906 L80.3125,790.0156 C80.3125,792.5938 82.4219,794.4844 85.3125,794.4844 C86.5313,794.4844 87.6875,794.1875 88.4375,793.6406 C89.0156,793.2344 89.3438,792.7813 89.3438,792.3906 C89.3438,791.9375 88.9531,791.5469 88.4844,791.5469 C88.2656,791.5469 88.0625,791.625 87.875,791.8125 C87.4219,792.2969 87.4219,792.2969 87.2344,792.3906 C86.8125,792.6563 86.125,792.7813 85.3594,792.7813 C83.3125,792.7813 82.0156,791.6875 82.0156,789.9844 L82.0156,788.8906 C82.0156,787.1094 83.2656,785.7969 85,785.7969 C85.5781,785.7969 86.1875,785.9531 86.6563,786.2031 C87.1406,786.4844 87.3125,786.7031 87.4063,787.1094 C87.4688,787.5156 87.5,787.6406 87.6406,787.7656 C87.7813,787.9063 88.0156,788.0156 88.2344,788.0156 C88.5,788.0156 88.7656,787.875 88.9375,787.6563 C89.0469,787.5 89.0781,787.3125 89.0781,786.8906 L89.0781,785.4688 C89.0781,785.0313 89.0625,784.9063 88.9688,784.75 C88.8125,784.4844 88.5313,784.3438 88.2344,784.3438 C87.9375,784.3438 87.7344,784.4375 87.5156,784.75 L87.3438,784.6719 Z " fill="#000000"/><text fill="#000000" font-family="sans-serif" font-size="14" lengthAdjust="spacing" textLength="60" x="99" y="793.8467">Nutrient</text><line style="stroke:#181818;stroke-width:0.5;" x1="71" x2="161" y1="805" y2="805"/><line style="stroke:#181818;stroke-width:0.5;" x1="71" x2="161" y1="813" y2="813"/></g><!--class Tree--><g id="elem_Tree"><rect codeLine="11" fill="#F1F1F1" height="48" id="Tree" rx="2.5" ry="2.5" style="stroke:#181818;stroke-width:0.5;" width="76" x="299" y="515"/><ellipse cx="314" cy="531" fill="#ADD1B2" rx="11" ry="11" style="stroke:#181818;stroke-width:1.0;"/><path d="M316.3438,526.6719 C315.4063,526.2344 314.8125,526.0938 313.9375,526.0938 C311.3125,526.0938 309.3125,528.1719 309.3125,530.8906 L309.3125,532.0156 C309.3125,534.5938 311.4219,536.4844 314.3125,536.4844 C315.5313,536.4844 316.6875,536.1875 317.4375,535.6406 C318.0156,535.2344 318.3438,534.7813 318.3438,534.3906 C318.3438,533.9375 317.9531,533.5469 317.4844,533.5469 C317.2656,533.5469 317.0625,533.625 316.875,533.8125 C316.4219,534.2969 316.4219,534.2969 316.2344,534.3906 C315.8125,534.6563 315.125,534.7813 314.3594,534.7813 C312.3125,534.7813 311.0156,533.6875 311.0156,531.9844 L311.0156,530.8906 C311.0156,529.1094 312.2656,527.7969 314,527.7969 C314.5781,527.7969 315.1875,527.9531 315.6563,528.2031 C316.1406,528.4844 316.3125,528.7031 316.4063,529.1094 C316.4688,529.5156 316.5,529.6406 316.6406,529.7656 C316.7813,529.9063 317.0156,530.0156 317.2344,530.0156 C317.5,530.0156 317.7656,529.875 317.9375,529.6563 C318.0469,529.5 318.0781,529.3125 318.0781,528.8906 L318.0781,527.4688 C318.0781,527.0313 318.0625,526.9063 317.9688,526.75 C317.8125,526.4844 317.5313,526.3438 317.2344,526.3438 C316.9375,526.3438 316.7344,526.4375 316.5156,526.75 L316.3438,526.6719 Z " fill="#000000"/><text fill="#000000" font-family="sans-serif" font-size="14" lengthAdjust="spacing" textLength="33" x="328" y="535.8467">Tree</text><rect fill="#FFFFFF" height="15.9688" style="stroke:#181818;stroke-width:1.0;stroke-dasharray:2.0,2.0;" width="9" x="369" y="512"/><text fill="#000000" font-family="sans-serif" font-size="12" font-style="italic" lengthAdjust="spacing" textLength="7" x="370" y="524.1387">T</text><line style="stroke:#181818;stroke-width:0.5;" x1="300" x2="374" y1="547" y2="547"/><line style="stroke:#181818;stroke-width:0.5;" x1="300" x2="374" y1="555" y2="555"/></g><!--class Node--><g id="elem_Node"><rect codeLine="12" fill="#F1F1F1" height="48" id="Node" rx="2.5" ry="2.5" style="stroke:#181818;stroke-width:0.5;" width="80" x="254" y="898"/><ellipse cx="269" cy="914" fill="#ADD1B2" rx="11" ry="11" style="stroke:#181818;stroke-width:1.0;"/><path d="M271.3438,909.6719 C270.4063,909.2344 269.8125,909.0938 268.9375,909.0938 C266.3125,909.0938 264.3125,911.1719 264.3125,913.8906 L264.3125,915.0156 C264.3125,917.5938 266.4219,919.4844 269.3125,919.4844 C270.5313,919.4844 271.6875,919.1875 272.4375,918.6406 C273.0156,918.2344 273.3438,917.7813 273.3438,917.3906 C273.3438,916.9375 272.9531,916.5469 272.4844,916.5469 C272.2656,916.5469 272.0625,916.625 271.875,916.8125 C271.4219,917.2969 271.4219,917.2969 271.2344,917.3906 C270.8125,917.6563 270.125,917.7813 269.3594,917.7813 C267.3125,917.7813 266.0156,916.6875 266.0156,914.9844 L266.0156,913.8906 C266.0156,912.1094 267.2656,910.7969 269,910.7969 C269.5781,910.7969 270.1875,910.9531 270.6563,911.2031 C271.1406,911.4844 271.3125,911.7031 271.4063,912.1094 C271.4688,912.5156 271.5,912.6406 271.6406,912.7656 C271.7813,912.9063 272.0156,913.0156 272.2344,913.0156 C272.5,913.0156 272.7656,912.875 272.9375,912.6563 C273.0469,912.5 273.0781,912.3125 273.0781,911.8906 L273.0781,910.4688 C273.0781,910.0313 273.0625,909.9063 272.9688,909.75 C272.8125,909.4844 272.5313,909.3438 272.2344,909.3438 C271.9375,909.3438 271.7344,909.4375 271.5156,909.75 L271.3438,909.6719 Z " fill="#000000"/><text fill="#000000" font-family="sans-serif" font-size="14" lengthAdjust="spacing" textLength="37" x="283" y="918.8467">Node</text><rect fill="#FFFFFF" height="15.9688" style="stroke:#181818;stroke-width:1.0;stroke-dasharray:2.0,2.0;" width="9" x="328" y="895"/><text fill="#000000" font-family="sans-serif" font-size="12" font-style="italic" lengthAdjust="spacing" textLength="7" x="329" y="907.1387">T</text><line style="stroke:#181818;stroke-width:0.5;" x1="255" x2="333" y1="930" y2="930"/><line style="stroke:#181818;stroke-width:0.5;" x1="255" x2="333" y1="938" y2="938"/></g><!--class List--><g id="elem_List"><rect codeLine="13" fill="#F1F1F1" height="48" id="List" rx="2.5" ry="2.5" style="stroke:#181818;stroke-width:0.5;" width="69" x="201.5" y="773"/><ellipse cx="216.5" cy="789" fill="#ADD1B2" rx="11" ry="11" style="stroke:#181818;stroke-width:1.0;"/><path d="M218.8438,784.6719 C217.9063,784.2344 217.3125,784.0938 216.4375,784.0938 C213.8125,784.0938 211.8125,786.1719 211.8125,788.8906 L211.8125,790.0156 C211.8125,792.5938 213.9219,794.4844 216.8125,794.4844 C218.0313,794.4844 219.1875,794.1875 219.9375,793.6406 C220.5156,793.2344 220.8438,792.7813 220.8438,792.3906 C220.8438,791.9375 220.4531,791.5469 219.9844,791.5469 C219.7656,791.5469 219.5625,791.625 219.375,791.8125 C218.9219,792.2969 218.9219,792.2969 218.7344,792.3906 C218.3125,792.6563 217.625,792.7813 216.8594,792.7813 C214.8125,792.7813 213.5156,791.6875 213.5156,789.9844 L213.5156,788.8906 C213.5156,787.1094 214.7656,785.7969 216.5,785.7969 C217.0781,785.7969 217.6875,785.9531 218.1563,786.2031 C218.6406,786.4844 218.8125,786.7031 218.9063,787.1094 C218.9688,787.5156 219,787.6406 219.1406,787.7656 C219.2813,787.9063 219.5156,788.0156 219.7344,788.0156 C220,788.0156 220.2656,787.875 220.4375,787.6563 C220.5469,787.5 220.5781,787.3125 220.5781,786.8906 L220.5781,785.4688 C220.5781,785.0313 220.5625,784.9063 220.4688,784.75 C220.3125,784.4844 220.0313,784.3438 219.7344,784.3438 C219.4375,784.3438 219.2344,784.4375 219.0156,784.75 L218.8438,784.6719 Z " fill="#000000"/><text fill="#000000" font-family="sans-serif" font-size="14" lengthAdjust="spacing" textLength="26" x="230.5" y="793.8467">List</text><rect fill="#FFFFFF" height="15.9688" style="stroke:#181818;stroke-width:1.0;stroke-dasharray:2.0,2.0;" width="9" x="264.5" y="770"/><text fill="#000000" font-family="sans-serif" font-size="12" font-style="italic" lengthAdjust="spacing" textLength="7" x="265.5" y="782.1387">T</text><line style="stroke:#181818;stroke-width:0.5;" x1="202.5" x2="269.5" y1="805" y2="805"/><line style="stroke:#181818;stroke-width:0.5;" x1="202.5" x2="269.5" y1="813" y2="813"/></g><!--link World to Client--><g id="link_World_Client"><path codeLine="16" d="M320,55.135 C320,77.126 320,110.012 320,131.968 " fill="none" id="World-Client" style="stroke:#181818;stroke-width:1.0;"/><text fill="#000000" font-family="sans-serif" font-size="13" lengthAdjust="spacing" textLength="23" x="321" y="98.0669">has</text></g><!--link Client to Survey--><g id="link_Client_Survey"><path codeLine="17" d="M320,180.135 C320,202.126 320,235.012 320,256.968 " fill="none" id="Client-Survey" style="stroke:#181818;stroke-width:1.0;"/><text fill="#000000" font-family="sans-serif" font-size="13" lengthAdjust="spacing" textLength="23" x="321" y="223.0669">has</text></g><!--link Survey to Day--><g id="link_Survey_Day"><path codeLine="18" d="M303.072,305.135 C286.981,327.126 262.918,360.012 246.852,381.968 " fill="none" id="Survey-Day" style="stroke:#181818;stroke-width:1.0;"/><text fill="#000000" font-family="sans-serif" font-size="13" lengthAdjust="spacing" textLength="23" x="282" y="348.0669">has</text><text fill="#000000" font-family="sans-serif" font-size="13" lengthAdjust="spacing" textLength="23" x="225.2235" y="370.9718">1..*</text></g><!--link Survey to Tree--><g id="link_Survey_Tree"><path codeLine="19" d="M321.539,305.17 C324.767,353.786 332.217,465.967 335.453,514.698 " fill="none" id="Survey-Tree" style="stroke:#181818;stroke-width:1.0;stroke-dasharray:7.0,7.0;"/><text fill="#000000" font-family="sans-serif" font-size="13" lengthAdjust="spacing" textLength="30" x="331" y="410.5669">uses</text></g><!--link Day to Tree--><g id="link_Day_Tree"><path codeLine="20" d="M246.327,430.115 C256.314,443.962 269.528,461.775 282,477 C292.572,489.906 304.969,503.757 315.314,514.993 " fill="none" id="Day-Tree" style="stroke:#181818;stroke-width:1.0;stroke-dasharray:7.0,7.0;"/><text fill="#000000" font-family="sans-serif" font-size="13" lengthAdjust="spacing" textLength="30" x="283" y="473.0669">uses</text></g><!--link Day to Brunch--><g id="link_Day_Brunch"><path codeLine="21" d="M223.013,430.258 C220.595,439.433 218.194,450.124 217,460 C214.784,478.338 216.616,499.205 218.82,514.739 " fill="none" id="Day-Brunch" style="stroke:#181818;stroke-width:1.0;"/><text fill="#000000" font-family="sans-serif" font-size="13" lengthAdjust="spacing" textLength="23" x="218" y="473.0669">has</text><text fill="#000000" font-family="sans-serif" font-size="13" lengthAdjust="spacing" textLength="23" x="191.998" y="504.0803">1..*</text></g><!--link Day to DataProvider--><g id="link_Day_DataProvider"><path codeLine="22" d="M202.999,430.119 C178.035,451.493 140.746,483.42 113.207,507 " fill="none" id="Day-DataProvider" style="stroke:#181818;stroke-width:1.0;stroke-dasharray:7.0,7.0;"/></g><!--link Brunch to List--><g id="link_Brunch_List"><path codeLine="23" d="M224.177,563.17 C226.645,611.786 232.342,723.967 234.817,772.698 " fill="none" id="Brunch-List" style="stroke:#181818;stroke-width:1.0;stroke-dasharray:7.0,7.0;"/><text fill="#000000" font-family="sans-serif" font-size="13" lengthAdjust="spacing" textLength="30" x="232" y="676.5669">uses</text></g><!--link Brunch to Food--><g id="link_Brunch_Food"><path codeLine="24" d="M205.529,563.119 C187.544,586.917 159.673,623.797 141.63,647.672 " fill="none" id="Brunch-Food" style="stroke:#181818;stroke-width:1.0;"/><text fill="#000000" font-family="sans-serif" font-size="13" lengthAdjust="spacing" textLength="23" x="178" y="614.0669">has</text><text fill="#000000" font-family="sans-serif" font-size="13" lengthAdjust="spacing" textLength="23" x="120.1242" y="636.997">1..*</text></g><!--link DataProvider to Brunch--><g id="link_DataProvider_Brunch"><path codeLine="25" d="M147.148,539 C158.704,539 170.259,539 181.815,539 " fill="none" id="DataProvider-Brunch" style="stroke:#181818;stroke-width:1.0;stroke-dasharray:7.0,7.0;"/></g><!--link Food to List--><g id="link_Food_List"><path codeLine="26" d="M140.314,696.186 C150.566,710.22 164.387,728.203 178,743 C187.512,753.34 198.759,763.939 208.805,772.915 " fill="none" id="Food-List" style="stroke:#181818;stroke-width:1.0;stroke-dasharray:7.0,7.0;"/><text fill="#000000" font-family="sans-serif" font-size="13" lengthAdjust="spacing" textLength="30" x="179" y="739.0669">uses</text></g><!--link Food to Nutrient--><g id="link_Food_Nutrient"><path codeLine="27" d="M118.144,696.059 C116.078,705.301 114.017,716.091 113,726 C111.397,741.609 112.172,759.262 113.334,772.935 " fill="none" id="Food-Nutrient" style="stroke:#181818;stroke-width:1.0;"/><text fill="#000000" font-family="sans-serif" font-size="13" lengthAdjust="spacing" textLength="23" x="114" y="739.0669">has</text><text fill="#000000" font-family="sans-serif" font-size="13" lengthAdjust="spacing" textLength="23" x="86.7042" y="761.9304">1..*</text></g><!--link DataProvider to Food--><g id="link_DataProvider_Food"><path codeLine="28" d="M88.1383,571.045 C96.6078,594.651 108.072,626.605 115.736,647.966 " fill="none" id="DataProvider-Food" style="stroke:#181818;stroke-width:1.0;stroke-dasharray:7.0,7.0;"/></g><!--link Tree to Node--><g id="link_Tree_Node"><path codeLine="29" d="M334.883,563.105 C329.893,616.742 316.7,753.834 302,868 C300.74,877.7832 299.152,888.5514 297.724,897.8116 " fill="none" id="Tree-Node" style="stroke:#181818;stroke-width:1.0;"/><text fill="#000000" font-family="sans-serif" font-size="13" lengthAdjust="spacing" textLength="23" x="320" y="739.0669">has</text></g><!--link List to Node--><g id="link_List_Node"><path codeLine="30" d="M246.909,821.135 C257.279,843.126 272.786,876.0123 283.14,897.9684 " fill="none" id="List-Node" style="stroke:#181818;stroke-width:1.0;"/><text fill="#000000" font-family="sans-serif" font-size="13" lengthAdjust="spacing" textLength="23" x="270" y="864.0669">has</text></g><!--SRC=[RP3D2eCm48JlUOhGKtzGwBMK7bhfgPH2XPw3hXWGKpPHAD9tRn9NKyMRCplxELbP6y12PC0JOSG3LIjpm8xn7M-LpFaRPMtSQBrXNvPLGcl-KbZbtQ0kbOJQZFBPO0kVKIOYV9-ngRDob5Ub0kNU69nmKWGufgSGKFb4twGslMRC5-9HH5tuWPT2CnBMxZkHJSBQgtqSRrUkudGKn_xlrcmqQERc2rO0zEyY1gN_hyaeO6tNUe2G6pZk84GPDYeep0pcKpEKzm9eE2R1-eq5b7-INNEtfQodJgmV]--></g></svg>