<?xml version="1.0" encoding="UTF-8" standalone="no"?><svg xmlns="http://www.w3.org/2000/svg" xmlns:xlink="http://www.w3.org/1999/xlink" contentStyleType="text/css" height="1528px" preserveAspectRatio="none" style="width:1150px;height:1528px;background:#FFFFFF;" version="1.1" viewBox="0 0 1150 1528" width="1150px" zoomAndPan="magnify"><defs/><g><!--MD5=[027ebfd53c01aea08f474edbf35d0797]
cluster Models--><g id="cluster_Models"><path d="M803.5,695 L856.5,695 A3.75,3.75 0 0 1 859,697.5 L866,718.6094 L1140.5,718.6094 A2.5,2.5 0 0 1 1143,721.1094 L1143,1518.5 A2.5,2.5 0 0 1 1140.5,1521 L803.5,1521 A2.5,2.5 0 0 1 801,1518.5 L801,697.5 A2.5,2.5 0 0 1 803.5,695 " fill="none" style="stroke:#000000;stroke-width:1.5;"/><line style="stroke:#000000;stroke-width:1.5;" x1="801" x2="866" y1="718.6094" y2="718.6094"/><text fill="#000000" font-family="sans-serif" font-size="14" font-weight="bold" lengthAdjust="spacing" textLength="52" x="805" y="711.5332">Models</text></g><!--MD5=[9dd4eaa2771a2ff8dbee15cc1e732cab]
class Patient--><g id="elem_Patient"><rect codeLine="5" fill="#F1F1F1" height="100.8281" id="Patient" rx="2.5" ry="2.5" style="stroke:#181818;stroke-width:0.5;" width="238" x="857" y="763"/><ellipse cx="949.75" cy="779" fill="#ADD1B2" rx="11" ry="11" style="stroke:#181818;stroke-width:1.0;"/><path d="M952.5156,774.875 Q952.6719,774.6563 952.8594,774.5469 Q953.0469,774.4375 953.2656,774.4375 Q953.6406,774.4375 953.875,774.7031 Q954.1094,774.9531 954.1094,775.5625 L954.1094,777.0156 Q954.1094,777.625 953.875,777.8906 Q953.6406,778.1563 953.2656,778.1563 Q952.9219,778.1563 952.7188,777.9531 Q952.5156,777.7656 952.4063,777.25 Q952.3594,776.8906 952.1719,776.7031 Q951.8438,776.3281 951.2344,776.1094 Q950.625,775.8906 950,775.8906 Q949.2344,775.8906 948.5938,776.2188 Q947.9688,776.5469 947.4688,777.2969 Q946.9844,778.0469 946.9844,779.0781 L946.9844,780.1719 Q946.9844,781.4063 947.875,782.2344 Q948.7656,783.0469 950.3594,783.0469 Q951.2969,783.0469 951.9531,782.7969 Q952.3438,782.6406 952.7656,782.2031 Q953.0313,781.9375 953.1719,781.8594 Q953.3281,781.7813 953.5313,781.7813 Q953.8594,781.7813 954.1094,782.0469 Q954.375,782.2969 954.375,782.6406 Q954.375,782.9844 954.0313,783.3906 Q953.5313,783.9688 952.7344,784.2969 Q951.6563,784.75 950.3594,784.75 Q948.8438,784.75 947.6406,784.125 Q946.6563,783.625 945.9688,782.5625 Q945.2813,781.4844 945.2813,780.2031 L945.2813,779.0469 Q945.2813,777.7188 945.8906,776.5781 Q946.5156,775.4219 947.6094,774.8125 Q948.7031,774.1875 949.9375,774.1875 Q950.6719,774.1875 951.3125,774.3594 Q951.9688,774.5156 952.5156,774.875 Z " fill="#000000"/><text fill="#000000" font-family="sans-serif" font-size="14" lengthAdjust="spacing" textLength="44" x="970.25" y="784.7285">Patient</text><line style="stroke:#181818;stroke-width:0.5;" x1="858" x2="1094" y1="795" y2="795"/><rect fill="none" height="6" style="stroke:#C82930;stroke-width:1.0;" width="6" x="865" y="806.3047"/><text fill="#000000" font-family="sans-serif" font-size="14" lengthAdjust="spacing" textLength="143" x="877" y="813.5332">discharge_date: String</text><rect fill="none" height="6" style="stroke:#C82930;stroke-width:1.0;" width="6" x="865" y="823.9141"/><text fill="#000000" font-family="sans-serif" font-size="14" lengthAdjust="spacing" textLength="139" x="877" y="831.1426">surveys: List&lt;Survey&gt;</text><line style="stroke:#181818;stroke-width:0.5;" x1="858" x2="1094" y1="838.2188" y2="838.2188"/><ellipse cx="868" cy="852.5234" fill="#84BE84" rx="3" ry="3" style="stroke:#038048;stroke-width:1.0;"/><text fill="#000000" font-family="sans-serif" font-size="14" lengthAdjust="spacing" textLength="212" x="877" y="856.752">add_survey(survey: Survey): void</text></g><!--MD5=[3145b4be7c5005b24cda6f18a1d594b0]
class Survey--><g id="elem_Survey"><rect codeLine="11" fill="#F1F1F1" height="83.2188" id="Survey" rx="2.5" ry="2.5" style="stroke:#181818;stroke-width:0.5;" width="181" x="885.5" y="942"/><ellipse cx="949.75" cy="958" fill="#ADD1B2" rx="11" ry="11" style="stroke:#181818;stroke-width:1.0;"/><path d="M952.5156,953.875 Q952.6719,953.6563 952.8594,953.5469 Q953.0469,953.4375 953.2656,953.4375 Q953.6406,953.4375 953.875,953.7031 Q954.1094,953.9531 954.1094,954.5625 L954.1094,956.0156 Q954.1094,956.625 953.875,956.8906 Q953.6406,957.1563 953.2656,957.1563 Q952.9219,957.1563 952.7188,956.9531 Q952.5156,956.7656 952.4063,956.25 Q952.3594,955.8906 952.1719,955.7031 Q951.8438,955.3281 951.2344,955.1094 Q950.625,954.8906 950,954.8906 Q949.2344,954.8906 948.5938,955.2188 Q947.9688,955.5469 947.4688,956.2969 Q946.9844,957.0469 946.9844,958.0781 L946.9844,959.1719 Q946.9844,960.4063 947.875,961.2344 Q948.7656,962.0469 950.3594,962.0469 Q951.2969,962.0469 951.9531,961.7969 Q952.3438,961.6406 952.7656,961.2031 Q953.0313,960.9375 953.1719,960.8594 Q953.3281,960.7813 953.5313,960.7813 Q953.8594,960.7813 954.1094,961.0469 Q954.375,961.2969 954.375,961.6406 Q954.375,961.9844 954.0313,962.3906 Q953.5313,962.9688 952.7344,963.2969 Q951.6563,963.75 950.3594,963.75 Q948.8438,963.75 947.6406,963.125 Q946.6563,962.625 945.9688,961.5625 Q945.2813,960.4844 945.2813,959.2031 L945.2813,958.0469 Q945.2813,956.7188 945.8906,955.5781 Q946.5156,954.4219 947.6094,953.8125 Q948.7031,953.1875 949.9375,953.1875 Q950.6719,953.1875 951.3125,953.3594 Q951.9688,953.5156 952.5156,953.875 Z " fill="#000000"/><text fill="#000000" font-family="sans-serif" font-size="14" lengthAdjust="spacing" textLength="44" x="970.25" y="963.7285">Survey</text><line style="stroke:#181818;stroke-width:0.5;" x1="886.5" x2="1065.5" y1="974" y2="974"/><rect fill="none" height="6" style="stroke:#C82930;stroke-width:1.0;" width="6" x="893.5" y="985.3047"/><text fill="#000000" font-family="sans-serif" font-size="14" lengthAdjust="spacing" textLength="93" x="905.5" y="992.5332">days: List[Day]</text><line style="stroke:#181818;stroke-width:0.5;" x1="886.5" x2="1065.5" y1="999.6094" y2="999.6094"/><ellipse cx="896.5" cy="1013.9141" fill="#84BE84" rx="3" ry="3" style="stroke:#038048;stroke-width:1.0;"/><text fill="#000000" font-family="sans-serif" font-size="14" lengthAdjust="spacing" textLength="155" x="905.5" y="1018.1426">add_day(day: Day): void</text></g><!--MD5=[cff4d1dfabf1e80e04b31c5c669534b5]
class Day--><g id="elem_Day"><rect codeLine="16" fill="#F1F1F1" height="83.2188" id="Day" rx="2.5" ry="2.5" style="stroke:#181818;stroke-width:0.5;" width="224" x="864" y="1103"/><ellipse cx="959.25" cy="1119" fill="#ADD1B2" rx="11" ry="11" style="stroke:#181818;stroke-width:1.0;"/><path d="M962.0156,1114.875 Q962.1719,1114.6563 962.3594,1114.5469 Q962.5469,1114.4375 962.7656,1114.4375 Q963.1406,1114.4375 963.375,1114.7031 Q963.6094,1114.9531 963.6094,1115.5625 L963.6094,1117.0156 Q963.6094,1117.625 963.375,1117.8906 Q963.1406,1118.1563 962.7656,1118.1563 Q962.4219,1118.1563 962.2188,1117.9531 Q962.0156,1117.7656 961.9063,1117.25 Q961.8594,1116.8906 961.6719,1116.7031 Q961.3438,1116.3281 960.7344,1116.1094 Q960.125,1115.8906 959.5,1115.8906 Q958.7344,1115.8906 958.0938,1116.2188 Q957.4688,1116.5469 956.9688,1117.2969 Q956.4844,1118.0469 956.4844,1119.0781 L956.4844,1120.1719 Q956.4844,1121.4063 957.375,1122.2344 Q958.2656,1123.0469 959.8594,1123.0469 Q960.7969,1123.0469 961.4531,1122.7969 Q961.8438,1122.6406 962.2656,1122.2031 Q962.5313,1121.9375 962.6719,1121.8594 Q962.8281,1121.7813 963.0313,1121.7813 Q963.3594,1121.7813 963.6094,1122.0469 Q963.875,1122.2969 963.875,1122.6406 Q963.875,1122.9844 963.5313,1123.3906 Q963.0313,1123.9688 962.2344,1124.2969 Q961.1563,1124.75 959.8594,1124.75 Q958.3438,1124.75 957.1406,1124.125 Q956.1563,1123.625 955.4688,1122.5625 Q954.7813,1121.4844 954.7813,1120.2031 L954.7813,1119.0469 Q954.7813,1117.7188 955.3906,1116.5781 Q956.0156,1115.4219 957.1094,1114.8125 Q958.2031,1114.1875 959.4375,1114.1875 Q960.1719,1114.1875 960.8125,1114.3594 Q961.4688,1114.5156 962.0156,1114.875 Z " fill="#000000"/><text fill="#000000" font-family="sans-serif" font-size="14" lengthAdjust="spacing" textLength="25" x="979.75" y="1124.7285">Day</text><line style="stroke:#181818;stroke-width:0.5;" x1="865" x2="1087" y1="1135" y2="1135"/><rect fill="none" height="6" style="stroke:#C82930;stroke-width:1.0;" width="6" x="872" y="1146.3047"/><text fill="#000000" font-family="sans-serif" font-size="14" lengthAdjust="spacing" textLength="121" x="884" y="1153.5332">intakes: List[Intake]</text><line style="stroke:#181818;stroke-width:0.5;" x1="865" x2="1087" y1="1160.6094" y2="1160.6094"/><ellipse cx="875" cy="1174.9141" fill="#84BE84" rx="3" ry="3" style="stroke:#038048;stroke-width:1.0;"/><text fill="#000000" font-family="sans-serif" font-size="14" lengthAdjust="spacing" textLength="198" x="884" y="1179.1426">add_intake(intake: Intake): void</text></g><!--MD5=[34ac46fbfd162586791b65ed15756cf8]
class Intake--><g id="elem_Intake"><rect codeLine="21" fill="#F1F1F1" height="83.2188" id="Intake" rx="2.5" ry="2.5" style="stroke:#181818;stroke-width:0.5;" width="199" x="876.5" y="1264"/><ellipse cx="952.75" cy="1280" fill="#ADD1B2" rx="11" ry="11" style="stroke:#181818;stroke-width:1.0;"/><path d="M955.5156,1275.875 Q955.6719,1275.6563 955.8594,1275.5469 Q956.0469,1275.4375 956.2656,1275.4375 Q956.6406,1275.4375 956.875,1275.7031 Q957.1094,1275.9531 957.1094,1276.5625 L957.1094,1278.0156 Q957.1094,1278.625 956.875,1278.8906 Q956.6406,1279.1563 956.2656,1279.1563 Q955.9219,1279.1563 955.7188,1278.9531 Q955.5156,1278.7656 955.4063,1278.25 Q955.3594,1277.8906 955.1719,1277.7031 Q954.8438,1277.3281 954.2344,1277.1094 Q953.625,1276.8906 953,1276.8906 Q952.2344,1276.8906 951.5938,1277.2188 Q950.9688,1277.5469 950.4688,1278.2969 Q949.9844,1279.0469 949.9844,1280.0781 L949.9844,1281.1719 Q949.9844,1282.4063 950.875,1283.2344 Q951.7656,1284.0469 953.3594,1284.0469 Q954.2969,1284.0469 954.9531,1283.7969 Q955.3438,1283.6406 955.7656,1283.2031 Q956.0313,1282.9375 956.1719,1282.8594 Q956.3281,1282.7813 956.5313,1282.7813 Q956.8594,1282.7813 957.1094,1283.0469 Q957.375,1283.2969 957.375,1283.6406 Q957.375,1283.9844 957.0313,1284.3906 Q956.5313,1284.9688 955.7344,1285.2969 Q954.6563,1285.75 953.3594,1285.75 Q951.8438,1285.75 950.6406,1285.125 Q949.6563,1284.625 948.9688,1283.5625 Q948.2813,1282.4844 948.2813,1281.2031 L948.2813,1280.0469 Q948.2813,1278.7188 948.8906,1277.5781 Q949.5156,1276.4219 950.6094,1275.8125 Q951.7031,1275.1875 952.9375,1275.1875 Q953.6719,1275.1875 954.3125,1275.3594 Q954.9688,1275.5156 955.5156,1275.875 Z " fill="#000000"/><text fill="#000000" font-family="sans-serif" font-size="14" lengthAdjust="spacing" textLength="38" x="973.25" y="1285.7285">Intake</text><line style="stroke:#181818;stroke-width:0.5;" x1="877.5" x2="1074.5" y1="1296" y2="1296"/><rect fill="none" height="6" style="stroke:#C82930;stroke-width:1.0;" width="6" x="884.5" y="1307.3047"/><text fill="#000000" font-family="sans-serif" font-size="14" lengthAdjust="spacing" textLength="106" x="896.5" y="1314.5332">foods: List[Food]</text><line style="stroke:#181818;stroke-width:0.5;" x1="877.5" x2="1074.5" y1="1321.6094" y2="1321.6094"/><ellipse cx="887.5" cy="1335.9141" fill="#84BE84" rx="3" ry="3" style="stroke:#038048;stroke-width:1.0;"/><text fill="#000000" font-family="sans-serif" font-size="14" lengthAdjust="spacing" textLength="173" x="896.5" y="1340.1426">add_food(food: Food): void</text></g><!--MD5=[5b4460e97222b45c9cf25eacd4639dbc]
class Food--><g id="elem_Food"><rect codeLine="26" fill="#F1F1F1" height="48" id="Food" rx="2.5" ry="2.5" style="stroke:#181818;stroke-width:0.5;" width="65" x="943.5" y="1425"/><ellipse cx="958.5" cy="1441" fill="#ADD1B2" rx="11" ry="11" style="stroke:#181818;stroke-width:1.0;"/><path d="M961.2656,1436.875 Q961.4219,1436.6563 961.6094,1436.5469 Q961.7969,1436.4375 962.0156,1436.4375 Q962.3906,1436.4375 962.625,1436.7031 Q962.8594,1436.9531 962.8594,1437.5625 L962.8594,1439.0156 Q962.8594,1439.625 962.625,1439.8906 Q962.3906,1440.1563 962.0156,1440.1563 Q961.6719,1440.1563 961.4688,1439.9531 Q961.2656,1439.7656 961.1563,1439.25 Q961.1094,1438.8906 960.9219,1438.7031 Q960.5938,1438.3281 959.9844,1438.1094 Q959.375,1437.8906 958.75,1437.8906 Q957.9844,1437.8906 957.3438,1438.2188 Q956.7188,1438.5469 956.2188,1439.2969 Q955.7344,1440.0469 955.7344,1441.0781 L955.7344,1442.1719 Q955.7344,1443.4063 956.625,1444.2344 Q957.5156,1445.0469 959.1094,1445.0469 Q960.0469,1445.0469 960.7031,1444.7969 Q961.0938,1444.6406 961.5156,1444.2031 Q961.7813,1443.9375 961.9219,1443.8594 Q962.0781,1443.7813 962.2813,1443.7813 Q962.6094,1443.7813 962.8594,1444.0469 Q963.125,1444.2969 963.125,1444.6406 Q963.125,1444.9844 962.7813,1445.3906 Q962.2813,1445.9688 961.4844,1446.2969 Q960.4063,1446.75 959.1094,1446.75 Q957.5938,1446.75 956.3906,1446.125 Q955.4063,1445.625 954.7188,1444.5625 Q954.0313,1443.4844 954.0313,1442.2031 L954.0313,1441.0469 Q954.0313,1439.7188 954.6406,1438.5781 Q955.2656,1437.4219 956.3594,1436.8125 Q957.4531,1436.1875 958.6875,1436.1875 Q959.4219,1436.1875 960.0625,1436.3594 Q960.7188,1436.5156 961.2656,1436.875 Z " fill="#000000"/><text fill="#000000" font-family="sans-serif" font-size="14" lengthAdjust="spacing" textLength="33" x="972.5" y="1446.7285">Food</text><line style="stroke:#181818;stroke-width:0.5;" x1="944.5" x2="1007.5" y1="1457" y2="1457"/><line style="stroke:#181818;stroke-width:0.5;" x1="944.5" x2="1007.5" y1="1465" y2="1465"/></g><!--MD5=[ca9d99efa02e66bc16d27330652d1b85]
class Clinic--><g id="elem_Clinic"><rect codeLine="37" fill="#F1F1F1" height="118.4375" id="Clinic" rx="2.5" ry="2.5" style="stroke:#181818;stroke-width:0.5;" width="220" x="377" y="7"/><ellipse cx="465.75" cy="23" fill="#ADD1B2" rx="11" ry="11" style="stroke:#181818;stroke-width:1.0;"/><path d="M468.5156,18.875 Q468.6719,18.6563 468.8594,18.5469 Q469.0469,18.4375 469.2656,18.4375 Q469.6406,18.4375 469.875,18.7031 Q470.1094,18.9531 470.1094,19.5625 L470.1094,21.0156 Q470.1094,21.625 469.875,21.8906 Q469.6406,22.1563 469.2656,22.1563 Q468.9219,22.1563 468.7188,21.9531 Q468.5156,21.7656 468.4063,21.25 Q468.3594,20.8906 468.1719,20.7031 Q467.8438,20.3281 467.2344,20.1094 Q466.625,19.8906 466,19.8906 Q465.2344,19.8906 464.5938,20.2188 Q463.9688,20.5469 463.4688,21.2969 Q462.9844,22.0469 462.9844,23.0781 L462.9844,24.1719 Q462.9844,25.4063 463.875,26.2344 Q464.7656,27.0469 466.3594,27.0469 Q467.2969,27.0469 467.9531,26.7969 Q468.3438,26.6406 468.7656,26.2031 Q469.0313,25.9375 469.1719,25.8594 Q469.3281,25.7813 469.5313,25.7813 Q469.8594,25.7813 470.1094,26.0469 Q470.375,26.2969 470.375,26.6406 Q470.375,26.9844 470.0313,27.3906 Q469.5313,27.9688 468.7344,28.2969 Q467.6563,28.75 466.3594,28.75 Q464.8438,28.75 463.6406,28.125 Q462.6563,27.625 461.9688,26.5625 Q461.2813,25.4844 461.2813,24.2031 L461.2813,23.0469 Q461.2813,21.7188 461.8906,20.5781 Q462.5156,19.4219 463.6094,18.8125 Q464.7031,18.1875 465.9375,18.1875 Q466.6719,18.1875 467.3125,18.3594 Q467.9688,18.5156 468.5156,18.875 Z " fill="#000000"/><text fill="#000000" font-family="sans-serif" font-size="14" lengthAdjust="spacing" textLength="34" x="486.25" y="28.7285">Clinic</text><line style="stroke:#181818;stroke-width:0.5;" x1="378" x2="596" y1="39" y2="39"/><rect fill="none" height="6" style="stroke:#C82930;stroke-width:1.0;" width="6" x="385" y="50.3047"/><text fill="#000000" font-family="sans-serif" font-size="14" lengthAdjust="spacing" textLength="114" x="397" y="57.5332">patient_tree: Tree</text><rect fill="none" height="6" style="stroke:#C82930;stroke-width:1.0;" width="6" x="385" y="67.9141"/><text fill="#000000" font-family="sans-serif" font-size="14" lengthAdjust="spacing" textLength="194" x="397" y="75.1426">patient_factory: PatientFactory</text><line style="stroke:#181818;stroke-width:0.5;" x1="378" x2="596" y1="82.2188" y2="82.2188"/><ellipse cx="388" cy="96.5234" fill="#84BE84" rx="3" ry="3" style="stroke:#038048;stroke-width:1.0;"/><text fill="#000000" font-family="sans-serif" font-size="14" lengthAdjust="spacing" textLength="159" x="397" y="100.752">receive_patient(): Patient</text><ellipse cx="388" cy="114.1328" fill="#84BE84" rx="3" ry="3" style="stroke:#038048;stroke-width:1.0;"/><text fill="#000000" font-family="sans-serif" font-size="14" lengthAdjust="spacing" textLength="104" x="397" y="118.3613">run_clinic(): void</text></g><!--MD5=[9740f3afb44ffbfef384f5c7a6e46c7c]
class PatientFactory--><g id="elem_PatientFactory"><rect codeLine="44" fill="#F1F1F1" height="65.6094" id="PatientFactory" rx="2.5" ry="2.5" style="stroke:#181818;stroke-width:0.5;" width="410" x="7" y="273"/><ellipse cx="161.75" cy="289" fill="#ADD1B2" rx="11" ry="11" style="stroke:#181818;stroke-width:1.0;"/><path d="M164.5156,284.875 Q164.6719,284.6563 164.8594,284.5469 Q165.0469,284.4375 165.2656,284.4375 Q165.6406,284.4375 165.875,284.7031 Q166.1094,284.9531 166.1094,285.5625 L166.1094,287.0156 Q166.1094,287.625 165.875,287.8906 Q165.6406,288.1563 165.2656,288.1563 Q164.9219,288.1563 164.7188,287.9531 Q164.5156,287.7656 164.4063,287.25 Q164.3594,286.8906 164.1719,286.7031 Q163.8438,286.3281 163.2344,286.1094 Q162.625,285.8906 162,285.8906 Q161.2344,285.8906 160.5938,286.2188 Q159.9688,286.5469 159.4688,287.2969 Q158.9844,288.0469 158.9844,289.0781 L158.9844,290.1719 Q158.9844,291.4063 159.875,292.2344 Q160.7656,293.0469 162.3594,293.0469 Q163.2969,293.0469 163.9531,292.7969 Q164.3438,292.6406 164.7656,292.2031 Q165.0313,291.9375 165.1719,291.8594 Q165.3281,291.7813 165.5313,291.7813 Q165.8594,291.7813 166.1094,292.0469 Q166.375,292.2969 166.375,292.6406 Q166.375,292.9844 166.0313,293.3906 Q165.5313,293.9688 164.7344,294.2969 Q163.6563,294.75 162.3594,294.75 Q160.8438,294.75 159.6406,294.125 Q158.6563,293.625 157.9688,292.5625 Q157.2813,291.4844 157.2813,290.2031 L157.2813,289.0469 Q157.2813,287.7188 157.8906,286.5781 Q158.5156,285.4219 159.6094,284.8125 Q160.7031,284.1875 161.9375,284.1875 Q162.6719,284.1875 163.3125,284.3594 Q163.9688,284.5156 164.5156,284.875 Z " fill="#000000"/><text fill="#000000" font-family="sans-serif" font-size="14" lengthAdjust="spacing" textLength="92" x="182.25" y="294.7285">PatientFactory</text><line style="stroke:#181818;stroke-width:0.5;" x1="8" x2="416" y1="305" y2="305"/><line style="stroke:#181818;stroke-width:0.5;" x1="8" x2="416" y1="313" y2="313"/><ellipse cx="18" cy="327.3047" fill="#84BE84" rx="3" ry="3" style="stroke:#038048;stroke-width:1.0;"/><text fill="#000000" font-family="sans-serif" font-size="14" lengthAdjust="spacing" textLength="384" x="27" y="331.5332">create_patient(name: String, discharge_date: String): Patient</text></g><!--MD5=[bb7f1c801adcc1c297b2d9190618259c]
class Tree--><g id="elem_Tree"><rect codeLine="48" fill="#F1F1F1" height="136.0469" id="Tree" rx="2.5" ry="2.5" style="stroke:#181818;stroke-width:0.5;" width="320" x="314" y="487"/><ellipse cx="454.75" cy="503" fill="#ADD1B2" rx="11" ry="11" style="stroke:#181818;stroke-width:1.0;"/><path d="M457.5156,498.875 Q457.6719,498.6563 457.8594,498.5469 Q458.0469,498.4375 458.2656,498.4375 Q458.6406,498.4375 458.875,498.7031 Q459.1094,498.9531 459.1094,499.5625 L459.1094,501.0156 Q459.1094,501.625 458.875,501.8906 Q458.6406,502.1563 458.2656,502.1563 Q457.9219,502.1563 457.7188,501.9531 Q457.5156,501.7656 457.4063,501.25 Q457.3594,500.8906 457.1719,500.7031 Q456.8438,500.3281 456.2344,500.1094 Q455.625,499.8906 455,499.8906 Q454.2344,499.8906 453.5938,500.2188 Q452.9688,500.5469 452.4688,501.2969 Q451.9844,502.0469 451.9844,503.0781 L451.9844,504.1719 Q451.9844,505.4063 452.875,506.2344 Q453.7656,507.0469 455.3594,507.0469 Q456.2969,507.0469 456.9531,506.7969 Q457.3438,506.6406 457.7656,506.2031 Q458.0313,505.9375 458.1719,505.8594 Q458.3281,505.7813 458.5313,505.7813 Q458.8594,505.7813 459.1094,506.0469 Q459.375,506.2969 459.375,506.6406 Q459.375,506.9844 459.0313,507.3906 Q458.5313,507.9688 457.7344,508.2969 Q456.6563,508.75 455.3594,508.75 Q453.8438,508.75 452.6406,508.125 Q451.6563,507.625 450.9688,506.5625 Q450.2813,505.4844 450.2813,504.2031 L450.2813,503.0469 Q450.2813,501.7188 450.8906,500.5781 Q451.5156,499.4219 452.6094,498.8125 Q453.7031,498.1875 454.9375,498.1875 Q455.6719,498.1875 456.3125,498.3594 Q456.9688,498.5156 457.5156,498.875 Z " fill="#000000"/><text fill="#000000" font-family="sans-serif" font-size="14" lengthAdjust="spacing" textLength="30" x="475.25" y="508.7285">Tree</text><line style="stroke:#181818;stroke-width:0.5;" x1="315" x2="633" y1="519" y2="519"/><rect fill="none" height="6" style="stroke:#C82930;stroke-width:1.0;" width="6" x="322" y="530.3047"/><text fill="#000000" font-family="sans-serif" font-size="14" lengthAdjust="spacing" textLength="66" x="334" y="537.5332">root: Node</text><line style="stroke:#181818;stroke-width:0.5;" x1="315" x2="633" y1="544.6094" y2="544.6094"/><ellipse cx="325" cy="558.9141" fill="#84BE84" rx="3" ry="3" style="stroke:#038048;stroke-width:1.0;"/><text fill="#000000" font-family="sans-serif" font-size="14" lengthAdjust="spacing" textLength="271" x="334" y="563.1426">add_node(parent: Node, node: Node): void</text><ellipse cx="325" cy="576.5234" fill="#84BE84" rx="3" ry="3" style="stroke:#038048;stroke-width:1.0;"/><text fill="#000000" font-family="sans-serif" font-size="14" lengthAdjust="spacing" textLength="294" x="334" y="580.752">remove_node(parent: Node, node: Node): void</text><ellipse cx="325" cy="594.1328" fill="#84BE84" rx="3" ry="3" style="stroke:#038048;stroke-width:1.0;"/><text fill="#000000" font-family="sans-serif" font-size="14" lengthAdjust="spacing" textLength="101" x="334" y="598.3613">is_empty(): bool</text><ellipse cx="325" cy="611.7422" fill="#84BE84" rx="3" ry="3" style="stroke:#038048;stroke-width:1.0;"/><text fill="#000000" font-family="sans-serif" font-size="14" lengthAdjust="spacing" textLength="134" x="334" y="615.9707">find(data: Any): Node</text></g><!--MD5=[3fee75583bb7a64f68d843a3c9534ab3]
class Node--><g id="elem_Node"><rect codeLine="56" fill="#F1F1F1" height="118.4375" id="Node" rx="2.5" ry="2.5" style="stroke:#181818;stroke-width:0.5;" width="224" x="55" y="496"/><ellipse cx="146.25" cy="512" fill="#ADD1B2" rx="11" ry="11" style="stroke:#181818;stroke-width:1.0;"/><path d="M149.0156,507.875 Q149.1719,507.6563 149.3594,507.5469 Q149.5469,507.4375 149.7656,507.4375 Q150.1406,507.4375 150.375,507.7031 Q150.6094,507.9531 150.6094,508.5625 L150.6094,510.0156 Q150.6094,510.625 150.375,510.8906 Q150.1406,511.1563 149.7656,511.1563 Q149.4219,511.1563 149.2188,510.9531 Q149.0156,510.7656 148.9063,510.25 Q148.8594,509.8906 148.6719,509.7031 Q148.3438,509.3281 147.7344,509.1094 Q147.125,508.8906 146.5,508.8906 Q145.7344,508.8906 145.0938,509.2188 Q144.4688,509.5469 143.9688,510.2969 Q143.4844,511.0469 143.4844,512.0781 L143.4844,513.1719 Q143.4844,514.4063 144.375,515.2344 Q145.2656,516.0469 146.8594,516.0469 Q147.7969,516.0469 148.4531,515.7969 Q148.8438,515.6406 149.2656,515.2031 Q149.5313,514.9375 149.6719,514.8594 Q149.8281,514.7813 150.0313,514.7813 Q150.3594,514.7813 150.6094,515.0469 Q150.875,515.2969 150.875,515.6406 Q150.875,515.9844 150.5313,516.3906 Q150.0313,516.9688 149.2344,517.2969 Q148.1563,517.75 146.8594,517.75 Q145.3438,517.75 144.1406,517.125 Q143.1563,516.625 142.4688,515.5625 Q141.7813,514.4844 141.7813,513.2031 L141.7813,512.0469 Q141.7813,510.7188 142.3906,509.5781 Q143.0156,508.4219 144.1094,507.8125 Q145.2031,507.1875 146.4375,507.1875 Q147.1719,507.1875 147.8125,507.3594 Q148.4688,507.5156 149.0156,507.875 Z " fill="#000000"/><text fill="#000000" font-family="sans-serif" font-size="14" lengthAdjust="spacing" textLength="33" x="166.75" y="517.7285">Node</text><line style="stroke:#181818;stroke-width:0.5;" x1="56" x2="278" y1="528" y2="528"/><rect fill="none" height="6" style="stroke:#C82930;stroke-width:1.0;" width="6" x="63" y="539.3047"/><text fill="#000000" font-family="sans-serif" font-size="14" lengthAdjust="spacing" textLength="60" x="75" y="546.5332">data: Any</text><rect fill="none" height="6" style="stroke:#C82930;stroke-width:1.0;" width="6" x="63" y="556.9141"/><text fill="#000000" font-family="sans-serif" font-size="14" lengthAdjust="spacing" textLength="125" x="75" y="564.1426">children: List&lt;Node]</text><line style="stroke:#181818;stroke-width:0.5;" x1="56" x2="278" y1="571.2188" y2="571.2188"/><ellipse cx="66" cy="585.5234" fill="#84BE84" rx="3" ry="3" style="stroke:#038048;stroke-width:1.0;"/><text fill="#000000" font-family="sans-serif" font-size="14" lengthAdjust="spacing" textLength="175" x="75" y="589.752">add_child(child: Node): void</text><ellipse cx="66" cy="603.1328" fill="#84BE84" rx="3" ry="3" style="stroke:#038048;stroke-width:1.0;"/><text fill="#000000" font-family="sans-serif" font-size="14" lengthAdjust="spacing" textLength="198" x="75" y="607.3613">remove_child(child: Node): void</text></g><!--MD5=[f8f1576c9cb1e0feea33b5d68467aac1]
class Clinic_Controller--><g id="elem_Clinic_Controller"><rect codeLine="63" fill="#F1F1F1" height="206.4844" id="Clinic_Controller" rx="2.5" ry="2.5" style="stroke:#181818;stroke-width:0.5;" width="370" x="593" y="203"/><ellipse cx="721.75" cy="219" fill="#ADD1B2" rx="11" ry="11" style="stroke:#181818;stroke-width:1.0;"/><path d="M724.5156,214.875 Q724.6719,214.6563 724.8594,214.5469 Q725.0469,214.4375 725.2656,214.4375 Q725.6406,214.4375 725.875,214.7031 Q726.1094,214.9531 726.1094,215.5625 L726.1094,217.0156 Q726.1094,217.625 725.875,217.8906 Q725.6406,218.1563 725.2656,218.1563 Q724.9219,218.1563 724.7188,217.9531 Q724.5156,217.7656 724.4063,217.25 Q724.3594,216.8906 724.1719,216.7031 Q723.8438,216.3281 723.2344,216.1094 Q722.625,215.8906 722,215.8906 Q721.2344,215.8906 720.5938,216.2188 Q719.9688,216.5469 719.4688,217.2969 Q718.9844,218.0469 718.9844,219.0781 L718.9844,220.1719 Q718.9844,221.4063 719.875,222.2344 Q720.7656,223.0469 722.3594,223.0469 Q723.2969,223.0469 723.9531,222.7969 Q724.3438,222.6406 724.7656,222.2031 Q725.0313,221.9375 725.1719,221.8594 Q725.3281,221.7813 725.5313,221.7813 Q725.8594,221.7813 726.1094,222.0469 Q726.375,222.2969 726.375,222.6406 Q726.375,222.9844 726.0313,223.3906 Q725.5313,223.9688 724.7344,224.2969 Q723.6563,224.75 722.3594,224.75 Q720.8438,224.75 719.6406,224.125 Q718.6563,223.625 717.9688,222.5625 Q717.2813,221.4844 717.2813,220.2031 L717.2813,219.0469 Q717.2813,217.7188 717.8906,216.5781 Q718.5156,215.4219 719.6094,214.8125 Q720.7031,214.1875 721.9375,214.1875 Q722.6719,214.1875 723.3125,214.3594 Q723.9688,214.5156 724.5156,214.875 Z " fill="#000000"/><text fill="#000000" font-family="sans-serif" font-size="14" lengthAdjust="spacing" textLength="104" x="742.25" y="224.7285">Clinic_Controller</text><line style="stroke:#181818;stroke-width:0.5;" x1="594" x2="962" y1="235" y2="235"/><rect fill="none" height="6" style="stroke:#C82930;stroke-width:1.0;" width="6" x="601" y="246.3047"/><text fill="#000000" font-family="sans-serif" font-size="14" lengthAdjust="spacing" textLength="114" x="613" y="253.5332">patient_tree: Tree</text><rect fill="none" height="6" style="stroke:#C82930;stroke-width:1.0;" width="6" x="601" y="263.9141"/><text fill="#000000" font-family="sans-serif" font-size="14" lengthAdjust="spacing" textLength="95" x="613" y="271.1426">patient: Patient</text><rect fill="none" height="6" style="stroke:#C82930;stroke-width:1.0;" width="6" x="601" y="281.5234"/><text fill="#000000" font-family="sans-serif" font-size="14" lengthAdjust="spacing" textLength="125" x="613" y="288.752">is_running: boolean</text><line style="stroke:#181818;stroke-width:0.5;" x1="594" x2="962" y1="295.8281" y2="295.8281"/><ellipse cx="604" cy="310.1328" fill="#84BE84" rx="3" ry="3" style="stroke:#038048;stroke-width:1.0;"/><text fill="#000000" font-family="sans-serif" font-size="14" lengthAdjust="spacing" textLength="65" x="613" y="314.3613">run(): void</text><ellipse cx="604" cy="327.7422" fill="#84BE84" rx="3" ry="3" style="stroke:#038048;stroke-width:1.0;"/><text fill="#000000" font-family="sans-serif" font-size="14" lengthAdjust="spacing" textLength="196" x="613" y="331.9707">select_day(patient: Patient): int</text><ellipse cx="604" cy="345.3516" fill="#84BE84" rx="3" ry="3" style="stroke:#038048;stroke-width:1.0;"/><text fill="#000000" font-family="sans-serif" font-size="14" lengthAdjust="spacing" textLength="172" x="613" y="349.5801">select_intake(day: Day): int</text><ellipse cx="604" cy="362.9609" fill="#84BE84" rx="3" ry="3" style="stroke:#038048;stroke-width:1.0;"/><text fill="#000000" font-family="sans-serif" font-size="14" lengthAdjust="spacing" textLength="344" x="613" y="367.1895">get_validated_input(prompt: String, max_value: int): int</text><ellipse cx="604" cy="380.5703" fill="#84BE84" rx="3" ry="3" style="stroke:#038048;stroke-width:1.0;"/><text fill="#000000" font-family="sans-serif" font-size="14" lengthAdjust="spacing" textLength="188" x="613" y="384.7988">add_food(intake: Intake): void</text><ellipse cx="604" cy="398.1797" fill="#84BE84" rx="3" ry="3" style="stroke:#038048;stroke-width:1.0;"/><text fill="#000000" font-family="sans-serif" font-size="14" lengthAdjust="spacing" textLength="222" x="613" y="402.4082">ask_for_food(intake: Intake): String</text></g><!--MD5=[c045e12321b83266d36d22b9096c24ea]
class View--><g id="elem_View"><rect codeLine="75" fill="#F1F1F1" height="118.4375" id="View" rx="2.5" ry="2.5" style="stroke:#181818;stroke-width:0.5;" width="280" x="669" y="496"/><ellipse cx="790.25" cy="512" fill="#ADD1B2" rx="11" ry="11" style="stroke:#181818;stroke-width:1.0;"/><path d="M793.0156,507.875 Q793.1719,507.6563 793.3594,507.5469 Q793.5469,507.4375 793.7656,507.4375 Q794.1406,507.4375 794.375,507.7031 Q794.6094,507.9531 794.6094,508.5625 L794.6094,510.0156 Q794.6094,510.625 794.375,510.8906 Q794.1406,511.1563 793.7656,511.1563 Q793.4219,511.1563 793.2188,510.9531 Q793.0156,510.7656 792.9063,510.25 Q792.8594,509.8906 792.6719,509.7031 Q792.3438,509.3281 791.7344,509.1094 Q791.125,508.8906 790.5,508.8906 Q789.7344,508.8906 789.0938,509.2188 Q788.4688,509.5469 787.9688,510.2969 Q787.4844,511.0469 787.4844,512.0781 L787.4844,513.1719 Q787.4844,514.4063 788.375,515.2344 Q789.2656,516.0469 790.8594,516.0469 Q791.7969,516.0469 792.4531,515.7969 Q792.8438,515.6406 793.2656,515.2031 Q793.5313,514.9375 793.6719,514.8594 Q793.8281,514.7813 794.0313,514.7813 Q794.3594,514.7813 794.6094,515.0469 Q794.875,515.2969 794.875,515.6406 Q794.875,515.9844 794.5313,516.3906 Q794.0313,516.9688 793.2344,517.2969 Q792.1563,517.75 790.8594,517.75 Q789.3438,517.75 788.1406,517.125 Q787.1563,516.625 786.4688,515.5625 Q785.7813,514.4844 785.7813,513.2031 L785.7813,512.0469 Q785.7813,510.7188 786.3906,509.5781 Q787.0156,508.4219 788.1094,507.8125 Q789.2031,507.1875 790.4375,507.1875 Q791.1719,507.1875 791.8125,507.3594 Q792.4688,507.5156 793.0156,507.875 Z " fill="#000000"/><text fill="#000000" font-family="sans-serif" font-size="14" lengthAdjust="spacing" textLength="29" x="810.75" y="517.7285">View</text><line style="stroke:#181818;stroke-width:0.5;" x1="670" x2="948" y1="528" y2="528"/><line style="stroke:#181818;stroke-width:0.5;" x1="670" x2="948" y1="536" y2="536"/><ellipse cx="680" cy="550.3047" fill="#84BE84" rx="3" ry="3" style="stroke:#038048;stroke-width:1.0;"/><text fill="#000000" font-family="sans-serif" font-size="14" lengthAdjust="spacing" textLength="254" x="689" y="554.5332">print_patient_data(patient: Patient): void</text><ellipse cx="680" cy="567.9141" fill="#84BE84" rx="3" ry="3" style="stroke:#038048;stroke-width:1.0;"/><text fill="#000000" font-family="sans-serif" font-size="14" lengthAdjust="spacing" textLength="199" x="689" y="572.1426">print_foods(intake: Intake): void</text><ellipse cx="680" cy="585.5234" fill="#84BE84" rx="3" ry="3" style="stroke:#038048;stroke-width:1.0;"/><text fill="#000000" font-family="sans-serif" font-size="14" lengthAdjust="spacing" textLength="208" x="689" y="589.752">display_header(title: String): void</text><ellipse cx="680" cy="603.1328" fill="#84BE84" rx="3" ry="3" style="stroke:#038048;stroke-width:1.0;"/><text fill="#000000" font-family="sans-serif" font-size="14" lengthAdjust="spacing" textLength="229" x="689" y="607.3613">display_prompt(prompt: String): void</text></g><!--MD5=[982c141ee6a4174c96f960686a820c3c]
link Patient to Survey--><g id="link_Patient_Survey"><path codeLine="30" d="M976,864.45 C976,887.28 976,914.16 976,936.49 " fill="none" id="Patient-to-Survey" style="stroke:#181818;stroke-width:1.0;"/><polygon fill="#181818" points="976,941.77,980,932.77,976,936.77,972,932.77,976,941.77" style="stroke:#181818;stroke-width:1.0;"/><polygon fill="#000000" points="981,908.1758,983.9389,899.1307,978.0611,899.1307,981,908.1758" style="stroke:#000000;stroke-width:1.0;"/><text fill="#000000" font-family="sans-serif" font-size="13" lengthAdjust="spacing" textLength="49" x="990" y="908.4951">contains</text></g><!--MD5=[8dad320abb4afc7de857b1b7800c3f78]
link Survey to Day--><g id="link_Survey_Day"><path codeLine="31" d="M976,1025.03 C976,1047.19 976,1074.71 976,1097.64 " fill="none" id="Survey-to-Day" style="stroke:#181818;stroke-width:1.0;"/><polygon fill="#181818" points="976,1102.76,980,1093.76,976,1097.76,972,1093.76,976,1102.76" style="stroke:#181818;stroke-width:1.0;"/><polygon fill="#000000" points="981,1069.1758,983.9389,1060.1307,978.0611,1060.1307,981,1069.1758" style="stroke:#000000;stroke-width:1.0;"/><text fill="#000000" font-family="sans-serif" font-size="13" lengthAdjust="spacing" textLength="49" x="990" y="1069.4951">contains</text></g><!--MD5=[1f4745f4715bd2c85bd7254fe95e6778]
link Day to Intake--><g id="link_Day_Intake"><path codeLine="32" d="M976,1186.03 C976,1208.19 976,1235.71 976,1258.64 " fill="none" id="Day-to-Intake" style="stroke:#181818;stroke-width:1.0;"/><polygon fill="#181818" points="976,1263.76,980,1254.76,976,1258.76,972,1254.76,976,1263.76" style="stroke:#181818;stroke-width:1.0;"/><polygon fill="#000000" points="981,1230.1758,983.9389,1221.1307,978.0611,1221.1307,981,1230.1758" style="stroke:#000000;stroke-width:1.0;"/><text fill="#000000" font-family="sans-serif" font-size="13" lengthAdjust="spacing" textLength="49" x="990" y="1230.4951">contains</text></g><!--MD5=[eadd333502a9f8bea0a308f70161b884]
link Intake to Food--><g id="link_Intake_Food"><path codeLine="33" d="M976,1347.05 C976,1370.24 976,1398.75 976,1419.56 " fill="none" id="Intake-to-Food" style="stroke:#181818;stroke-width:1.0;"/><polygon fill="#181818" points="976,1424.67,980,1415.67,976,1419.67,972,1415.67,976,1424.67" style="stroke:#181818;stroke-width:1.0;"/><polygon fill="#000000" points="981,1391.1758,983.9389,1382.1307,978.0611,1382.1307,981,1391.1758" style="stroke:#000000;stroke-width:1.0;"/><text fill="#000000" font-family="sans-serif" font-size="13" lengthAdjust="spacing" textLength="49" x="990" y="1391.4951">contains</text></g><!--MD5=[ef2b4c9ee0778ec518563dc9e5b27b35]
link Clinic to Clinic_Controller--><g id="link_Clinic_Clinic_Controller"><path codeLine="83" d="M558.19,125.22 C585.56,147.61 617.74,173.92 648.89,199.41 " fill="none" id="Clinic-to-Clinic_Controller" style="stroke:#181818;stroke-width:1.0;"/><polygon fill="#181818" points="653.08,202.83,648.6526,194.0324,649.2121,199.6615,643.583,200.221,653.08,202.83" style="stroke:#181818;stroke-width:1.0;"/><polygon fill="#000000" points="624.8702,167.3415,619.7297,159.3398,616.0082,163.8895,624.8702,167.3415" style="stroke:#000000;stroke-width:1.0;"/><text fill="#000000" font-family="sans-serif" font-size="13" lengthAdjust="spacing" textLength="28" x="630" y="169.4951">uses</text></g><!--MD5=[d70bddbea4f5708247707b460531046f]
link Clinic to PatientFactory--><g id="link_Clinic_PatientFactory"><path codeLine="84" d="M419.73,125.22 C367.56,170.37 296.95,231.48 252.95,269.56 " fill="none" id="Clinic-to-PatientFactory" style="stroke:#181818;stroke-width:1.0;"/><polygon fill="#181818" points="249.05,272.94,258.475,270.0819,252.8332,269.6708,253.2443,264.0289,249.05,272.94" style="stroke:#181818;stroke-width:1.0;"/><polygon fill="#000000" points="384.2193,167.4478,392.9819,163.7509,389.1354,159.3064,384.2193,167.4478" style="stroke:#000000;stroke-width:1.0;"/><text fill="#000000" font-family="sans-serif" font-size="13" lengthAdjust="spacing" textLength="28" x="397" y="169.4951">uses</text></g><!--MD5=[5548eaaa6c438b00a54313cb8d7cb8e6]
link Clinic to Tree--><g id="link_Clinic_Tree"><path codeLine="85" d="M485.44,125.26 C483.06,214.43 478.52,384.59 475.93,481.57 " fill="none" id="Clinic-to-Tree" style="stroke:#181818;stroke-width:1.0;"/><polygon fill="#181818" points="475.8,486.71,480.0554,477.8279,475.9428,481.712,472.0587,477.5994,475.8,486.71" style="stroke:#181818;stroke-width:1.0;"/><polygon fill="#000000" points="488.8666,311.174,492.0458,302.2105,486.17,302.0537,488.8666,311.174" style="stroke:#000000;stroke-width:1.0;"/><text fill="#000000" font-family="sans-serif" font-size="13" lengthAdjust="spacing" textLength="49" x="498" y="311.4951">contains</text></g><!--MD5=[e4f3f197ff4aff659fcbc10920ec4d68]
link Clinic_Controller to View--><g id="link_Clinic_Controller_View"><path codeLine="86" d="M790.83,409.25 C794.3,436.88 797.95,465.97 801.06,490.77 " fill="none" id="Clinic_Controller-to-View" style="stroke:#181818;stroke-width:1.0;"/><polygon fill="#181818" points="801.72,495.99,804.5828,486.5664,801.1051,491.028,796.6436,487.5502,801.72,495.99" style="stroke:#181818;stroke-width:1.0;"/><polygon fill="#000000" points="802.6226,453.1369,804.4124,443.7962,798.5803,444.5281,802.6226,453.1369" style="stroke:#000000;stroke-width:1.0;"/><text fill="#000000" font-family="sans-serif" font-size="13" lengthAdjust="spacing" textLength="28" x="811" y="453.4951">uses</text></g><!--MD5=[2e8f3ccbff56f19f0463792c74c0e616]
link Clinic_Controller to Tree--><g id="link_Clinic_Controller_Tree"><path codeLine="87" d="M652.16,409.25 C621.49,434.17 589.35,460.28 560.95,483.35 " fill="none" id="Clinic_Controller-to-Tree" style="stroke:#181818;stroke-width:1.0;"/><polygon fill="#181818" points="556.79,486.73,566.2974,484.1591,560.6706,483.577,561.2527,477.9502,556.79,486.73" style="stroke:#181818;stroke-width:1.0;"/><polygon fill="#000000" points="609.1193,451.3285,617.9927,447.9062,614.2864,443.3441,609.1193,451.3285" style="stroke:#000000;stroke-width:1.0;"/><text fill="#000000" font-family="sans-serif" font-size="13" lengthAdjust="spacing" textLength="50" x="622" y="453.4951">interacts</text></g><!--MD5=[4a2ff2790c4f891a65139fa8158313cc]
link Clinic_Controller to Models--><g id="link_Clinic_Controller_Models"><path codeLine="88" d="M913.73,409.07 C935.42,432.13 954.73,458.37 967,487 C990.81,542.56 997.73,570.95 967,623 C944.55,661.03 921.43,655.72 880,671 C863.4,677.12 853.72,666.7 841,679 C838.3025,681.61 835.8158,684.4042 833.5241,687.35 C832.3783,688.8229 831.2812,690.3337 830.231,691.8784 C829.7058,692.6507 829.1924,693.4315 828.6904,694.2202 C828.5649,694.4174 828.4401,694.6151 828.3161,694.8133 " fill="none" id="Clinic_Controller-to-Models" style="stroke:#181818;stroke-width:1.0;stroke-dasharray:7.0,7.0;"/><polygon fill="#181818" points="828.3161,694.8133,836.4822,689.3075,830.9693,690.5753,829.7015,685.0623,828.3161,694.8133" style="stroke:#181818;stroke-width:1.0;"/><polygon fill="#000000" points="990.568,559.9663,995.9743,552.1418,990.3427,550.4584,990.568,559.9663" style="stroke:#000000;stroke-width:1.0;"/><text fill="#000000" font-family="sans-serif" font-size="13" lengthAdjust="spacing" textLength="70" x="1001" y="560.4951">manipulates</text></g><!--MD5=[e3af2d983d3654a0c633bcc0afa7be9f]
link View to Models--><g id="link_View_Models"><path codeLine="89" d="M809,614.2 C809,632.825 809,654.2925 809,676.0755 C809,681.5212 809,686.9867 809,692.4324 C809,693.1131 809,693.7935 809,694.4735 " fill="none" id="View-to-Models" style="stroke:#181818;stroke-width:1.0;stroke-dasharray:7.0,7.0;"/><polygon fill="#181818" points="809,694.4735,813,685.4735,809,689.4735,805,685.4735,809,694.4735" style="stroke:#181818;stroke-width:1.0;"/><polygon fill="#000000" points="814,667.1758,816.9389,658.1307,811.0611,658.1307,814,667.1758" style="stroke:#000000;stroke-width:1.0;"/><text fill="#000000" font-family="sans-serif" font-size="13" lengthAdjust="spacing" textLength="48" x="823" y="667.4951">displays</text></g><!--MD5=[e68969f0148b20b41d315ad0336962ee]
reverse link Node to Models--><g id="link_Node_Models"><path codeLine="90" d="M281.25,616.28 C286.21,618.6 291.14,620.85 296,623 C406.275,671.775 533.39,718.7925 633.4975,753.7925 C683.5513,771.2925 726.8531,785.7881 757.9222,795.9969 C773.4567,801.1013 785.933,805.1339 794.6661,807.9345 C796.8493,808.6347 798.7986,809.2578 800.5032,809.8015 " fill="none" id="Node-backto-Models" style="stroke:#181818;stroke-width:1.0;"/><polygon fill="#181818" points="276.68,614.14,283.1236,621.5885,281.2051,616.2669,286.5267,614.3484,276.68,614.14" style="stroke:#181818;stroke-width:1.0;"/><polygon fill="#000000" points="407.3148,660.4296,414.764,666.3423,416.8168,660.8345,407.3148,660.4296" style="stroke:#000000;stroke-width:1.0;"/><text fill="#000000" font-family="sans-serif" font-size="13" lengthAdjust="spacing" textLength="46" x="421" y="667.4951">extends</text></g><!--MD5=[d13e85335fb6fa64410719367d3c0347]
@startuml Examen_Final

' Define packages
package "Models" {
    together {
        class Patient {
            - discharge_date: String
            - surveys: List<Survey>
            + add_survey(survey: Survey): void
        }

        class Survey {
            - days: List[Day]
            + add_day(day: Day): void
        }

        class Day {
            - intakes: List[Intake]
            + add_intake(intake: Intake): void
        }

        class Intake {
            - foods: List[Food]
            + add_food(food: Food): void
        }

        class Food {
        }
    }

    Patient - -> Survey : contains >
    Survey - -> Day : contains >
    Day - -> Intake : contains >
    Intake - -> Food : contains >
}

' Define other classes
class Clinic {
    - patient_tree: Tree
    - patient_factory: PatientFactory
    + receive_patient(): Patient
    + run_clinic(): void
}

class PatientFactory {
    + create_patient(name: String, discharge_date: String): Patient
}

class Tree {
    - root: Node
    + add_node(parent: Node, node: Node): void
    + remove_node(parent: Node, node: Node): void
    + is_empty(): bool
    + find(data: Any): Node
}

class Node {
    - data: Any
    - children: List<Node]
    + add_child(child: Node): void
    + remove_child(child: Node): void
}

class Clinic_Controller {
    - patient_tree: Tree
    - patient: Patient
    - is_running: boolean
    + run(): void
    + select_day(patient: Patient): int
    + select_intake(day: Day): int
    + get_validated_input(prompt: String, max_value: int): int
    + add_food(intake: Intake): void
    + ask_for_food(intake: Intake): String
}

class View {
    + print_patient_data(patient: Patient): void
    + print_foods(intake: Intake): void
    + display_header(title: String): void
    + display_prompt(prompt: String): void
}

' Define relationships
Clinic - -> Clinic_Controller : uses >
Clinic - -> PatientFactory : uses >
Clinic - -> Tree : contains >
Clinic_Controller - -> View : uses >
Clinic_Controller - -> Tree : interacts >
Clinic_Controller ..> Models : manipulates >
View ..> Models : displays >
Models -up-> Node : extends >

@enduml

@startuml Examen_Final

package "Models" {
    together {
        class Patient {
            - discharge_date: String
            - surveys: List<Survey>
            + add_survey(survey: Survey): void
        }

        class Survey {
            - days: List[Day]
            + add_day(day: Day): void
        }

        class Day {
            - intakes: List[Intake]
            + add_intake(intake: Intake): void
        }

        class Intake {
            - foods: List[Food]
            + add_food(food: Food): void
        }

        class Food {
        }
    }

    Patient - -> Survey : contains >
    Survey - -> Day : contains >
    Day - -> Intake : contains >
    Intake - -> Food : contains >
}

class Clinic {
    - patient_tree: Tree
    - patient_factory: PatientFactory
    + receive_patient(): Patient
    + run_clinic(): void
}

class PatientFactory {
    + create_patient(name: String, discharge_date: String): Patient
}

class Tree {
    - root: Node
    + add_node(parent: Node, node: Node): void
    + remove_node(parent: Node, node: Node): void
    + is_empty(): bool
    + find(data: Any): Node
}

class Node {
    - data: Any
    - children: List<Node]
    + add_child(child: Node): void
    + remove_child(child: Node): void
}

class Clinic_Controller {
    - patient_tree: Tree
    - patient: Patient
    - is_running: boolean
    + run(): void
    + select_day(patient: Patient): int
    + select_intake(day: Day): int
    + get_validated_input(prompt: String, max_value: int): int
    + add_food(intake: Intake): void
    + ask_for_food(intake: Intake): String
}

class View {
    + print_patient_data(patient: Patient): void
    + print_foods(intake: Intake): void
    + display_header(title: String): void
    + display_prompt(prompt: String): void
}

Clinic - -> Clinic_Controller : uses >
Clinic - -> PatientFactory : uses >
Clinic - -> Tree : contains >
Clinic_Controller - -> View : uses >
Clinic_Controller - -> Tree : interacts >
Clinic_Controller ..> Models : manipulates >
View ..> Models : displays >
Models -up-> Node : extends >

@enduml

PlantUML version 1.2022.7(Mon Aug 22 19:01:30 CEST 2022)
(GPL source distribution)
Java Runtime: Java(TM) SE Runtime Environment
JVM: Java HotSpot(TM) 64-Bit Server VM
Default Encoding: UTF-8
Language: es
Country: SV
--></g></svg>