<?xml version="1.0" encoding="UTF-8" standalone="no"?><svg xmlns="http://www.w3.org/2000/svg" xmlns:xlink="http://www.w3.org/1999/xlink" contentStyleType="text/css" height="347px" preserveAspectRatio="none" style="width:652px;height:347px;background:#FFFFFF;" version="1.1" viewBox="0 0 652 347" width="652px" zoomAndPan="magnify"><defs/><g><!--MD5=[e6e159cc741e7561927118d6e9ee2407]
class Ejemplo--><g id="elem_Ejemplo"><rect codeLine="1" fill="#F1F1F1" height="80.1973" id="Ejemplo" rx="2.5" ry="2.5" style="stroke:#181818;stroke-width:0.5;" width="267" x="7" y="7"/><ellipse cx="110.75" cy="23" fill="#ADD1B2" rx="11" ry="11" style="stroke:#181818;stroke-width:1.0;"/><path d="M108.4063,22.8438 Q108.4063,24.7188 108.9844,25.7344 Q109.5625,26.7344 110.7188,26.7344 Q112.0625,26.7344 112.7188,24.7188 L114.9844,25.1406 Q113.875,28.6719 110.7031,28.6719 Q108.3594,28.6719 107.1406,27.1875 Q105.9219,25.7031 105.9219,22.8438 Q105.9219,17.125 110.625,17.125 Q112.1719,17.125 113.2031,17.9375 Q114.25,18.75 114.75,20.3594 L112.4844,20.9063 Q112.25,20.0313 111.7656,19.5469 Q111.2813,19.0469 110.6563,19.0469 Q108.4063,19.0469 108.4063,22.8438 Z " fill="#000000"/><text fill="#000000" font-family="sans-serif" font-size="14" lengthAdjust="spacing" textLength="51" x="131.25" y="28.0825">Ejemplo</text><line style="stroke:#181818;stroke-width:0.5;" x1="8" x2="273" y1="39" y2="39"/><line style="stroke:#181818;stroke-width:0.5;" x1="8" x2="273" y1="47" y2="47"/><ellipse cx="18" cy="60.5493" fill="#84BE84" rx="3" ry="3" style="stroke:#038048;stroke-width:1.0;"/><text fill="#000000" font-family="sans-serif" font-size="14" lengthAdjust="spacing" textLength="164" x="27" y="64.1318">main(args : String[]) : void</text><rect fill="#F24D5C" height="6" style="stroke:#C82930;stroke-width:1.0;" width="6" x="15" y="73.6479"/><text fill="#000000" font-family="sans-serif" font-size="14" lengthAdjust="spacing" textLength="241" x="27" y="80.2305">viewLine(unaLista : GenericList) : void</text></g><!--MD5=[5b0c34e929abb63613a140be59f75a7b]
class GenericList--><g id="elem_GenericList"><rect codeLine="6" fill="#F1F1F1" height="192.8877" id="GenericList" rx="2.5" ry="2.5" style="stroke:#181818;stroke-width:0.5;" width="205" x="38" y="148"/><ellipse cx="94.75" cy="164" fill="#ADD1B2" rx="11" ry="11" style="stroke:#181818;stroke-width:1.0;"/><path d="M92.4063,163.8438 Q92.4063,165.7188 92.9844,166.7344 Q93.5625,167.7344 94.7188,167.7344 Q96.0625,167.7344 96.7188,165.7188 L98.9844,166.1406 Q97.875,169.6719 94.7031,169.6719 Q92.3594,169.6719 91.1406,168.1875 Q89.9219,166.7031 89.9219,163.8438 Q89.9219,158.125 94.625,158.125 Q96.1719,158.125 97.2031,158.9375 Q98.25,159.75 98.75,161.3594 L96.4844,161.9063 Q96.25,161.0313 95.7656,160.5469 Q95.2813,160.0469 94.6563,160.0469 Q92.4063,160.0469 92.4063,163.8438 Z " fill="#000000"/><text fill="#000000" font-family="sans-serif" font-size="14" lengthAdjust="spacing" textLength="72" x="115.25" y="169.0825">GenericList</text><rect fill="#FFFFFF" height="15.7988" style="stroke:#181818;stroke-width:1.0;stroke-dasharray:2.0,2.0;" width="9" x="237" y="145"/><text fill="#000000" font-family="sans-serif" font-size="12" font-style="italic" lengthAdjust="spacing" textLength="7" x="238" y="157.2559">T</text><line style="stroke:#181818;stroke-width:0.5;" x1="39" x2="242" y1="180" y2="180"/><rect fill="none" height="6" style="stroke:#C82930;stroke-width:1.0;" width="6" x="46" y="190.5493"/><text fill="#000000" font-family="sans-serif" font-size="14" lengthAdjust="spacing" textLength="144" x="58" y="197.1318">first : GenericNode&lt;T&gt;</text><line style="stroke:#181818;stroke-width:0.5;" x1="39" x2="242" y1="204.0986" y2="204.0986"/><ellipse cx="49" cy="217.6479" fill="#84BE84" rx="3" ry="3" style="stroke:#038048;stroke-width:1.0;"/><text fill="#000000" font-family="sans-serif" font-size="14" lengthAdjust="spacing" textLength="62" x="58" y="221.2305">size() : int</text><ellipse cx="49" cy="233.7466" fill="#84BE84" rx="3" ry="3" style="stroke:#038048;stroke-width:1.0;"/><text fill="#000000" font-family="sans-serif" font-size="14" lengthAdjust="spacing" textLength="123" x="58" y="237.3291">isEmpty() : boolean</text><ellipse cx="49" cy="249.8452" fill="#84BE84" rx="3" ry="3" style="stroke:#038048;stroke-width:1.0;"/><text fill="#000000" font-family="sans-serif" font-size="14" lengthAdjust="spacing" textLength="172" x="58" y="253.4277">insertFront(value : T) : void</text><ellipse cx="49" cy="265.9438" fill="#84BE84" rx="3" ry="3" style="stroke:#038048;stroke-width:1.0;"/><text fill="#000000" font-family="sans-serif" font-size="14" lengthAdjust="spacing" textLength="163" x="58" y="269.5264">insertEnd(value : T) : void</text><ellipse cx="49" cy="282.0425" fill="#84BE84" rx="3" ry="3" style="stroke:#038048;stroke-width:1.0;"/><text fill="#000000" font-family="sans-serif" font-size="14" lengthAdjust="spacing" textLength="121" x="58" y="285.625">deleteFront() : void</text><ellipse cx="49" cy="298.1411" fill="#84BE84" rx="3" ry="3" style="stroke:#038048;stroke-width:1.0;"/><text fill="#000000" font-family="sans-serif" font-size="14" lengthAdjust="spacing" textLength="179" x="58" y="301.7236">getFirst() : GenericNode&lt;T&gt;</text><ellipse cx="49" cy="314.2397" fill="#84BE84" rx="3" ry="3" style="stroke:#038048;stroke-width:1.0;"/><text fill="#000000" font-family="sans-serif" font-size="14" lengthAdjust="spacing" textLength="178" x="58" y="317.8223">getLast() : GenericNode&lt;T&gt;</text><ellipse cx="49" cy="330.3384" fill="#84BE84" rx="3" ry="3" style="stroke:#038048;stroke-width:1.0;"/><text fill="#000000" font-family="sans-serif" font-size="14" lengthAdjust="spacing" textLength="71" x="58" y="333.9209">listAll() : T[]</text></g><!--MD5=[bff1ab673217df7121097d63f3088bab]
class GenericNode--><g id="elem_GenericNode"><rect codeLine="19" fill="#F1F1F1" height="160.6904" id="GenericNode" rx="2.5" ry="2.5" style="stroke:#181818;stroke-width:0.5;" width="300" x="341.5" y="164"/><ellipse cx="439.75" cy="180" fill="#ADD1B2" rx="11" ry="11" style="stroke:#181818;stroke-width:1.0;"/><path d="M437.4063,179.8438 Q437.4063,181.7188 437.9844,182.7344 Q438.5625,183.7344 439.7188,183.7344 Q441.0625,183.7344 441.7188,181.7188 L443.9844,182.1406 Q442.875,185.6719 439.7031,185.6719 Q437.3594,185.6719 436.1406,184.1875 Q434.9219,182.7031 434.9219,179.8438 Q434.9219,174.125 439.625,174.125 Q441.1719,174.125 442.2031,174.9375 Q443.25,175.75 443.75,177.3594 L441.4844,177.9063 Q441.25,177.0313 440.7656,176.5469 Q440.2813,176.0469 439.6563,176.0469 Q437.4063,176.0469 437.4063,179.8438 Z " fill="#000000"/><text fill="#000000" font-family="sans-serif" font-size="14" lengthAdjust="spacing" textLength="84" x="460.25" y="185.0825">GenericNode</text><rect fill="#FFFFFF" height="15.7988" style="stroke:#181818;stroke-width:1.0;stroke-dasharray:2.0,2.0;" width="9" x="635.5" y="161"/><text fill="#000000" font-family="sans-serif" font-size="12" font-style="italic" lengthAdjust="spacing" textLength="7" x="636.5" y="173.2559">T</text><line style="stroke:#181818;stroke-width:0.5;" x1="342.5" x2="640.5" y1="196" y2="196"/><rect fill="none" height="6" style="stroke:#C82930;stroke-width:1.0;" width="6" x="349.5" y="206.5493"/><text fill="#000000" font-family="sans-serif" font-size="14" lengthAdjust="spacing" textLength="55" x="361.5" y="213.1318">value : T</text><rect fill="none" height="6" style="stroke:#C82930;stroke-width:1.0;" width="6" x="349.5" y="222.6479"/><text fill="#000000" font-family="sans-serif" font-size="14" lengthAdjust="spacing" textLength="148" x="361.5" y="229.2305">next : GenericNode&lt;T&gt;</text><line style="stroke:#181818;stroke-width:0.5;" x1="342.5" x2="640.5" y1="236.1973" y2="236.1973"/><ellipse cx="352.5" cy="249.7466" fill="#84BE84" rx="3" ry="3" style="stroke:#038048;stroke-width:1.0;"/><text fill="#000000" font-family="sans-serif" font-size="14" lengthAdjust="spacing" textLength="149" x="361.5" y="253.3291">GenericNode(value : T)</text><ellipse cx="352.5" cy="265.8452" fill="#84BE84" rx="3" ry="3" style="stroke:#038048;stroke-width:1.0;"/><text fill="#000000" font-family="sans-serif" font-size="14" lengthAdjust="spacing" textLength="87" x="361.5" y="269.4277">getValue() : T</text><ellipse cx="352.5" cy="281.9438" fill="#84BE84" rx="3" ry="3" style="stroke:#038048;stroke-width:1.0;"/><text fill="#000000" font-family="sans-serif" font-size="14" lengthAdjust="spacing" textLength="186" x="361.5" y="285.5264">setValue(newValue : T) : void</text><ellipse cx="352.5" cy="298.0425" fill="#84BE84" rx="3" ry="3" style="stroke:#038048;stroke-width:1.0;"/><text fill="#000000" font-family="sans-serif" font-size="14" lengthAdjust="spacing" textLength="180" x="361.5" y="301.625">getNext() : GenericNode&lt;T&gt;</text><ellipse cx="352.5" cy="314.1411" fill="#84BE84" rx="3" ry="3" style="stroke:#038048;stroke-width:1.0;"/><text fill="#000000" font-family="sans-serif" font-size="14" lengthAdjust="spacing" textLength="274" x="361.5" y="317.7236">setNext(siguiente : GenericNode&lt;T&gt;) : void</text></g><!--MD5=[2445bfe8f7b5e7171c2dfaf649f4fd60]
link Ejemplo to GenericList--><g id="link_Ejemplo_GenericList"><path codeLine="30" d="M140.5,87.09 C140.5,103.32 140.5,122.98 140.5,142.79 " fill="none" id="Ejemplo-to-GenericList" style="stroke:#181818;stroke-width:1.0;stroke-dasharray:7.0,7.0;"/><polygon fill="#181818" points="140.5,147.83,144.5,138.83,140.5,142.83,136.5,138.83,140.5,147.83" style="stroke:#181818;stroke-width:1.0;"/></g><!--MD5=[053f28b68a037f084795062c27b2228b]
reverse link GenericList to GenericNode--><g id="link_GenericList_GenericNode"><path codeLine="31" d="M256.57,244.5 C283.69,244.5 312.96,244.5 341.32,244.5 " fill="none" id="GenericList-backto-GenericNode" style="stroke:#181818;stroke-width:1.0;"/><polygon fill="#181818" points="243.44,244.5,249.44,248.5,255.44,244.5,249.44,240.5,243.44,244.5" style="stroke:#181818;stroke-width:1.0;"/><polygon fill="#000000" points="270.25,233.9744,261.2049,231.0354,261.2049,236.9133,270.25,233.9744" style="stroke:#000000;stroke-width:1.0;"/><text fill="#000000" font-family="sans-serif" font-size="13" lengthAdjust="spacing" textLength="49" x="274.25" y="238.6938">contains</text><text fill="#000000" font-family="sans-serif" font-size="13" lengthAdjust="spacing" textLength="7" x="250.9241" y="242.239">1</text><text fill="#000000" font-family="sans-serif" font-size="13" lengthAdjust="spacing" textLength="5" x="328.4474" y="242.3654">*</text></g><!--MD5=[ca395e89005b016218346e67898cfe86]
@startuml
    class Ejemplo {
        + main(args : String[]) : void
        - viewLine(unaLista : GenericList) : void
    }

    class GenericList<T> {
        - first : GenericNode<T>

        + size() : int
        + isEmpty() : boolean
        + insertFront(value : T) : void
        + insertEnd(value : T) : void
        + deleteFront() : void
        + getFirst() : GenericNode<T>
        + getLast() : GenericNode<T>
        + listAll() : T[]
    }

    class GenericNode<T> {
        - value : T
        - next : GenericNode<T>

        + GenericNode(value : T)
        + getValue() : T
        + setValue(newValue : T) : void
        + getNext() : GenericNode<T>
        + setNext(siguiente : GenericNode<T>) : void
    }

    Ejemplo .d.> GenericList
    GenericList "1" *-r- "*" GenericNode : contains >
@enduml

PlantUML version 1.2022.7(Mon Aug 22 17:01:30 UTC 2022)
(GPL source distribution)
Java Runtime: OpenJDK Runtime Environment
JVM: OpenJDK 64-Bit Server VM
Default Encoding: UTF-8
Language: es
Country: ES
--></g></svg>