<?xml version="1.0" encoding="UTF-8" standalone="no"?><svg xmlns="http://www.w3.org/2000/svg" xmlns:xlink="http://www.w3.org/1999/xlink" contentStyleType="text/css" height="195px" preserveAspectRatio="none" style="width:524px;height:195px;background:#FFFFFF;" version="1.1" viewBox="0 0 524 195" width="524px" zoomAndPan="magnify"><defs/><g><!--MD5=[3fee75583bb7a64f68d843a3c9534ab3]
class Node--><g id="elem_Node"><rect codeLine="1" fill="#F1F1F1" height="181.4754" id="Node" rx="2.5" ry="2.5" style="stroke:#181818;stroke-width:0.5;" width="237" x="280.5" y="7"/><ellipse cx="376.75" cy="23" fill="#ADD1B2" rx="11" ry="11" style="stroke:#181818;stroke-width:1.0;"/><path d="M376.2188,29.9219 Q374.4688,29.9219 373.3281,29.1875 Q372.2031,28.4375 371.6406,27.0938 Q371.0938,25.7344 371.0938,23.9375 Q371.0938,21.9063 371.75,20.4531 Q372.4063,19 373.6875,18.2188 Q374.9688,17.4375 376.8438,17.4375 Q377.7344,17.4375 378.4063,17.625 Q379.0781,17.7969 379.7656,18.1406 L378.9531,20.1563 Q378.3281,19.8438 377.7813,19.7188 Q377.25,19.5938 376.7656,19.5938 Q375.5938,19.5938 374.8906,20.125 Q374.1875,20.6563 373.8906,21.6094 Q373.5938,22.5625 373.5938,23.8281 Q373.5938,25.8438 374.3125,26.8125 Q375.0313,27.7656 376.625,27.7656 Q377.2188,27.7656 377.8438,27.6094 Q378.4688,27.4531 379.2969,27.0781 L379.2969,29.2969 Q378.5625,29.6094 377.7656,29.7656 Q376.9844,29.9219 376.2188,29.9219 Z " fill="#000000"/><text fill="#000000" font-family="sans-serif" font-size="14" lengthAdjust="spacing" textLength="36" x="397.25" y="28.432">Node</text><line style="stroke:#181818;stroke-width:0.5;" x1="281.5" x2="516.5" y1="39" y2="39"/><rect fill="none" height="6" style="stroke:#C82930;stroke-width:1.0;" width="6" x="288.5" y="51.034"/><text fill="#000000" font-family="sans-serif" font-size="14" lengthAdjust="spacing" textLength="81" x="300.5" y="57.9659">String value</text><rect fill="none" height="6" style="stroke:#C82930;stroke-width:1.0;" width="6" x="288.5" y="70.1019"/><text fill="#000000" font-family="sans-serif" font-size="14" lengthAdjust="spacing" textLength="69" x="300.5" y="77.0339">Node next</text><line style="stroke:#181818;stroke-width:0.5;" x1="281.5" x2="516.5" y1="85.1358" y2="85.1358"/><ellipse cx="291.5" cy="100.1698" fill="#84BE84" rx="3" ry="3" style="stroke:#038048;stroke-width:1.0;"/><text fill="#000000" font-family="sans-serif" font-size="14" lengthAdjust="spacing" textLength="129" x="300.5" y="104.1018">Node (String value)</text><ellipse cx="291.5" cy="119.2377" fill="#84BE84" rx="3" ry="3" style="stroke:#038048;stroke-width:1.0;"/><text fill="#000000" font-family="sans-serif" font-size="14" lengthAdjust="spacing" textLength="112" x="300.5" y="123.1697">String getValue()</text><ellipse cx="291.5" cy="138.3056" fill="#84BE84" rx="3" ry="3" style="stroke:#038048;stroke-width:1.0;"/><text fill="#000000" font-family="sans-serif" font-size="14" lengthAdjust="spacing" textLength="211" x="300.5" y="142.2376">void setValue (String newValue)</text><ellipse cx="291.5" cy="157.3735" fill="#84BE84" rx="3" ry="3" style="stroke:#038048;stroke-width:1.0;"/><text fill="#000000" font-family="sans-serif" font-size="14" lengthAdjust="spacing" textLength="101" x="300.5" y="161.3055">Node getNext()</text><ellipse cx="291.5" cy="176.4415" fill="#84BE84" rx="3" ry="3" style="stroke:#038048;stroke-width:1.0;"/><text fill="#000000" font-family="sans-serif" font-size="14" lengthAdjust="spacing" textLength="160" x="300.5" y="180.3734">void setNext(Node next)</text></g><!--MD5=[3d4177ac58b4411586d067f34e84928f]
class List--><g id="elem_List"><rect codeLine="11" fill="#F1F1F1" height="162.4075" id="List" rx="2.5" ry="2.5" style="stroke:#181818;stroke-width:0.5;" width="186" x="7" y="16.5"/><ellipse cx="84.25" cy="32.5" fill="#ADD1B2" rx="11" ry="11" style="stroke:#181818;stroke-width:1.0;"/><path d="M83.7188,39.4219 Q81.9688,39.4219 80.8281,38.6875 Q79.7031,37.9375 79.1406,36.5938 Q78.5938,35.2344 78.5938,33.4375 Q78.5938,31.4063 79.25,29.9531 Q79.9063,28.5 81.1875,27.7188 Q82.4688,26.9375 84.3438,26.9375 Q85.2344,26.9375 85.9063,27.125 Q86.5781,27.2969 87.2656,27.6406 L86.4531,29.6563 Q85.8281,29.3438 85.2813,29.2188 Q84.75,29.0938 84.2656,29.0938 Q83.0938,29.0938 82.3906,29.625 Q81.6875,30.1563 81.3906,31.1094 Q81.0938,32.0625 81.0938,33.3281 Q81.0938,35.3438 81.8125,36.3125 Q82.5313,37.2656 84.125,37.2656 Q84.7188,37.2656 85.3438,37.1094 Q85.9688,36.9531 86.7969,36.5781 L86.7969,38.7969 Q86.0625,39.1094 85.2656,39.2656 Q84.4844,39.4219 83.7188,39.4219 Z " fill="#000000"/><text fill="#000000" font-family="sans-serif" font-size="14" lengthAdjust="spacing" textLength="23" x="104.75" y="37.932">List</text><line style="stroke:#181818;stroke-width:0.5;" x1="8" x2="192" y1="48.5" y2="48.5"/><rect fill="none" height="6" style="stroke:#C82930;stroke-width:1.0;" width="6" x="15" y="60.534"/><text fill="#000000" font-family="sans-serif" font-size="14" lengthAdjust="spacing" textLength="67" x="27" y="67.4659">Node first</text><line style="stroke:#181818;stroke-width:0.5;" x1="8" x2="192" y1="75.5679" y2="75.5679"/><ellipse cx="18" cy="90.6019" fill="#84BE84" rx="3" ry="3" style="stroke:#038048;stroke-width:1.0;"/><text fill="#000000" font-family="sans-serif" font-size="14" lengthAdjust="spacing" textLength="56" x="27" y="94.5339">int size()</text><ellipse cx="18" cy="109.6698" fill="#84BE84" rx="3" ry="3" style="stroke:#038048;stroke-width:1.0;"/><text fill="#000000" font-family="sans-serif" font-size="14" lengthAdjust="spacing" textLength="119" x="27" y="113.6018">boolean isEmpty()</text><ellipse cx="18" cy="128.7377" fill="#84BE84" rx="3" ry="3" style="stroke:#038048;stroke-width:1.0;"/><text fill="#000000" font-family="sans-serif" font-size="14" lengthAdjust="spacing" textLength="160" x="27" y="132.6697">void insert(String value)</text><ellipse cx="18" cy="147.8056" fill="#84BE84" rx="3" ry="3" style="stroke:#038048;stroke-width:1.0;"/><text fill="#000000" font-family="sans-serif" font-size="14" lengthAdjust="spacing" textLength="82" x="27" y="151.7376">void delete()</text><ellipse cx="18" cy="166.8735" fill="#84BE84" rx="3" ry="3" style="stroke:#038048;stroke-width:1.0;"/><text fill="#000000" font-family="sans-serif" font-size="14" lengthAdjust="spacing" textLength="103" x="27" y="170.8055">String[] ListAll()</text></g><!--MD5=[bbf043ee690f9c7afb69dd5976a72333]
link List to Node--><g id="link_List_Node"><path codeLine="20" d="M193.38,97.5 C219.35,97.5 247.96,97.5 275.38,97.5 " fill="none" id="List-to-Node" style="stroke:#181818;stroke-width:1.0;"/><polygon fill="#181818" points="280.48,97.5,271.48,93.5,275.48,97.5,271.48,101.5,280.48,97.5" style="stroke:#181818;stroke-width:1.0;"/><text fill="#000000" font-family="sans-serif" font-size="13" lengthAdjust="spacing" textLength="51" x="211.25" y="90.397">contains</text><text fill="#000000" font-family="sans-serif" font-size="13" lengthAdjust="spacing" textLength="7" x="265.6631" y="93.8599">1</text></g><!--MD5=[dfa69db79f5bea344af175388668b5f6]
@startuml
    class Node {
        - String value
        - Node next
        + Node (String value)
        + String getValue()
        + void setValue (String newValue)
        + Node getNext()
        + void setNext(Node next)
    }

    class List {
        - Node first
        + int size()
        + boolean isEmpty()
        + void insert(String value)
        + void delete()
        + String[] ListAll()
    }

    List -r-> "1" Node : contains
@enduml

PlantUML version 1.2022.7(Mon Aug 22 19:01:30 CEST 2022)
(GPL source distribution)
Java Runtime: OpenJDK Runtime Environment
JVM: OpenJDK 64-Bit Server VM
Default Encoding: UTF-8
Language: es
Country: ES
--></g></svg>