<?xml version="1.0" encoding="UTF-8" standalone="no"?><svg xmlns="http://www.w3.org/2000/svg" xmlns:xlink="http://www.w3.org/1999/xlink" contentStyleType="text/css" height="195px" preserveAspectRatio="none" style="width:664px;height:195px;background:#FFFFFF;" version="1.1" viewBox="0 0 664 195" width="664px" zoomAndPan="magnify"><defs/><g><!--MD5=[3d4177ac58b4411586d067f34e84928f]
class List--><g id="elem_List"><rect codeLine="3" fill="#F1F1F1" height="181.4754" id="List" rx="2.5" ry="2.5" style="stroke:#181818;stroke-width:0.5;" width="207" x="7" y="7"/><ellipse cx="94.75" cy="23" fill="#ADD1B2" rx="11" ry="11" style="stroke:#181818;stroke-width:1.0;"/><path d="M94.2188,29.9219 Q92.4688,29.9219 91.3281,29.1875 Q90.2031,28.4375 89.6406,27.0938 Q89.0938,25.7344 89.0938,23.9375 Q89.0938,21.9063 89.75,20.4531 Q90.4063,19 91.6875,18.2188 Q92.9688,17.4375 94.8438,17.4375 Q95.7344,17.4375 96.4063,17.625 Q97.0781,17.7969 97.7656,18.1406 L96.9531,20.1563 Q96.3281,19.8438 95.7813,19.7188 Q95.25,19.5938 94.7656,19.5938 Q93.5938,19.5938 92.8906,20.125 Q92.1875,20.6563 91.8906,21.6094 Q91.5938,22.5625 91.5938,23.8281 Q91.5938,25.8438 92.3125,26.8125 Q93.0313,27.7656 94.625,27.7656 Q95.2188,27.7656 95.8438,27.6094 Q96.4688,27.4531 97.2969,27.0781 L97.2969,29.2969 Q96.5625,29.6094 95.7656,29.7656 Q94.9844,29.9219 94.2188,29.9219 Z " fill="#000000"/><text fill="#000000" font-family="sans-serif" font-size="14" lengthAdjust="spacing" textLength="23" x="115.25" y="28.432">List</text><line style="stroke:#181818;stroke-width:0.5;" x1="8" x2="213" y1="39" y2="39"/><rect fill="none" height="6" style="stroke:#C82930;stroke-width:1.0;" width="6" x="15" y="51.034"/><text fill="#000000" font-family="sans-serif" font-size="14" lengthAdjust="spacing" textLength="67" x="27" y="57.9659">Nodo first</text><line style="stroke:#181818;stroke-width:0.5;" x1="8" x2="213" y1="66.0679" y2="66.0679"/><ellipse cx="18" cy="81.1019" fill="#84BE84" rx="3" ry="3" style="stroke:#038048;stroke-width:1.0;"/><text fill="#000000" font-family="sans-serif" font-size="14" lengthAdjust="spacing" textLength="57" x="27" y="85.0339">int Size()</text><ellipse cx="18" cy="100.1698" fill="#84BE84" rx="3" ry="3" style="stroke:#038048;stroke-width:1.0;"/><text fill="#000000" font-family="sans-serif" font-size="14" lengthAdjust="spacing" textLength="120" x="27" y="104.1018">boolean IsEmpty()</text><ellipse cx="18" cy="119.2377" fill="#84BE84" rx="3" ry="3" style="stroke:#038048;stroke-width:1.0;"/><text fill="#000000" font-family="sans-serif" font-size="14" lengthAdjust="spacing" textLength="173" x="27" y="123.1697">void InsertIni(String dato)</text><ellipse cx="18" cy="138.3056" fill="#84BE84" rx="3" ry="3" style="stroke:#038048;stroke-width:1.0;"/><text fill="#000000" font-family="sans-serif" font-size="14" lengthAdjust="spacing" textLength="181" x="27" y="142.2376">void InsertEnd(String dato)</text><ellipse cx="18" cy="157.3735" fill="#84BE84" rx="3" ry="3" style="stroke:#038048;stroke-width:1.0;"/><text fill="#000000" font-family="sans-serif" font-size="14" lengthAdjust="spacing" textLength="101" x="27" y="161.3055">void DeleteIni()</text><ellipse cx="18" cy="176.4415" fill="#84BE84" rx="3" ry="3" style="stroke:#038048;stroke-width:1.0;"/><text fill="#000000" font-family="sans-serif" font-size="14" lengthAdjust="spacing" textLength="103" x="27" y="180.3734">String[] ListAll()</text></g><!--MD5=[51d01b056e41854a49db00f516bbe598]
class Nodo--><g id="elem_Nodo"><rect codeLine="13" fill="#F1F1F1" height="181.4754" id="Nodo" rx="2.5" ry="2.5" style="stroke:#181818;stroke-width:0.5;" width="253" x="302" y="7"/><ellipse cx="406.25" cy="23" fill="#ADD1B2" rx="11" ry="11" style="stroke:#181818;stroke-width:1.0;"/><path d="M405.7188,29.9219 Q403.9688,29.9219 402.8281,29.1875 Q401.7031,28.4375 401.1406,27.0938 Q400.5938,25.7344 400.5938,23.9375 Q400.5938,21.9063 401.25,20.4531 Q401.9063,19 403.1875,18.2188 Q404.4688,17.4375 406.3438,17.4375 Q407.2344,17.4375 407.9063,17.625 Q408.5781,17.7969 409.2656,18.1406 L408.4531,20.1563 Q407.8281,19.8438 407.2813,19.7188 Q406.75,19.5938 406.2656,19.5938 Q405.0938,19.5938 404.3906,20.125 Q403.6875,20.6563 403.3906,21.6094 Q403.0938,22.5625 403.0938,23.8281 Q403.0938,25.8438 403.8125,26.8125 Q404.5313,27.7656 406.125,27.7656 Q406.7188,27.7656 407.3438,27.6094 Q407.9688,27.4531 408.7969,27.0781 L408.7969,29.2969 Q408.0625,29.6094 407.2656,29.7656 Q406.4844,29.9219 405.7188,29.9219 Z " fill="#000000"/><text fill="#000000" font-family="sans-serif" font-size="14" lengthAdjust="spacing" textLength="36" x="426.75" y="28.432">Nodo</text><line style="stroke:#181818;stroke-width:0.5;" x1="303" x2="554" y1="39" y2="39"/><rect fill="none" height="6" style="stroke:#C82930;stroke-width:1.0;" width="6" x="310" y="51.034"/><text fill="#000000" font-family="sans-serif" font-size="14" lengthAdjust="spacing" textLength="75" x="322" y="57.9659">String dato</text><rect fill="none" height="6" style="stroke:#C82930;stroke-width:1.0;" width="6" x="310" y="70.1019"/><text fill="#000000" font-family="sans-serif" font-size="14" lengthAdjust="spacing" textLength="103" x="322" y="77.0339">Nodo siguiente</text><line style="stroke:#181818;stroke-width:0.5;" x1="303" x2="554" y1="85.1358" y2="85.1358"/><ellipse cx="313" cy="100.1698" fill="#84BE84" rx="3" ry="3" style="stroke:#038048;stroke-width:1.0;"/><text fill="#000000" font-family="sans-serif" font-size="14" lengthAdjust="spacing" textLength="93" x="322" y="104.1018">Nodo(String i)</text><ellipse cx="313" cy="119.2377" fill="#84BE84" rx="3" ry="3" style="stroke:#038048;stroke-width:1.0;"/><text fill="#000000" font-family="sans-serif" font-size="14" lengthAdjust="spacing" textLength="106" x="322" y="123.1697">String getDato()</text><ellipse cx="313" cy="138.3056" fill="#84BE84" rx="3" ry="3" style="stroke:#038048;stroke-width:1.0;"/><text fill="#000000" font-family="sans-serif" font-size="14" lengthAdjust="spacing" textLength="166" x="322" y="142.2376">void setDato(String dato)</text><ellipse cx="313" cy="157.3735" fill="#84BE84" rx="3" ry="3" style="stroke:#038048;stroke-width:1.0;"/><text fill="#000000" font-family="sans-serif" font-size="14" lengthAdjust="spacing" textLength="134" x="322" y="161.3055">Nodo getSiguiente()</text><ellipse cx="313" cy="176.4415" fill="#84BE84" rx="3" ry="3" style="stroke:#038048;stroke-width:1.0;"/><text fill="#000000" font-family="sans-serif" font-size="14" lengthAdjust="spacing" textLength="227" x="322" y="180.3734">void setSiguiente(Nodo siguiente)</text></g><!--MD5=[7ab00fd6339a98cb2f1a6939cb73ca94]
link List to Nodo--><g id="link_List_Nodo"><path codeLine="23" d="M214.19,97.5 C240.55,97.5 269.23,97.5 296.78,97.5 " fill="none" id="List-to-Nodo" style="stroke:#181818;stroke-width:1.0;"/><polygon fill="#181818" points="301.91,97.5,292.91,93.5,296.91,97.5,292.91,101.5,301.91,97.5" style="stroke:#181818;stroke-width:1.0;"/><text fill="#000000" font-family="sans-serif" font-size="13" lengthAdjust="spacing" textLength="51" x="232.5" y="90.397">contains</text><text fill="#000000" font-family="sans-serif" font-size="13" lengthAdjust="spacing" textLength="7" x="286.9826" y="93.8861">1</text></g><!--MD5=[8782672b1eb52189c6c0b628bd4a282f]
link Nodo to Nodo--><g id="link_Nodo_Nodo"><path codeLine="24" d="M555.12,66.27 C575.79,70.74 590,81.15 590,97.5 C590,112.44 578.13,122.42 560.3,127.44 " fill="none" id="Nodo-to-Nodo" style="stroke:#181818;stroke-width:1.0;"/><polygon fill="#181818" points="555.12,128.73,564.8179,130.448,559.9732,127.5274,562.8938,122.6828,555.12,128.73" style="stroke:#181818;stroke-width:1.0;"/><text fill="#000000" font-family="sans-serif" font-size="13" lengthAdjust="spacing" textLength="55" x="596" y="102.897">siguiente</text><text fill="#000000" font-family="sans-serif" font-size="13" lengthAdjust="spacing" textLength="20" x="563.0183" y="126.9478">0..1</text></g><!--MD5=[1068393d5dbacb5a64518cd3cafbd04e]
@startuml


    class List {
        - Nodo first
        + int Size()
        + boolean IsEmpty()
        + void InsertIni(String dato)
        + void InsertEnd(String dato)
        + void DeleteIni()
        + String[] ListAll()
    }

    class Nodo {
        - String dato
        - Nodo siguiente
        + Nodo(String i)
        + String getDato()
        + void setDato(String dato)
        + Nodo getSiguiente()
        + void setSiguiente(Nodo siguiente)
    }

    List -r-> "1" Nodo : contains
    Nodo - -> "0..1" Nodo : siguiente



@enduml

PlantUML version 1.2022.7(Mon Aug 22 19:01:30 CEST 2022)
(GPL source distribution)
Java Runtime: OpenJDK Runtime Environment
JVM: OpenJDK 64-Bit Server VM
Default Encoding: UTF-8
Language: es
Country: ES
--></g></svg>