<?xml version="1.0" encoding="UTF-8" standalone="no"?><svg xmlns="http://www.w3.org/2000/svg" xmlns:xlink="http://www.w3.org/1999/xlink" contentStyleType="text/css" height="834px" preserveAspectRatio="none" style="width:782px;height:834px;background:#FFFFFF;" version="1.1" viewBox="0 0 782 834" width="782px" zoomAndPan="magnify"><defs/><g><!--MD5=[36c69e103e6a1b590bb0b05acee9c048]
class IDataStructure--><g id="elem_IDataStructure"><rect codeLine="2" fill="#F1F1F1" height="105.2038" id="IDataStructure" rx="2.5" ry="2.5" style="stroke:#181818;stroke-width:0.5;" width="149" x="81" y="10.016"/><ellipse cx="102.3" cy="26.016" fill="#B4A7E5" rx="11" ry="11" style="stroke:#181818;stroke-width:1.0;"/><path d="M98.3313,32.516 L98.3313,30.8129 L100.6906,30.5473 L100.6906,22.3441 L98.3313,22.0785 L98.3313,20.3754 L105.4719,20.3754 L105.4719,22.0785 L103.05,22.3441 L103.05,30.5473 L105.4719,30.8129 L105.4719,32.516 L98.3313,32.516 Z " fill="#000000"/><text fill="#000000" font-family="sans-serif" font-size="14" font-style="italic" lengthAdjust="spacing" textLength="93" x="117.7" y="31.448">IDataStructure</text><rect fill="#FFFFFF" height="18.3441" style="stroke:#181818;stroke-width:1.0;stroke-dasharray:2.0,2.0;" width="8" x="225" y="7.016"/><text fill="#000000" font-family="sans-serif" font-size="12" font-style="italic" lengthAdjust="spacing" textLength="6" x="226" y="20.8441">T</text><line style="stroke:#181818;stroke-width:0.5;" x1="82" x2="229" y1="42.016" y2="42.016"/><line style="stroke:#181818;stroke-width:0.5;" x1="82" x2="229" y1="50.016" y2="50.016"/><ellipse cx="92" cy="65.05" fill="#84BE84" rx="3" ry="3" style="stroke:#038048;stroke-width:1.0;"/><text fill="#000000" font-family="sans-serif" font-size="14" lengthAdjust="spacing" textLength="123" x="101" y="68.982">isEmpty(): boolean</text><ellipse cx="92" cy="84.1179" fill="#84BE84" rx="3" ry="3" style="stroke:#038048;stroke-width:1.0;"/><text fill="#000000" font-family="sans-serif" font-size="14" lengthAdjust="spacing" textLength="60" x="101" y="88.0499">size(): int</text><ellipse cx="92" cy="103.1858" fill="#84BE84" rx="3" ry="3" style="stroke:#038048;stroke-width:1.0;"/><text fill="#000000" font-family="sans-serif" font-size="14" lengthAdjust="spacing" textLength="121" x="101" y="107.1178">listData(): Object[]</text></g><!--MD5=[3d4177ac58b4411586d067f34e84928f]
class List--><g id="elem_List"><rect codeLine="8" fill="#F1F1F1" height="181.4754" id="List" rx="2.5" ry="2.5" style="stroke:#181818;stroke-width:0.5;" width="245" x="33" y="185.016"/><ellipse cx="134.75" cy="201.016" fill="#ADD1B2" rx="11" ry="11" style="stroke:#181818;stroke-width:1.0;"/><path d="M134.2188,207.9379 Q132.4688,207.9379 131.3281,207.2035 Q130.2031,206.4535 129.6406,205.1098 Q129.0938,203.7504 129.0938,201.9535 Q129.0938,199.9223 129.75,198.4691 Q130.4063,197.016 131.6875,196.2348 Q132.9688,195.4535 134.8438,195.4535 Q135.7344,195.4535 136.4063,195.641 Q137.0781,195.8129 137.7656,196.1566 L136.9531,198.1723 Q136.3281,197.8598 135.7813,197.7348 Q135.25,197.6098 134.7656,197.6098 Q133.5938,197.6098 132.8906,198.141 Q132.1875,198.6723 131.8906,199.6254 Q131.5938,200.5785 131.5938,201.8441 Q131.5938,203.8598 132.3125,204.8285 Q133.0313,205.7816 134.625,205.7816 Q135.2188,205.7816 135.8438,205.6254 Q136.4688,205.4691 137.2969,205.0941 L137.2969,207.3129 Q136.5625,207.6254 135.7656,207.7816 Q134.9844,207.9379 134.2188,207.9379 Z " fill="#000000"/><text fill="#000000" font-family="sans-serif" font-size="14" lengthAdjust="spacing" textLength="23" x="155.25" y="206.448">List</text><rect fill="#FFFFFF" height="18.3441" style="stroke:#181818;stroke-width:1.0;stroke-dasharray:2.0,2.0;" width="8" x="273" y="182.016"/><text fill="#000000" font-family="sans-serif" font-size="12" font-style="italic" lengthAdjust="spacing" textLength="6" x="274" y="195.8441">T</text><line style="stroke:#181818;stroke-width:0.5;" x1="34" x2="277" y1="217.016" y2="217.016"/><rect fill="none" height="6" style="stroke:#C82930;stroke-width:1.0;" width="6" x="41" y="229.05"/><text fill="#000000" font-family="sans-serif" font-size="14" lengthAdjust="spacing" textLength="95" x="53" y="235.982">first: Node&lt;T&gt;</text><line style="stroke:#181818;stroke-width:0.5;" x1="34" x2="277" y1="244.0839" y2="244.0839"/><ellipse cx="44" cy="259.1179" fill="#84BE84" rx="3" ry="3" style="stroke:#038048;stroke-width:1.0;"/><text fill="#000000" font-family="sans-serif" font-size="14" lengthAdjust="spacing" textLength="219" x="53" y="263.0499">insert(data: T, index: int): List&lt;T&gt;</text><ellipse cx="44" cy="278.1858" fill="#84BE84" rx="3" ry="3" style="stroke:#038048;stroke-width:1.0;"/><text fill="#000000" font-family="sans-serif" font-size="14" lengthAdjust="spacing" textLength="176" x="53" y="282.1178">remove(index: int): List&lt;T&gt;</text><ellipse cx="44" cy="297.2537" fill="#84BE84" rx="3" ry="3" style="stroke:#038048;stroke-width:1.0;"/><text fill="#000000" font-family="sans-serif" font-size="14" lengthAdjust="spacing" textLength="127" x="53" y="301.1857">getFirst(): Node&lt;T&gt;</text><ellipse cx="44" cy="316.3217" fill="#84BE84" rx="3" ry="3" style="stroke:#038048;stroke-width:1.0;"/><text fill="#000000" font-family="sans-serif" font-size="14" lengthAdjust="spacing" textLength="123" x="53" y="320.2536">isEmpty(): boolean</text><ellipse cx="44" cy="335.3896" fill="#84BE84" rx="3" ry="3" style="stroke:#038048;stroke-width:1.0;"/><text fill="#000000" font-family="sans-serif" font-size="14" lengthAdjust="spacing" textLength="60" x="53" y="339.3215">size(): int</text><ellipse cx="44" cy="354.4575" fill="#84BE84" rx="3" ry="3" style="stroke:#038048;stroke-width:1.0;"/><text fill="#000000" font-family="sans-serif" font-size="14" lengthAdjust="spacing" textLength="121" x="53" y="358.3895">listData(): Object[]</text></g><!--MD5=[3fee75583bb7a64f68d843a3c9534ab3]
class Node--><g id="elem_Node"><rect codeLine="21" fill="#F1F1F1" height="200.5433" id="Node" rx="2.5" ry="2.5" style="stroke:#181818;stroke-width:0.5;" width="182" x="313.5" y="175.016"/><ellipse cx="377.25" cy="191.016" fill="#ADD1B2" rx="11" ry="11" style="stroke:#181818;stroke-width:1.0;"/><path d="M376.7188,197.9379 Q374.9688,197.9379 373.8281,197.2035 Q372.7031,196.4535 372.1406,195.1098 Q371.5938,193.7504 371.5938,191.9535 Q371.5938,189.9223 372.25,188.4691 Q372.9063,187.016 374.1875,186.2348 Q375.4688,185.4535 377.3438,185.4535 Q378.2344,185.4535 378.9063,185.641 Q379.5781,185.8129 380.2656,186.1566 L379.4531,188.1723 Q378.8281,187.8598 378.2813,187.7348 Q377.75,187.6098 377.2656,187.6098 Q376.0938,187.6098 375.3906,188.141 Q374.6875,188.6723 374.3906,189.6254 Q374.0938,190.5785 374.0938,191.8441 Q374.0938,193.8598 374.8125,194.8285 Q375.5313,195.7816 377.125,195.7816 Q377.7188,195.7816 378.3438,195.6254 Q378.9688,195.4691 379.7969,195.0941 L379.7969,197.3129 Q379.0625,197.6254 378.2656,197.7816 Q377.4844,197.9379 376.7188,197.9379 Z " fill="#000000"/><text fill="#000000" font-family="sans-serif" font-size="14" lengthAdjust="spacing" textLength="36" x="397.75" y="196.448">Node</text><rect fill="#FFFFFF" height="18.3441" style="stroke:#181818;stroke-width:1.0;stroke-dasharray:2.0,2.0;" width="8" x="490.5" y="172.016"/><text fill="#000000" font-family="sans-serif" font-size="12" font-style="italic" lengthAdjust="spacing" textLength="6" x="491.5" y="185.8441">T</text><line style="stroke:#181818;stroke-width:0.5;" x1="314.5" x2="494.5" y1="207.016" y2="207.016"/><rect fill="none" height="6" style="stroke:#C82930;stroke-width:1.0;" width="6" x="321.5" y="219.05"/><text fill="#000000" font-family="sans-serif" font-size="14" lengthAdjust="spacing" textLength="46" x="333.5" y="225.982">data: T</text><rect fill="none" height="6" style="stroke:#C82930;stroke-width:1.0;" width="6" x="321.5" y="238.1179"/><text fill="#000000" font-family="sans-serif" font-size="14" lengthAdjust="spacing" textLength="97" x="333.5" y="245.0499">next: Node&lt;T&gt;</text><line style="stroke:#181818;stroke-width:0.5;" x1="314.5" x2="494.5" y1="253.1519" y2="253.1519"/><ellipse cx="324.5" cy="268.1858" fill="#84BE84" rx="3" ry="3" style="stroke:#038048;stroke-width:1.0;"/><text fill="#000000" font-family="sans-serif" font-size="14" lengthAdjust="spacing" textLength="90" x="333.5" y="272.1178">Node(data: T)</text><ellipse cx="324.5" cy="287.2537" fill="#84BE84" rx="3" ry="3" style="stroke:#038048;stroke-width:1.0;"/><text fill="#000000" font-family="sans-serif" font-size="14" lengthAdjust="spacing" textLength="77" x="333.5" y="291.1857">getData(): T</text><ellipse cx="324.5" cy="306.3217" fill="#84BE84" rx="3" ry="3" style="stroke:#038048;stroke-width:1.0;"/><text fill="#000000" font-family="sans-serif" font-size="14" lengthAdjust="spacing" textLength="105" x="333.5" y="310.2536">setData(data: T)</text><ellipse cx="324.5" cy="325.3896" fill="#84BE84" rx="3" ry="3" style="stroke:#038048;stroke-width:1.0;"/><text fill="#000000" font-family="sans-serif" font-size="14" lengthAdjust="spacing" textLength="129" x="333.5" y="329.3215">getNext(): Node&lt;T&gt;</text><ellipse cx="324.5" cy="344.4575" fill="#84BE84" rx="3" ry="3" style="stroke:#038048;stroke-width:1.0;"/><text fill="#000000" font-family="sans-serif" font-size="14" lengthAdjust="spacing" textLength="156" x="333.5" y="348.3895">setNext(next: Node&lt;T&gt;)</text><ellipse cx="324.5" cy="363.5254" fill="#84BE84" rx="3" ry="3" style="stroke:#038048;stroke-width:1.0;"/><text fill="#000000" font-family="sans-serif" font-size="14" lengthAdjust="spacing" textLength="72" x="333.5" y="367.4574">count(): int</text></g><!--MD5=[839feccf427c04a3ad9b3979bc07548a]
class Marathon--><g id="elem_Marathon"><rect codeLine="35" fill="#F1F1F1" height="143.3396" id="Marathon" rx="2.5" ry="2.5" style="stroke:#181818;stroke-width:0.5;" width="297" x="7" y="560.016"/><ellipse cx="118.25" cy="576.016" fill="#ADD1B2" rx="11" ry="11" style="stroke:#181818;stroke-width:1.0;"/><path d="M117.7188,582.9379 Q115.9688,582.9379 114.8281,582.2035 Q113.7031,581.4535 113.1406,580.1098 Q112.5938,578.7504 112.5938,576.9535 Q112.5938,574.9223 113.25,573.4691 Q113.9063,572.016 115.1875,571.2348 Q116.4688,570.4535 118.3438,570.4535 Q119.2344,570.4535 119.9063,570.641 Q120.5781,570.8129 121.2656,571.1566 L120.4531,573.1723 Q119.8281,572.8598 119.2813,572.7348 Q118.75,572.6098 118.2656,572.6098 Q117.0938,572.6098 116.3906,573.141 Q115.6875,573.6723 115.3906,574.6254 Q115.0938,575.5785 115.0938,576.8441 Q115.0938,578.8598 115.8125,579.8285 Q116.5313,580.7816 118.125,580.7816 Q118.7188,580.7816 119.3438,580.6254 Q119.9688,580.4691 120.7969,580.0941 L120.7969,582.3129 Q120.0625,582.6254 119.2656,582.7816 Q118.4844,582.9379 117.7188,582.9379 Z " fill="#000000"/><text fill="#000000" font-family="sans-serif" font-size="14" lengthAdjust="spacing" textLength="66" x="138.75" y="581.448">Marathon</text><line style="stroke:#181818;stroke-width:0.5;" x1="8" x2="303" y1="592.016" y2="592.016"/><rect fill="none" height="6" style="stroke:#C82930;stroke-width:1.0;" width="6" x="15" y="604.05"/><text fill="#000000" font-family="sans-serif" font-size="14" lengthAdjust="spacing" textLength="201" x="27" y="610.982">participants: List&lt;Participant&gt;</text><line style="stroke:#181818;stroke-width:0.5;" x1="8" x2="303" y1="619.0839" y2="619.0839"/><ellipse cx="18" cy="634.1179" fill="#84BE84" rx="3" ry="3" style="stroke:#038048;stroke-width:1.0;"/><text fill="#000000" font-family="sans-serif" font-size="14" lengthAdjust="spacing" textLength="74" x="27" y="638.0499">Marathon()</text><ellipse cx="18" cy="653.1858" fill="#84BE84" rx="3" ry="3" style="stroke:#038048;stroke-width:1.0;"/><text fill="#000000" font-family="sans-serif" font-size="14" lengthAdjust="spacing" textLength="262" x="27" y="657.1178">addParticipant(participant: Participant)</text><ellipse cx="18" cy="672.2537" fill="#84BE84" rx="3" ry="3" style="stroke:#038048;stroke-width:1.0;"/><text fill="#000000" font-family="sans-serif" font-size="14" lengthAdjust="spacing" textLength="238" x="27" y="676.1857">getParticipantNames(): List&lt;String&gt;</text><ellipse cx="18" cy="691.3217" fill="#84BE84" rx="3" ry="3" style="stroke:#038048;stroke-width:1.0;"/><text fill="#000000" font-family="sans-serif" font-size="14" lengthAdjust="spacing" textLength="271" x="27" y="695.2536">getParticipant(name: String): Participant</text></g><!--MD5=[b1b35833dc86dffc6b5d0c34dd643d10]
class Participant--><g id="elem_Participant"><rect codeLine="47" fill="#F1F1F1" height="391.2225" id="Participant" rx="2.5" ry="2.5" style="stroke:#181818;stroke-width:0.5;" width="436" x="339.5" y="436.016"/><ellipse cx="516.75" cy="452.016" fill="#ADD1B2" rx="11" ry="11" style="stroke:#181818;stroke-width:1.0;"/><path d="M516.2188,458.9379 Q514.4688,458.9379 513.3281,458.2035 Q512.2031,457.4535 511.6406,456.1098 Q511.0938,454.7504 511.0938,452.9535 Q511.0938,450.9223 511.75,449.4691 Q512.4063,448.016 513.6875,447.2348 Q514.9688,446.4535 516.8438,446.4535 Q517.7344,446.4535 518.4063,446.641 Q519.0781,446.8129 519.7656,447.1566 L518.9531,449.1723 Q518.3281,448.8598 517.7813,448.7348 Q517.25,448.6098 516.7656,448.6098 Q515.5938,448.6098 514.8906,449.141 Q514.1875,449.6723 513.8906,450.6254 Q513.5938,451.5785 513.5938,452.8441 Q513.5938,454.8598 514.3125,455.8285 Q515.0313,456.7816 516.625,456.7816 Q517.2188,456.7816 517.8438,456.6254 Q518.4688,456.4691 519.2969,456.0941 L519.2969,458.3129 Q518.5625,458.6254 517.7656,458.7816 Q516.9844,458.9379 516.2188,458.9379 Z " fill="#000000"/><text fill="#000000" font-family="sans-serif" font-size="14" lengthAdjust="spacing" textLength="73" x="537.25" y="457.448">Participant</text><line style="stroke:#181818;stroke-width:0.5;" x1="340.5" x2="774.5" y1="468.016" y2="468.016"/><rect fill="none" height="6" style="stroke:#C82930;stroke-width:1.0;" width="6" x="347.5" y="480.05"/><text fill="#000000" font-family="sans-serif" font-size="14" lengthAdjust="spacing" textLength="87" x="359.5" y="486.982">name: String</text><rect fill="none" height="6" style="stroke:#C82930;stroke-width:1.0;" width="6" x="347.5" y="499.1179"/><text fill="#000000" font-family="sans-serif" font-size="14" lengthAdjust="spacing" textLength="100" x="359.5" y="506.0499">country: String</text><rect fill="none" height="6" style="stroke:#C82930;stroke-width:1.0;" width="6" x="347.5" y="518.1858"/><text fill="#000000" font-family="sans-serif" font-size="14" lengthAdjust="spacing" textLength="126" x="359.5" y="525.1178">birthday: Calendar</text><rect fill="none" height="6" style="stroke:#C82930;stroke-width:1.0;" width="6" x="347.5" y="537.2537"/><text fill="#000000" font-family="sans-serif" font-size="14" lengthAdjust="spacing" textLength="100" x="359.5" y="544.1857">start: Calendar</text><rect fill="none" height="6" style="stroke:#C82930;stroke-width:1.0;" width="6" x="347.5" y="556.3217"/><text fill="#000000" font-family="sans-serif" font-size="14" lengthAdjust="spacing" textLength="95" x="359.5" y="563.2536">end: Calendar</text><line style="stroke:#181818;stroke-width:0.5;" x1="340.5" x2="774.5" y1="571.3556" y2="571.3556"/><ellipse cx="350.5" cy="586.3896" fill="#84BE84" rx="3" ry="3" style="stroke:#038048;stroke-width:1.0;"/><text fill="#000000" font-family="sans-serif" font-size="14" lengthAdjust="spacing" textLength="81" x="359.5" y="590.3215">Participant()</text><ellipse cx="350.5" cy="605.4575" fill="#84BE84" rx="3" ry="3" style="stroke:#038048;stroke-width:1.0;"/><text fill="#000000" font-family="sans-serif" font-size="14" lengthAdjust="spacing" textLength="410" x="359.5" y="609.3895">Participant(name: String, country: String, birthday: Calendar)</text><text fill="#000000" font-family="sans-serif" font-size="14" lengthAdjust="spacing" textLength="4" x="359.5" y="628.4574"> </text><ellipse cx="350.5" cy="643.5933" fill="#84BE84" rx="3" ry="3" style="stroke:#038048;stroke-width:1.0;"/><text fill="#000000" font-family="sans-serif" font-size="14" lengthAdjust="spacing" textLength="119" x="359.5" y="647.5253">getName(): String</text><ellipse cx="350.5" cy="662.6612" fill="#84BE84" rx="3" ry="3" style="stroke:#038048;stroke-width:1.0;"/><text fill="#000000" font-family="sans-serif" font-size="14" lengthAdjust="spacing" textLength="155" x="359.5" y="666.5932">setName(name: String)</text><ellipse cx="350.5" cy="681.7292" fill="#84BE84" rx="3" ry="3" style="stroke:#038048;stroke-width:1.0;"/><text fill="#000000" font-family="sans-serif" font-size="14" lengthAdjust="spacing" textLength="132" x="359.5" y="685.6611">getCountry(): String</text><ellipse cx="350.5" cy="700.7971" fill="#84BE84" rx="3" ry="3" style="stroke:#038048;stroke-width:1.0;"/><text fill="#000000" font-family="sans-serif" font-size="14" lengthAdjust="spacing" textLength="181" x="359.5" y="704.729">setCountry(country: String)</text><ellipse cx="350.5" cy="719.865" fill="#84BE84" rx="3" ry="3" style="stroke:#038048;stroke-width:1.0;"/><text fill="#000000" font-family="sans-serif" font-size="14" lengthAdjust="spacing" textLength="156" x="359.5" y="723.797">getBirthday(): Calendar</text><ellipse cx="350.5" cy="738.9329" fill="#84BE84" rx="3" ry="3" style="stroke:#038048;stroke-width:1.0;"/><text fill="#000000" font-family="sans-serif" font-size="14" lengthAdjust="spacing" textLength="211" x="359.5" y="742.8649">setBirthday(birthday: Calendar)</text><ellipse cx="350.5" cy="758.0008" fill="#84BE84" rx="3" ry="3" style="stroke:#038048;stroke-width:1.0;"/><text fill="#000000" font-family="sans-serif" font-size="14" lengthAdjust="spacing" textLength="131" x="359.5" y="761.9328">getStart(): Calendar</text><ellipse cx="350.5" cy="777.0687" fill="#84BE84" rx="3" ry="3" style="stroke:#038048;stroke-width:1.0;"/><text fill="#000000" font-family="sans-serif" font-size="14" lengthAdjust="spacing" textLength="160" x="359.5" y="781.0007">setStart(start: Calendar)</text><ellipse cx="350.5" cy="796.1367" fill="#84BE84" rx="3" ry="3" style="stroke:#038048;stroke-width:1.0;"/><text fill="#000000" font-family="sans-serif" font-size="14" lengthAdjust="spacing" textLength="125" x="359.5" y="800.0686">getEnd(): Calendar</text><ellipse cx="350.5" cy="815.2046" fill="#84BE84" rx="3" ry="3" style="stroke:#038048;stroke-width:1.0;"/><text fill="#000000" font-family="sans-serif" font-size="14" lengthAdjust="spacing" textLength="149" x="359.5" y="819.1365">setEnd(end: Calendar)</text></g><!--MD5=[24d7dac2295fba8c0a76fbc30ec93ada]
reverse link IDataStructure to List--><g id="link_IDataStructure_List"><path codeLine="19" d="M155.5,135.256 C155.5,151.176 155.5,168.236 155.5,184.766 " fill="none" id="IDataStructure-backto-List" style="stroke:#181818;stroke-width:1.0;stroke-dasharray:7.0,7.0;"/><polygon fill="none" points="148.5,135.136,155.5,115.136,162.5,135.136,148.5,135.136" style="stroke:#181818;stroke-width:1.0;"/></g><!--MD5=[bbf043ee690f9c7afb69dd5976a72333]
link List to Node--><g id="link_List_Node"><path codeLine="33" d="M290.05,275.516 C290.05,275.516 297.14,275.516 300.11,275.516 " fill="none" id="List-Node" style="stroke:#181818;stroke-width:1.0;"/><polygon fill="#181818" points="313.12,275.516,304.12,271.516,308.12,275.516,304.12,279.516,313.12,275.516" style="stroke:#181818;stroke-width:1.0;"/><line style="stroke:#181818;stroke-width:1.0;" x1="308.12" x2="300.12" y1="275.516" y2="275.516"/><polygon fill="none" points="278.05,275.516,284.05,279.516,290.05,275.516,284.05,271.516,278.05,275.516" style="stroke:#181818;stroke-width:1.0;"/></g><!--MD5=[341dc02858eb45d6cbaf46faf97dfede]
link List to Marathon--><g id="link_List_Marathon"><path codeLine="44" d="M155.5,379.576 C155.5,432.706 155.5,547.796 155.5,547.796 " fill="none" id="List-Marathon" style="stroke:#181818;stroke-width:1.0;"/><polygon fill="none" points="155.5,559.796,159.5,553.796,155.5,547.796,151.5,553.796,155.5,559.796" style="stroke:#181818;stroke-width:1.0;"/><polygon fill="#181818" points="155.5,366.306,151.5,375.306,155.5,371.306,159.5,375.306,155.5,366.306" style="stroke:#181818;stroke-width:1.0;"/><line style="stroke:#181818;stroke-width:1.0;" x1="155.5" x2="155.5" y1="371.306" y2="379.306"/></g><!--MD5=[0a1c571d3a9c1ab4e9d6cb146868600d]
link Marathon to Participant--><g id="link_Marathon_Participant"><path codeLine="45" d="M316.29,631.516 C316.29,631.516 323.4,631.516 326.37,631.516 " fill="none" id="Marathon-Participant" style="stroke:#181818;stroke-width:1.0;"/><polygon fill="#181818" points="339.4,631.516,330.4,627.516,334.4,631.516,330.4,635.516,339.4,631.516" style="stroke:#181818;stroke-width:1.0;"/><line style="stroke:#181818;stroke-width:1.0;" x1="334.4" x2="326.4" y1="631.516" y2="631.516"/><polygon fill="none" points="304.29,631.516,310.29,635.516,316.29,631.516,310.29,627.516,304.29,631.516" style="stroke:#181818;stroke-width:1.0;"/></g><!--MD5=[23ce077accff6e821decb2f54d445976]
@startuml

interface IDataStructure<T> {
  + isEmpty(): boolean 
  + size(): int
  + listData(): Object[]
}

class List<T> {
  - first: Node<T>

  + insert(data: T, index: int): List<T>
  + remove(index: int): List<T>
  + getFirst(): Node<T>
  + isEmpty(): boolean
  + size(): int
  + listData(): Object[]
}

List .u.|> IDataStructure

class Node<T> {
  - data: T
  - next: Node<T>

  + Node(data: T)
  + getData(): T  
  + setData(data: T)
  + getNext(): Node<T>
  + setNext(next: Node<T>)
  + count(): int
}

List o-r- -> Node

class Marathon {
  - participants: List<Participant>
  
  + Marathon()
  + addParticipant(participant: Participant)
  + getParticipantNames(): List<String>
  + getParticipant(name: String): Participant 
}

Marathon o-u-> List
Marathon o-r- -> Participant

class Participant {
  - name: String
  - country: String
  - birthday: Calendar 
  - start: Calendar
  - end: Calendar
  
  + Participant()
  + Participant(name: String, country: String, birthday: Calendar)

  + getName(): String
  + setName(name: String)  
  + getCountry(): String
  + setCountry(country: String)
  + getBirthday(): Calendar
  + setBirthday(birthday: Calendar)
  + getStart(): Calendar
  + setStart(start: Calendar)
  + getEnd(): Calendar
  + setEnd(end: Calendar)
}

@enduml

PlantUML version 1.2022.7(Mon Aug 22 19:01:30 CEST 2022)
(GPL source distribution)
Java Runtime: OpenJDK Runtime Environment
JVM: OpenJDK 64-Bit Server VM
Default Encoding: UTF-8
Language: es
Country: ES
--></g></svg>