<?xml version="1.0" encoding="UTF-8" standalone="no"?><svg xmlns="http://www.w3.org/2000/svg" xmlns:xlink="http://www.w3.org/1999/xlink" contentStyleType="text/css" height="382px" preserveAspectRatio="none" style="width:480px;height:382px;background:#FFFFFF;" version="1.1" viewBox="0 0 480 382" width="480px" zoomAndPan="magnify"><defs/><g><!--MD5=[36c69e103e6a1b590bb0b05acee9c048]
class IDataStructure--><g id="elem_IDataStructure"><rect codeLine="1" fill="#F1F1F1" height="105.2038" id="IDataStructure" rx="2.5" ry="2.5" style="stroke:#181818;stroke-width:0.5;" width="149" x="55" y="10.016"/><ellipse cx="76.3" cy="26.016" fill="#B4A7E5" rx="11" ry="11" style="stroke:#181818;stroke-width:1.0;"/><path d="M72.3313,32.516 L72.3313,30.8129 L74.6906,30.5473 L74.6906,22.3441 L72.3313,22.0785 L72.3313,20.3754 L79.4719,20.3754 L79.4719,22.0785 L77.05,22.3441 L77.05,30.5473 L79.4719,30.8129 L79.4719,32.516 L72.3313,32.516 Z " fill="#000000"/><text fill="#000000" font-family="sans-serif" font-size="14" font-style="italic" lengthAdjust="spacing" textLength="93" x="91.7" y="31.448">IDataStructure</text><rect fill="#FFFFFF" height="18.3441" style="stroke:#181818;stroke-width:1.0;stroke-dasharray:2.0,2.0;" width="8" x="199" y="7.016"/><text fill="#000000" font-family="sans-serif" font-size="12" font-style="italic" lengthAdjust="spacing" textLength="6" x="200" y="20.8441">T</text><line style="stroke:#181818;stroke-width:0.5;" x1="56" x2="203" y1="42.016" y2="42.016"/><line style="stroke:#181818;stroke-width:0.5;" x1="56" x2="203" y1="50.016" y2="50.016"/><ellipse cx="66" cy="65.05" fill="#84BE84" rx="3" ry="3" style="stroke:#038048;stroke-width:1.0;"/><text fill="#000000" font-family="sans-serif" font-size="14" lengthAdjust="spacing" textLength="123" x="75" y="68.982">isEmpty(): boolean</text><ellipse cx="66" cy="84.1179" fill="#84BE84" rx="3" ry="3" style="stroke:#038048;stroke-width:1.0;"/><text fill="#000000" font-family="sans-serif" font-size="14" lengthAdjust="spacing" textLength="60" x="75" y="88.0499">size(): int</text><ellipse cx="66" cy="103.1858" fill="#84BE84" rx="3" ry="3" style="stroke:#038048;stroke-width:1.0;"/><text fill="#000000" font-family="sans-serif" font-size="14" lengthAdjust="spacing" textLength="121" x="75" y="107.1178">listData(): Object[]</text></g><!--MD5=[3d4177ac58b4411586d067f34e84928f]
class List--><g id="elem_List"><rect codeLine="7" fill="#F1F1F1" height="181.4754" id="List" rx="2.5" ry="2.5" style="stroke:#181818;stroke-width:0.5;" width="245" x="7" y="185.016"/><ellipse cx="108.75" cy="201.016" fill="#ADD1B2" rx="11" ry="11" style="stroke:#181818;stroke-width:1.0;"/><path d="M108.2188,207.9379 Q106.4688,207.9379 105.3281,207.2035 Q104.2031,206.4535 103.6406,205.1098 Q103.0938,203.7504 103.0938,201.9535 Q103.0938,199.9223 103.75,198.4691 Q104.4063,197.016 105.6875,196.2348 Q106.9688,195.4535 108.8438,195.4535 Q109.7344,195.4535 110.4063,195.641 Q111.0781,195.8129 111.7656,196.1566 L110.9531,198.1723 Q110.3281,197.8598 109.7813,197.7348 Q109.25,197.6098 108.7656,197.6098 Q107.5938,197.6098 106.8906,198.141 Q106.1875,198.6723 105.8906,199.6254 Q105.5938,200.5785 105.5938,201.8441 Q105.5938,203.8598 106.3125,204.8285 Q107.0313,205.7816 108.625,205.7816 Q109.2188,205.7816 109.8438,205.6254 Q110.4688,205.4691 111.2969,205.0941 L111.2969,207.3129 Q110.5625,207.6254 109.7656,207.7816 Q108.9844,207.9379 108.2188,207.9379 Z " fill="#000000"/><text fill="#000000" font-family="sans-serif" font-size="14" lengthAdjust="spacing" textLength="23" x="129.25" y="206.448">List</text><rect fill="#FFFFFF" height="18.3441" style="stroke:#181818;stroke-width:1.0;stroke-dasharray:2.0,2.0;" width="8" x="247" y="182.016"/><text fill="#000000" font-family="sans-serif" font-size="12" font-style="italic" lengthAdjust="spacing" textLength="6" x="248" y="195.8441">T</text><line style="stroke:#181818;stroke-width:0.5;" x1="8" x2="251" y1="217.016" y2="217.016"/><rect fill="none" height="6" style="stroke:#C82930;stroke-width:1.0;" width="6" x="15" y="229.05"/><text fill="#000000" font-family="sans-serif" font-size="14" lengthAdjust="spacing" textLength="95" x="27" y="235.982">first: Node&lt;T&gt;</text><line style="stroke:#181818;stroke-width:0.5;" x1="8" x2="251" y1="244.0839" y2="244.0839"/><ellipse cx="18" cy="259.1179" fill="#84BE84" rx="3" ry="3" style="stroke:#038048;stroke-width:1.0;"/><text fill="#000000" font-family="sans-serif" font-size="14" lengthAdjust="spacing" textLength="219" x="27" y="263.0499">insert(data: T, index: int): List&lt;T&gt;</text><ellipse cx="18" cy="278.1858" fill="#84BE84" rx="3" ry="3" style="stroke:#038048;stroke-width:1.0;"/><text fill="#000000" font-family="sans-serif" font-size="14" lengthAdjust="spacing" textLength="176" x="27" y="282.1178">remove(index: int): List&lt;T&gt;</text><ellipse cx="18" cy="297.2537" fill="#84BE84" rx="3" ry="3" style="stroke:#038048;stroke-width:1.0;"/><text fill="#000000" font-family="sans-serif" font-size="14" lengthAdjust="spacing" textLength="127" x="27" y="301.1857">getFirst(): Node&lt;T&gt;</text><ellipse cx="18" cy="316.3217" fill="#84BE84" rx="3" ry="3" style="stroke:#038048;stroke-width:1.0;"/><text fill="#000000" font-family="sans-serif" font-size="14" lengthAdjust="spacing" textLength="123" x="27" y="320.2536">isEmpty(): boolean</text><ellipse cx="18" cy="335.3896" fill="#84BE84" rx="3" ry="3" style="stroke:#038048;stroke-width:1.0;"/><text fill="#000000" font-family="sans-serif" font-size="14" lengthAdjust="spacing" textLength="60" x="27" y="339.3215">size(): int</text><ellipse cx="18" cy="354.4575" fill="#84BE84" rx="3" ry="3" style="stroke:#038048;stroke-width:1.0;"/><text fill="#000000" font-family="sans-serif" font-size="14" lengthAdjust="spacing" textLength="121" x="27" y="358.3895">listData(): Object[]</text></g><!--MD5=[3fee75583bb7a64f68d843a3c9534ab3]
class Node--><g id="elem_Node"><rect codeLine="20" fill="#F1F1F1" height="200.5433" id="Node" rx="2.5" ry="2.5" style="stroke:#181818;stroke-width:0.5;" width="182" x="287.5" y="175.016"/><ellipse cx="351.25" cy="191.016" fill="#ADD1B2" rx="11" ry="11" style="stroke:#181818;stroke-width:1.0;"/><path d="M350.7188,197.9379 Q348.9688,197.9379 347.8281,197.2035 Q346.7031,196.4535 346.1406,195.1098 Q345.5938,193.7504 345.5938,191.9535 Q345.5938,189.9223 346.25,188.4691 Q346.9063,187.016 348.1875,186.2348 Q349.4688,185.4535 351.3438,185.4535 Q352.2344,185.4535 352.9063,185.641 Q353.5781,185.8129 354.2656,186.1566 L353.4531,188.1723 Q352.8281,187.8598 352.2813,187.7348 Q351.75,187.6098 351.2656,187.6098 Q350.0938,187.6098 349.3906,188.141 Q348.6875,188.6723 348.3906,189.6254 Q348.0938,190.5785 348.0938,191.8441 Q348.0938,193.8598 348.8125,194.8285 Q349.5313,195.7816 351.125,195.7816 Q351.7188,195.7816 352.3438,195.6254 Q352.9688,195.4691 353.7969,195.0941 L353.7969,197.3129 Q353.0625,197.6254 352.2656,197.7816 Q351.4844,197.9379 350.7188,197.9379 Z " fill="#000000"/><text fill="#000000" font-family="sans-serif" font-size="14" lengthAdjust="spacing" textLength="36" x="371.75" y="196.448">Node</text><rect fill="#FFFFFF" height="18.3441" style="stroke:#181818;stroke-width:1.0;stroke-dasharray:2.0,2.0;" width="8" x="464.5" y="172.016"/><text fill="#000000" font-family="sans-serif" font-size="12" font-style="italic" lengthAdjust="spacing" textLength="6" x="465.5" y="185.8441">T</text><line style="stroke:#181818;stroke-width:0.5;" x1="288.5" x2="468.5" y1="207.016" y2="207.016"/><rect fill="none" height="6" style="stroke:#C82930;stroke-width:1.0;" width="6" x="295.5" y="219.05"/><text fill="#000000" font-family="sans-serif" font-size="14" lengthAdjust="spacing" textLength="46" x="307.5" y="225.982">data: T</text><rect fill="none" height="6" style="stroke:#C82930;stroke-width:1.0;" width="6" x="295.5" y="238.1179"/><text fill="#000000" font-family="sans-serif" font-size="14" lengthAdjust="spacing" textLength="97" x="307.5" y="245.0499">next: Node&lt;T&gt;</text><line style="stroke:#181818;stroke-width:0.5;" x1="288.5" x2="468.5" y1="253.1519" y2="253.1519"/><ellipse cx="298.5" cy="268.1858" fill="#84BE84" rx="3" ry="3" style="stroke:#038048;stroke-width:1.0;"/><text fill="#000000" font-family="sans-serif" font-size="14" lengthAdjust="spacing" textLength="90" x="307.5" y="272.1178">Node(data: T)</text><ellipse cx="298.5" cy="287.2537" fill="#84BE84" rx="3" ry="3" style="stroke:#038048;stroke-width:1.0;"/><text fill="#000000" font-family="sans-serif" font-size="14" lengthAdjust="spacing" textLength="77" x="307.5" y="291.1857">getData(): T</text><ellipse cx="298.5" cy="306.3217" fill="#84BE84" rx="3" ry="3" style="stroke:#038048;stroke-width:1.0;"/><text fill="#000000" font-family="sans-serif" font-size="14" lengthAdjust="spacing" textLength="105" x="307.5" y="310.2536">setData(data: T)</text><ellipse cx="298.5" cy="325.3896" fill="#84BE84" rx="3" ry="3" style="stroke:#038048;stroke-width:1.0;"/><text fill="#000000" font-family="sans-serif" font-size="14" lengthAdjust="spacing" textLength="129" x="307.5" y="329.3215">getNext(): Node&lt;T&gt;</text><ellipse cx="298.5" cy="344.4575" fill="#84BE84" rx="3" ry="3" style="stroke:#038048;stroke-width:1.0;"/><text fill="#000000" font-family="sans-serif" font-size="14" lengthAdjust="spacing" textLength="156" x="307.5" y="348.3895">setNext(next: Node&lt;T&gt;)</text><ellipse cx="298.5" cy="363.5254" fill="#84BE84" rx="3" ry="3" style="stroke:#038048;stroke-width:1.0;"/><text fill="#000000" font-family="sans-serif" font-size="14" lengthAdjust="spacing" textLength="72" x="307.5" y="367.4574">count(): int</text></g><!--MD5=[24d7dac2295fba8c0a76fbc30ec93ada]
reverse link IDataStructure to List--><g id="link_IDataStructure_List"><path codeLine="18" d="M129.5,135.256 C129.5,151.176 129.5,168.236 129.5,184.766 " fill="none" id="IDataStructure-backto-List" style="stroke:#181818;stroke-width:1.0;stroke-dasharray:7.0,7.0;"/><polygon fill="none" points="122.5,135.136,129.5,115.136,136.5,135.136,122.5,135.136" style="stroke:#181818;stroke-width:1.0;"/></g><!--MD5=[bbf043ee690f9c7afb69dd5976a72333]
link List to Node--><g id="link_List_Node"><path codeLine="32" d="M264.05,275.516 C264.05,275.516 271.14,275.516 274.11,275.516 " fill="none" id="List-Node" style="stroke:#181818;stroke-width:1.0;"/><polygon fill="#181818" points="287.12,275.516,278.12,271.516,282.12,275.516,278.12,279.516,287.12,275.516" style="stroke:#181818;stroke-width:1.0;"/><line style="stroke:#181818;stroke-width:1.0;" x1="282.12" x2="274.12" y1="275.516" y2="275.516"/><polygon fill="none" points="252.05,275.516,258.05,279.516,264.05,275.516,258.05,271.516,252.05,275.516" style="stroke:#181818;stroke-width:1.0;"/></g><!--MD5=[a2769a975c74fd4307245f75c49743f6]
@startuml
interface IDataStructure<T> {
  + isEmpty(): boolean
  + size(): int 
  + listData(): Object[]
}

class List<T> {
  - first: Node<T>
  
  + insert(data: T, index: int): List<T>
  + remove(index: int): List<T>
  + getFirst(): Node<T>
  + isEmpty(): boolean
  + size(): int
  + listData(): Object[]
}

List .u.|> IDataStructure

class Node<T> {
  - data: T
  - next: Node<T>

  + Node(data: T)  
  + getData(): T
  + setData(data: T)
  + getNext(): Node<T>
  + setNext(next: Node<T>)
  + count(): int  
}

List o-r-> Node

@enduml

PlantUML version 1.2022.7(Mon Aug 22 19:01:30 CEST 2022)
(GPL source distribution)
Java Runtime: OpenJDK Runtime Environment
JVM: OpenJDK 64-Bit Server VM
Default Encoding: UTF-8
Language: es
Country: ES
--></g></svg>