<?xml version="1.0" encoding="UTF-8" standalone="no"?><svg xmlns="http://www.w3.org/2000/svg" xmlns:xlink="http://www.w3.org/1999/xlink" contentStyleType="text/css" height="1079px" preserveAspectRatio="none" style="width:553px;height:1079px;background:#FFFFFF;" version="1.1" viewBox="0 0 553 1079" width="553px" zoomAndPan="magnify"><defs/><g><!--MD5=[175f95e045c1a44aed0b30df3abe0e5c]
class Program--><g id="elem_Program"><rect codeLine="2" fill="#F1F1F1" height="48" id="Program" rx="2.5" ry="2.5" style="stroke:#181818;stroke-width:0.5;" width="90" x="396.5" y="7"/><ellipse cx="411.5" cy="23" fill="#ADD1B2" rx="11" ry="11" style="stroke:#181818;stroke-width:1.0;"/><path d="M410.9688,29.9219 Q409.2188,29.9219 408.0781,29.1875 Q406.9531,28.4375 406.3906,27.0938 Q405.8438,25.7344 405.8438,23.9375 Q405.8438,21.9063 406.5,20.4531 Q407.1563,19 408.4375,18.2188 Q409.7188,17.4375 411.5938,17.4375 Q412.4844,17.4375 413.1563,17.625 Q413.8281,17.7969 414.5156,18.1406 L413.7031,20.1563 Q413.0781,19.8438 412.5313,19.7188 Q412,19.5938 411.5156,19.5938 Q410.3438,19.5938 409.6406,20.125 Q408.9375,20.6563 408.6406,21.6094 Q408.3438,22.5625 408.3438,23.8281 Q408.3438,25.8438 409.0625,26.8125 Q409.7813,27.7656 411.375,27.7656 Q411.9688,27.7656 412.5938,27.6094 Q413.2188,27.4531 414.0469,27.0781 L414.0469,29.2969 Q413.3125,29.6094 412.5156,29.7656 Q411.7344,29.9219 410.9688,29.9219 Z " fill="#000000"/><text fill="#000000" font-family="sans-serif" font-size="14" lengthAdjust="spacing" textLength="58" x="425.5" y="28.432">Program</text><line style="stroke:#181818;stroke-width:0.5;" x1="397.5" x2="485.5" y1="39" y2="39"/><line style="stroke:#181818;stroke-width:0.5;" x1="397.5" x2="485.5" y1="47" y2="47"/></g><!--MD5=[4e2ad48a1abc117fdc6f339da0f64213]
class Package--><g id="elem_Package"><rect codeLine="3" fill="#F1F1F1" height="48" id="Package" rx="2.5" ry="2.5" style="stroke:#181818;stroke-width:0.5;" width="87" x="398" y="116"/><ellipse cx="413" cy="132" fill="#ADD1B2" rx="11" ry="11" style="stroke:#181818;stroke-width:1.0;"/><path d="M412.4688,138.9219 Q410.7188,138.9219 409.5781,138.1875 Q408.4531,137.4375 407.8906,136.0938 Q407.3438,134.7344 407.3438,132.9375 Q407.3438,130.9063 408,129.4531 Q408.6563,128 409.9375,127.2188 Q411.2188,126.4375 413.0938,126.4375 Q413.9844,126.4375 414.6563,126.625 Q415.3281,126.7969 416.0156,127.1406 L415.2031,129.1563 Q414.5781,128.8438 414.0313,128.7188 Q413.5,128.5938 413.0156,128.5938 Q411.8438,128.5938 411.1406,129.125 Q410.4375,129.6563 410.1406,130.6094 Q409.8438,131.5625 409.8438,132.8281 Q409.8438,134.8438 410.5625,135.8125 Q411.2813,136.7656 412.875,136.7656 Q413.4688,136.7656 414.0938,136.6094 Q414.7188,136.4531 415.5469,136.0781 L415.5469,138.2969 Q414.8125,138.6094 414.0156,138.7656 Q413.2344,138.9219 412.4688,138.9219 Z " fill="#000000"/><text fill="#000000" font-family="sans-serif" font-size="14" lengthAdjust="spacing" textLength="55" x="427" y="137.432">Package</text><line style="stroke:#181818;stroke-width:0.5;" x1="399" x2="484" y1="148" y2="148"/><line style="stroke:#181818;stroke-width:0.5;" x1="399" x2="484" y1="156" y2="156"/></g><!--MD5=[41e1c6cf192918703501b24b2053926c]
class Class--><g id="elem_Class"><rect codeLine="4" fill="#F1F1F1" height="48" id="Class" rx="2.5" ry="2.5" style="stroke:#181818;stroke-width:0.5;" width="67" x="408" y="225"/><ellipse cx="423" cy="241" fill="#ADD1B2" rx="11" ry="11" style="stroke:#181818;stroke-width:1.0;"/><path d="M422.4688,247.9219 Q420.7188,247.9219 419.5781,247.1875 Q418.4531,246.4375 417.8906,245.0938 Q417.3438,243.7344 417.3438,241.9375 Q417.3438,239.9063 418,238.4531 Q418.6563,237 419.9375,236.2188 Q421.2188,235.4375 423.0938,235.4375 Q423.9844,235.4375 424.6563,235.625 Q425.3281,235.7969 426.0156,236.1406 L425.2031,238.1563 Q424.5781,237.8438 424.0313,237.7188 Q423.5,237.5938 423.0156,237.5938 Q421.8438,237.5938 421.1406,238.125 Q420.4375,238.6563 420.1406,239.6094 Q419.8438,240.5625 419.8438,241.8281 Q419.8438,243.8438 420.5625,244.8125 Q421.2813,245.7656 422.875,245.7656 Q423.4688,245.7656 424.0938,245.6094 Q424.7188,245.4531 425.5469,245.0781 L425.5469,247.2969 Q424.8125,247.6094 424.0156,247.7656 Q423.2344,247.9219 422.4688,247.9219 Z " fill="#000000"/><text fill="#000000" font-family="sans-serif" font-size="14" lengthAdjust="spacing" textLength="35" x="437" y="246.432">Class</text><line style="stroke:#181818;stroke-width:0.5;" x1="409" x2="474" y1="257" y2="257"/><line style="stroke:#181818;stroke-width:0.5;" x1="409" x2="474" y1="265" y2="265"/></g><!--MD5=[ed17eb27918d6d975aac91b8ab0bf633]
class Method--><g id="elem_Method"><rect codeLine="5" fill="#F1F1F1" height="48" id="Method" rx="2.5" ry="2.5" style="stroke:#181818;stroke-width:0.5;" width="84" x="243.5" y="334"/><ellipse cx="258.5" cy="350" fill="#ADD1B2" rx="11" ry="11" style="stroke:#181818;stroke-width:1.0;"/><path d="M257.9688,356.9219 Q256.2188,356.9219 255.0781,356.1875 Q253.9531,355.4375 253.3906,354.0938 Q252.8438,352.7344 252.8438,350.9375 Q252.8438,348.9063 253.5,347.4531 Q254.1563,346 255.4375,345.2188 Q256.7188,344.4375 258.5938,344.4375 Q259.4844,344.4375 260.1563,344.625 Q260.8281,344.7969 261.5156,345.1406 L260.7031,347.1563 Q260.0781,346.8438 259.5313,346.7188 Q259,346.5938 258.5156,346.5938 Q257.3438,346.5938 256.6406,347.125 Q255.9375,347.6563 255.6406,348.6094 Q255.3438,349.5625 255.3438,350.8281 Q255.3438,352.8438 256.0625,353.8125 Q256.7813,354.7656 258.375,354.7656 Q258.9688,354.7656 259.5938,354.6094 Q260.2188,354.4531 261.0469,354.0781 L261.0469,356.2969 Q260.3125,356.6094 259.5156,356.7656 Q258.7344,356.9219 257.9688,356.9219 Z " fill="#000000"/><text fill="#000000" font-family="sans-serif" font-size="14" lengthAdjust="spacing" textLength="52" x="272.5" y="355.432">Method</text><line style="stroke:#181818;stroke-width:0.5;" x1="244.5" x2="326.5" y1="366" y2="366"/><line style="stroke:#181818;stroke-width:0.5;" x1="244.5" x2="326.5" y1="374" y2="374"/></g><!--MD5=[809345c0b0cbe75053da8b155ded178a]
class Sentence--><g id="elem_Sentence"><rect codeLine="6" fill="#F1F1F1" height="48" id="Sentence" rx="2.5" ry="2.5" style="stroke:#181818;stroke-width:0.5;" width="94" x="71.5" y="443"/><ellipse cx="86.5" cy="459" fill="#ADD1B2" rx="11" ry="11" style="stroke:#181818;stroke-width:1.0;"/><path d="M85.9688,465.9219 Q84.2188,465.9219 83.0781,465.1875 Q81.9531,464.4375 81.3906,463.0938 Q80.8438,461.7344 80.8438,459.9375 Q80.8438,457.9063 81.5,456.4531 Q82.1563,455 83.4375,454.2188 Q84.7188,453.4375 86.5938,453.4375 Q87.4844,453.4375 88.1563,453.625 Q88.8281,453.7969 89.5156,454.1406 L88.7031,456.1563 Q88.0781,455.8438 87.5313,455.7188 Q87,455.5938 86.5156,455.5938 Q85.3438,455.5938 84.6406,456.125 Q83.9375,456.6563 83.6406,457.6094 Q83.3438,458.5625 83.3438,459.8281 Q83.3438,461.8438 84.0625,462.8125 Q84.7813,463.7656 86.375,463.7656 Q86.9688,463.7656 87.5938,463.6094 Q88.2188,463.4531 89.0469,463.0781 L89.0469,465.2969 Q88.3125,465.6094 87.5156,465.7656 Q86.7344,465.9219 85.9688,465.9219 Z " fill="#000000"/><text fill="#000000" font-family="sans-serif" font-size="14" lengthAdjust="spacing" textLength="62" x="100.5" y="464.432">Sentence</text><line style="stroke:#181818;stroke-width:0.5;" x1="72.5" x2="164.5" y1="475" y2="475"/><line style="stroke:#181818;stroke-width:0.5;" x1="72.5" x2="164.5" y1="483" y2="483"/></g><!--MD5=[3637e2e3ff64f8c7ec072f5df5e3a1dc]
class Expression--><g id="elem_Expression"><rect codeLine="7" fill="#F1F1F1" height="48" id="Expression" rx="2.5" ry="2.5" style="stroke:#181818;stroke-width:0.5;" width="105" x="49" y="570"/><ellipse cx="64" cy="586" fill="#ADD1B2" rx="11" ry="11" style="stroke:#181818;stroke-width:1.0;"/><path d="M63.4688,592.9219 Q61.7188,592.9219 60.5781,592.1875 Q59.4531,591.4375 58.8906,590.0938 Q58.3438,588.7344 58.3438,586.9375 Q58.3438,584.9063 59,583.4531 Q59.6563,582 60.9375,581.2188 Q62.2188,580.4375 64.0938,580.4375 Q64.9844,580.4375 65.6563,580.625 Q66.3281,580.7969 67.0156,581.1406 L66.2031,583.1563 Q65.5781,582.8438 65.0313,582.7188 Q64.5,582.5938 64.0156,582.5938 Q62.8438,582.5938 62.1406,583.125 Q61.4375,583.6563 61.1406,584.6094 Q60.8438,585.5625 60.8438,586.8281 Q60.8438,588.8438 61.5625,589.8125 Q62.2813,590.7656 63.875,590.7656 Q64.4688,590.7656 65.0938,590.6094 Q65.7188,590.4531 66.5469,590.0781 L66.5469,592.2969 Q65.8125,592.6094 65.0156,592.7656 Q64.2344,592.9219 63.4688,592.9219 Z " fill="#000000"/><text fill="#000000" font-family="sans-serif" font-size="14" lengthAdjust="spacing" textLength="73" x="78" y="591.432">Expression</text><line style="stroke:#181818;stroke-width:0.5;" x1="50" x2="153" y1="602" y2="602"/><line style="stroke:#181818;stroke-width:0.5;" x1="50" x2="153" y1="610" y2="610"/></g><!--MD5=[361e73a814e28ed043957a958c9da4ce]
class Operator--><g id="elem_Operator"><rect codeLine="8" fill="#F1F1F1" height="48" id="Operator" rx="2.5" ry="2.5" style="stroke:#181818;stroke-width:0.5;" width="93" x="7" y="679"/><ellipse cx="22" cy="695" fill="#ADD1B2" rx="11" ry="11" style="stroke:#181818;stroke-width:1.0;"/><path d="M21.4688,701.9219 Q19.7188,701.9219 18.5781,701.1875 Q17.4531,700.4375 16.8906,699.0938 Q16.3438,697.7344 16.3438,695.9375 Q16.3438,693.9063 17,692.4531 Q17.6563,691 18.9375,690.2188 Q20.2188,689.4375 22.0938,689.4375 Q22.9844,689.4375 23.6563,689.625 Q24.3281,689.7969 25.0156,690.1406 L24.2031,692.1563 Q23.5781,691.8438 23.0313,691.7188 Q22.5,691.5938 22.0156,691.5938 Q20.8438,691.5938 20.1406,692.125 Q19.4375,692.6563 19.1406,693.6094 Q18.8438,694.5625 18.8438,695.8281 Q18.8438,697.8438 19.5625,698.8125 Q20.2813,699.7656 21.875,699.7656 Q22.4688,699.7656 23.0938,699.6094 Q23.7188,699.4531 24.5469,699.0781 L24.5469,701.2969 Q23.8125,701.6094 23.0156,701.7656 Q22.2344,701.9219 21.4688,701.9219 Z " fill="#000000"/><text fill="#000000" font-family="sans-serif" font-size="14" lengthAdjust="spacing" textLength="61" x="36" y="700.432">Operator</text><line style="stroke:#181818;stroke-width:0.5;" x1="8" x2="99" y1="711" y2="711"/><line style="stroke:#181818;stroke-width:0.5;" x1="8" x2="99" y1="719" y2="719"/></g><!--MD5=[60c9ed31c535bee25c55ce21b5b01399]
class Data--><g id="elem_Data"><rect codeLine="9" fill="#F1F1F1" height="48" id="Data" rx="2.5" ry="2.5" style="stroke:#181818;stroke-width:0.5;" width="63" x="218" y="788"/><ellipse cx="233" cy="804" fill="#ADD1B2" rx="11" ry="11" style="stroke:#181818;stroke-width:1.0;"/><path d="M232.4688,810.9219 Q230.7188,810.9219 229.5781,810.1875 Q228.4531,809.4375 227.8906,808.0938 Q227.3438,806.7344 227.3438,804.9375 Q227.3438,802.9063 228,801.4531 Q228.6563,800 229.9375,799.2188 Q231.2188,798.4375 233.0938,798.4375 Q233.9844,798.4375 234.6563,798.625 Q235.3281,798.7969 236.0156,799.1406 L235.2031,801.1563 Q234.5781,800.8438 234.0313,800.7188 Q233.5,800.5938 233.0156,800.5938 Q231.8438,800.5938 231.1406,801.125 Q230.4375,801.6563 230.1406,802.6094 Q229.8438,803.5625 229.8438,804.8281 Q229.8438,806.8438 230.5625,807.8125 Q231.2813,808.7656 232.875,808.7656 Q233.4688,808.7656 234.0938,808.6094 Q234.7188,808.4531 235.5469,808.0781 L235.5469,810.2969 Q234.8125,810.6094 234.0156,810.7656 Q233.2344,810.9219 232.4688,810.9219 Z " fill="#000000"/><text fill="#000000" font-family="sans-serif" font-size="14" lengthAdjust="spacing" textLength="31" x="247" y="809.432">Data</text><line style="stroke:#181818;stroke-width:0.5;" x1="219" x2="280" y1="820" y2="820"/><line style="stroke:#181818;stroke-width:0.5;" x1="219" x2="280" y1="828" y2="828"/></g><!--MD5=[1e667c6ad6db7468aaf1f24fbbf1ec5d]
class Variable--><g id="elem_Variable"><rect codeLine="10" fill="#F1F1F1" height="48" id="Variable" rx="2.5" ry="2.5" style="stroke:#181818;stroke-width:0.5;" width="87" x="144" y="915"/><ellipse cx="159" cy="931" fill="#ADD1B2" rx="11" ry="11" style="stroke:#181818;stroke-width:1.0;"/><path d="M158.4688,937.9219 Q156.7188,937.9219 155.5781,937.1875 Q154.4531,936.4375 153.8906,935.0938 Q153.3438,933.7344 153.3438,931.9375 Q153.3438,929.9063 154,928.4531 Q154.6563,927 155.9375,926.2188 Q157.2188,925.4375 159.0938,925.4375 Q159.9844,925.4375 160.6563,925.625 Q161.3281,925.7969 162.0156,926.1406 L161.2031,928.1563 Q160.5781,927.8438 160.0313,927.7188 Q159.5,927.5938 159.0156,927.5938 Q157.8438,927.5938 157.1406,928.125 Q156.4375,928.6563 156.1406,929.6094 Q155.8438,930.5625 155.8438,931.8281 Q155.8438,933.8438 156.5625,934.8125 Q157.2813,935.7656 158.875,935.7656 Q159.4688,935.7656 160.0938,935.6094 Q160.7188,935.4531 161.5469,935.0781 L161.5469,937.2969 Q160.8125,937.6094 160.0156,937.7656 Q159.2344,937.9219 158.4688,937.9219 Z " fill="#000000"/><text fill="#000000" font-family="sans-serif" font-size="14" lengthAdjust="spacing" textLength="55" x="173" y="936.432">Variable</text><line style="stroke:#181818;stroke-width:0.5;" x1="145" x2="230" y1="947" y2="947"/><line style="stroke:#181818;stroke-width:0.5;" x1="145" x2="230" y1="955" y2="955"/></g><!--MD5=[54b85b6d1a687c59d530998eb343c279]
class Constant--><g id="elem_Constant"><rect codeLine="11" fill="#F1F1F1" height="48" id="Constant" rx="2.5" ry="2.5" style="stroke:#181818;stroke-width:0.5;" width="92" x="266.5" y="915"/><ellipse cx="281.5" cy="931" fill="#ADD1B2" rx="11" ry="11" style="stroke:#181818;stroke-width:1.0;"/><path d="M280.9688,937.9219 Q279.2188,937.9219 278.0781,937.1875 Q276.9531,936.4375 276.3906,935.0938 Q275.8438,933.7344 275.8438,931.9375 Q275.8438,929.9063 276.5,928.4531 Q277.1563,927 278.4375,926.2188 Q279.7188,925.4375 281.5938,925.4375 Q282.4844,925.4375 283.1563,925.625 Q283.8281,925.7969 284.5156,926.1406 L283.7031,928.1563 Q283.0781,927.8438 282.5313,927.7188 Q282,927.5938 281.5156,927.5938 Q280.3438,927.5938 279.6406,928.125 Q278.9375,928.6563 278.6406,929.6094 Q278.3438,930.5625 278.3438,931.8281 Q278.3438,933.8438 279.0625,934.8125 Q279.7813,935.7656 281.375,935.7656 Q281.9688,935.7656 282.5938,935.6094 Q283.2188,935.4531 284.0469,935.0781 L284.0469,937.2969 Q283.3125,937.6094 282.5156,937.7656 Q281.7344,937.9219 280.9688,937.9219 Z " fill="#000000"/><text fill="#000000" font-family="sans-serif" font-size="14" lengthAdjust="spacing" textLength="60" x="295.5" y="936.432">Constant</text><line style="stroke:#181818;stroke-width:0.5;" x1="267.5" x2="357.5" y1="947" y2="947"/><line style="stroke:#181818;stroke-width:0.5;" x1="267.5" x2="357.5" y1="955" y2="955"/></g><!--MD5=[09a36a1903a95e10fe9bdf0212c223f5]
class Clasificador--><g id="elem_Clasificador"><rect fill="#F1F1F1" height="48" id="Clasificador" rx="2.5" ry="2.5" style="stroke:#181818;stroke-width:0.5;" width="111" x="429" y="915"/><ellipse cx="444" cy="931" fill="#ADD1B2" rx="11" ry="11" style="stroke:#181818;stroke-width:1.0;"/><path d="M443.4688,937.9219 Q441.7188,937.9219 440.5781,937.1875 Q439.4531,936.4375 438.8906,935.0938 Q438.3438,933.7344 438.3438,931.9375 Q438.3438,929.9063 439,928.4531 Q439.6563,927 440.9375,926.2188 Q442.2188,925.4375 444.0938,925.4375 Q444.9844,925.4375 445.6563,925.625 Q446.3281,925.7969 447.0156,926.1406 L446.2031,928.1563 Q445.5781,927.8438 445.0313,927.7188 Q444.5,927.5938 444.0156,927.5938 Q442.8438,927.5938 442.1406,928.125 Q441.4375,928.6563 441.1406,929.6094 Q440.8438,930.5625 440.8438,931.8281 Q440.8438,933.8438 441.5625,934.8125 Q442.2813,935.7656 443.875,935.7656 Q444.4688,935.7656 445.0938,935.6094 Q445.7188,935.4531 446.5469,935.0781 L446.5469,937.2969 Q445.8125,937.6094 445.0156,937.7656 Q444.2344,937.9219 443.4688,937.9219 Z " fill="#000000"/><text fill="#000000" font-family="sans-serif" font-size="14" lengthAdjust="spacing" textLength="79" x="458" y="936.432">Clasificador</text><line style="stroke:#181818;stroke-width:0.5;" x1="430" x2="539" y1="947" y2="947"/><line style="stroke:#181818;stroke-width:0.5;" x1="430" x2="539" y1="955" y2="955"/></g><!--MD5=[38e8fced9e943fac45fdba9ac5db991f]
class PrimitiveType--><g id="elem_PrimitiveType"><rect fill="#F1F1F1" height="48" id="PrimitiveType" rx="2.5" ry="2.5" style="stroke:#181818;stroke-width:0.5;" width="123" x="423" y="1024"/><ellipse cx="438" cy="1040" fill="#ADD1B2" rx="11" ry="11" style="stroke:#181818;stroke-width:1.0;"/><path d="M437.4688,1046.9219 Q435.7188,1046.9219 434.5781,1046.1875 Q433.4531,1045.4375 432.8906,1044.0938 Q432.3438,1042.7344 432.3438,1040.9375 Q432.3438,1038.9063 433,1037.4531 Q433.6563,1036 434.9375,1035.2188 Q436.2188,1034.4375 438.0938,1034.4375 Q438.9844,1034.4375 439.6563,1034.625 Q440.3281,1034.7969 441.0156,1035.1406 L440.2031,1037.1563 Q439.5781,1036.8438 439.0313,1036.7188 Q438.5,1036.5938 438.0156,1036.5938 Q436.8438,1036.5938 436.1406,1037.125 Q435.4375,1037.6563 435.1406,1038.6094 Q434.8438,1039.5625 434.8438,1040.8281 Q434.8438,1042.8438 435.5625,1043.8125 Q436.2813,1044.7656 437.875,1044.7656 Q438.4688,1044.7656 439.0938,1044.6094 Q439.7188,1044.4531 440.5469,1044.0781 L440.5469,1046.2969 Q439.8125,1046.6094 439.0156,1046.7656 Q438.2344,1046.9219 437.4688,1046.9219 Z " fill="#000000"/><text fill="#000000" font-family="sans-serif" font-size="14" lengthAdjust="spacing" textLength="91" x="452" y="1045.432">PrimitiveType</text><line style="stroke:#181818;stroke-width:0.5;" x1="424" x2="545" y1="1056" y2="1056"/><line style="stroke:#181818;stroke-width:0.5;" x1="424" x2="545" y1="1064" y2="1064"/></g><!--MD5=[9d9f4c6012851759471d65a58ce15da7]
link Program to Package--><g id="link_Program_Package"><path codeLine="13" d="M441.5,67.22 C441.5,67.22 441.5,91.5 441.5,102.56 " fill="none" id="Program-Package" style="stroke:#181818;stroke-width:1.0;"/><polygon fill="#181818" points="441.5,115.83,445.5,106.83,441.5,110.83,437.5,106.83,441.5,115.83" style="stroke:#181818;stroke-width:1.0;"/><line style="stroke:#181818;stroke-width:1.0;" x1="441.5" x2="441.5" y1="110.83" y2="102.83"/><polygon fill="#181818" points="441.5,55.22,437.5,61.22,441.5,67.22,445.5,61.22,441.5,55.22" style="stroke:#181818;stroke-width:1.0;"/><text fill="#000000" font-family="sans-serif" font-size="13" lengthAdjust="spacing" textLength="7" x="433.5594" y="104.0418">+</text></g><!--MD5=[4c0ad2427d1a35b080a8274c78207772]
link Package to Package--><g id="link_Package_Package"><path codeLine="14" d="M497.089,130.1582 C497.089,130.1582 520,134.38 520,140 C520,145.62 510.94,148.9 498.48,149.84 " fill="none" id="Package-Package" style="stroke:#181818;stroke-width:1.0;"/><polygon fill="#181818" points="485.09,150,494.142,153.881,490.0896,149.9341,494.0365,145.8817,485.09,150" style="stroke:#181818;stroke-width:1.0;"/><line style="stroke:#181818;stroke-width:1.0;" x1="490.0896" x2="498.09" y1="149.9341" y2="149.84"/><polygon fill="#181818" points="485.09,130,491.0367,134.0788,497.089,130.1582,491.1422,126.0795,485.09,130" style="stroke:#181818;stroke-width:1.0;"/><text fill="#000000" font-family="sans-serif" font-size="13" lengthAdjust="spacing" textLength="7" x="492.8893" y="147.2039">*</text></g><!--MD5=[432d4007a8ad8ce028b03ca0161ee1f2]
link Package to Class--><g id="link_Package_Class"><path codeLine="15" d="M441.5,176.22 C441.5,176.22 441.5,200.5 441.5,211.56 " fill="none" id="Package-Class" style="stroke:#181818;stroke-width:1.0;"/><polygon fill="#181818" points="441.5,224.83,445.5,215.83,441.5,219.83,437.5,215.83,441.5,224.83" style="stroke:#181818;stroke-width:1.0;"/><line style="stroke:#181818;stroke-width:1.0;" x1="441.5" x2="441.5" y1="219.83" y2="211.83"/><polygon fill="#181818" points="441.5,164.22,437.5,170.22,441.5,176.22,445.5,170.22,441.5,164.22" style="stroke:#181818;stroke-width:1.0;"/><text fill="#000000" font-family="sans-serif" font-size="13" lengthAdjust="spacing" textLength="7" x="433.5594" y="213.0418">*</text></g><!--MD5=[389210ca9209647c2e6142af31cfdf74]
link Class to Class--><g id="link_Class_Class"><path codeLine="16" d="M487.3265,239 C487.3265,239 510,242.91 510,249 C510,255.09 500.7,258.43 488.4,259.03 " fill="none" id="Class-Class" style="stroke:#181818;stroke-width:1.0;"/><polygon fill="#181818" points="475.33,258.71,484.2307,262.9264,480.3285,258.8308,484.424,254.9287,475.33,258.71" style="stroke:#181818;stroke-width:1.0;"/><line style="stroke:#181818;stroke-width:1.0;" x1="480.3285" x2="488.33" y1="258.8308" y2="259.03"/><polygon fill="#181818" points="475.33,239.29,481.4249,243.1438,487.3265,239,481.2316,235.1462,475.33,239.29" style="stroke:#181818;stroke-width:1.0;"/><text fill="#000000" font-family="sans-serif" font-size="13" lengthAdjust="spacing" textLength="7" x="483.0293" y="255.9294">*</text></g><!--MD5=[fb2c3f8f401c8df1d1dfb31710cd1024]
link Class to Data--><g id="link_Class_Data"><path codeLine="17" d="M441.5,285.38 C441.5,285.38 441.5,333.49 441.5,357 C441.5,357 441.5,357 441.5,704 C441.5,771.12 350.85,796.52 294.13,805.84 " fill="none" id="Class-Data" style="stroke:#181818;stroke-width:1.0;"/><polygon fill="#181818" points="281.2,807.79,290.6966,810.4004,286.1439,807.0429,289.5013,802.4902,281.2,807.79" style="stroke:#181818;stroke-width:1.0;"/><line style="stroke:#181818;stroke-width:1.0;" x1="286.1439" x2="294.06" y1="807.0429" y2="805.85"/><polygon fill="#181818" points="441.5,273.38,437.5,279.38,441.5,285.38,445.5,279.38,441.5,273.38" style="stroke:#181818;stroke-width:1.0;"/><text fill="#000000" font-family="sans-serif" font-size="13" lengthAdjust="spacing" textLength="53" x="442.5" y="535.897">atributte</text><text fill="#000000" font-family="sans-serif" font-size="13" lengthAdjust="spacing" textLength="7" x="288.9" y="801.9839">*</text></g><!--MD5=[a8e4b54cf7ab76a62f88d8b4dd9c7c1d]
link Class to Method--><g id="link_Class_Method"><path codeLine="18" d="M397.7515,280.0038 C397.7515,280.0038 351.01,312.07 330.12,326.39 " fill="none" id="Class-Method" style="stroke:#181818;stroke-width:1.0;"/><polygon fill="#181818" points="319.28,333.83,328.9646,332.0389,323.4036,331.0023,324.4402,325.4412,319.28,333.83" style="stroke:#181818;stroke-width:1.0;"/><line style="stroke:#181818;stroke-width:1.0;" x1="323.4036" x2="330.005" y1="331.0023" y2="326.475"/><polygon fill="#181818" points="407.65,273.22,400.4395,273.3124,397.7515,280.0038,404.962,279.9114,407.65,273.22" style="stroke:#181818;stroke-width:1.0;"/><text fill="#000000" font-family="sans-serif" font-size="13" lengthAdjust="spacing" textLength="7" x="320.4177" y="322.0418">+</text></g><!--MD5=[b591b98d3c36b7f4f0fc377dd64bc118]
link Method to Sentence--><g id="link_Method_Sentence"><path codeLine="19" d="M236.4663,388.3339 C236.4663,388.3339 210.34,404.4 198.5,412 C186.97,419.4 174.65,427.58 163.21,435.28 " fill="none" id="Method-Sentence" style="stroke:#181818;stroke-width:1.0;"/><polygon fill="#181818" points="152.13,442.79,161.8248,441.0549,156.2698,439.9861,157.3386,434.4312,152.13,442.79" style="stroke:#181818;stroke-width:1.0;"/><line style="stroke:#181818;stroke-width:1.0;" x1="156.2698" x2="162.9" y1="439.9861" y2="435.495"/><polygon fill="#181818" points="246.72,382.1,239.5152,381.7991,236.4663,388.3339,243.6711,388.6349,246.72,382.1" style="stroke:#181818;stroke-width:1.0;"/><text fill="#000000" font-family="sans-serif" font-size="13" lengthAdjust="spacing" textLength="7" x="153.2274" y="430.9911">+</text></g><!--MD5=[ffd6af66a65f5406fc48bca7219b7157]
link Method to Data--><g id="link_Method_Data"><path codeLine="20" d="M255.2567,391.6907 C255.2567,391.6907 224.5,438.94 224.5,466 C224.5,466 224.5,466 224.5,704 C224.5,728.26 230.67,754.81 236.88,775.4 " fill="none" id="Method-Data" style="stroke:#181818;stroke-width:1.0;"/><polygon fill="#181818" points="240.9,787.98,241.9679,778.1892,239.3767,783.2177,234.3482,780.6265,240.9,787.98" style="stroke:#181818;stroke-width:1.0;"/><line style="stroke:#181818;stroke-width:1.0;" x1="239.3767" x2="236.94" y1="783.2177" y2="775.605"/><polygon fill="#181818" points="262.79,382.35,255.9098,384.5093,255.2567,391.6907,262.1369,389.5315,262.79,382.35" style="stroke:#181818;stroke-width:1.0;"/><text fill="#000000" font-family="sans-serif" font-size="13" lengthAdjust="spacing" textLength="63" x="225.5" y="599.397">parameter</text><text fill="#000000" font-family="sans-serif" font-size="13" lengthAdjust="spacing" textLength="7" x="230.6481" y="776.2321">*</text></g><!--MD5=[ffd6af66a65f5406fc48bca7219b7157]
link Method to Data--><g id="link_Method_Data"><path codeLine="21" d="M322.3721,390.7084 C322.3721,390.7084 359.5,437.4 359.5,466 C359.5,466 359.5,466 359.5,704 C359.5,743.1 323.35,772.53 292.5,790.53 " fill="none" id="Method-Data-1" style="stroke:#181818;stroke-width:1.0;"/><polygon fill="#181818" points="281.02,796.87,290.8323,796.022,285.3972,794.4535,286.9658,789.0184,281.02,796.87" style="stroke:#181818;stroke-width:1.0;"/><line style="stroke:#181818;stroke-width:1.0;" x1="285.3972" x2="292.4" y1="794.4535" y2="790.585"/><polygon fill="#181818" points="313.9,382.21,315.3032,389.2833,322.3721,390.7084,320.9689,383.6352,313.9,382.21" style="stroke:#181818;stroke-width:1.0;"/><text fill="#000000" font-family="sans-serif" font-size="13" lengthAdjust="spacing" textLength="27" x="360.5" y="599.397">local</text><text fill="#000000" font-family="sans-serif" font-size="13" lengthAdjust="spacing" textLength="7" x="289.1184" y="788.3842">*</text></g><!--MD5=[2da366e20ea21088e5cfa1ecec807127]
link Sentence to Expression--><g id="link_Sentence_Expression"><path codeLine="22" d="M113.7316,503.1117 C113.7316,503.1117 108.66,540.35 106.41,556.87 " fill="none" id="Sentence-Expression" style="stroke:#181818;stroke-width:1.0;"/><polygon fill="#181818" points="104.64,569.91,109.8193,561.533,105.3156,564.9558,101.8927,560.4521,104.64,569.91" style="stroke:#181818;stroke-width:1.0;"/><line style="stroke:#181818;stroke-width:1.0;" x1="105.3156" x2="106.39" y1="564.9558" y2="557.025"/><polygon fill="#181818" points="115.34,491.22,110.5719,496.6297,113.7316,503.1117,118.4997,497.702,115.34,491.22" style="stroke:#181818;stroke-width:1.0;"/><text fill="#000000" font-family="sans-serif" font-size="13" lengthAdjust="spacing" textLength="7" x="97.5433" y="558.1433">+</text></g><!--MD5=[b5a46c01e209b4633cc430ea2a15d333]
link Expression to Operator--><g id="link_Expression_Operator"><path codeLine="23" d="M86.177,629.1727 C86.177,629.1727 74.55,655.08 69.3,666.78 " fill="none" id="Expression-Operator" style="stroke:#181818;stroke-width:1.0;"/><polygon fill="#181818" points="63.89,678.83,71.2247,672.2572,65.9375,674.2684,63.9262,668.9812,63.89,678.83" style="stroke:#181818;stroke-width:1.0;"/><line style="stroke:#181818;stroke-width:1.0;" x1="65.9375" x2="69.215" y1="674.2684" y2="666.965"/><polygon fill="#181818" points="91.08,618.22,84.9776,622.062,86.177,629.1727,92.2794,625.3307,91.08,618.22" style="stroke:#181818;stroke-width:1.0;"/><text fill="#000000" font-family="sans-serif" font-size="13" lengthAdjust="spacing" textLength="7" x="58.7417" y="667.0418">*</text></g><!--MD5=[96353c72ff3a4c414995c091d79a8023]
link Expression to Data--><g id="link_Expression_Data"><path codeLine="24" d="M118.6803,628.8293 C118.6803,628.8293 166.84,716.49 198.5,758 C203.68,764.8 209.64,771.66 215.62,778.1 " fill="none" id="Expression-Data" style="stroke:#181818;stroke-width:1.0;"/><polygon fill="#181818" points="224.91,787.78,221.561,778.518,221.4467,784.1737,215.791,784.0594,224.91,787.78" style="stroke:#181818;stroke-width:1.0;"/><line style="stroke:#181818;stroke-width:1.0;" x1="221.4467" x2="215.91" y1="784.1737" y2="778.4"/><polygon fill="#181818" points="113.13,618.19,112.3588,625.3597,118.6803,628.8293,119.4516,621.6595,113.13,618.19" style="stroke:#181818;stroke-width:1.0;"/><text fill="#000000" font-family="sans-serif" font-size="13" lengthAdjust="spacing" textLength="7" x="210.7119" y="776.383">+</text></g><!--MD5=[a54e0b1acbf01cc3547f3adcd5fd0466]
reverse link Data to Variable--><g id="link_Data_Variable"><path codeLine="25" d="M229.06,854.21 C219.05,874.39 207.38,897.92 198.95,914.91 " fill="none" id="Data-backto-Variable" style="stroke:#181818;stroke-width:1.0;"/><polygon fill="none" points="222.83,851.03,237.98,836.22,235.37,857.25,222.83,851.03" style="stroke:#181818;stroke-width:1.0;"/></g><!--MD5=[1b4133ef2a1da63c976a79b617e7576c]
reverse link Data to Constant--><g id="link_Data_Constant"><path codeLine="26" d="M270.27,854.21 C280.44,874.39 292.3,897.92 300.86,914.91 " fill="none" id="Data-backto-Constant" style="stroke:#181818;stroke-width:1.0;"/><polygon fill="none" points="263.95,857.23,261.2,836.22,276.45,850.93,263.95,857.23" style="stroke:#181818;stroke-width:1.0;"/></g><!--MD5=[c2d9474e0e6b1b5cce09ea04a994a79e]
link Operator to Data--><g id="link_Operator_Data"><path codeLine="27" d="M82.02,727.09 C95.37,737.3 111.77,748.99 127.5,758 C155.02,773.76 188.13,787.87 212.91,797.56 " fill="none" id="Operator-to-Data" style="stroke:#181818;stroke-width:1.0;stroke-dasharray:7.0,7.0;"/><polygon fill="#181818" points="217.75,799.43,210.8086,792.443,213.0892,797.6198,207.9124,799.9004,217.75,799.43" style="stroke:#181818;stroke-width:1.0;"/></g><!--MD5=[e9742723077a68dfb5e27125384630a9]
link Data to Clasificador--><g id="link_Data_Clasificador"><path codeLine="28" d="M281.19,829.86 C321.12,851.1 390.12,887.8 436.53,912.48 " fill="none" id="Data-to-Clasificador" style="stroke:#181818;stroke-width:1.0;"/><polygon fill="#181818" points="440.95,914.83,434.8755,907.0775,436.5335,912.486,431.1251,914.1439,440.95,914.83" style="stroke:#181818;stroke-width:1.0;"/><text fill="#000000" font-family="sans-serif" font-size="13" lengthAdjust="spacing" textLength="47" x="381.5" y="880.897">estático</text></g><!--MD5=[fe9b566275f2e4a6abe041013af458d1]
reverse link Clasificador to Class--><g id="link_Clasificador_Class"><path codeLine="29" d="M502.55,895.6 C511.12,871.78 519.5,841.24 519.5,813 C519.5,357 519.5,357 519.5,357 C519.5,323.21 493.78,292.94 471.88,273.3 " fill="none" id="Clasificador-backto-Class" style="stroke:#181818;stroke-width:1.0;"/><polygon fill="none" points="508.95,898.47,495.19,914.58,495.9,893.41,508.95,898.47" style="stroke:#181818;stroke-width:1.0;"/></g><!--MD5=[027f4bacf4a67770856a7520a7fb622a]
reverse link Clasificador to PrimitiveType--><g id="link_Clasificador_PrimitiveType"><path codeLine="30" d="M484.5,983.58 C484.5,997.36 484.5,1012.06 484.5,1023.83 " fill="none" id="Clasificador-backto-PrimitiveType" style="stroke:#181818;stroke-width:1.0;"/><polygon fill="none" points="477.5,983.22,484.5,963.22,491.5,983.22,477.5,983.22" style="stroke:#181818;stroke-width:1.0;"/></g><!--MD5=[ee2b663676576b63acb56e6d551bd892]
@startuml

class Program
class Package
class Class
class Method
class Sentence
class Expression
class Operator
class Data
class Variable
class Constant

Program *-down-> "+" Package
Package *-down-> "*" Package
Package *-down-> "*" Class
Class *-down-> "*" Class
Class *-down-> "*" Data : atributte
Class *-down-> "+" Method
Method *-down-> "+" Sentence
Method *-down-> "*" Data : parameter
Method *-down-> "*" Data : local
Sentence *-down-> "+" Expression
Expression *-down-> "*" Operator
Expression *-down-> "+" Data
Data <|-down- Variable
Data <|-down- Constant
Operator ..> Data
Data - -> Clasificador : estático
Clasificador <|-down- Class
Clasificador <|-down- PrimitiveType

@enduml

PlantUML version 1.2022.7(Mon Aug 22 19:01:30 CEST 2022)
(GPL source distribution)
Java Runtime: OpenJDK Runtime Environment
JVM: OpenJDK 64-Bit Server VM
Default Encoding: UTF-8
Language: es
Country: ES
--></g></svg>