<?xml version="1.0" encoding="us-ascii" standalone="no"?><svg xmlns="http://www.w3.org/2000/svg" xmlns:xlink="http://www.w3.org/1999/xlink" contentStyleType="text/css" height="786px" preserveAspectRatio="none" style="width:444px;height:786px;background:#FFFFFF;" version="1.1" viewBox="0 0 444 786" width="444px" zoomAndPan="magnify"><defs/><g><!--class Node--><g id="elem_Node"><rect codeLine="1" fill="#F1F1F1" height="80.5938" id="Node" rx="2.5" ry="2.5" style="stroke:#181818;stroke-width:0.5;" width="97" x="7" y="485"/><ellipse cx="34.6" cy="501" fill="#ADD1B2" rx="11" ry="11" style="stroke:#181818;stroke-width:1.0;"/><path d="M36.9438,496.6719 C36.0063,496.2344 35.4125,496.0938 34.5375,496.0938 C31.9125,496.0938 29.9125,498.1719 29.9125,500.8906 L29.9125,502.0156 C29.9125,504.5938 32.0219,506.4844 34.9125,506.4844 C36.1313,506.4844 37.2875,506.1875 38.0375,505.6406 C38.6156,505.2344 38.9438,504.7813 38.9438,504.3906 C38.9438,503.9375 38.5531,503.5469 38.0844,503.5469 C37.8656,503.5469 37.6625,503.625 37.475,503.8125 C37.0219,504.2969 37.0219,504.2969 36.8344,504.3906 C36.4125,504.6563 35.725,504.7813 34.9594,504.7813 C32.9125,504.7813 31.6156,503.6875 31.6156,501.9844 L31.6156,500.8906 C31.6156,499.1094 32.8656,497.7969 34.6,497.7969 C35.1781,497.7969 35.7875,497.9531 36.2563,498.2031 C36.7406,498.4844 36.9125,498.7031 37.0063,499.1094 C37.0688,499.5156 37.1,499.6406 37.2406,499.7656 C37.3813,499.9063 37.6156,500.0156 37.8344,500.0156 C38.1,500.0156 38.3656,499.875 38.5375,499.6563 C38.6469,499.5 38.6781,499.3125 38.6781,498.8906 L38.6781,497.4688 C38.6781,497.0313 38.6625,496.9063 38.5688,496.75 C38.4125,496.4844 38.1313,496.3438 37.8344,496.3438 C37.5375,496.3438 37.3344,496.4375 37.1156,496.75 L36.9438,496.6719 Z " fill="#000000"/><text fill="#000000" font-family="sans-serif" font-size="14" lengthAdjust="spacing" textLength="37" x="51.4" y="505.8467">Node</text><line style="stroke:#181818;stroke-width:0.5;" x1="8" x2="103" y1="517" y2="517"/><text fill="#000000" font-family="sans-serif" font-size="14" lengthAdjust="spacing" textLength="85" x="13" y="533.9951">Object data</text><text fill="#000000" font-family="sans-serif" font-size="14" lengthAdjust="spacing" textLength="74" x="13" y="550.292">Node next</text><line style="stroke:#181818;stroke-width:0.5;" x1="8" x2="103" y1="557.5938" y2="557.5938"/></g><!--class List--><g id="elem_List"><rect codeLine="6" fill="#F1F1F1" height="145.7813" id="List" rx="2.5" ry="2.5" style="stroke:#181818;stroke-width:0.5;" width="238" x="37.5" y="634"/><ellipse cx="139.25" cy="650" fill="#ADD1B2" rx="11" ry="11" style="stroke:#181818;stroke-width:1.0;"/><path d="M141.5938,645.6719 C140.6563,645.2344 140.0625,645.0938 139.1875,645.0938 C136.5625,645.0938 134.5625,647.1719 134.5625,649.8906 L134.5625,651.0156 C134.5625,653.5938 136.6719,655.4844 139.5625,655.4844 C140.7813,655.4844 141.9375,655.1875 142.6875,654.6406 C143.2656,654.2344 143.5938,653.7813 143.5938,653.3906 C143.5938,652.9375 143.2031,652.5469 142.7344,652.5469 C142.5156,652.5469 142.3125,652.625 142.125,652.8125 C141.6719,653.2969 141.6719,653.2969 141.4844,653.3906 C141.0625,653.6563 140.375,653.7813 139.6094,653.7813 C137.5625,653.7813 136.2656,652.6875 136.2656,650.9844 L136.2656,649.8906 C136.2656,648.1094 137.5156,646.7969 139.25,646.7969 C139.8281,646.7969 140.4375,646.9531 140.9063,647.2031 C141.3906,647.4844 141.5625,647.7031 141.6563,648.1094 C141.7188,648.5156 141.75,648.6406 141.8906,648.7656 C142.0313,648.9063 142.2656,649.0156 142.4844,649.0156 C142.75,649.0156 143.0156,648.875 143.1875,648.6563 C143.2969,648.5 143.3281,648.3125 143.3281,647.8906 L143.3281,646.4688 C143.3281,646.0313 143.3125,645.9063 143.2188,645.75 C143.0625,645.4844 142.7813,645.3438 142.4844,645.3438 C142.1875,645.3438 141.9844,645.4375 141.7656,645.75 L141.5938,645.6719 Z " fill="#000000"/><text fill="#000000" font-family="sans-serif" font-size="14" lengthAdjust="spacing" textLength="26" x="159.75" y="654.8467">List</text><line style="stroke:#181818;stroke-width:0.5;" x1="38.5" x2="274.5" y1="666" y2="666"/><text fill="#000000" font-family="sans-serif" font-size="14" lengthAdjust="spacing" textLength="76" x="43.5" y="682.9951">Node head</text><line style="stroke:#181818;stroke-width:0.5;" x1="38.5" x2="274.5" y1="690.2969" y2="690.2969"/><text fill="#000000" font-family="sans-serif" font-size="14" lengthAdjust="spacing" textLength="155" x="43.5" y="707.292">void add(Object data)</text><text fill="#000000" font-family="sans-serif" font-size="14" lengthAdjust="spacing" textLength="226" x="43.5" y="723.5889">void add(int index, Object data)</text><text fill="#000000" font-family="sans-serif" font-size="14" lengthAdjust="spacing" textLength="175" x="43.5" y="739.8857">int indexOf(Object data)</text><text fill="#000000" font-family="sans-serif" font-size="14" lengthAdjust="spacing" textLength="151" x="43.5" y="756.1826">Object get(int index)</text><text fill="#000000" font-family="sans-serif" font-size="14" lengthAdjust="spacing" textLength="62" x="43.5" y="772.4795">int size()</text></g><!--class TreeNode--><g id="elem_TreeNode"><rect codeLine="15" fill="#F1F1F1" height="96.8906" id="TreeNode" rx="2.5" ry="2.5" style="stroke:#181818;stroke-width:0.5;" width="239" x="139" y="477"/><ellipse cx="219.25" cy="493" fill="#ADD1B2" rx="11" ry="11" style="stroke:#181818;stroke-width:1.0;"/><path d="M221.5938,488.6719 C220.6563,488.2344 220.0625,488.0938 219.1875,488.0938 C216.5625,488.0938 214.5625,490.1719 214.5625,492.8906 L214.5625,494.0156 C214.5625,496.5938 216.6719,498.4844 219.5625,498.4844 C220.7813,498.4844 221.9375,498.1875 222.6875,497.6406 C223.2656,497.2344 223.5938,496.7813 223.5938,496.3906 C223.5938,495.9375 223.2031,495.5469 222.7344,495.5469 C222.5156,495.5469 222.3125,495.625 222.125,495.8125 C221.6719,496.2969 221.6719,496.2969 221.4844,496.3906 C221.0625,496.6563 220.375,496.7813 219.6094,496.7813 C217.5625,496.7813 216.2656,495.6875 216.2656,493.9844 L216.2656,492.8906 C216.2656,491.1094 217.5156,489.7969 219.25,489.7969 C219.8281,489.7969 220.4375,489.9531 220.9063,490.2031 C221.3906,490.4844 221.5625,490.7031 221.6563,491.1094 C221.7188,491.5156 221.75,491.6406 221.8906,491.7656 C222.0313,491.9063 222.2656,492.0156 222.4844,492.0156 C222.75,492.0156 223.0156,491.875 223.1875,491.6563 C223.2969,491.5 223.3281,491.3125 223.3281,490.8906 L223.3281,489.4688 C223.3281,489.0313 223.3125,488.9063 223.2188,488.75 C223.0625,488.4844 222.7813,488.3438 222.4844,488.3438 C222.1875,488.3438 221.9844,488.4375 221.7656,488.75 L221.5938,488.6719 Z " fill="#000000"/><text fill="#000000" font-family="sans-serif" font-size="14" lengthAdjust="spacing" textLength="70" x="239.75" y="497.8467">TreeNode</text><line style="stroke:#181818;stroke-width:0.5;" x1="140" x2="377" y1="509" y2="509"/><text fill="#000000" font-family="sans-serif" font-size="14" lengthAdjust="spacing" textLength="85" x="145" y="525.9951">Object data</text><text fill="#000000" font-family="sans-serif" font-size="14" lengthAdjust="spacing" textLength="88" x="145" y="542.292">List children</text><line style="stroke:#181818;stroke-width:0.5;" x1="140" x2="377" y1="549.5938" y2="549.5938"/><text fill="#000000" font-family="sans-serif" font-size="14" lengthAdjust="spacing" textLength="227" x="145" y="566.5889">void addChild(Object childData)</text></g><!--class Tree--><g id="elem_Tree"><rect codeLine="21" fill="#F1F1F1" height="64.2969" id="Tree" rx="2.5" ry="2.5" style="stroke:#181818;stroke-width:0.5;" width="117" x="200" y="353"/><ellipse cx="238.4" cy="369" fill="#ADD1B2" rx="11" ry="11" style="stroke:#181818;stroke-width:1.0;"/><path d="M240.7438,364.6719 C239.8063,364.2344 239.2125,364.0938 238.3375,364.0938 C235.7125,364.0938 233.7125,366.1719 233.7125,368.8906 L233.7125,370.0156 C233.7125,372.5938 235.8219,374.4844 238.7125,374.4844 C239.9313,374.4844 241.0875,374.1875 241.8375,373.6406 C242.4156,373.2344 242.7438,372.7813 242.7438,372.3906 C242.7438,371.9375 242.3531,371.5469 241.8844,371.5469 C241.6656,371.5469 241.4625,371.625 241.275,371.8125 C240.8219,372.2969 240.8219,372.2969 240.6344,372.3906 C240.2125,372.6563 239.525,372.7813 238.7594,372.7813 C236.7125,372.7813 235.4156,371.6875 235.4156,369.9844 L235.4156,368.8906 C235.4156,367.1094 236.6656,365.7969 238.4,365.7969 C238.9781,365.7969 239.5875,365.9531 240.0563,366.2031 C240.5406,366.4844 240.7125,366.7031 240.8063,367.1094 C240.8688,367.5156 240.9,367.6406 241.0406,367.7656 C241.1813,367.9063 241.4156,368.0156 241.6344,368.0156 C241.9,368.0156 242.1656,367.875 242.3375,367.6563 C242.4469,367.5 242.4781,367.3125 242.4781,366.8906 L242.4781,365.4688 C242.4781,365.0313 242.4625,364.9063 242.3688,364.75 C242.2125,364.4844 241.9313,364.3438 241.6344,364.3438 C241.3375,364.3438 241.1344,364.4375 240.9156,364.75 L240.7438,364.6719 Z " fill="#000000"/><text fill="#000000" font-family="sans-serif" font-size="14" lengthAdjust="spacing" textLength="33" x="257.6" y="373.8467">Tree</text><line style="stroke:#181818;stroke-width:0.5;" x1="201" x2="316" y1="385" y2="385"/><text fill="#000000" font-family="sans-serif" font-size="14" lengthAdjust="spacing" textLength="105" x="206" y="401.9951">TreeNode root</text><line style="stroke:#181818;stroke-width:0.5;" x1="201" x2="316" y1="409.2969" y2="409.2969"/></g><!--class SurveySystem--><g id="elem_SurveySystem"><rect codeLine="25" fill="#F1F1F1" height="162.0781" id="SurveySystem" rx="2.5" ry="2.5" style="stroke:#181818;stroke-width:0.5;" width="357" x="80" y="131"/><ellipse cx="203.25" cy="147" fill="#ADD1B2" rx="11" ry="11" style="stroke:#181818;stroke-width:1.0;"/><path d="M205.5938,142.6719 C204.6563,142.2344 204.0625,142.0938 203.1875,142.0938 C200.5625,142.0938 198.5625,144.1719 198.5625,146.8906 L198.5625,148.0156 C198.5625,150.5938 200.6719,152.4844 203.5625,152.4844 C204.7813,152.4844 205.9375,152.1875 206.6875,151.6406 C207.2656,151.2344 207.5938,150.7813 207.5938,150.3906 C207.5938,149.9375 207.2031,149.5469 206.7344,149.5469 C206.5156,149.5469 206.3125,149.625 206.125,149.8125 C205.6719,150.2969 205.6719,150.2969 205.4844,150.3906 C205.0625,150.6563 204.375,150.7813 203.6094,150.7813 C201.5625,150.7813 200.2656,149.6875 200.2656,147.9844 L200.2656,146.8906 C200.2656,145.1094 201.5156,143.7969 203.25,143.7969 C203.8281,143.7969 204.4375,143.9531 204.9063,144.2031 C205.3906,144.4844 205.5625,144.7031 205.6563,145.1094 C205.7188,145.5156 205.75,145.6406 205.8906,145.7656 C206.0313,145.9063 206.2656,146.0156 206.4844,146.0156 C206.75,146.0156 207.0156,145.875 207.1875,145.6563 C207.2969,145.5 207.3281,145.3125 207.3281,144.8906 L207.3281,143.4688 C207.3281,143.0313 207.3125,142.9063 207.2188,142.75 C207.0625,142.4844 206.7813,142.3438 206.4844,142.3438 C206.1875,142.3438 205.9844,142.4375 205.7656,142.75 L205.5938,142.6719 Z " fill="#000000"/><text fill="#000000" font-family="sans-serif" font-size="14" lengthAdjust="spacing" textLength="102" x="223.75" y="151.8467">SurveySystem</text><line style="stroke:#181818;stroke-width:0.5;" x1="81" x2="436" y1="163" y2="163"/><text fill="#000000" font-family="sans-serif" font-size="14" lengthAdjust="spacing" textLength="91" x="86" y="179.9951">Tree patient</text><text fill="#000000" font-family="sans-serif" font-size="14" lengthAdjust="spacing" textLength="118" x="86" y="196.292">Scanner scanner</text><line style="stroke:#181818;stroke-width:0.5;" x1="81" x2="436" y1="203.5938" y2="203.5938"/><text fill="#000000" font-family="sans-serif" font-size="14" lengthAdjust="spacing" textLength="102" x="86" y="220.5889">void execute()</text><text fill="#000000" font-family="sans-serif" font-size="14" lengthAdjust="spacing" textLength="136" x="86" y="236.8857">void fillOutSurvey()</text><text fill="#000000" font-family="sans-serif" font-size="14" lengthAdjust="spacing" textLength="345" x="86" y="253.1826">void fillIntake(TreeNode day, String intakeType)</text><text fill="#000000" font-family="sans-serif" font-size="14" lengthAdjust="spacing" textLength="162" x="86" y="269.4795">void displayStructure()</text><text fill="#000000" font-family="sans-serif" font-size="14" lengthAdjust="spacing" textLength="154" x="86" y="285.7764">List getIntakeTypes()</text></g><!--class Main--><g id="elem_Main"><rect codeLine="35" fill="#F1F1F1" height="64.2969" id="Main" rx="2.5" ry="2.5" style="stroke:#181818;stroke-width:0.5;" width="179" x="169" y="7"/><ellipse cx="237.75" cy="23" fill="#ADD1B2" rx="11" ry="11" style="stroke:#181818;stroke-width:1.0;"/><path d="M240.0938,18.6719 C239.1563,18.2344 238.5625,18.0938 237.6875,18.0938 C235.0625,18.0938 233.0625,20.1719 233.0625,22.8906 L233.0625,24.0156 C233.0625,26.5938 235.1719,28.4844 238.0625,28.4844 C239.2813,28.4844 240.4375,28.1875 241.1875,27.6406 C241.7656,27.2344 242.0938,26.7813 242.0938,26.3906 C242.0938,25.9375 241.7031,25.5469 241.2344,25.5469 C241.0156,25.5469 240.8125,25.625 240.625,25.8125 C240.1719,26.2969 240.1719,26.2969 239.9844,26.3906 C239.5625,26.6563 238.875,26.7813 238.1094,26.7813 C236.0625,26.7813 234.7656,25.6875 234.7656,23.9844 L234.7656,22.8906 C234.7656,21.1094 236.0156,19.7969 237.75,19.7969 C238.3281,19.7969 238.9375,19.9531 239.4063,20.2031 C239.8906,20.4844 240.0625,20.7031 240.1563,21.1094 C240.2188,21.5156 240.25,21.6406 240.3906,21.7656 C240.5313,21.9063 240.7656,22.0156 240.9844,22.0156 C241.25,22.0156 241.5156,21.875 241.6875,21.6563 C241.7969,21.5 241.8281,21.3125 241.8281,20.8906 L241.8281,19.4688 C241.8281,19.0313 241.8125,18.9063 241.7188,18.75 C241.5625,18.4844 241.2813,18.3438 240.9844,18.3438 C240.6875,18.3438 240.4844,18.4375 240.2656,18.75 L240.0938,18.6719 Z " fill="#000000"/><text fill="#000000" font-family="sans-serif" font-size="14" lengthAdjust="spacing" textLength="33" x="258.25" y="27.8467">Main</text><line style="stroke:#181818;stroke-width:0.5;" x1="170" x2="347" y1="39" y2="39"/><line style="stroke:#181818;stroke-width:0.5;" x1="170" x2="347" y1="47" y2="47"/><text fill="#000000" font-family="sans-serif" font-size="14" lengthAdjust="spacing" textLength="167" x="175" y="63.9951">void main(String[] args)</text></g><!--link Node to List--><g id="link_Node_List"><path codeLine="39" d="M77.9152,566.337 C89.0735,586.168 99.9717,605.537 112.9137,628.537 " fill="none" id="Node-to-List" style="stroke:#181818;stroke-width:1.0;"/><polygon fill="#181818" points="115.856,633.766,114.9285,623.9609,113.404,629.4085,107.9565,627.884,115.856,633.766" style="stroke:#181818;stroke-width:1.0;"/></g><!--link TreeNode to List--><g id="link_TreeNode_List"><path codeLine="40" d="M231.434,574.131 C221.046,592.411 211.9104,608.4894 200.5014,628.5664 " fill="none" id="TreeNode-to-List" style="stroke:#181818;stroke-width:1.0;"/><polygon fill="#181818" points="197.537,633.783,205.4613,627.9344,200.0073,629.4359,198.5059,623.9819,197.537,633.783" style="stroke:#181818;stroke-width:1.0;"/></g><!--link Tree to TreeNode--><g id="link_Tree_TreeNode"><path codeLine="41" d="M258.5,417.082 C258.5,434.708 258.5,451.131 258.5,470.926 " fill="none" id="Tree-to-TreeNode" style="stroke:#181818;stroke-width:1.0;"/><polygon fill="#181818" points="258.5,476.926,262.5,467.926,258.5,471.926,254.5,467.926,258.5,476.926" style="stroke:#181818;stroke-width:1.0;"/></g><!--link SurveySystem to Tree--><g id="link_SurveySystem_Tree"><path codeLine="42" d="M258.5,293.243 C258.5,314.416 258.5,330.02 258.5,346.836 " fill="none" id="SurveySystem-to-Tree" style="stroke:#181818;stroke-width:1.0;"/><polygon fill="#181818" points="258.5,352.836,262.5,343.836,258.5,347.836,254.5,343.836,258.5,352.836" style="stroke:#181818;stroke-width:1.0;"/></g><!--link Main to SurveySystem--><g id="link_Main_SurveySystem"><path codeLine="43" d="M258.5,71.364 C258.5,88.141 258.5,103.642 258.5,124.718 " fill="none" id="Main-to-SurveySystem" style="stroke:#181818;stroke-width:1.0;"/><polygon fill="#181818" points="258.5,130.718,262.5,121.718,258.5,125.718,254.5,121.718,258.5,130.718" style="stroke:#181818;stroke-width:1.0;"/></g><!--SRC=[VL0nRiCm3Dpr2euEa7oXIxi4Q9l1sO8EhCGuQXtPaEZ0Rj6_rwPjMMw0QX78EnwFfqiC0LuhG_2je7-7zm_I30OPfHR8KSlgHoajx6SRU68BUY4qKjqgQm2DoHAHpHgnZi4wG-qMxaWHEvpl5QP6GRneB6F1Vb6sMImUFT4_Hya5-c9Buycj33uEpNcxC9x4mafvKerBV5KbyUIDlr6NTu7fcZ2XHhRaM1gvHkV8GnZ_nGArf1iURecjiotBGyEZx5zWxnW_AOjM37PRoDbRLmp1zDYngoaPCZRK9NOzfT7S-7cJ9DA7kuyp8Stp1QsRRX6LQrzduvhJ6w0lWf35mcxt878gcbfrf9eXjGfhHfIi6weK_WK0]--></g></svg>