<?xml version="1.0" encoding="us-ascii" standalone="no"?><svg xmlns="http://www.w3.org/2000/svg" xmlns:xlink="http://www.w3.org/1999/xlink" contentStyleType="text/css" height="433px" preserveAspectRatio="none" style="width:1845px;height:433px;background:#FFFFFF;" version="1.1" viewBox="0 0 1845 433" width="1845px" zoomAndPan="magnify"><defs/><g><g id="elem_Main"><rect fill="#F1F1F1" height="36.2969" style="stroke:#181818;stroke-width:0.5;" width="99" x="705.5" y="7"/><text fill="#000000" font-family="sans-serif" font-size="14" lengthAdjust="spacing" textLength="85" x="712.5" y="21.9951">Salon : Main</text><line style="stroke:#181818;stroke-width:0.5;" x1="706.5" x2="803.5" y1="27.2969" y2="27.2969"/></g><g id="elem_Ingesta"><rect fill="#F1F1F1" height="36.2969" style="stroke:#181818;stroke-width:0.5;" width="85" x="641.5" y="103"/><text fill="#000000" font-family="sans-serif" font-size="14" lengthAdjust="spacing" textLength="71" x="648.5" y="117.9951">2 Dia : Dia</text><line style="stroke:#181818;stroke-width:0.5;" x1="642.5" x2="725.5" y1="123.2969" y2="123.2969"/></g><g id="elem_Paciente"><rect fill="#F1F1F1" height="36.2969" style="stroke:#181818;stroke-width:0.5;" width="128" x="762" y="103"/><text fill="#000000" font-family="sans-serif" font-size="14" lengthAdjust="spacing" textLength="114" x="769" y="117.9951">Aisha : Paciente</text><line style="stroke:#181818;stroke-width:0.5;" x1="763" x2="889" y1="123.2969" y2="123.2969"/></g><g id="elem_IngestaDia"><rect fill="#F1F1F1" height="36.2969" style="stroke:#181818;stroke-width:0.5;" width="86" x="722" y="199"/><text fill="#000000" font-family="sans-serif" font-size="14" lengthAdjust="spacing" textLength="72" x="729" y="213.9951">Dia 1 : Dia</text><line style="stroke:#181818;stroke-width:0.5;" x1="723" x2="807" y1="219.2969" y2="219.2969"/></g><g id="elem_IngestaDia2"><rect fill="#F1F1F1" height="36.2969" style="stroke:#181818;stroke-width:0.5;" width="85" x="843.5" y="199"/><text fill="#000000" font-family="sans-serif" font-size="14" lengthAdjust="spacing" textLength="71" x="850.5" y="213.9951">Dia 2 : Dia</text><line style="stroke:#181818;stroke-width:0.5;" x1="844.5" x2="927.5" y1="219.2969" y2="219.2969"/></g><g id="elem_EncuestaDesayuno"><rect fill="#F1F1F1" height="36.2969" style="stroke:#181818;stroke-width:0.5;" width="161" x="169.5" y="295"/><text fill="#000000" font-family="sans-serif" font-size="14" lengthAdjust="spacing" textLength="147" x="176.5" y="309.9951">Desayuno : Encuesta</text><line style="stroke:#181818;stroke-width:0.5;" x1="170.5" x2="329.5" y1="315.2969" y2="315.2969"/></g><g id="elem_EncuestaMedia"><rect fill="#F1F1F1" height="36.2969" style="stroke:#181818;stroke-width:0.5;" width="192" x="412" y="295"/><text fill="#000000" font-family="sans-serif" font-size="14" lengthAdjust="spacing" textLength="178" x="419" y="309.9951">Media Ma&#241;ana : Encuesta</text><line style="stroke:#181818;stroke-width:0.5;" x1="413" x2="603" y1="315.2969" y2="315.2969"/></g><g id="elem_EncuestaAlmuerzo"><rect fill="#F1F1F1" height="36.2969" style="stroke:#181818;stroke-width:0.5;" width="160" x="685" y="295"/><text fill="#000000" font-family="sans-serif" font-size="14" lengthAdjust="spacing" textLength="146" x="692" y="309.9951">Almuerzo : Encuesta</text><line style="stroke:#181818;stroke-width:0.5;" x1="686" x2="844" y1="315.2969" y2="315.2969"/></g><g id="elem_EncuestaMerienda"><rect fill="#F1F1F1" height="36.2969" style="stroke:#181818;stroke-width:0.5;" width="158" x="1019" y="295"/><text fill="#000000" font-family="sans-serif" font-size="14" lengthAdjust="spacing" textLength="144" x="1026" y="309.9951">Merienda : Encuesta</text><line style="stroke:#181818;stroke-width:0.5;" x1="1020" x2="1176" y1="315.2969" y2="315.2969"/></g><g id="elem_EncuestaCena"><rect fill="#F1F1F1" height="36.2969" style="stroke:#181818;stroke-width:0.5;" width="128" x="1465" y="295"/><text fill="#000000" font-family="sans-serif" font-size="14" lengthAdjust="spacing" textLength="114" x="1472" y="309.9951">Cena : Encuesta</text><line style="stroke:#181818;stroke-width:0.5;" x1="1466" x2="1592" y1="315.2969" y2="315.2969"/></g><g id="elem_AlimentoDesayuno"><rect fill="#F1F1F1" height="36.2969" style="stroke:#181818;stroke-width:0.5;" width="136" x="7" y="391"/><text fill="#000000" font-family="sans-serif" font-size="14" lengthAdjust="spacing" textLength="122" x="14" y="405.9951">Leche : Alimento</text><line style="stroke:#181818;stroke-width:0.5;" x1="8" x2="142" y1="411.2969" y2="411.2969"/></g><g id="elem_AlimentoDesayuno2"><rect fill="#F1F1F1" height="36.2969" style="stroke:#181818;stroke-width:0.5;" width="144" x="178" y="391"/><text fill="#000000" font-family="sans-serif" font-size="14" lengthAdjust="spacing" textLength="130" x="185" y="405.9951">Huevos : Alimento</text><line style="stroke:#181818;stroke-width:0.5;" x1="179" x2="321" y1="411.2969" y2="411.2969"/></g><g id="elem_AlimentoMedia"><rect fill="#F1F1F1" height="36.2969" style="stroke:#181818;stroke-width:0.5;" width="144" x="357" y="391"/><text fill="#000000" font-family="sans-serif" font-size="14" lengthAdjust="spacing" textLength="130" x="364" y="405.9951">Galleta : Alimento</text><line style="stroke:#181818;stroke-width:0.5;" x1="358" x2="500" y1="411.2969" y2="411.2969"/></g><g id="elem_AlimentoAlmuerzo"><rect fill="#F1F1F1" height="36.2969" style="stroke:#181818;stroke-width:0.5;" width="128" x="536" y="391"/><text fill="#000000" font-family="sans-serif" font-size="14" lengthAdjust="spacing" textLength="114" x="543" y="405.9951">Pollo : Alimento</text><line style="stroke:#181818;stroke-width:0.5;" x1="537" x2="663" y1="411.2969" y2="411.2969"/></g><g id="elem_AlimentoAlmuerzo2"><rect fill="#F1F1F1" height="36.2969" style="stroke:#181818;stroke-width:0.5;" width="132" x="699" y="391"/><text fill="#000000" font-family="sans-serif" font-size="14" lengthAdjust="spacing" textLength="118" x="706" y="405.9951">Arroz : Alimento</text><line style="stroke:#181818;stroke-width:0.5;" x1="700" x2="830" y1="411.2969" y2="411.2969"/></g><g id="elem_AlimentoAlmuerzo3"><rect fill="#F1F1F1" height="36.2969" style="stroke:#181818;stroke-width:0.5;" width="119" x="866.5" y="391"/><text fill="#000000" font-family="sans-serif" font-size="14" lengthAdjust="spacing" textLength="105" x="873.5" y="405.9951">Pan : Alimento</text><line style="stroke:#181818;stroke-width:0.5;" x1="867.5" x2="984.5" y1="411.2969" y2="411.2969"/></g><g id="elem_AlimentoMerienda"><rect fill="#F1F1F1" height="36.2969" style="stroke:#181818;stroke-width:0.5;" width="155" x="1020.5" y="391"/><text fill="#000000" font-family="sans-serif" font-size="14" lengthAdjust="spacing" textLength="141" x="1027.5" y="405.9951">Manzana : Alimento</text><line style="stroke:#181818;stroke-width:0.5;" x1="1021.5" x2="1174.5" y1="411.2969" y2="411.2969"/></g><g id="elem_AlimentoMerienda2"><rect fill="#F1F1F1" height="36.2969" style="stroke:#181818;stroke-width:0.5;" width="211" x="1210.5" y="391"/><text fill="#000000" font-family="sans-serif" font-size="14" lengthAdjust="spacing" textLength="197" x="1217.5" y="405.9951">Juego de Naranja : Alimento</text><line style="stroke:#181818;stroke-width:0.5;" x1="1211.5" x2="1420.5" y1="411.2969" y2="411.2969"/></g><g id="elem_AlimentoCena"><rect fill="#F1F1F1" height="36.2969" style="stroke:#181818;stroke-width:0.5;" width="144" x="1457" y="391"/><text fill="#000000" font-family="sans-serif" font-size="14" lengthAdjust="spacing" textLength="130" x="1464" y="405.9951">Frijoles : Alimento</text><line style="stroke:#181818;stroke-width:0.5;" x1="1458" x2="1600" y1="411.2969" y2="411.2969"/></g><g id="elem_AlimentoCena2"><rect fill="#F1F1F1" height="36.2969" style="stroke:#181818;stroke-width:0.5;" width="203" x="1636.5" y="391"/><text fill="#000000" font-family="sans-serif" font-size="14" lengthAdjust="spacing" textLength="189" x="1643.5" y="405.9951">Licuado banana : Alimento</text><line style="stroke:#181818;stroke-width:0.5;" x1="1637.5" x2="1838.5" y1="411.2969" y2="411.2969"/></g><!--link Main to Paciente--><g id="link_Main_Paciente"><path codeLine="75" d="M768.022,43.241 C780.833,60.202 800.278,85.945 813.06,102.868 " fill="none" id="Main-Paciente" style="stroke:#181818;stroke-width:1.0;"/></g><!--link Main to Ingesta--><g id="link_Main_Ingesta"><path codeLine="76" d="M741.978,43.241 C729.167,60.202 709.722,85.945 696.94,102.868 " fill="none" id="Main-Ingesta" style="stroke:#181818;stroke-width:1.0;"/></g><!--link Paciente to IngestaDia--><g id="link_Paciente_IngestaDia"><path codeLine="77" d="M814.812,139.241 C803.805,156.202 787.099,181.945 776.117,198.868 " fill="none" id="Paciente-IngestaDia" style="stroke:#181818;stroke-width:1.0;"/></g><!--link IngestaDia to EncuestaDesayuno--><g id="link_IngestaDia_EncuestaDesayuno"><path codeLine="78" d="M721.977,225.853 C635.915,241.561 441.351,277.074 330.778,297.256 " fill="none" id="IngestaDia-EncuestaDesayuno" style="stroke:#181818;stroke-width:1.0;"/></g><!--link EncuestaDesayuno to AlimentoDesayuno--><g id="link_EncuestaDesayuno_AlimentoDesayuno"><path codeLine="79" d="M218.309,331.0227 C186.691,348.0057 138.389,373.9511 106.7506,390.9454 " fill="none" id="EncuestaDesayuno-AlimentoDesayuno" style="stroke:#181818;stroke-width:1.0;"/></g><!--link EncuestaDesayuno to AlimentoDesayuno2--><g id="link_EncuestaDesayuno_AlimentoDesayuno2"><path codeLine="80" d="M250,331.241 C250,348.2017 250,373.9455 250,390.8683 " fill="none" id="EncuestaDesayuno-AlimentoDesayuno2" style="stroke:#181818;stroke-width:1.0;"/></g><!--link IngestaDia to EncuestaMedia--><g id="link_IngestaDia_EncuestaMedia"><path codeLine="81" d="M721.984,233.733 C675.686,250.667 602.294,277.511 554.639,294.942 " fill="none" id="IngestaDia-EncuestaMedia" style="stroke:#181818;stroke-width:1.0;"/></g><!--link EncuestaMedia to AlimentoMedia--><g id="link_EncuestaMedia_AlimentoMedia"><path codeLine="82" d="M493.51,331.241 C479.256,348.2017 457.62,373.9455 443.398,390.8683 " fill="none" id="EncuestaMedia-AlimentoMedia" style="stroke:#181818;stroke-width:1.0;"/></g><!--link IngestaDia to EncuestaAlmuerzo--><g id="link_IngestaDia_EncuestaAlmuerzo"><path codeLine="83" d="M765,235.241 C765,252.202 765,277.945 765,294.868 " fill="none" id="IngestaDia-EncuestaAlmuerzo" style="stroke:#181818;stroke-width:1.0;"/></g><!--link EncuestaAlmuerzo to AlimentoAlmuerzo--><g id="link_EncuestaAlmuerzo_AlimentoAlmuerzo"><path codeLine="84" d="M735.12,331.0227 C705.309,348.0057 659.767,373.9511 629.936,390.9454 " fill="none" id="EncuestaAlmuerzo-AlimentoAlmuerzo" style="stroke:#181818;stroke-width:1.0;"/></g><!--link EncuestaAlmuerzo to AlimentoAlmuerzo2--><g id="link_EncuestaAlmuerzo_AlimentoAlmuerzo2"><path codeLine="85" d="M765,331.241 C765,348.2017 765,373.9455 765,390.8683 " fill="none" id="EncuestaAlmuerzo-AlimentoAlmuerzo2" style="stroke:#181818;stroke-width:1.0;"/></g><!--link EncuestaAlmuerzo to AlimentoAlmuerzo3--><g id="link_EncuestaAlmuerzo_AlimentoAlmuerzo3"><path codeLine="86" d="M794.156,331.0227 C823.244,348.0057 867.682,373.9511 896.789,390.9454 " fill="none" id="EncuestaAlmuerzo-AlimentoAlmuerzo3" style="stroke:#181818;stroke-width:1.0;"/></g><!--link IngestaDia to EncuestaMerienda--><g id="link_IngestaDia_EncuestaMerienda"><path codeLine="87" d="M808.193,230.192 C866.706,246.71 971.443,276.275 1037.69,294.976 " fill="none" id="IngestaDia-EncuestaMerienda" style="stroke:#181818;stroke-width:1.0;"/></g><!--link EncuestaMerienda to AlimentoMerienda--><g id="link_EncuestaMerienda_AlimentoMerienda"><path codeLine="88" d="M1098,331.241 C1098,348.2017 1098,373.9455 1098,390.8683 " fill="none" id="EncuestaMerienda-AlimentoMerienda" style="stroke:#181818;stroke-width:1.0;"/></g><!--link EncuestaMerienda to AlimentoMerienda2--><g id="link_EncuestaMerienda_AlimentoMerienda2"><path codeLine="89" d="M1137.48,331.0227 C1176.86,348.0057 1237.04,373.9511 1276.45,390.9454 " fill="none" id="EncuestaMerienda-AlimentoMerienda2" style="stroke:#181818;stroke-width:1.0;"/></g><!--link IngestaDia to EncuestaCena--><g id="link_IngestaDia_EncuestaCena"><path codeLine="90" d="M808.114,230.951 C814.086,232.47 820.171,233.876 826,235 C1058.98,279.914 1340.82,300.897 1464.99,308.485 " fill="none" id="IngestaDia-EncuestaCena" style="stroke:#181818;stroke-width:1.0;"/></g><!--link EncuestaCena to AlimentoCena--><g id="link_EncuestaCena_AlimentoCena"><path codeLine="91" d="M1529,331.241 C1529,348.2017 1529,373.9455 1529,390.8683 " fill="none" id="EncuestaCena-AlimentoCena" style="stroke:#181818;stroke-width:1.0;"/></g><!--link EncuestaCena to AlimentoCena2--><g id="link_EncuestaCena_AlimentoCena2"><path codeLine="92" d="M1566.85,331.0227 C1604.61,348.0057 1662.3,373.9511 1700.08,390.9454 " fill="none" id="EncuestaCena-AlimentoCena2" style="stroke:#181818;stroke-width:1.0;"/></g><!--link Paciente to IngestaDia2--><g id="link_Paciente_IngestaDia2"><path codeLine="94" d="M837.005,139.241 C847.831,156.202 864.263,181.945 875.065,198.868 " fill="none" id="Paciente-IngestaDia2" style="stroke:#181818;stroke-width:1.0;"/></g><!--SRC=[dPHBRiCW48Rtd09bdqN9hZkhxogkBFK44tkK416Gi5sfhdgedg4NAyQF0ZPrqYoim7p_p33Ce7P7p2kwUWMX9BscAN2veb3QF_I3V1AYUeJHMmu6CLzBFCazbXNuKCBBGmjba7EK5LfoMFXew-rgwg_Tdd1ibcC1Y2Myrr8PzaxcTGjPmR0OxPugnS84IE7x2oJ4f1tadrISQjHDDDfe3w9fKuhYZq2ztLFTO3mrQ_FeBUO7D7WY-CcKNLbyM3X5-8-6cf-hUwpnJPLBGZQZV00Xi8AOTAXuACkK42ecSceUwXAjLREacyip0xaasyp8Kf1Drr2Huutt72gVQzmhMY1z0GtokEXYBkbxpOzAOFHY-gO9PLkUrr0ekZEPntDlnMvG-rIir-EOZnlzf99n_d_tpFGIP-2D8PnICXbR0uMDTHR48f5iYn5_n1rvPvwN3ZTF9jFkEBW8OcTHc-XHkbuWatV4Ez05KAnexUKJx-rnn8j6HYBDm7u0]--></g></svg>