<?xml version="1.0" encoding="us-ascii" standalone="no"?><svg xmlns="http://www.w3.org/2000/svg" xmlns:xlink="http://www.w3.org/1999/xlink" contentStyleType="text/css" height="468px" preserveAspectRatio="none" style="width:313px;height:468px;background:#FFFFFF;" version="1.1" viewBox="0 0 313 468" width="313px" zoomAndPan="magnify"><defs/><g><!--class Main--><g id="elem_Main"><rect codeLine="1" fill="#F1F1F1" height="48" id="Main" rx="2.5" ry="2.5" style="stroke:#181818;stroke-width:0.5;" width="65" x="105" y="7"/><ellipse cx="120" cy="23" fill="#ADD1B2" rx="11" ry="11" style="stroke:#181818;stroke-width:1.0;"/><path d="M122.3438,18.6719 C121.4063,18.2344 120.8125,18.0938 119.9375,18.0938 C117.3125,18.0938 115.3125,20.1719 115.3125,22.8906 L115.3125,24.0156 C115.3125,26.5938 117.4219,28.4844 120.3125,28.4844 C121.5313,28.4844 122.6875,28.1875 123.4375,27.6406 C124.0156,27.2344 124.3438,26.7813 124.3438,26.3906 C124.3438,25.9375 123.9531,25.5469 123.4844,25.5469 C123.2656,25.5469 123.0625,25.625 122.875,25.8125 C122.4219,26.2969 122.4219,26.2969 122.2344,26.3906 C121.8125,26.6563 121.125,26.7813 120.3594,26.7813 C118.3125,26.7813 117.0156,25.6875 117.0156,23.9844 L117.0156,22.8906 C117.0156,21.1094 118.2656,19.7969 120,19.7969 C120.5781,19.7969 121.1875,19.9531 121.6563,20.2031 C122.1406,20.4844 122.3125,20.7031 122.4063,21.1094 C122.4688,21.5156 122.5,21.6406 122.6406,21.7656 C122.7813,21.9063 123.0156,22.0156 123.2344,22.0156 C123.5,22.0156 123.7656,21.875 123.9375,21.6563 C124.0469,21.5 124.0781,21.3125 124.0781,20.8906 L124.0781,19.4688 C124.0781,19.0313 124.0625,18.9063 123.9688,18.75 C123.8125,18.4844 123.5313,18.3438 123.2344,18.3438 C122.9375,18.3438 122.7344,18.4375 122.5156,18.75 L122.3438,18.6719 Z " fill="#000000"/><text fill="#000000" font-family="sans-serif" font-size="14" lengthAdjust="spacing" textLength="33" x="134" y="27.8467">Main</text><line style="stroke:#181818;stroke-width:0.5;" x1="106" x2="169" y1="39" y2="39"/><line style="stroke:#181818;stroke-width:0.5;" x1="106" x2="169" y1="47" y2="47"/></g><!--class Paciente--><g id="elem_Paciente"><rect codeLine="4" fill="#F1F1F1" height="80.5938" id="Paciente" rx="2.5" ry="2.5" style="stroke:#181818;stroke-width:0.5;" width="95" x="7" y="115"/><ellipse cx="22" cy="131" fill="#ADD1B2" rx="11" ry="11" style="stroke:#181818;stroke-width:1.0;"/><path d="M24.3438,126.6719 C23.4063,126.2344 22.8125,126.0938 21.9375,126.0938 C19.3125,126.0938 17.3125,128.1719 17.3125,130.8906 L17.3125,132.0156 C17.3125,134.5938 19.4219,136.4844 22.3125,136.4844 C23.5313,136.4844 24.6875,136.1875 25.4375,135.6406 C26.0156,135.2344 26.3438,134.7813 26.3438,134.3906 C26.3438,133.9375 25.9531,133.5469 25.4844,133.5469 C25.2656,133.5469 25.0625,133.625 24.875,133.8125 C24.4219,134.2969 24.4219,134.2969 24.2344,134.3906 C23.8125,134.6563 23.125,134.7813 22.3594,134.7813 C20.3125,134.7813 19.0156,133.6875 19.0156,131.9844 L19.0156,130.8906 C19.0156,129.1094 20.2656,127.7969 22,127.7969 C22.5781,127.7969 23.1875,127.9531 23.6563,128.2031 C24.1406,128.4844 24.3125,128.7031 24.4063,129.1094 C24.4688,129.5156 24.5,129.6406 24.6406,129.7656 C24.7813,129.9063 25.0156,130.0156 25.2344,130.0156 C25.5,130.0156 25.7656,129.875 25.9375,129.6563 C26.0469,129.5 26.0781,129.3125 26.0781,128.8906 L26.0781,127.4688 C26.0781,127.0313 26.0625,126.9063 25.9688,126.75 C25.8125,126.4844 25.5313,126.3438 25.2344,126.3438 C24.9375,126.3438 24.7344,126.4375 24.5156,126.75 L24.3438,126.6719 Z " fill="#000000"/><text fill="#000000" font-family="sans-serif" font-size="14" lengthAdjust="spacing" textLength="63" x="36" y="135.8467">Paciente</text><line style="stroke:#181818;stroke-width:0.5;" x1="8" x2="101" y1="147" y2="147"/><ellipse cx="18" cy="160.6484" fill="none" rx="3" ry="3" style="stroke:#038048;stroke-width:1.0;"/><text fill="#000000" font-family="sans-serif" font-size="14" lengthAdjust="spacing" textLength="57" x="27" y="163.9951">nombre</text><ellipse cx="18" cy="176.9453" fill="none" rx="3" ry="3" style="stroke:#038048;stroke-width:1.0;"/><text fill="#000000" font-family="sans-serif" font-size="14" lengthAdjust="spacing" textLength="69" x="27" y="180.292">fechaAlta</text><line style="stroke:#181818;stroke-width:0.5;" x1="8" x2="101" y1="187.5938" y2="187.5938"/></g><!--class Encuesta--><g id="elem_Encuesta"><rect codeLine="9" fill="#F1F1F1" height="80.5938" id="Encuesta" rx="2.5" ry="2.5" style="stroke:#181818;stroke-width:0.5;" width="157" x="143" y="256"/><ellipse cx="185" cy="272" fill="#ADD1B2" rx="11" ry="11" style="stroke:#181818;stroke-width:1.0;"/><path d="M187.3438,267.6719 C186.4063,267.2344 185.8125,267.0938 184.9375,267.0938 C182.3125,267.0938 180.3125,269.1719 180.3125,271.8906 L180.3125,273.0156 C180.3125,275.5938 182.4219,277.4844 185.3125,277.4844 C186.5313,277.4844 187.6875,277.1875 188.4375,276.6406 C189.0156,276.2344 189.3438,275.7813 189.3438,275.3906 C189.3438,274.9375 188.9531,274.5469 188.4844,274.5469 C188.2656,274.5469 188.0625,274.625 187.875,274.8125 C187.4219,275.2969 187.4219,275.2969 187.2344,275.3906 C186.8125,275.6563 186.125,275.7813 185.3594,275.7813 C183.3125,275.7813 182.0156,274.6875 182.0156,272.9844 L182.0156,271.8906 C182.0156,270.1094 183.2656,268.7969 185,268.7969 C185.5781,268.7969 186.1875,268.9531 186.6563,269.2031 C187.1406,269.4844 187.3125,269.7031 187.4063,270.1094 C187.4688,270.5156 187.5,270.6406 187.6406,270.7656 C187.7813,270.9063 188.0156,271.0156 188.2344,271.0156 C188.5,271.0156 188.7656,270.875 188.9375,270.6563 C189.0469,270.5 189.0781,270.3125 189.0781,269.8906 L189.0781,268.4688 C189.0781,268.0313 189.0625,267.9063 188.9688,267.75 C188.8125,267.4844 188.5313,267.3438 188.2344,267.3438 C187.9375,267.3438 187.7344,267.4375 187.5156,267.75 L187.3438,267.6719 Z " fill="#000000"/><text fill="#000000" font-family="sans-serif" font-size="14" lengthAdjust="spacing" textLength="65" x="205" y="276.8467">Encuesta</text><line style="stroke:#181818;stroke-width:0.5;" x1="144" x2="299" y1="288" y2="288"/><line style="stroke:#181818;stroke-width:0.5;" x1="144" x2="299" y1="296" y2="296"/><rect fill="#F24D5C" height="6" style="stroke:#C82930;stroke-width:1.0;" width="6" x="151" y="306.6484"/><text fill="#000000" font-family="sans-serif" font-size="14" lengthAdjust="spacing" textLength="128" x="163" y="312.9951">realizarEncuesta()</text><rect fill="#F24D5C" height="6" style="stroke:#C82930;stroke-width:1.0;" width="6" x="151" y="322.9453"/><text fill="#000000" font-family="sans-serif" font-size="14" lengthAdjust="spacing" textLength="131" x="163" y="329.292">agregarAlimento()</text></g><!--class Dia--><g id="elem_Dia"><rect codeLine="14" fill="#F1F1F1" height="80.5938" id="Dia" rx="2.5" ry="2.5" style="stroke:#181818;stroke-width:0.5;" width="169" x="137" y="115"/><ellipse cx="205.75" cy="131" fill="#ADD1B2" rx="11" ry="11" style="stroke:#181818;stroke-width:1.0;"/><path d="M208.0938,126.6719 C207.1563,126.2344 206.5625,126.0938 205.6875,126.0938 C203.0625,126.0938 201.0625,128.1719 201.0625,130.8906 L201.0625,132.0156 C201.0625,134.5938 203.1719,136.4844 206.0625,136.4844 C207.2813,136.4844 208.4375,136.1875 209.1875,135.6406 C209.7656,135.2344 210.0938,134.7813 210.0938,134.3906 C210.0938,133.9375 209.7031,133.5469 209.2344,133.5469 C209.0156,133.5469 208.8125,133.625 208.625,133.8125 C208.1719,134.2969 208.1719,134.2969 207.9844,134.3906 C207.5625,134.6563 206.875,134.7813 206.1094,134.7813 C204.0625,134.7813 202.7656,133.6875 202.7656,131.9844 L202.7656,130.8906 C202.7656,129.1094 204.0156,127.7969 205.75,127.7969 C206.3281,127.7969 206.9375,127.9531 207.4063,128.2031 C207.8906,128.4844 208.0625,128.7031 208.1563,129.1094 C208.2188,129.5156 208.25,129.6406 208.3906,129.7656 C208.5313,129.9063 208.7656,130.0156 208.9844,130.0156 C209.25,130.0156 209.5156,129.875 209.6875,129.6563 C209.7969,129.5 209.8281,129.3125 209.8281,128.8906 L209.8281,127.4688 C209.8281,127.0313 209.8125,126.9063 209.7188,126.75 C209.5625,126.4844 209.2813,126.3438 208.9844,126.3438 C208.6875,126.3438 208.4844,126.4375 208.2656,126.75 L208.0938,126.6719 Z " fill="#000000"/><text fill="#000000" font-family="sans-serif" font-size="14" lengthAdjust="spacing" textLength="23" x="226.25" y="135.8467">Dia</text><line style="stroke:#181818;stroke-width:0.5;" x1="138" x2="305" y1="147" y2="147"/><line style="stroke:#181818;stroke-width:0.5;" x1="138" x2="305" y1="155" y2="155"/><rect fill="#F24D5C" height="6" style="stroke:#C82930;stroke-width:1.0;" width="6" x="145" y="165.6484"/><text fill="#000000" font-family="sans-serif" font-size="14" lengthAdjust="spacing" textLength="143" x="157" y="171.9951">validarNumeroDias()</text><rect fill="#F24D5C" height="6" style="stroke:#C82930;stroke-width:1.0;" width="6" x="145" y="181.9453"/><text fill="#000000" font-family="sans-serif" font-size="14" lengthAdjust="spacing" textLength="131" x="157" y="188.292">agregarAlimento()</text></g><!--class Alimento--><g id="elem_Alimento"><rect codeLine="19" fill="#F1F1F1" height="64.2969" id="Alimento" rx="2.5" ry="2.5" style="stroke:#181818;stroke-width:0.5;" width="98" x="172.5" y="397"/><ellipse cx="187.5" cy="413" fill="#ADD1B2" rx="11" ry="11" style="stroke:#181818;stroke-width:1.0;"/><path d="M189.8438,408.6719 C188.9063,408.2344 188.3125,408.0938 187.4375,408.0938 C184.8125,408.0938 182.8125,410.1719 182.8125,412.8906 L182.8125,414.0156 C182.8125,416.5938 184.9219,418.4844 187.8125,418.4844 C189.0313,418.4844 190.1875,418.1875 190.9375,417.6406 C191.5156,417.2344 191.8438,416.7813 191.8438,416.3906 C191.8438,415.9375 191.4531,415.5469 190.9844,415.5469 C190.7656,415.5469 190.5625,415.625 190.375,415.8125 C189.9219,416.2969 189.9219,416.2969 189.7344,416.3906 C189.3125,416.6563 188.625,416.7813 187.8594,416.7813 C185.8125,416.7813 184.5156,415.6875 184.5156,413.9844 L184.5156,412.8906 C184.5156,411.1094 185.7656,409.7969 187.5,409.7969 C188.0781,409.7969 188.6875,409.9531 189.1563,410.2031 C189.6406,410.4844 189.8125,410.7031 189.9063,411.1094 C189.9688,411.5156 190,411.6406 190.1406,411.7656 C190.2813,411.9063 190.5156,412.0156 190.7344,412.0156 C191,412.0156 191.2656,411.875 191.4375,411.6563 C191.5469,411.5 191.5781,411.3125 191.5781,410.8906 L191.5781,409.4688 C191.5781,409.0313 191.5625,408.9063 191.4688,408.75 C191.3125,408.4844 191.0313,408.3438 190.7344,408.3438 C190.4375,408.3438 190.2344,408.4375 190.0156,408.75 L189.8438,408.6719 Z " fill="#000000"/><text fill="#000000" font-family="sans-serif" font-size="14" lengthAdjust="spacing" textLength="66" x="201.5" y="417.8467">Alimento</text><line style="stroke:#181818;stroke-width:0.5;" x1="173.5" x2="269.5" y1="429" y2="429"/><ellipse cx="183.5" cy="442.6484" fill="none" rx="3" ry="3" style="stroke:#038048;stroke-width:1.0;"/><text fill="#000000" font-family="sans-serif" font-size="14" lengthAdjust="spacing" textLength="57" x="192.5" y="445.9951">nombre</text><line style="stroke:#181818;stroke-width:0.5;" x1="173.5" x2="269.5" y1="453.2969" y2="453.2969"/></g><!--link Main to Paciente--><g id="link_Main_Paciente"><path codeLine="23" d="M121.888,55.041 C110.524,71.814 94.8479,94.95 81.4746,114.688 " fill="none" id="Main-Paciente" style="stroke:#181818;stroke-width:1.0;"/></g><!--link Main to Dia--><g id="link_Main_Dia"><path codeLine="24" d="M153.3,55.041 C164.801,71.814 180.666,94.95 194.2,114.688 " fill="none" id="Main-Dia" style="stroke:#181818;stroke-width:1.0;"/></g><!--link Dia to Encuesta--><g id="link_Dia_Encuesta"><path codeLine="25" d="M221.5,196.332 C221.5,214.944 221.5,237.05 221.5,255.662 " fill="none" id="Dia-Encuesta" style="stroke:#181818;stroke-width:1.0;"/></g><!--link Encuesta to Alimento--><g id="link_Encuesta_Alimento"><path codeLine="26" d="M221.5,337.008 C221.5,356.213 221.5,378.9611 221.5,396.9078 " fill="none" id="Encuesta-Alimento" style="stroke:#181818;stroke-width:1.0;"/></g><!--SRC=[ZOzD2W8n38NtEKMMYlGG0xfKl4AiSIpq1zAE2uUvkwbEAxWo44Y-v3qIwobdF9ABCom0zjsUoJgEXMT0ZHt652x2QtDZUwV15_hk7wATE1Vwx1iK9k-U98rljkk0Hk6HPF0kg7zItZtshiiVghwIdAR0afJdV_ID_Toiy_eS6jE_wa2jGREMxL9eHONDyWK0]--></g></svg>