<?xml version="1.0" encoding="us-ascii" standalone="no"?><svg xmlns="http://www.w3.org/2000/svg" xmlns:xlink="http://www.w3.org/1999/xlink" contentStyleType="text/css" height="427px" preserveAspectRatio="none" style="width:470px;height:427px;background:#FFFFFF;" version="1.1" viewBox="0 0 470 427" width="470px" zoomAndPan="magnify"><defs/><g><!--cluster Tree--><g id="cluster_Tree"><path d="M8.5,6 L45.5,6 A3.75,3.75 0 0 1 48,8.5 L55,28.2969 L460.5,28.2969 A2.5,2.5 0 0 1 463,30.7969 L463,417.5 A2.5,2.5 0 0 1 460.5,420 L8.5,420 A2.5,2.5 0 0 1 6,417.5 L6,8.5 A2.5,2.5 0 0 1 8.5,6 " fill="none" style="stroke:#000000;stroke-width:1.5;"/><line style="stroke:#000000;stroke-width:1.5;" x1="6" x2="55" y1="28.2969" y2="28.2969"/><text fill="#000000" font-family="sans-serif" font-size="14" font-weight="bold" lengthAdjust="spacing" textLength="36" x="10" y="20.9951">Tree</text></g><!--class List--><g id="elem_List"><rect codeLine="2" fill="#F1F1F1" height="80.5938" id="List" rx="2.5" ry="2.5" style="stroke:#181818;stroke-width:0.5;" width="115" x="176.5" y="41"/><ellipse cx="217.15" cy="57" fill="#ADD1B2" rx="11" ry="11" style="stroke:#181818;stroke-width:1.0;"/><path d="M219.4938,52.6719 C218.5563,52.2344 217.9625,52.0938 217.0875,52.0938 C214.4625,52.0938 212.4625,54.1719 212.4625,56.8906 L212.4625,58.0156 C212.4625,60.5938 214.5719,62.4844 217.4625,62.4844 C218.6813,62.4844 219.8375,62.1875 220.5875,61.6406 C221.1656,61.2344 221.4938,60.7813 221.4938,60.3906 C221.4938,59.9375 221.1031,59.5469 220.6344,59.5469 C220.4156,59.5469 220.2125,59.625 220.025,59.8125 C219.5719,60.2969 219.5719,60.2969 219.3844,60.3906 C218.9625,60.6563 218.275,60.7813 217.5094,60.7813 C215.4625,60.7813 214.1656,59.6875 214.1656,57.9844 L214.1656,56.8906 C214.1656,55.1094 215.4156,53.7969 217.15,53.7969 C217.7281,53.7969 218.3375,53.9531 218.8063,54.2031 C219.2906,54.4844 219.4625,54.7031 219.5563,55.1094 C219.6188,55.5156 219.65,55.6406 219.7906,55.7656 C219.9313,55.9063 220.1656,56.0156 220.3844,56.0156 C220.65,56.0156 220.9156,55.875 221.0875,55.6563 C221.1969,55.5 221.2281,55.3125 221.2281,54.8906 L221.2281,53.4688 C221.2281,53.0313 221.2125,52.9063 221.1188,52.75 C220.9625,52.4844 220.6813,52.3438 220.3844,52.3438 C220.0875,52.3438 219.8844,52.4375 219.6656,52.75 L219.4938,52.6719 Z " fill="#000000"/><text fill="#000000" font-family="sans-serif" font-size="14" lengthAdjust="spacing" textLength="26" x="236.85" y="61.8467">List</text><line style="stroke:#181818;stroke-width:0.5;" x1="177.5" x2="290.5" y1="73" y2="73"/><text fill="#000000" font-family="sans-serif" font-size="14" lengthAdjust="spacing" textLength="65" x="182.5" y="89.9951">List: first</text><line style="stroke:#181818;stroke-width:0.5;" x1="177.5" x2="290.5" y1="97.2969" y2="97.2969"/><text fill="#000000" font-family="sans-serif" font-size="14" lengthAdjust="spacing" textLength="103" x="182.5" y="114.292">List: next(null)</text></g><!--class List1--><g id="elem_List1"><rect codeLine="6" fill="#F1F1F1" height="80.5938" id="List1" rx="2.5" ry="2.5" style="stroke:#181818;stroke-width:0.5;" width="80" x="22" y="182"/><ellipse cx="42.85" cy="198" fill="#ADD1B2" rx="11" ry="11" style="stroke:#181818;stroke-width:1.0;"/><path d="M45.1938,193.6719 C44.2563,193.2344 43.6625,193.0938 42.7875,193.0938 C40.1625,193.0938 38.1625,195.1719 38.1625,197.8906 L38.1625,199.0156 C38.1625,201.5938 40.2719,203.4844 43.1625,203.4844 C44.3813,203.4844 45.5375,203.1875 46.2875,202.6406 C46.8656,202.2344 47.1938,201.7813 47.1938,201.3906 C47.1938,200.9375 46.8031,200.5469 46.3344,200.5469 C46.1156,200.5469 45.9125,200.625 45.725,200.8125 C45.2719,201.2969 45.2719,201.2969 45.0844,201.3906 C44.6625,201.6563 43.975,201.7813 43.2094,201.7813 C41.1625,201.7813 39.8656,200.6875 39.8656,198.9844 L39.8656,197.8906 C39.8656,196.1094 41.1156,194.7969 42.85,194.7969 C43.4281,194.7969 44.0375,194.9531 44.5063,195.2031 C44.9906,195.4844 45.1625,195.7031 45.2563,196.1094 C45.3188,196.5156 45.35,196.6406 45.4906,196.7656 C45.6313,196.9063 45.8656,197.0156 46.0844,197.0156 C46.35,197.0156 46.6156,196.875 46.7875,196.6563 C46.8969,196.5 46.9281,196.3125 46.9281,195.8906 L46.9281,194.4688 C46.9281,194.0313 46.9125,193.9063 46.8188,193.75 C46.6625,193.4844 46.3813,193.3438 46.0844,193.3438 C45.7875,193.3438 45.5844,193.4375 45.3656,193.75 L45.1938,193.6719 Z " fill="#000000"/><text fill="#000000" font-family="sans-serif" font-size="14" lengthAdjust="spacing" textLength="35" x="58.15" y="202.8467">List1</text><line style="stroke:#181818;stroke-width:0.5;" x1="23" x2="101" y1="214" y2="214"/><text fill="#000000" font-family="sans-serif" font-size="14" lengthAdjust="spacing" textLength="65" x="28" y="230.9951">List: first</text><text fill="#000000" font-family="sans-serif" font-size="14" lengthAdjust="spacing" textLength="68" x="28" y="247.292">List: next</text><line style="stroke:#181818;stroke-width:0.5;" x1="23" x2="101" y1="254.5938" y2="254.5938"/></g><!--class List2--><g id="elem_List2"><rect codeLine="10" fill="#F1F1F1" height="80.5938" id="List2" rx="2.5" ry="2.5" style="stroke:#181818;stroke-width:0.5;" width="80" x="137" y="182"/><ellipse cx="158.3" cy="198" fill="#ADD1B2" rx="11" ry="11" style="stroke:#181818;stroke-width:1.0;"/><path d="M160.6438,193.6719 C159.7063,193.2344 159.1125,193.0938 158.2375,193.0938 C155.6125,193.0938 153.6125,195.1719 153.6125,197.8906 L153.6125,199.0156 C153.6125,201.5938 155.7219,203.4844 158.6125,203.4844 C159.8313,203.4844 160.9875,203.1875 161.7375,202.6406 C162.3156,202.2344 162.6438,201.7813 162.6438,201.3906 C162.6438,200.9375 162.2531,200.5469 161.7844,200.5469 C161.5656,200.5469 161.3625,200.625 161.175,200.8125 C160.7219,201.2969 160.7219,201.2969 160.5344,201.3906 C160.1125,201.6563 159.425,201.7813 158.6594,201.7813 C156.6125,201.7813 155.3156,200.6875 155.3156,198.9844 L155.3156,197.8906 C155.3156,196.1094 156.5656,194.7969 158.3,194.7969 C158.8781,194.7969 159.4875,194.9531 159.9563,195.2031 C160.4406,195.4844 160.6125,195.7031 160.7063,196.1094 C160.7688,196.5156 160.8,196.6406 160.9406,196.7656 C161.0813,196.9063 161.3156,197.0156 161.5344,197.0156 C161.8,197.0156 162.0656,196.875 162.2375,196.6563 C162.3469,196.5 162.3781,196.3125 162.3781,195.8906 L162.3781,194.4688 C162.3781,194.0313 162.3625,193.9063 162.2688,193.75 C162.1125,193.4844 161.8313,193.3438 161.5344,193.3438 C161.2375,193.3438 161.0344,193.4375 160.8156,193.75 L160.6438,193.6719 Z " fill="#000000"/><text fill="#000000" font-family="sans-serif" font-size="14" lengthAdjust="spacing" textLength="34" x="173.7" y="202.8467">List2</text><line style="stroke:#181818;stroke-width:0.5;" x1="138" x2="216" y1="214" y2="214"/><text fill="#000000" font-family="sans-serif" font-size="14" lengthAdjust="spacing" textLength="65" x="143" y="230.9951">List: first</text><text fill="#000000" font-family="sans-serif" font-size="14" lengthAdjust="spacing" textLength="68" x="143" y="247.292">List: next</text><line style="stroke:#181818;stroke-width:0.5;" x1="138" x2="216" y1="254.5938" y2="254.5938"/></g><!--class List3--><g id="elem_List3"><rect codeLine="14" fill="#F1F1F1" height="80.5938" id="List3" rx="2.5" ry="2.5" style="stroke:#181818;stroke-width:0.5;" width="80" x="252" y="182"/><ellipse cx="272.85" cy="198" fill="#ADD1B2" rx="11" ry="11" style="stroke:#181818;stroke-width:1.0;"/><path d="M275.1938,193.6719 C274.2563,193.2344 273.6625,193.0938 272.7875,193.0938 C270.1625,193.0938 268.1625,195.1719 268.1625,197.8906 L268.1625,199.0156 C268.1625,201.5938 270.2719,203.4844 273.1625,203.4844 C274.3813,203.4844 275.5375,203.1875 276.2875,202.6406 C276.8656,202.2344 277.1938,201.7813 277.1938,201.3906 C277.1938,200.9375 276.8031,200.5469 276.3344,200.5469 C276.1156,200.5469 275.9125,200.625 275.725,200.8125 C275.2719,201.2969 275.2719,201.2969 275.0844,201.3906 C274.6625,201.6563 273.975,201.7813 273.2094,201.7813 C271.1625,201.7813 269.8656,200.6875 269.8656,198.9844 L269.8656,197.8906 C269.8656,196.1094 271.1156,194.7969 272.85,194.7969 C273.4281,194.7969 274.0375,194.9531 274.5063,195.2031 C274.9906,195.4844 275.1625,195.7031 275.2563,196.1094 C275.3188,196.5156 275.35,196.6406 275.4906,196.7656 C275.6313,196.9063 275.8656,197.0156 276.0844,197.0156 C276.35,197.0156 276.6156,196.875 276.7875,196.6563 C276.8969,196.5 276.9281,196.3125 276.9281,195.8906 L276.9281,194.4688 C276.9281,194.0313 276.9125,193.9063 276.8188,193.75 C276.6625,193.4844 276.3813,193.3438 276.0844,193.3438 C275.7875,193.3438 275.5844,193.4375 275.3656,193.75 L275.1938,193.6719 Z " fill="#000000"/><text fill="#000000" font-family="sans-serif" font-size="14" lengthAdjust="spacing" textLength="35" x="288.15" y="202.8467">List3</text><line style="stroke:#181818;stroke-width:0.5;" x1="253" x2="331" y1="214" y2="214"/><text fill="#000000" font-family="sans-serif" font-size="14" lengthAdjust="spacing" textLength="65" x="258" y="230.9951">List: first</text><text fill="#000000" font-family="sans-serif" font-size="14" lengthAdjust="spacing" textLength="68" x="258" y="247.292">List: next</text><line style="stroke:#181818;stroke-width:0.5;" x1="253" x2="331" y1="254.5938" y2="254.5938"/></g><!--class List4--><g id="elem_List4"><rect codeLine="18" fill="#F1F1F1" height="80.5938" id="List4" rx="2.5" ry="2.5" style="stroke:#181818;stroke-width:0.5;" width="80" x="367" y="182"/><ellipse cx="388.3" cy="198" fill="#ADD1B2" rx="11" ry="11" style="stroke:#181818;stroke-width:1.0;"/><path d="M390.6438,193.6719 C389.7063,193.2344 389.1125,193.0938 388.2375,193.0938 C385.6125,193.0938 383.6125,195.1719 383.6125,197.8906 L383.6125,199.0156 C383.6125,201.5938 385.7219,203.4844 388.6125,203.4844 C389.8313,203.4844 390.9875,203.1875 391.7375,202.6406 C392.3156,202.2344 392.6438,201.7813 392.6438,201.3906 C392.6438,200.9375 392.2531,200.5469 391.7844,200.5469 C391.5656,200.5469 391.3625,200.625 391.175,200.8125 C390.7219,201.2969 390.7219,201.2969 390.5344,201.3906 C390.1125,201.6563 389.425,201.7813 388.6594,201.7813 C386.6125,201.7813 385.3156,200.6875 385.3156,198.9844 L385.3156,197.8906 C385.3156,196.1094 386.5656,194.7969 388.3,194.7969 C388.8781,194.7969 389.4875,194.9531 389.9563,195.2031 C390.4406,195.4844 390.6125,195.7031 390.7063,196.1094 C390.7688,196.5156 390.8,196.6406 390.9406,196.7656 C391.0813,196.9063 391.3156,197.0156 391.5344,197.0156 C391.8,197.0156 392.0656,196.875 392.2375,196.6563 C392.3469,196.5 392.3781,196.3125 392.3781,195.8906 L392.3781,194.4688 C392.3781,194.0313 392.3625,193.9063 392.2688,193.75 C392.1125,193.4844 391.8313,193.3438 391.5344,193.3438 C391.2375,193.3438 391.0344,193.4375 390.8156,193.75 L390.6438,193.6719 Z " fill="#000000"/><text fill="#000000" font-family="sans-serif" font-size="14" lengthAdjust="spacing" textLength="34" x="403.7" y="202.8467">List4</text><line style="stroke:#181818;stroke-width:0.5;" x1="368" x2="446" y1="214" y2="214"/><text fill="#000000" font-family="sans-serif" font-size="14" lengthAdjust="spacing" textLength="65" x="373" y="230.9951">List: first</text><text fill="#000000" font-family="sans-serif" font-size="14" lengthAdjust="spacing" textLength="68" x="373" y="247.292">List: next</text><line style="stroke:#181818;stroke-width:0.5;" x1="368" x2="446" y1="254.5938" y2="254.5938"/></g><!--class Node--><g id="elem_Node"><rect codeLine="22" fill="#F1F1F1" height="80.5938" id="Node" rx="2.5" ry="2.5" style="stroke:#181818;stroke-width:0.5;" width="91" x="22.5" y="323"/><ellipse cx="47.4" cy="339" fill="#ADD1B2" rx="11" ry="11" style="stroke:#181818;stroke-width:1.0;"/><path d="M49.7438,334.6719 C48.8063,334.2344 48.2125,334.0938 47.3375,334.0938 C44.7125,334.0938 42.7125,336.1719 42.7125,338.8906 L42.7125,340.0156 C42.7125,342.5938 44.8219,344.4844 47.7125,344.4844 C48.9313,344.4844 50.0875,344.1875 50.8375,343.6406 C51.4156,343.2344 51.7438,342.7813 51.7438,342.3906 C51.7438,341.9375 51.3531,341.5469 50.8844,341.5469 C50.6656,341.5469 50.4625,341.625 50.275,341.8125 C49.8219,342.2969 49.8219,342.2969 49.6344,342.3906 C49.2125,342.6563 48.525,342.7813 47.7594,342.7813 C45.7125,342.7813 44.4156,341.6875 44.4156,339.9844 L44.4156,338.8906 C44.4156,337.1094 45.6656,335.7969 47.4,335.7969 C47.9781,335.7969 48.5875,335.9531 49.0563,336.2031 C49.5406,336.4844 49.7125,336.7031 49.8063,337.1094 C49.8688,337.5156 49.9,337.6406 50.0406,337.7656 C50.1813,337.9063 50.4156,338.0156 50.6344,338.0156 C50.9,338.0156 51.1656,337.875 51.3375,337.6563 C51.4469,337.5 51.4781,337.3125 51.4781,336.8906 L51.4781,335.4688 C51.4781,335.0313 51.4625,334.9063 51.3688,334.75 C51.2125,334.4844 50.9313,334.3438 50.6344,334.3438 C50.3375,334.3438 50.1344,334.4375 49.9156,334.75 L49.7438,334.6719 Z " fill="#000000"/><text fill="#000000" font-family="sans-serif" font-size="14" lengthAdjust="spacing" textLength="37" x="63.6" y="343.8467">Node</text><line style="stroke:#181818;stroke-width:0.5;" x1="23.5" x2="112.5" y1="355" y2="355"/><text fill="#000000" font-family="sans-serif" font-size="14" lengthAdjust="spacing" textLength="76" x="28.5" y="371.9951">Node: first</text><text fill="#000000" font-family="sans-serif" font-size="14" lengthAdjust="spacing" textLength="79" x="28.5" y="388.292">Node: next</text><line style="stroke:#181818;stroke-width:0.5;" x1="23.5" x2="112.5" y1="395.5938" y2="395.5938"/></g><!--class Node1--><g id="elem_Node1"><rect codeLine="26" fill="#F1F1F1" height="80.5938" id="Node1" rx="2.5" ry="2.5" style="stroke:#181818;stroke-width:0.5;" width="91" x="148.5" y="323"/><ellipse cx="169.35" cy="339" fill="#ADD1B2" rx="11" ry="11" style="stroke:#181818;stroke-width:1.0;"/><path d="M171.6938,334.6719 C170.7563,334.2344 170.1625,334.0938 169.2875,334.0938 C166.6625,334.0938 164.6625,336.1719 164.6625,338.8906 L164.6625,340.0156 C164.6625,342.5938 166.7719,344.4844 169.6625,344.4844 C170.8813,344.4844 172.0375,344.1875 172.7875,343.6406 C173.3656,343.2344 173.6938,342.7813 173.6938,342.3906 C173.6938,341.9375 173.3031,341.5469 172.8344,341.5469 C172.6156,341.5469 172.4125,341.625 172.225,341.8125 C171.7719,342.2969 171.7719,342.2969 171.5844,342.3906 C171.1625,342.6563 170.475,342.7813 169.7094,342.7813 C167.6625,342.7813 166.3656,341.6875 166.3656,339.9844 L166.3656,338.8906 C166.3656,337.1094 167.6156,335.7969 169.35,335.7969 C169.9281,335.7969 170.5375,335.9531 171.0063,336.2031 C171.4906,336.4844 171.6625,336.7031 171.7563,337.1094 C171.8188,337.5156 171.85,337.6406 171.9906,337.7656 C172.1313,337.9063 172.3656,338.0156 172.5844,338.0156 C172.85,338.0156 173.1156,337.875 173.2875,337.6563 C173.3969,337.5 173.4281,337.3125 173.4281,336.8906 L173.4281,335.4688 C173.4281,335.0313 173.4125,334.9063 173.3188,334.75 C173.1625,334.4844 172.8813,334.3438 172.5844,334.3438 C172.2875,334.3438 172.0844,334.4375 171.8656,334.75 L171.6938,334.6719 Z " fill="#000000"/><text fill="#000000" font-family="sans-serif" font-size="14" lengthAdjust="spacing" textLength="46" x="184.65" y="343.8467">Node1</text><line style="stroke:#181818;stroke-width:0.5;" x1="149.5" x2="238.5" y1="355" y2="355"/><text fill="#000000" font-family="sans-serif" font-size="14" lengthAdjust="spacing" textLength="76" x="154.5" y="371.9951">Node: first</text><text fill="#000000" font-family="sans-serif" font-size="14" lengthAdjust="spacing" textLength="79" x="154.5" y="388.292">Node: next</text><line style="stroke:#181818;stroke-width:0.5;" x1="149.5" x2="238.5" y1="395.5938" y2="395.5938"/></g><!--link List to List1--><g id="link_List_List1"><path codeLine="32" d="M184.712,122.332 C158.505,143.511 126.698,169.215 102.035,189.146 " fill="none" id="List-List1" style="stroke:#181818;stroke-width:1.0;"/></g><!--link List to List2--><g id="link_List_List2"><path codeLine="33" d="M217.666,122.332 C210.034,140.944 200.969,163.05 193.336,181.662 " fill="none" id="List-List2" style="stroke:#181818;stroke-width:1.0;"/></g><!--link List to List3--><g id="link_List_List3"><path codeLine="34" d="M250.62,122.332 C258.387,140.944 267.611,163.05 275.377,181.662 " fill="none" id="List-List3" style="stroke:#181818;stroke-width:1.0;"/></g><!--link List to List4--><g id="link_List_List4"><path codeLine="35" d="M283.575,122.332 C309.934,143.511 341.925,169.215 366.732,189.146 " fill="none" id="List-List4" style="stroke:#181818;stroke-width:1.0;"/></g><!--link List1 to Node--><g id="link_List1_Node"><path codeLine="37" d="M63.7194,263.332 C64.5227,281.944 65.477,304.05 66.2804,322.662 " fill="none" id="List1-Node" style="stroke:#181818;stroke-width:1.0;"/></g><!--link List1 to Node1--><g id="link_List1_Node1"><path codeLine="38" d="M99.826,263.332 C117.5,281.944 138.493,304.05 156.169,322.662 " fill="none" id="List1-Node1" style="stroke:#181818;stroke-width:1.0;"/></g><!--SRC=[AqXCpavCJrK8AKfDhUPIK4ZEIImkLl39B2u1yHJ0B2k5jCoYuX8aVbvgHOb6NcbEZYPGi1P5co4XVHWwZ4ZMOKoo3XEITFZbfwH2D81Oo1eWVAmQ38dIKSl51R9KGLSN4beeF2CKdZ4ApmIYqH341vc9oZC40000]--></g></svg>