<?xml version="1.0" encoding="us-ascii" standalone="no"?><svg xmlns="http://www.w3.org/2000/svg" xmlns:xlink="http://www.w3.org/1999/xlink" contentStyleType="text/css" height="1960px" preserveAspectRatio="none" style="width:1553px;height:1960px;background:#FFFFFF;" version="1.1" viewBox="0 0 1553 1960" width="1553px" zoomAndPan="magnify"><defs/><g><text fill="#000000" font-family="sans-serif" font-size="14" font-weight="bold" lengthAdjust="spacing" textLength="158" x="690.51" y="22.9951">Diagrama de clases</text><!--cluster TreeObjects--><g id="cluster_TreeObjects"><path d="M874.5,518.2969 L973.5,518.2969 A3.75,3.75 0 0 1 976,520.7969 L983,540.5938 L1404.5,540.5938 A2.5,2.5 0 0 1 1407,543.0938 L1407,926.2969 A2.5,2.5 0 0 1 1404.5,928.7969 L874.5,928.7969 A2.5,2.5 0 0 1 872,926.2969 L872,520.7969 A2.5,2.5 0 0 1 874.5,518.2969 " fill="none" style="stroke:#000000;stroke-width:1.5;"/><line style="stroke:#000000;stroke-width:1.5;" x1="872" x2="983" y1="540.5938" y2="540.5938"/><text fill="#000000" font-family="sans-serif" font-size="14" font-weight="bold" lengthAdjust="spacing" textLength="98" x="876" y="533.292">TreeObjects</text></g><!--cluster utils--><g id="cluster_utils"><path d="M8.5,683.2969 L46.5,683.2969 A3.75,3.75 0 0 1 49,685.7969 L56,705.5938 L837.5,705.5938 A2.5,2.5 0 0 1 840,708.0938 L840,1950.7969 A2.5,2.5 0 0 1 837.5,1953.2969 L8.5,1953.2969 A2.5,2.5 0 0 1 6,1950.7969 L6,685.7969 A2.5,2.5 0 0 1 8.5,683.2969 " fill="none" style="stroke:#000000;stroke-width:1.5;"/><line style="stroke:#000000;stroke-width:1.5;" x1="6" x2="56" y1="705.5938" y2="705.5938"/><text fill="#000000" font-family="sans-serif" font-size="14" font-weight="bold" lengthAdjust="spacing" textLength="37" x="10" y="698.292">utils</text></g><!--class Intake--><g id="elem_Intake"><rect codeLine="35" fill="#F1F1F1" height="96.8906" id="Intake" rx="2.5" ry="2.5" style="stroke:#181818;stroke-width:0.5;" width="142" x="1064" y="561.2969"/><ellipse cx="1107.8" cy="577.2969" fill="#ADD1B2" rx="11" ry="11" style="stroke:#181818;stroke-width:1.0;"/><path d="M1110.1438,572.9688 C1109.2063,572.5313 1108.6125,572.3906 1107.7375,572.3906 C1105.1125,572.3906 1103.1125,574.4688 1103.1125,577.1875 L1103.1125,578.3125 C1103.1125,580.8906 1105.2219,582.7813 1108.1125,582.7813 C1109.3313,582.7813 1110.4875,582.4844 1111.2375,581.9375 C1111.8156,581.5313 1112.1438,581.0781 1112.1438,580.6875 C1112.1438,580.2344 1111.7531,579.8438 1111.2844,579.8438 C1111.0656,579.8438 1110.8625,579.9219 1110.675,580.1094 C1110.2219,580.5938 1110.2219,580.5938 1110.0344,580.6875 C1109.6125,580.9531 1108.925,581.0781 1108.1594,581.0781 C1106.1125,581.0781 1104.8156,579.9844 1104.8156,578.2813 L1104.8156,577.1875 C1104.8156,575.4063 1106.0656,574.0938 1107.8,574.0938 C1108.3781,574.0938 1108.9875,574.25 1109.4563,574.5 C1109.9406,574.7813 1110.1125,575 1110.2063,575.4063 C1110.2688,575.8125 1110.3,575.9375 1110.4406,576.0625 C1110.5813,576.2031 1110.8156,576.3125 1111.0344,576.3125 C1111.3,576.3125 1111.5656,576.1719 1111.7375,575.9531 C1111.8469,575.7969 1111.8781,575.6094 1111.8781,575.1875 L1111.8781,573.7656 C1111.8781,573.3281 1111.8625,573.2031 1111.7688,573.0469 C1111.6125,572.7813 1111.3313,572.6406 1111.0344,572.6406 C1110.7375,572.6406 1110.5344,572.7344 1110.3156,573.0469 L1110.1438,572.9688 Z " fill="#000000"/><text fill="#000000" font-family="sans-serif" font-size="14" lengthAdjust="spacing" textLength="46" x="1128.2" y="582.1436">Intake</text><line style="stroke:#181818;stroke-width:0.5;" x1="1065" x2="1205" y1="593.2969" y2="593.2969"/><rect fill="none" height="6" style="stroke:#C82930;stroke-width:1.0;" width="6" x="1072" y="603.9453"/><text fill="#000000" font-family="sans-serif" font-size="14" lengthAdjust="spacing" textLength="116" x="1084" y="610.292">int totalCalories</text><rect fill="none" height="6" style="stroke:#C82930;stroke-width:1.0;" width="6" x="1072" y="620.2422"/><text fill="#000000" font-family="sans-serif" font-size="14" lengthAdjust="spacing" textLength="88" x="1084" y="626.5889">String name</text><rect fill="none" height="6" style="stroke:#C82930;stroke-width:1.0;" width="6" x="1072" y="636.5391"/><text fill="#000000" font-family="sans-serif" font-size="14" lengthAdjust="spacing" textLength="82" x="1084" y="642.8857">String time</text><line style="stroke:#181818;stroke-width:0.5;" x1="1065" x2="1205" y1="650.1875" y2="650.1875"/></g><!--class Food--><g id="elem_Food"><rect codeLine="40" fill="#F1F1F1" height="80.5938" id="Food" rx="2.5" ry="2.5" style="stroke:#181818;stroke-width:0.5;" width="114" x="915" y="569.2969"/><ellipse cx="951.15" cy="585.2969" fill="#ADD1B2" rx="11" ry="11" style="stroke:#181818;stroke-width:1.0;"/><path d="M953.4938,580.9688 C952.5563,580.5313 951.9625,580.3906 951.0875,580.3906 C948.4625,580.3906 946.4625,582.4688 946.4625,585.1875 L946.4625,586.3125 C946.4625,588.8906 948.5719,590.7813 951.4625,590.7813 C952.6813,590.7813 953.8375,590.4844 954.5875,589.9375 C955.1656,589.5313 955.4938,589.0781 955.4938,588.6875 C955.4938,588.2344 955.1031,587.8438 954.6344,587.8438 C954.4156,587.8438 954.2125,587.9219 954.025,588.1094 C953.5719,588.5938 953.5719,588.5938 953.3844,588.6875 C952.9625,588.9531 952.275,589.0781 951.5094,589.0781 C949.4625,589.0781 948.1656,587.9844 948.1656,586.2813 L948.1656,585.1875 C948.1656,583.4063 949.4156,582.0938 951.15,582.0938 C951.7281,582.0938 952.3375,582.25 952.8063,582.5 C953.2906,582.7813 953.4625,583 953.5563,583.4063 C953.6188,583.8125 953.65,583.9375 953.7906,584.0625 C953.9313,584.2031 954.1656,584.3125 954.3844,584.3125 C954.65,584.3125 954.9156,584.1719 955.0875,583.9531 C955.1969,583.7969 955.2281,583.6094 955.2281,583.1875 L955.2281,581.7656 C955.2281,581.3281 955.2125,581.2031 955.1188,581.0469 C954.9625,580.7813 954.6813,580.6406 954.3844,580.6406 C954.0875,580.6406 953.8844,580.7344 953.6656,581.0469 L953.4938,580.9688 Z " fill="#000000"/><text fill="#000000" font-family="sans-serif" font-size="14" lengthAdjust="spacing" textLength="35" x="969.85" y="590.1436">Food</text><line style="stroke:#181818;stroke-width:0.5;" x1="916" x2="1028" y1="601.2969" y2="601.2969"/><rect fill="none" height="6" style="stroke:#C82930;stroke-width:1.0;" width="6" x="923" y="611.9453"/><text fill="#000000" font-family="sans-serif" font-size="14" lengthAdjust="spacing" textLength="88" x="935" y="618.292">String name</text><rect fill="none" height="6" style="stroke:#C82930;stroke-width:1.0;" width="6" x="923" y="628.2422"/><text fill="#000000" font-family="sans-serif" font-size="14" lengthAdjust="spacing" textLength="79" x="935" y="634.5889">int calories</text><line style="stroke:#181818;stroke-width:0.5;" x1="916" x2="1028" y1="641.8906" y2="641.8906"/></g><!--class Day--><g id="elem_Day"><rect codeLine="44" fill="#F1F1F1" height="80.5938" id="Day" rx="2.5" ry="2.5" style="stroke:#181818;stroke-width:0.5;" width="142" x="1241" y="569.2969"/><ellipse cx="1294.25" cy="585.2969" fill="#ADD1B2" rx="11" ry="11" style="stroke:#181818;stroke-width:1.0;"/><path d="M1296.5938,580.9688 C1295.6563,580.5313 1295.0625,580.3906 1294.1875,580.3906 C1291.5625,580.3906 1289.5625,582.4688 1289.5625,585.1875 L1289.5625,586.3125 C1289.5625,588.8906 1291.6719,590.7813 1294.5625,590.7813 C1295.7813,590.7813 1296.9375,590.4844 1297.6875,589.9375 C1298.2656,589.5313 1298.5938,589.0781 1298.5938,588.6875 C1298.5938,588.2344 1298.2031,587.8438 1297.7344,587.8438 C1297.5156,587.8438 1297.3125,587.9219 1297.125,588.1094 C1296.6719,588.5938 1296.6719,588.5938 1296.4844,588.6875 C1296.0625,588.9531 1295.375,589.0781 1294.6094,589.0781 C1292.5625,589.0781 1291.2656,587.9844 1291.2656,586.2813 L1291.2656,585.1875 C1291.2656,583.4063 1292.5156,582.0938 1294.25,582.0938 C1294.8281,582.0938 1295.4375,582.25 1295.9063,582.5 C1296.3906,582.7813 1296.5625,583 1296.6563,583.4063 C1296.7188,583.8125 1296.75,583.9375 1296.8906,584.0625 C1297.0313,584.2031 1297.2656,584.3125 1297.4844,584.3125 C1297.75,584.3125 1298.0156,584.1719 1298.1875,583.9531 C1298.2969,583.7969 1298.3281,583.6094 1298.3281,583.1875 L1298.3281,581.7656 C1298.3281,581.3281 1298.3125,581.2031 1298.2188,581.0469 C1298.0625,580.7813 1297.7813,580.6406 1297.4844,580.6406 C1297.1875,580.6406 1296.9844,580.7344 1296.7656,581.0469 L1296.5938,580.9688 Z " fill="#000000"/><text fill="#000000" font-family="sans-serif" font-size="14" lengthAdjust="spacing" textLength="27" x="1314.75" y="590.1436">Day</text><line style="stroke:#181818;stroke-width:0.5;" x1="1242" x2="1382" y1="601.2969" y2="601.2969"/><rect fill="none" height="6" style="stroke:#C82930;stroke-width:1.0;" width="6" x="1249" y="611.9453"/><text fill="#000000" font-family="sans-serif" font-size="14" lengthAdjust="spacing" textLength="63" x="1261" y="618.292">int index</text><rect fill="none" height="6" style="stroke:#C82930;stroke-width:1.0;" width="6" x="1249" y="628.2422"/><text fill="#000000" font-family="sans-serif" font-size="14" lengthAdjust="spacing" textLength="116" x="1261" y="634.5889">int totalCalories</text><line style="stroke:#181818;stroke-width:0.5;" x1="1242" x2="1382" y1="641.8906" y2="641.8906"/></g><!--class Survey--><g id="elem_Survey"><rect codeLine="48" fill="#F1F1F1" height="64.2969" id="Survey" rx="2.5" ry="2.5" style="stroke:#181818;stroke-width:0.5;" width="114" x="1078" y="840.7969"/><ellipse cx="1108.3" cy="856.7969" fill="#ADD1B2" rx="11" ry="11" style="stroke:#181818;stroke-width:1.0;"/><path d="M1110.6438,852.4688 C1109.7063,852.0313 1109.1125,851.8906 1108.2375,851.8906 C1105.6125,851.8906 1103.6125,853.9688 1103.6125,856.6875 L1103.6125,857.8125 C1103.6125,860.3906 1105.7219,862.2813 1108.6125,862.2813 C1109.8313,862.2813 1110.9875,861.9844 1111.7375,861.4375 C1112.3156,861.0313 1112.6438,860.5781 1112.6438,860.1875 C1112.6438,859.7344 1112.2531,859.3438 1111.7844,859.3438 C1111.5656,859.3438 1111.3625,859.4219 1111.175,859.6094 C1110.7219,860.0938 1110.7219,860.0938 1110.5344,860.1875 C1110.1125,860.4531 1109.425,860.5781 1108.6594,860.5781 C1106.6125,860.5781 1105.3156,859.4844 1105.3156,857.7813 L1105.3156,856.6875 C1105.3156,854.9063 1106.5656,853.5938 1108.3,853.5938 C1108.8781,853.5938 1109.4875,853.75 1109.9563,854 C1110.4406,854.2813 1110.6125,854.5 1110.7063,854.9063 C1110.7688,855.3125 1110.8,855.4375 1110.9406,855.5625 C1111.0813,855.7031 1111.3156,855.8125 1111.5344,855.8125 C1111.8,855.8125 1112.0656,855.6719 1112.2375,855.4531 C1112.3469,855.2969 1112.3781,855.1094 1112.3781,854.6875 L1112.3781,853.2656 C1112.3781,852.8281 1112.3625,852.7031 1112.2688,852.5469 C1112.1125,852.2813 1111.8313,852.1406 1111.5344,852.1406 C1111.2375,852.1406 1111.0344,852.2344 1110.8156,852.5469 L1110.6438,852.4688 Z " fill="#000000"/><text fill="#000000" font-family="sans-serif" font-size="14" lengthAdjust="spacing" textLength="48" x="1125.7" y="861.6436">Survey</text><line style="stroke:#181818;stroke-width:0.5;" x1="1079" x2="1191" y1="872.7969" y2="872.7969"/><rect fill="none" height="6" style="stroke:#C82930;stroke-width:1.0;" width="6" x="1086" y="883.4453"/><text fill="#000000" font-family="sans-serif" font-size="14" lengthAdjust="spacing" textLength="88" x="1098" y="889.792">String name</text><line style="stroke:#181818;stroke-width:0.5;" x1="1079" x2="1191" y1="897.0938" y2="897.0938"/></g><!--class IDataStructure--><g id="elem_IDataStructure"><rect codeLine="53" fill="#F1F1F1" height="48" id="IDataStructure" rx="2.5" ry="2.5" style="stroke:#181818;stroke-width:0.5;" width="136" x="283" y="1824.2969"/><ellipse cx="298" cy="1840.2969" fill="#B4A7E5" rx="11" ry="11" style="stroke:#181818;stroke-width:1.0;"/><path d="M298.9531,1837.0781 L300.6719,1837.0781 C301.0625,1837.0781 301.25,1837.0469 301.375,1836.9688 C301.6406,1836.8125 301.7813,1836.5313 301.7813,1836.2344 C301.7813,1835.9688 301.6719,1835.7031 301.4375,1835.5313 C301.2656,1835.4219 301.125,1835.3906 300.6719,1835.3906 L295.5313,1835.3906 C295.0938,1835.3906 294.9688,1835.4063 294.8125,1835.5 C294.5625,1835.6563 294.4063,1835.9531 294.4063,1836.2344 C294.4063,1836.5156 294.5469,1836.7656 294.7656,1836.9375 C294.9219,1837.0469 295.1094,1837.0781 295.5313,1837.0781 L297.25,1837.0781 L297.25,1843.5938 L295.5313,1843.5938 C295.0938,1843.5938 294.9688,1843.6094 294.8125,1843.7188 C294.5625,1843.875 294.4063,1844.1563 294.4063,1844.4531 C294.4063,1844.7031 294.5469,1844.9688 294.7656,1845.125 C294.9219,1845.25 295.125,1845.2969 295.5313,1845.2969 L300.6719,1845.2969 C301.4219,1845.2969 301.7813,1845.0156 301.7813,1844.4531 C301.7813,1844.1719 301.6719,1843.9219 301.4375,1843.75 C301.2656,1843.625 301.125,1843.5938 300.6719,1843.5938 L298.9531,1843.5938 L298.9531,1837.0781 Z " fill="#000000"/><text fill="#000000" font-family="sans-serif" font-size="14" font-style="italic" lengthAdjust="spacing" textLength="104" x="312" y="1845.1436">IDataStructure</text><line style="stroke:#181818;stroke-width:0.5;" x1="284" x2="418" y1="1856.2969" y2="1856.2969"/><line style="stroke:#181818;stroke-width:0.5;" x1="284" x2="418" y1="1864.2969" y2="1864.2969"/></g><!--class List--><g id="elem_List"><rect codeLine="54" fill="#F1F1F1" height="292.4531" id="List" rx="2.5" ry="2.5" style="stroke:#181818;stroke-width:0.5;" width="372" x="398" y="1407.2969"/><ellipse cx="566.75" cy="1423.2969" fill="#ADD1B2" rx="11" ry="11" style="stroke:#181818;stroke-width:1.0;"/><path d="M569.0938,1418.9688 C568.1563,1418.5313 567.5625,1418.3906 566.6875,1418.3906 C564.0625,1418.3906 562.0625,1420.4688 562.0625,1423.1875 L562.0625,1424.3125 C562.0625,1426.8906 564.1719,1428.7813 567.0625,1428.7813 C568.2813,1428.7813 569.4375,1428.4844 570.1875,1427.9375 C570.7656,1427.5313 571.0938,1427.0781 571.0938,1426.6875 C571.0938,1426.2344 570.7031,1425.8438 570.2344,1425.8438 C570.0156,1425.8438 569.8125,1425.9219 569.625,1426.1094 C569.1719,1426.5938 569.1719,1426.5938 568.9844,1426.6875 C568.5625,1426.9531 567.875,1427.0781 567.1094,1427.0781 C565.0625,1427.0781 563.7656,1425.9844 563.7656,1424.2813 L563.7656,1423.1875 C563.7656,1421.4063 565.0156,1420.0938 566.75,1420.0938 C567.3281,1420.0938 567.9375,1420.25 568.4063,1420.5 C568.8906,1420.7813 569.0625,1421 569.1563,1421.4063 C569.2188,1421.8125 569.25,1421.9375 569.3906,1422.0625 C569.5313,1422.2031 569.7656,1422.3125 569.9844,1422.3125 C570.25,1422.3125 570.5156,1422.1719 570.6875,1421.9531 C570.7969,1421.7969 570.8281,1421.6094 570.8281,1421.1875 L570.8281,1419.7656 C570.8281,1419.3281 570.8125,1419.2031 570.7188,1419.0469 C570.5625,1418.7813 570.2813,1418.6406 569.9844,1418.6406 C569.6875,1418.6406 569.4844,1418.7344 569.2656,1419.0469 L569.0938,1418.9688 Z " fill="#000000"/><text fill="#000000" font-family="sans-serif" font-size="14" lengthAdjust="spacing" textLength="26" x="587.25" y="1428.1436">List</text><line style="stroke:#181818;stroke-width:0.5;" x1="399" x2="769" y1="1439.2969" y2="1439.2969"/><rect fill="none" height="6" style="stroke:#C82930;stroke-width:1.0;" width="6" x="406" y="1449.9453"/><text fill="#000000" font-family="sans-serif" font-size="14" lengthAdjust="spacing" textLength="133" x="418" y="1456.292">first: ListNode&lt;T&gt;</text><line style="stroke:#181818;stroke-width:0.5;" x1="399" x2="769" y1="1463.5938" y2="1463.5938"/><ellipse cx="409" cy="1477.2422" fill="#84BE84" rx="3" ry="3" style="stroke:#038048;stroke-width:1.0;"/><text fill="#000000" font-family="sans-serif" font-size="14" lengthAdjust="spacing" textLength="65" x="418" y="1480.5889">peek(): T</text><ellipse cx="409" cy="1493.5391" fill="#84BE84" rx="3" ry="3" style="stroke:#038048;stroke-width:1.0;"/><text fill="#000000" font-family="sans-serif" font-size="14" lengthAdjust="spacing" textLength="244" x="418" y="1496.8857">insert(data: T, index: int): List&lt;T&gt;</text><rect fill="#F24D5C" height="6" style="stroke:#C82930;stroke-width:1.0;" width="6" x="406" y="1506.8359"/><text fill="#000000" font-family="sans-serif" font-size="14" lengthAdjust="spacing" textLength="285" x="418" y="1513.1826">insertFirst(listNode: ListNode&lt;T&gt;): void</text><rect fill="#F24D5C" height="6" style="stroke:#C82930;stroke-width:1.0;" width="6" x="406" y="1523.1328"/><text fill="#000000" font-family="sans-serif" font-size="14" lengthAdjust="spacing" textLength="283" x="418" y="1529.4795">insertLast(listNode: ListNode&lt;T&gt;): void</text><rect fill="#F24D5C" height="6" style="stroke:#C82930;stroke-width:1.0;" width="6" x="406" y="1539.4297"/><text fill="#000000" font-family="sans-serif" font-size="14" lengthAdjust="spacing" textLength="346" x="418" y="1545.7764">insertAt(listNode: ListNode&lt;T&gt;, index: int): void</text><ellipse cx="409" cy="1558.7266" fill="#84BE84" rx="3" ry="3" style="stroke:#038048;stroke-width:1.0;"/><text fill="#000000" font-family="sans-serif" font-size="14" lengthAdjust="spacing" textLength="199" x="418" y="1562.0732">remove(index: int): List&lt;T&gt;</text><rect fill="#F24D5C" height="6" style="stroke:#C82930;stroke-width:1.0;" width="6" x="406" y="1572.0234"/><text fill="#000000" font-family="sans-serif" font-size="14" lengthAdjust="spacing" textLength="136" x="418" y="1578.3701">removeFirst(): void</text><rect fill="#F24D5C" height="6" style="stroke:#C82930;stroke-width:1.0;" width="6" x="406" y="1588.3203"/><text fill="#000000" font-family="sans-serif" font-size="14" lengthAdjust="spacing" textLength="134" x="418" y="1594.667">removeLast(): void</text><rect fill="#F24D5C" height="6" style="stroke:#C82930;stroke-width:1.0;" width="6" x="406" y="1604.6172"/><text fill="#000000" font-family="sans-serif" font-size="14" lengthAdjust="spacing" textLength="189" x="418" y="1610.9639">removeAt(index: int): void</text><ellipse cx="409" cy="1623.9141" fill="#84BE84" rx="3" ry="3" style="stroke:#038048;stroke-width:1.0;"/><text fill="#000000" font-family="sans-serif" font-size="14" lengthAdjust="spacing" textLength="170" x="418" y="1627.2607">getFirst(): ListNode&lt;T&gt;</text><ellipse cx="409" cy="1640.2109" fill="#84BE84" rx="3" ry="3" style="stroke:#038048;stroke-width:1.0;"/><text fill="#000000" font-family="sans-serif" font-size="14" lengthAdjust="spacing" textLength="136" x="418" y="1643.5576">isEmpty(): boolean</text><ellipse cx="409" cy="1656.5078" fill="#84BE84" rx="3" ry="3" style="stroke:#038048;stroke-width:1.0;"/><text fill="#000000" font-family="sans-serif" font-size="14" lengthAdjust="spacing" textLength="67" x="418" y="1659.8545">size(): int</text><ellipse cx="409" cy="1672.8047" fill="#84BE84" rx="3" ry="3" style="stroke:#038048;stroke-width:1.0;"/><text fill="#000000" font-family="sans-serif" font-size="14" lengthAdjust="spacing" textLength="134" x="418" y="1676.1514">listData(): Object[]</text><ellipse cx="409" cy="1689.1016" fill="#84BE84" rx="3" ry="3" style="stroke:#038048;stroke-width:1.0;"/><text fill="#000000" font-family="sans-serif" font-size="14" lengthAdjust="spacing" textLength="162" x="418" y="1692.4482">iterator(): Iterator&lt;T&gt;</text></g><!--class ListNode--><g id="elem_ListNode"><rect codeLine="72" fill="#F1F1F1" height="178.375" id="ListNode" rx="2.5" ry="2.5" style="stroke:#181818;stroke-width:0.5;" width="268" x="454" y="1759.2969"/><ellipse cx="546.75" cy="1775.2969" fill="#ADD1B2" rx="11" ry="11" style="stroke:#181818;stroke-width:1.0;"/><path d="M549.0938,1770.9688 C548.1563,1770.5313 547.5625,1770.3906 546.6875,1770.3906 C544.0625,1770.3906 542.0625,1772.4688 542.0625,1775.1875 L542.0625,1776.3125 C542.0625,1778.8906 544.1719,1780.7813 547.0625,1780.7813 C548.2813,1780.7813 549.4375,1780.4844 550.1875,1779.9375 C550.7656,1779.5313 551.0938,1779.0781 551.0938,1778.6875 C551.0938,1778.2344 550.7031,1777.8438 550.2344,1777.8438 C550.0156,1777.8438 549.8125,1777.9219 549.625,1778.1094 C549.1719,1778.5938 549.1719,1778.5938 548.9844,1778.6875 C548.5625,1778.9531 547.875,1779.0781 547.1094,1779.0781 C545.0625,1779.0781 543.7656,1777.9844 543.7656,1776.2813 L543.7656,1775.1875 C543.7656,1773.4063 545.0156,1772.0938 546.75,1772.0938 C547.3281,1772.0938 547.9375,1772.25 548.4063,1772.5 C548.8906,1772.7813 549.0625,1773 549.1563,1773.4063 C549.2188,1773.8125 549.25,1773.9375 549.3906,1774.0625 C549.5313,1774.2031 549.7656,1774.3125 549.9844,1774.3125 C550.25,1774.3125 550.5156,1774.1719 550.6875,1773.9531 C550.7969,1773.7969 550.8281,1773.6094 550.8281,1773.1875 L550.8281,1771.7656 C550.8281,1771.3281 550.8125,1771.2031 550.7188,1771.0469 C550.5625,1770.7813 550.2813,1770.6406 549.9844,1770.6406 C549.6875,1770.6406 549.4844,1770.7344 549.2656,1771.0469 L549.0938,1770.9688 Z " fill="#000000"/><text fill="#000000" font-family="sans-serif" font-size="14" lengthAdjust="spacing" textLength="63" x="567.25" y="1780.1436">ListNode</text><rect fill="#FFFFFF" height="15.9688" style="stroke:#181818;stroke-width:1.0;stroke-dasharray:2.0,2.0;" width="9" x="716" y="1756.2969"/><text fill="#000000" font-family="sans-serif" font-size="12" font-style="italic" lengthAdjust="spacing" textLength="7" x="717" y="1768.4355">T</text><line style="stroke:#181818;stroke-width:0.5;" x1="455" x2="721" y1="1791.2969" y2="1791.2969"/><rect fill="none" height="6" style="stroke:#C82930;stroke-width:1.0;" width="6" x="462" y="1801.9453"/><text fill="#000000" font-family="sans-serif" font-size="14" lengthAdjust="spacing" textLength="50" x="474" y="1808.292">data: T</text><rect fill="none" height="6" style="stroke:#C82930;stroke-width:1.0;" width="6" x="462" y="1818.2422"/><text fill="#000000" font-family="sans-serif" font-size="14" lengthAdjust="spacing" textLength="136" x="474" y="1824.5889">next: ListNode&lt;T&gt;</text><line style="stroke:#181818;stroke-width:0.5;" x1="455" x2="721" y1="1831.8906" y2="1831.8906"/><ellipse cx="465" cy="1845.5391" fill="#84BE84" rx="3" ry="3" style="stroke:#038048;stroke-width:1.0;"/><text fill="#000000" font-family="sans-serif" font-size="14" lengthAdjust="spacing" textLength="123" x="474" y="1848.8857">ListNode(data: T)</text><ellipse cx="465" cy="1861.8359" fill="#84BE84" rx="3" ry="3" style="stroke:#038048;stroke-width:1.0;"/><text fill="#000000" font-family="sans-serif" font-size="14" lengthAdjust="spacing" textLength="87" x="474" y="1865.1826">getData(): T</text><ellipse cx="465" cy="1878.1328" fill="#84BE84" rx="3" ry="3" style="stroke:#038048;stroke-width:1.0;"/><text fill="#000000" font-family="sans-serif" font-size="14" lengthAdjust="spacing" textLength="156" x="474" y="1881.4795">setData(data: T): void</text><ellipse cx="465" cy="1894.4297" fill="#84BE84" rx="3" ry="3" style="stroke:#038048;stroke-width:1.0;"/><text fill="#000000" font-family="sans-serif" font-size="14" lengthAdjust="spacing" textLength="172" x="474" y="1897.7764">getNext(): ListNode&lt;T&gt;</text><ellipse cx="465" cy="1910.7266" fill="#84BE84" rx="3" ry="3" style="stroke:#038048;stroke-width:1.0;"/><text fill="#000000" font-family="sans-serif" font-size="14" lengthAdjust="spacing" textLength="242" x="474" y="1914.0732">setNext(next: ListNode&lt;T&gt;): void</text><ellipse cx="465" cy="1927.0234" fill="#84BE84" rx="3" ry="3" style="stroke:#038048;stroke-width:1.0;"/><text fill="#000000" font-family="sans-serif" font-size="14" lengthAdjust="spacing" textLength="80" x="474" y="1930.3701">count(): int</text></g><!--class Shortcut--><g id="elem_Shortcut"><rect codeLine="83" fill="#F1F1F1" height="64.2969" id="Shortcut" rx="2.5" ry="2.5" style="stroke:#181818;stroke-width:0.5;" width="106" x="718" y="840.7969"/><ellipse cx="737.95" cy="856.7969" fill="#ADD1B2" rx="11" ry="11" style="stroke:#181818;stroke-width:1.0;"/><path d="M740.2938,852.4688 C739.3563,852.0313 738.7625,851.8906 737.8875,851.8906 C735.2625,851.8906 733.2625,853.9688 733.2625,856.6875 L733.2625,857.8125 C733.2625,860.3906 735.3719,862.2813 738.2625,862.2813 C739.4813,862.2813 740.6375,861.9844 741.3875,861.4375 C741.9656,861.0313 742.2938,860.5781 742.2938,860.1875 C742.2938,859.7344 741.9031,859.3438 741.4344,859.3438 C741.2156,859.3438 741.0125,859.4219 740.825,859.6094 C740.3719,860.0938 740.3719,860.0938 740.1844,860.1875 C739.7625,860.4531 739.075,860.5781 738.3094,860.5781 C736.2625,860.5781 734.9656,859.4844 734.9656,857.7813 L734.9656,856.6875 C734.9656,854.9063 736.2156,853.5938 737.95,853.5938 C738.5281,853.5938 739.1375,853.75 739.6063,854 C740.0906,854.2813 740.2625,854.5 740.3563,854.9063 C740.4188,855.3125 740.45,855.4375 740.5906,855.5625 C740.7313,855.7031 740.9656,855.8125 741.1844,855.8125 C741.45,855.8125 741.7156,855.6719 741.8875,855.4531 C741.9969,855.2969 742.0281,855.1094 742.0281,854.6875 L742.0281,853.2656 C742.0281,852.8281 742.0125,852.7031 741.9188,852.5469 C741.7625,852.2813 741.4813,852.1406 741.1844,852.1406 C740.8875,852.1406 740.6844,852.2344 740.4656,852.5469 L740.2938,852.4688 Z " fill="#000000"/><text fill="#000000" font-family="sans-serif" font-size="14" lengthAdjust="spacing" textLength="63" x="753.05" y="861.6436">Shortcut</text><line style="stroke:#181818;stroke-width:0.5;" x1="719" x2="823" y1="872.7969" y2="872.7969"/><line style="stroke:#181818;stroke-width:0.5;" x1="719" x2="823" y1="880.7969" y2="880.7969"/><rect fill="#F24D5C" height="6" style="stroke:#C82930;stroke-width:1.0;" width="6" x="726" y="891.4453"/><text fill="#000000" font-family="sans-serif" font-size="14" lengthAdjust="spacing" textLength="80" x="738" y="897.792">void print()</text></g><!--class Tree--><g id="elem_Tree"><rect codeLine="86" fill="#F1F1F1" height="308.75" id="Tree" rx="2.5" ry="2.5" style="stroke:#181818;stroke-width:0.5;" width="471" x="22.5" y="718.2969"/><ellipse cx="171.25" cy="734.2969" fill="#ADD1B2" rx="11" ry="11" style="stroke:#181818;stroke-width:1.0;"/><path d="M173.5938,729.9688 C172.6563,729.5313 172.0625,729.3906 171.1875,729.3906 C168.5625,729.3906 166.5625,731.4688 166.5625,734.1875 L166.5625,735.3125 C166.5625,737.8906 168.6719,739.7813 171.5625,739.7813 C172.7813,739.7813 173.9375,739.4844 174.6875,738.9375 C175.2656,738.5313 175.5938,738.0781 175.5938,737.6875 C175.5938,737.2344 175.2031,736.8438 174.7344,736.8438 C174.5156,736.8438 174.3125,736.9219 174.125,737.1094 C173.6719,737.5938 173.6719,737.5938 173.4844,737.6875 C173.0625,737.9531 172.375,738.0781 171.6094,738.0781 C169.5625,738.0781 168.2656,736.9844 168.2656,735.2813 L168.2656,734.1875 C168.2656,732.4063 169.5156,731.0938 171.25,731.0938 C171.8281,731.0938 172.4375,731.25 172.9063,731.5 C173.3906,731.7813 173.5625,732 173.6563,732.4063 C173.7188,732.8125 173.75,732.9375 173.8906,733.0625 C174.0313,733.2031 174.2656,733.3125 174.4844,733.3125 C174.75,733.3125 175.0156,733.1719 175.1875,732.9531 C175.2969,732.7969 175.3281,732.6094 175.3281,732.1875 L175.3281,730.7656 C175.3281,730.3281 175.3125,730.2031 175.2188,730.0469 C175.0625,729.7813 174.7813,729.6406 174.4844,729.6406 C174.1875,729.6406 173.9844,729.7344 173.7656,730.0469 L173.5938,729.9688 Z " fill="#000000"/><text fill="#000000" font-family="sans-serif" font-size="14" lengthAdjust="spacing" textLength="33" x="191.75" y="739.1436">Tree</text><rect fill="#FFFFFF" height="15.9688" style="stroke:#181818;stroke-width:1.0;stroke-dasharray:2.0,2.0;" width="130" x="366.5" y="715.2969"/><text fill="#000000" font-family="sans-serif" font-size="12" font-style="italic" lengthAdjust="spacing" textLength="128" x="367.5" y="727.4355">T extends TreeObject</text><line style="stroke:#181818;stroke-width:0.5;" x1="23.5" x2="492.5" y1="750.2969" y2="750.2969"/><rect fill="none" height="6" style="stroke:#C82930;stroke-width:1.0;" width="6" x="30.5" y="760.9453"/><text fill="#000000" font-family="sans-serif" font-size="14" lengthAdjust="spacing" textLength="141" x="42.5" y="767.292">root: TreeNode&lt;T&gt;</text><line style="stroke:#181818;stroke-width:0.5;" x1="23.5" x2="492.5" y1="774.5938" y2="774.5938"/><ellipse cx="33.5" cy="788.2422" fill="#84BE84" rx="3" ry="3" style="stroke:#038048;stroke-width:1.0;"/><text fill="#000000" font-family="sans-serif" font-size="14" lengthAdjust="spacing" textLength="126" x="42.5" y="791.5889">Tree(rootData: T)</text><ellipse cx="33.5" cy="804.5391" fill="#84BE84" rx="3" ry="3" style="stroke:#038048;stroke-width:1.0;"/><text fill="#000000" font-family="sans-serif" font-size="14" lengthAdjust="spacing" textLength="180" x="42.5" y="807.8857">getRoot(): TreeNode&lt;T&gt;</text><ellipse cx="33.5" cy="820.8359" fill="#84BE84" rx="3" ry="3" style="stroke:#038048;stroke-width:1.0;"/><text fill="#000000" font-family="sans-serif" font-size="14" lengthAdjust="spacing" textLength="409" x="42.5" y="824.1826">addChildByParentIndex(data: T, parentNumber: int): void</text><ellipse cx="33.5" cy="837.1328" fill="#84BE84" rx="3" ry="3" style="stroke:#038048;stroke-width:1.0;"/><text fill="#000000" font-family="sans-serif" font-size="14" lengthAdjust="spacing" textLength="340" x="42.5" y="840.4795">addChildByParentData(data: T, d1: String): void</text><ellipse cx="33.5" cy="853.4297" fill="#84BE84" rx="3" ry="3" style="stroke:#038048;stroke-width:1.0;"/><text fill="#000000" font-family="sans-serif" font-size="14" lengthAdjust="spacing" textLength="424" x="42.5" y="856.7764">addFoodByParentsData(data: T, d1: String, d2: String): void</text><ellipse cx="33.5" cy="869.7266" fill="#84BE84" rx="3" ry="3" style="stroke:#038048;stroke-width:1.0;"/><text fill="#000000" font-family="sans-serif" font-size="14" lengthAdjust="spacing" textLength="426" x="42.5" y="873.0732">deleteFoodByData(d1: String, d2: String, food: String): void</text><ellipse cx="33.5" cy="886.0234" fill="#84BE84" rx="3" ry="3" style="stroke:#038048;stroke-width:1.0;"/><text fill="#000000" font-family="sans-serif" font-size="14" lengthAdjust="spacing" textLength="338" x="42.5" y="889.3701">getTreeNodeByData(d1: String): TreeNode&lt;T&gt;</text><ellipse cx="33.5" cy="902.3203" fill="#84BE84" rx="3" ry="3" style="stroke:#038048;stroke-width:1.0;"/><text fill="#000000" font-family="sans-serif" font-size="14" lengthAdjust="spacing" textLength="445" x="42.5" y="905.667">getTreeNodeByTwoData(d1: String, d2: String): TreeNode&lt;T&gt;</text><ellipse cx="33.5" cy="918.6172" fill="#84BE84" rx="3" ry="3" style="stroke:#038048;stroke-width:1.0;"/><text fill="#000000" font-family="sans-serif" font-size="14" lengthAdjust="spacing" textLength="416" x="42.5" y="921.9639">addChildToTreeNode(data: T, parent: TreeNode&lt;T&gt;): void</text><ellipse cx="33.5" cy="934.9141" fill="#84BE84" rx="3" ry="3" style="stroke:#038048;stroke-width:1.0;"/><text fill="#000000" font-family="sans-serif" font-size="14" lengthAdjust="spacing" textLength="224" x="42.5" y="938.2607">printTree(order: boolean): void</text><ellipse cx="33.5" cy="951.2109" fill="#84BE84" rx="3" ry="3" style="stroke:#038048;stroke-width:1.0;"/><text fill="#000000" font-family="sans-serif" font-size="14" lengthAdjust="spacing" textLength="183" x="42.5" y="954.5576">printTreePreOrder(): void</text><ellipse cx="33.5" cy="967.5078" fill="#84BE84" rx="3" ry="3" style="stroke:#038048;stroke-width:1.0;"/><text fill="#000000" font-family="sans-serif" font-size="14" lengthAdjust="spacing" textLength="191" x="42.5" y="970.8545">printTreePostOrder(): void</text><ellipse cx="33.5" cy="983.8047" fill="#84BE84" rx="3" ry="3" style="stroke:#038048;stroke-width:1.0;"/><text fill="#000000" font-family="sans-serif" font-size="14" lengthAdjust="spacing" textLength="136" x="42.5" y="987.1514">isEmpty(): boolean</text><ellipse cx="33.5" cy="1000.1016" fill="#84BE84" rx="3" ry="3" style="stroke:#038048;stroke-width:1.0;"/><text fill="#000000" font-family="sans-serif" font-size="14" lengthAdjust="spacing" textLength="67" x="42.5" y="1003.4482">size(): int</text><ellipse cx="33.5" cy="1016.3984" fill="#84BE84" rx="3" ry="3" style="stroke:#038048;stroke-width:1.0;"/><text fill="#000000" font-family="sans-serif" font-size="14" lengthAdjust="spacing" textLength="134" x="42.5" y="1019.7451">listData(): Object[]</text></g><!--class TreeNode--><g id="elem_TreeNode"><rect codeLine="105" fill="#F1F1F1" height="259.8594" id="TreeNode" rx="2.5" ry="2.5" style="stroke:#181818;stroke-width:0.5;" width="374" x="294" y="1087.2969"/><ellipse cx="375.75" cy="1103.2969" fill="#ADD1B2" rx="11" ry="11" style="stroke:#181818;stroke-width:1.0;"/><path d="M378.0938,1098.9688 C377.1563,1098.5313 376.5625,1098.3906 375.6875,1098.3906 C373.0625,1098.3906 371.0625,1100.4688 371.0625,1103.1875 L371.0625,1104.3125 C371.0625,1106.8906 373.1719,1108.7813 376.0625,1108.7813 C377.2813,1108.7813 378.4375,1108.4844 379.1875,1107.9375 C379.7656,1107.5313 380.0938,1107.0781 380.0938,1106.6875 C380.0938,1106.2344 379.7031,1105.8438 379.2344,1105.8438 C379.0156,1105.8438 378.8125,1105.9219 378.625,1106.1094 C378.1719,1106.5938 378.1719,1106.5938 377.9844,1106.6875 C377.5625,1106.9531 376.875,1107.0781 376.1094,1107.0781 C374.0625,1107.0781 372.7656,1105.9844 372.7656,1104.2813 L372.7656,1103.1875 C372.7656,1101.4063 374.0156,1100.0938 375.75,1100.0938 C376.3281,1100.0938 376.9375,1100.25 377.4063,1100.5 C377.8906,1100.7813 378.0625,1101 378.1563,1101.4063 C378.2188,1101.8125 378.25,1101.9375 378.3906,1102.0625 C378.5313,1102.2031 378.7656,1102.3125 378.9844,1102.3125 C379.25,1102.3125 379.5156,1102.1719 379.6875,1101.9531 C379.7969,1101.7969 379.8281,1101.6094 379.8281,1101.1875 L379.8281,1099.7656 C379.8281,1099.3281 379.8125,1099.2031 379.7188,1099.0469 C379.5625,1098.7813 379.2813,1098.6406 378.9844,1098.6406 C378.6875,1098.6406 378.4844,1098.7344 378.2656,1099.0469 L378.0938,1098.9688 Z " fill="#000000"/><text fill="#000000" font-family="sans-serif" font-size="14" lengthAdjust="spacing" textLength="70" x="396.25" y="1108.1436">TreeNode</text><rect fill="#FFFFFF" height="15.9688" style="stroke:#181818;stroke-width:1.0;stroke-dasharray:2.0,2.0;" width="130" x="541" y="1084.2969"/><text fill="#000000" font-family="sans-serif" font-size="12" font-style="italic" lengthAdjust="spacing" textLength="128" x="542" y="1096.4355">T extends TreeObject</text><line style="stroke:#181818;stroke-width:0.5;" x1="295" x2="667" y1="1119.2969" y2="1119.2969"/><rect fill="none" height="6" style="stroke:#C82930;stroke-width:1.0;" width="6" x="302" y="1129.9453"/><text fill="#000000" font-family="sans-serif" font-size="14" lengthAdjust="spacing" textLength="152" x="314" y="1136.292">parent: ListNode&lt;T&gt;</text><rect fill="none" height="6" style="stroke:#C82930;stroke-width:1.0;" width="6" x="302" y="1146.2422"/><text fill="#000000" font-family="sans-serif" font-size="14" lengthAdjust="spacing" textLength="216" x="314" y="1152.5889">children: List&lt;TreeNode&lt;T&gt;&gt;</text><line style="stroke:#181818;stroke-width:0.5;" x1="295" x2="667" y1="1159.8906" y2="1159.8906"/><ellipse cx="305" cy="1173.5391" fill="#84BE84" rx="3" ry="3" style="stroke:#038048;stroke-width:1.0;"/><text fill="#000000" font-family="sans-serif" font-size="14" lengthAdjust="spacing" textLength="80" x="314" y="1176.8857">TreeNode()</text><ellipse cx="305" cy="1189.8359" fill="#84BE84" rx="3" ry="3" style="stroke:#038048;stroke-width:1.0;"/><text fill="#000000" font-family="sans-serif" font-size="14" lengthAdjust="spacing" textLength="232" x="314" y="1193.1826">TreeNode(parent: ListNode&lt;T&gt;)</text><ellipse cx="305" cy="1206.1328" fill="#84BE84" rx="3" ry="3" style="stroke:#038048;stroke-width:1.0;"/><text fill="#000000" font-family="sans-serif" font-size="14" lengthAdjust="spacing" textLength="156" x="314" y="1209.4795">setData(data: T): void</text><ellipse cx="305" cy="1222.4297" fill="#84BE84" rx="3" ry="3" style="stroke:#038048;stroke-width:1.0;"/><text fill="#000000" font-family="sans-serif" font-size="14" lengthAdjust="spacing" textLength="348" x="314" y="1225.7764">setChildren(children: List&lt;TreeNode&lt;T&gt;&gt;): void</text><ellipse cx="305" cy="1238.7266" fill="#84BE84" rx="3" ry="3" style="stroke:#038048;stroke-width:1.0;"/><text fill="#000000" font-family="sans-serif" font-size="14" lengthAdjust="spacing" textLength="156" x="314" y="1242.0732">deleteChildren(): void</text><ellipse cx="305" cy="1255.0234" fill="#84BE84" rx="3" ry="3" style="stroke:#038048;stroke-width:1.0;"/><text fill="#000000" font-family="sans-serif" font-size="14" lengthAdjust="spacing" textLength="257" x="314" y="1258.3701">deleteChildByIndex(index: int): void</text><ellipse cx="305" cy="1271.3203" fill="#84BE84" rx="3" ry="3" style="stroke:#038048;stroke-width:1.0;"/><text fill="#000000" font-family="sans-serif" font-size="14" lengthAdjust="spacing" textLength="182" x="314" y="1274.667">deleteChild(data: T): void</text><ellipse cx="305" cy="1287.6172" fill="#84BE84" rx="3" ry="3" style="stroke:#038048;stroke-width:1.0;"/><text fill="#000000" font-family="sans-serif" font-size="14" lengthAdjust="spacing" textLength="161" x="314" y="1290.9639">addChild(data: T): void</text><ellipse cx="305" cy="1303.9141" fill="#84BE84" rx="3" ry="3" style="stroke:#038048;stroke-width:1.0;"/><text fill="#000000" font-family="sans-serif" font-size="14" lengthAdjust="spacing" textLength="87" x="314" y="1307.2607">getData(): T</text><ellipse cx="305" cy="1320.2109" fill="#84BE84" rx="3" ry="3" style="stroke:#038048;stroke-width:1.0;"/><text fill="#000000" font-family="sans-serif" font-size="14" lengthAdjust="spacing" textLength="253" x="314" y="1323.5576">getChildren(): List&lt;TreeNode&lt;T&gt;&gt;</text><ellipse cx="305" cy="1336.5078" fill="#84BE84" rx="3" ry="3" style="stroke:#038048;stroke-width:1.0;"/><text fill="#000000" font-family="sans-serif" font-size="14" lengthAdjust="spacing" textLength="127" x="314" y="1339.8545">childrenSize(): int</text></g><!--class TreeObject--><g id="elem_TreeObject"><rect codeLine="121" fill="#F1F1F1" height="64.2969" id="TreeObject" rx="2.5" ry="2.5" style="stroke:#181818;stroke-width:0.5;" width="154" x="529" y="840.7969"/><ellipse cx="563.35" cy="856.7969" fill="#B4A7E5" rx="11" ry="11" style="stroke:#181818;stroke-width:1.0;"/><path d="M564.3031,853.5781 L566.0219,853.5781 C566.4125,853.5781 566.6,853.5469 566.725,853.4688 C566.9906,853.3125 567.1313,853.0313 567.1313,852.7344 C567.1313,852.4688 567.0219,852.2031 566.7875,852.0313 C566.6156,851.9219 566.475,851.8906 566.0219,851.8906 L560.8813,851.8906 C560.4438,851.8906 560.3188,851.9063 560.1625,852 C559.9125,852.1563 559.7563,852.4531 559.7563,852.7344 C559.7563,853.0156 559.8969,853.2656 560.1156,853.4375 C560.2719,853.5469 560.4594,853.5781 560.8813,853.5781 L562.6,853.5781 L562.6,860.0938 L560.8813,860.0938 C560.4438,860.0938 560.3188,860.1094 560.1625,860.2188 C559.9125,860.375 559.7563,860.6563 559.7563,860.9531 C559.7563,861.2031 559.8969,861.4688 560.1156,861.625 C560.2719,861.75 560.475,861.7969 560.8813,861.7969 L566.0219,861.7969 C566.7719,861.7969 567.1313,861.5156 567.1313,860.9531 C567.1313,860.6719 567.0219,860.4219 566.7875,860.25 C566.6156,860.125 566.475,860.0938 566.0219,860.0938 L564.3031,860.0938 L564.3031,853.5781 Z " fill="#000000"/><text fill="#000000" font-family="sans-serif" font-size="14" font-style="italic" lengthAdjust="spacing" textLength="79" x="581.65" y="861.6436">TreeObject</text><line style="stroke:#181818;stroke-width:0.5;" x1="530" x2="682" y1="872.7969" y2="872.7969"/><ellipse cx="540" cy="886.4453" fill="none" rx="3" ry="3" style="stroke:#038048;stroke-width:1.0;"/><text fill="#000000" font-family="sans-serif" font-size="14" lengthAdjust="spacing" textLength="128" x="549" y="889.792">getDetails: String</text><line style="stroke:#181818;stroke-width:0.5;" x1="530" x2="682" y1="897.0938" y2="897.0938"/></g><!--class Client--><g id="elem_Client"><rect codeLine="3" fill="#F1F1F1" height="80.5938" id="Client" rx="2.5" ry="2.5" style="stroke:#181818;stroke-width:0.5;" width="137" x="1063.5" y="125.7969"/><ellipse cx="1106.4" cy="141.7969" fill="#ADD1B2" rx="11" ry="11" style="stroke:#181818;stroke-width:1.0;"/><path d="M1108.7438,137.4688 C1107.8063,137.0313 1107.2125,136.8906 1106.3375,136.8906 C1103.7125,136.8906 1101.7125,138.9688 1101.7125,141.6875 L1101.7125,142.8125 C1101.7125,145.3906 1103.8219,147.2813 1106.7125,147.2813 C1107.9313,147.2813 1109.0875,146.9844 1109.8375,146.4375 C1110.4156,146.0313 1110.7438,145.5781 1110.7438,145.1875 C1110.7438,144.7344 1110.3531,144.3438 1109.8844,144.3438 C1109.6656,144.3438 1109.4625,144.4219 1109.275,144.6094 C1108.8219,145.0938 1108.8219,145.0938 1108.6344,145.1875 C1108.2125,145.4531 1107.525,145.5781 1106.7594,145.5781 C1104.7125,145.5781 1103.4156,144.4844 1103.4156,142.7813 L1103.4156,141.6875 C1103.4156,139.9063 1104.6656,138.5938 1106.4,138.5938 C1106.9781,138.5938 1107.5875,138.75 1108.0563,139 C1108.5406,139.2813 1108.7125,139.5 1108.8063,139.9063 C1108.8688,140.3125 1108.9,140.4375 1109.0406,140.5625 C1109.1813,140.7031 1109.4156,140.8125 1109.6344,140.8125 C1109.9,140.8125 1110.1656,140.6719 1110.3375,140.4531 C1110.4469,140.2969 1110.4781,140.1094 1110.4781,139.6875 L1110.4781,138.2656 C1110.4781,137.8281 1110.4625,137.7031 1110.3688,137.5469 C1110.2125,137.2813 1109.9313,137.1406 1109.6344,137.1406 C1109.3375,137.1406 1109.1344,137.2344 1108.9156,137.5469 L1108.7438,137.4688 Z " fill="#000000"/><text fill="#000000" font-family="sans-serif" font-size="14" lengthAdjust="spacing" textLength="43" x="1126.6" y="146.6436">Client</text><line style="stroke:#181818;stroke-width:0.5;" x1="1064.5" x2="1199.5" y1="157.7969" y2="157.7969"/><rect fill="none" height="6" style="stroke:#C82930;stroke-width:1.0;" width="6" x="1071.5" y="168.4453"/><text fill="#000000" font-family="sans-serif" font-size="14" lengthAdjust="spacing" textLength="88" x="1083.5" y="174.792">String name</text><rect fill="none" height="6" style="stroke:#C82930;stroke-width:1.0;" width="6" x="1071.5" y="184.7422"/><text fill="#000000" font-family="sans-serif" font-size="14" lengthAdjust="spacing" textLength="111" x="1083.5" y="191.0889">String Surname</text><line style="stroke:#181818;stroke-width:0.5;" x1="1064.5" x2="1199.5" y1="198.3906" y2="198.3906"/></g><!--class FoodData--><g id="elem_FoodData"><rect codeLine="8" fill="#F1F1F1" height="145.7813" id="FoodData" rx="2.5" ry="2.5" style="stroke:#181818;stroke-width:0.5;" width="265" x="886.5" y="348.2969"/><ellipse cx="980.25" cy="364.2969" fill="#ADD1B2" rx="11" ry="11" style="stroke:#181818;stroke-width:1.0;"/><path d="M982.5938,359.9688 C981.6563,359.5313 981.0625,359.3906 980.1875,359.3906 C977.5625,359.3906 975.5625,361.4688 975.5625,364.1875 L975.5625,365.3125 C975.5625,367.8906 977.6719,369.7813 980.5625,369.7813 C981.7813,369.7813 982.9375,369.4844 983.6875,368.9375 C984.2656,368.5313 984.5938,368.0781 984.5938,367.6875 C984.5938,367.2344 984.2031,366.8438 983.7344,366.8438 C983.5156,366.8438 983.3125,366.9219 983.125,367.1094 C982.6719,367.5938 982.6719,367.5938 982.4844,367.6875 C982.0625,367.9531 981.375,368.0781 980.6094,368.0781 C978.5625,368.0781 977.2656,366.9844 977.2656,365.2813 L977.2656,364.1875 C977.2656,362.4063 978.5156,361.0938 980.25,361.0938 C980.8281,361.0938 981.4375,361.25 981.9063,361.5 C982.3906,361.7813 982.5625,362 982.6563,362.4063 C982.7188,362.8125 982.75,362.9375 982.8906,363.0625 C983.0313,363.2031 983.2656,363.3125 983.4844,363.3125 C983.75,363.3125 984.0156,363.1719 984.1875,362.9531 C984.2969,362.7969 984.3281,362.6094 984.3281,362.1875 L984.3281,360.7656 C984.3281,360.3281 984.3125,360.2031 984.2188,360.0469 C984.0625,359.7813 983.7813,359.6406 983.4844,359.6406 C983.1875,359.6406 982.9844,359.7344 982.7656,360.0469 L982.5938,359.9688 Z " fill="#000000"/><text fill="#000000" font-family="sans-serif" font-size="14" lengthAdjust="spacing" textLength="69" x="1000.75" y="369.1436">FoodData</text><line style="stroke:#181818;stroke-width:0.5;" x1="887.5" x2="1150.5" y1="380.2969" y2="380.2969"/><rect fill="none" height="6" style="stroke:#C82930;stroke-width:1.0;" width="6" x="894.5" y="390.9453"/><text fill="#000000" font-family="sans-serif" font-size="14" lengthAdjust="spacing" textLength="151" x="906.5" y="397.292">foodList: List&lt;Food&gt;</text><line style="stroke:#181818;stroke-width:0.5;" x1="887.5" x2="1150.5" y1="404.5938" y2="404.5938"/><ellipse cx="897.5" cy="418.2422" fill="#84BE84" rx="3" ry="3" style="stroke:#038048;stroke-width:1.0;"/><text fill="#000000" font-family="sans-serif" font-size="14" lengthAdjust="spacing" textLength="79" x="906.5" y="421.5889">FoodData()</text><rect fill="#F24D5C" height="6" style="stroke:#C82930;stroke-width:1.0;" width="6" x="894.5" y="431.5391"/><text fill="#000000" font-family="sans-serif" font-size="14" lengthAdjust="spacing" textLength="108" x="906.5" y="437.8857">initFood(): void</text><ellipse cx="897.5" cy="450.8359" fill="#84BE84" rx="3" ry="3" style="stroke:#038048;stroke-width:1.0;"/><text fill="#000000" font-family="sans-serif" font-size="14" lengthAdjust="spacing" textLength="106" x="906.5" y="454.1826">listFood(): void</text><ellipse cx="897.5" cy="467.1328" fill="#84BE84" rx="3" ry="3" style="stroke:#038048;stroke-width:1.0;"/><text fill="#000000" font-family="sans-serif" font-size="14" lengthAdjust="spacing" textLength="239" x="906.5" y="470.4795">getFoodByIndex(index: int): Food</text><ellipse cx="897.5" cy="483.4297" fill="#84BE84" rx="3" ry="3" style="stroke:#038048;stroke-width:1.0;"/><text fill="#000000" font-family="sans-serif" font-size="14" lengthAdjust="spacing" textLength="220" x="906.5" y="486.7764">exportFoodData(): List&lt;Food&gt;</text></g><!--class Manager--><g id="elem_Manager"><rect codeLine="18" fill="#F1F1F1" height="243.5625" id="Manager" rx="2.5" ry="2.5" style="stroke:#181818;stroke-width:0.5;" width="390" x="638" y="44.2969"/><ellipse cx="798.25" cy="60.2969" fill="#ADD1B2" rx="11" ry="11" style="stroke:#181818;stroke-width:1.0;"/><path d="M800.5938,55.9688 C799.6563,55.5313 799.0625,55.3906 798.1875,55.3906 C795.5625,55.3906 793.5625,57.4688 793.5625,60.1875 L793.5625,61.3125 C793.5625,63.8906 795.6719,65.7813 798.5625,65.7813 C799.7813,65.7813 800.9375,65.4844 801.6875,64.9375 C802.2656,64.5313 802.5938,64.0781 802.5938,63.6875 C802.5938,63.2344 802.2031,62.8438 801.7344,62.8438 C801.5156,62.8438 801.3125,62.9219 801.125,63.1094 C800.6719,63.5938 800.6719,63.5938 800.4844,63.6875 C800.0625,63.9531 799.375,64.0781 798.6094,64.0781 C796.5625,64.0781 795.2656,62.9844 795.2656,61.2813 L795.2656,60.1875 C795.2656,58.4063 796.5156,57.0938 798.25,57.0938 C798.8281,57.0938 799.4375,57.25 799.9063,57.5 C800.3906,57.7813 800.5625,58 800.6563,58.4063 C800.7188,58.8125 800.75,58.9375 800.8906,59.0625 C801.0313,59.2031 801.2656,59.3125 801.4844,59.3125 C801.75,59.3125 802.0156,59.1719 802.1875,58.9531 C802.2969,58.7969 802.3281,58.6094 802.3281,58.1875 L802.3281,56.7656 C802.3281,56.3281 802.3125,56.2031 802.2188,56.0469 C802.0625,55.7813 801.7813,55.6406 801.4844,55.6406 C801.1875,55.6406 800.9844,55.7344 800.7656,56.0469 L800.5938,55.9688 Z " fill="#000000"/><text fill="#000000" font-family="sans-serif" font-size="14" lengthAdjust="spacing" textLength="61" x="818.75" y="65.1436">Manager</text><line style="stroke:#181818;stroke-width:0.5;" x1="639" x2="1027" y1="76.2969" y2="76.2969"/><rect fill="none" height="6" style="stroke:#C82930;stroke-width:1.0;" width="6" x="646" y="86.9453"/><text fill="#000000" font-family="sans-serif" font-size="14" lengthAdjust="spacing" textLength="177" x="658" y="93.292">tree: Tree&lt;TreeObject&gt;</text><line style="stroke:#181818;stroke-width:0.5;" x1="639" x2="1027" y1="100.5938" y2="100.5938"/><ellipse cx="649" cy="114.2422" fill="#84BE84" rx="3" ry="3" style="stroke:#038048;stroke-width:1.0;"/><text fill="#000000" font-family="sans-serif" font-size="14" lengthAdjust="spacing" text-decoration="underline" textLength="177" x="658" y="117.5889">main(args: String[]): void</text><ellipse cx="649" cy="130.5391" fill="#84BE84" rx="3" ry="3" style="stroke:#038048;stroke-width:1.0;"/><text fill="#000000" font-family="sans-serif" font-size="14" lengthAdjust="spacing" text-decoration="underline" textLength="86" x="658" y="133.8857">init(): Client</text><ellipse cx="649" cy="146.8359" fill="#84BE84" rx="3" ry="3" style="stroke:#038048;stroke-width:1.0;"/><text fill="#000000" font-family="sans-serif" font-size="14" lengthAdjust="spacing" text-decoration="underline" textLength="113" x="658" y="150.1826">welcome(): void</text><ellipse cx="649" cy="163.1328" fill="#84BE84" rx="3" ry="3" style="stroke:#038048;stroke-width:1.0;"/><text fill="#000000" font-family="sans-serif" font-size="14" lengthAdjust="spacing" text-decoration="underline" textLength="164" x="658" y="166.4795">mainMenuDisplay(): int</text><ellipse cx="649" cy="179.4297" fill="#84BE84" rx="3" ry="3" style="stroke:#038048;stroke-width:1.0;"/><text fill="#000000" font-family="sans-serif" font-size="14" lengthAdjust="spacing" text-decoration="underline" textLength="106" x="658" y="182.7764">initTree(): void</text><ellipse cx="649" cy="195.7266" fill="#84BE84" rx="3" ry="3" style="stroke:#038048;stroke-width:1.0;"/><text fill="#000000" font-family="sans-serif" font-size="14" lengthAdjust="spacing" text-decoration="underline" textLength="121" x="658" y="199.0732">addIntake(): void</text><ellipse cx="649" cy="212.0234" fill="#84BE84" rx="3" ry="3" style="stroke:#038048;stroke-width:1.0;"/><text fill="#000000" font-family="sans-serif" font-size="14" lengthAdjust="spacing" text-decoration="underline" textLength="255" x="658" y="215.3701">addFood(foodData: FoodData): void</text><ellipse cx="649" cy="228.3203" fill="#84BE84" rx="3" ry="3" style="stroke:#038048;stroke-width:1.0;"/><text fill="#000000" font-family="sans-serif" font-size="14" lengthAdjust="spacing" text-decoration="underline" textLength="171" x="658" y="231.667">addFoodManually(): void</text><ellipse cx="649" cy="244.6172" fill="#84BE84" rx="3" ry="3" style="stroke:#038048;stroke-width:1.0;"/><text fill="#000000" font-family="sans-serif" font-size="14" lengthAdjust="spacing" text-decoration="underline" textLength="285" x="658" y="247.9639">askDayAndIntake(foodData: Food): void</text><ellipse cx="649" cy="260.9141" fill="#84BE84" rx="3" ry="3" style="stroke:#038048;stroke-width:1.0;"/><text fill="#000000" font-family="sans-serif" font-size="14" lengthAdjust="spacing" text-decoration="underline" textLength="131" x="658" y="264.2607">deleteFood(): void</text><ellipse cx="649" cy="277.2109" fill="#84BE84" rx="3" ry="3" style="stroke:#038048;stroke-width:1.0;"/><text fill="#000000" font-family="sans-serif" font-size="14" lengthAdjust="spacing" text-decoration="underline" textLength="364" x="658" y="280.5576">updateCalories(dayD: String, intakeD: String): void</text></g><!--link Tree to IDataStructure--><g id="link_Tree_IDataStructure"><path codeLine="126" d="M259.531,1027.3489 C261.527,1120.1489 266.012,1240.7179 276,1347.2969 C293.343,1532.3529 329.9896,1735.6676 343.2876,1806.5406 " fill="none" id="Tree-to-IDataStructure" style="stroke:#181818;stroke-width:1.0;"/><polygon fill="none" points="346.607,1824.2319,349.1847,1805.4341,337.3905,1807.6471,346.607,1824.2319" style="stroke:#181818;stroke-width:1.0;"/></g><!--link List to IDataStructure--><g id="link_List_IDataStructure"><path codeLine="127" d="M468.524,1699.5089 C430.075,1747.8599 402.6805,1782.3085 380.6875,1809.9645 " fill="none" id="List-to-IDataStructure" style="stroke:#181818;stroke-width:1.0;"/><polygon fill="none" points="369.484,1824.0529,385.3836,1813.6991,375.9914,1806.23,369.484,1824.0529" style="stroke:#181818;stroke-width:1.0;"/></g><!--link TreeNode to IDataStructure--><g id="link_TreeNode_IDataStructure"><path codeLine="128" d="M402.865,1347.4409 C393.776,1366.9519 385.724,1387.2639 380,1407.2969 C335.94,1561.5079 343.3287,1740.0349 347.9187,1806.3259 " fill="none" id="TreeNode-to-IDataStructure" style="stroke:#181818;stroke-width:1.0;"/><polygon fill="none" points="349.162,1824.2829,353.9043,1805.9114,341.933,1806.7403,349.162,1824.2829" style="stroke:#181818;stroke-width:1.0;"/></g><!--link TreeNode to List--><g id="link_TreeNode_List"><path codeLine="129" d="M520.822,1347.4299 C526.851,1366.9799 531.3379,1381.5273 537.4629,1401.3893 " fill="none" id="TreeNode-to-List" style="stroke:#181818;stroke-width:1.0;"/><polygon fill="#181818" points="539.231,1407.1229,540.4012,1397.3438,537.7576,1402.3449,532.7565,1399.7013,539.231,1407.1229" style="stroke:#181818;stroke-width:1.0;"/></g><!--link TreeObjects to TreeObject--><g id="link_TreeObjects_TreeObject"><path codeLine="131" d="M871.927,611.5297 C871.8014,611.5428 871.6745,611.5562 871.5462,611.5698 C871.2897,611.597 871.0279,611.625 870.7609,611.6539 C869.6929,611.7695 868.5416,611.899 867.3121,612.0435 C864.853,612.3325 862.0807,612.6819 859.0351,613.1012 C846.8524,614.7788 830.2955,617.5769 811.9092,622.1194 C775.1368,631.2044 731.047,647.2669 700,675.2969 C650.034,720.4069 628.6331,780.3652 617.4721,823.3252 " fill="none" id="TreeObjects-to-TreeObject" style="stroke:#181818;stroke-width:1.0;"/><polygon fill="none" points="612.946,840.7469,623.2794,824.8339,611.6649,821.8165,612.946,840.7469" style="stroke:#181818;stroke-width:1.0;"/></g><!--link Manager to Tree--><g id="link_Manager_Tree"><path codeLine="133" d="M734.154,288.4069 C637.103,407.3169 492.4949,584.4886 387.1909,713.5086 " fill="none" id="Manager-to-Tree" style="stroke:#181818;stroke-width:1.0;"/><polygon fill="#181818" points="383.397,718.1569,392.1867,713.7137,386.5586,714.2833,385.9889,708.6552,383.397,718.1569" style="stroke:#181818;stroke-width:1.0;"/></g><!--link Manager to TreeObjects--><g id="link_Manager_TreeObjects"><path codeLine="134" d="M845.905,288.5269 C852.7535,352.8569 861.12,431.4469 867.8511,494.6756 C868.6925,502.5792 869.5084,510.2428 870.2925,517.6085 C870.6845,521.2913 871.0687,524.8997 871.4441,528.4264 C871.538,529.3081 871.6313,530.1846 871.7241,531.056 C871.7704,531.4917 870.5464,519.9935 870.5925,520.4265 " fill="none" id="Manager-to-TreeObjects" style="stroke:#181818;stroke-width:1.0;"/><polygon fill="#181818" points="871.8628,532.3591,875.2051,525.9694,870.5925,520.4265,867.2501,526.8162,871.8628,532.3591" style="stroke:#181818;stroke-width:1.0;"/></g><!--link Manager to Client--><g id="link_Manager_Client"><path codeLine="135" d="M1028.05,166.2969 C1039.83,166.2969 1045.6,166.2969 1057.38,166.2969 " fill="none" id="Manager-to-Client" style="stroke:#181818;stroke-width:1.0;"/><polygon fill="#181818" points="1063.38,166.2969,1054.38,162.2969,1058.38,166.2969,1054.38,170.2969,1063.38,166.2969" style="stroke:#181818;stroke-width:1.0;"/></g><!--link Tree to TreeNode--><g id="link_Tree_TreeNode"><path codeLine="137" d="M358.085,1027.5149 C371.053,1047.4319 377.6814,1057.6126 390.3544,1077.0766 " fill="none" id="Tree-to-TreeNode" style="stroke:#181818;stroke-width:1.0;"/><polygon fill="#181818" points="396.902,1087.1329,396.9803,1079.9222,390.3544,1077.0766,390.2761,1084.2873,396.902,1087.1329" style="stroke:#181818;stroke-width:1.0;"/></g><!--link List to ListNode--><g id="link_List_ListNode"><path codeLine="138" d="M585.982,1699.5089 C586.259,1719.7989 586.373,1728.123 586.63,1746.922 " fill="none" id="List-to-ListNode" style="stroke:#181818;stroke-width:1.0;"/><polygon fill="#181818" points="586.794,1758.9209,590.7116,1752.8668,586.63,1746.922,582.7124,1752.9761,586.794,1758.9209" style="stroke:#181818;stroke-width:1.0;"/></g><!--link FoodData to Food--><g id="link_FoodData_Food"><path codeLine="140" d="M1000.83,494.4069 C994.42,519.8269 990.3901,535.8206 984.9121,557.5606 " fill="none" id="FoodData-to-Food" style="stroke:#181818;stroke-width:1.0;"/><polygon fill="#181818" points="981.98,569.1969,987.3248,564.3561,984.9121,557.5606,979.5673,562.4014,981.98,569.1969" style="stroke:#181818;stroke-width:1.0;"/></g><!--link FoodData to List--><g id="link_FoodData_List"><path codeLine="141" d="M1151.51,432.6869 C1248.35,443.3669 1367.94,464.0169 1399,502.2969 C1546.02,683.4869 1510.72,822.4469 1399,1027.2969 C1266.24,1270.7379 972.427,1416.1599 775.837,1490.4099 " fill="none" id="FoodData-to-List" style="stroke:#181818;stroke-width:1.0;"/><polygon fill="#181818" points="770.224,1492.5299,780.0568,1493.0919,774.9015,1490.7632,777.2302,1485.6079,770.224,1492.5299" style="stroke:#181818;stroke-width:1.0;"/></g><!--link Manager to FoodData--><g id="link_Manager_FoodData"><path codeLine="142" d="M922.186,288.6069 C937.197,309.0269 948.7875,324.7923 962.4955,343.4423 " fill="none" id="Manager-to-FoodData" style="stroke:#181818;stroke-width:1.0;"/><polygon fill="#181818" points="966.049,348.2769,963.9418,338.6561,963.0878,344.2481,957.4958,343.394,966.049,348.2769" style="stroke:#181818;stroke-width:1.0;"/></g><!--SRC=[hLTDRzim3BttL-ZeDCrXEmP3WAtPW09RDwov3JkeDfjgTQn0ahjcM_xxI4ko9KLsEs0zk04_7XyfafQDC3MmjU1RnNUSLS3AcclGPsSC_-YtPfUrWCQmtvq8_nRinYZHR5d3Tt0Yl6bLBp-6C1-ahDRSy1vemUvGz55eisJqV4CMgpEFEFSEnSmxY4OOaXQp9NkKedBoUOtUEVaMEl6xmrLJmLCXwBbaeZ5eHmfl1qzxgSmGB-9paiWdtl0jg20Fem2MR8FFD_JuVFi3IjDdybiRRaHvPFCT5qt1rLOlNRM-VOyP3wQKAX6nnJzH_uIwb3ienjmfqYTeshNG-veVo4vaO2WACHx5uLLrrHZ-C6dHbVxELM_P7_Gp7bZ6bjVrOHnPFwpvuMtZ6SGHnhmggC50fXi6atPVSGENl9PAW2ugVbZx0xcWCc6mNX1Yk2xOy_816u0DHwtxsN0jOXaF8-Fw1B6PaORNFdQYpynLh34Yq1oJe9JpISXnI29JfZnIJ3o0R1RTABquknGLTyGZ75x4zNWsF7tXMoDg7NXZO51tl0HsHVs1C6rfMWL9L9hfA2Ok8A7yzhcM5Kxli7veB-m17gYBDg5GD1gKmQwXJjnSi6YhT7jZimg3MFiF5AceNQ0ePDocWSz7_iykRqSS4fg9yrp1JZv2yLmgriocag5WrHthKIqId6H2AzlZXySI7e1-lzkRRc_SIba3RqAj5hyWNdVzAy8lTpkqtxv7eDX2t4X5-YltEunxp3IJuvRqb6kCIDR0qqIRURdlgLbI4CyxQaFjvDudMyfhZ3jHIUqiJkXbq4hPDYOjxCbWt-Dxj6pZCSFy2OpjSRfDCHjrjkzFXboWgNImNjCAAocDVTtcgjaf2h9Pvylv5LLTEGE0m09VJvVteiPRmnUkyDrhxmxzkEyxuNMxkmKrriGfH7XG5wnwbNkv3Axsoc8zzPWh_duz0JEy1TyTB4JMywAxWatWOBbycKw0naiOUMr-oWa6pv_3Hdg3z10Yrmpvhk6wRf2gejDowsBAz8k2psHSJ1f9RKQj_lzwoWsApVe5m-9BbLy12rPIZT74B_oXel5OzOSmoqepOMR_jgxGuj9nAIP8ZJPxxpnjaVqOcB2VOEmxT7e7PxVtDaXsbYjzk7cTuKscTOwPIz3G2yaDQyw83XYEroS_VoSNhUuVGR35uiygTwFgxb5ZIfy4UrQ_M7L8Gq1tbxRGWy0Q-8ykSYDT8ZmF4MBTodz3XPcTzqJ2bCxxzhN6_IShgVeFna7gCaZvUOE_]--></g></svg>