<?xml version="1.0" encoding="us-ascii" standalone="no"?><svg xmlns="http://www.w3.org/2000/svg" xmlns:xlink="http://www.w3.org/1999/xlink" contentStyleType="text/css" height="884px" preserveAspectRatio="none" style="width:1118px;height:884px;background:#FFFFFF;" version="1.1" viewBox="0 0 1118 884" width="1118px" zoomAndPan="magnify"><defs/><g><text fill="#000000" font-family="sans-serif" font-size="14" font-weight="bold" lengthAdjust="spacing" textLength="158" x="473.305" y="22.9951">Diagrama de clases</text><!--cluster TreeObjects--><g id="cluster_TreeObjects"><path d="M491.5,273.2969 L590.5,273.2969 A3.75,3.75 0 0 1 593,275.7969 L600,295.5938 L1021.5,295.5938 A2.5,2.5 0 0 1 1024,298.0938 L1024,558.7969 A2.5,2.5 0 0 1 1021.5,561.2969 L491.5,561.2969 A2.5,2.5 0 0 1 489,558.7969 L489,275.7969 A2.5,2.5 0 0 1 491.5,273.2969 " fill="none" style="stroke:#000000;stroke-width:1.5;"/><line style="stroke:#000000;stroke-width:1.5;" x1="489" x2="600" y1="295.5938" y2="295.5938"/><text fill="#000000" font-family="sans-serif" font-size="14" font-weight="bold" lengthAdjust="spacing" textLength="98" x="493" y="288.292">TreeObjects</text></g><!--cluster utils--><g id="cluster_utils"><path d="M8.5,438.2969 L46.5,438.2969 A3.75,3.75 0 0 1 49,440.7969 L56,460.5938 L454.5,460.5938 A2.5,2.5 0 0 1 457,463.0938 L457,874.7969 A2.5,2.5 0 0 1 454.5,877.2969 L8.5,877.2969 A2.5,2.5 0 0 1 6,874.7969 L6,440.7969 A2.5,2.5 0 0 1 8.5,438.2969 " fill="none" style="stroke:#000000;stroke-width:1.5;"/><line style="stroke:#000000;stroke-width:1.5;" x1="6" x2="56" y1="460.5938" y2="460.5938"/><text fill="#000000" font-family="sans-serif" font-size="14" font-weight="bold" lengthAdjust="spacing" textLength="37" x="10" y="453.292">utils</text></g><!--class Intake--><g id="elem_Intake"><rect codeLine="17" fill="#F1F1F1" height="96.8906" id="Intake" rx="2.5" ry="2.5" style="stroke:#181818;stroke-width:0.5;" width="142" x="681" y="316.2969"/><ellipse cx="724.8" cy="332.2969" fill="#ADD1B2" rx="11" ry="11" style="stroke:#181818;stroke-width:1.0;"/><path d="M727.1438,327.9688 C726.2063,327.5313 725.6125,327.3906 724.7375,327.3906 C722.1125,327.3906 720.1125,329.4688 720.1125,332.1875 L720.1125,333.3125 C720.1125,335.8906 722.2219,337.7813 725.1125,337.7813 C726.3313,337.7813 727.4875,337.4844 728.2375,336.9375 C728.8156,336.5313 729.1438,336.0781 729.1438,335.6875 C729.1438,335.2344 728.7531,334.8438 728.2844,334.8438 C728.0656,334.8438 727.8625,334.9219 727.675,335.1094 C727.2219,335.5938 727.2219,335.5938 727.0344,335.6875 C726.6125,335.9531 725.925,336.0781 725.1594,336.0781 C723.1125,336.0781 721.8156,334.9844 721.8156,333.2813 L721.8156,332.1875 C721.8156,330.4063 723.0656,329.0938 724.8,329.0938 C725.3781,329.0938 725.9875,329.25 726.4563,329.5 C726.9406,329.7813 727.1125,330 727.2063,330.4063 C727.2688,330.8125 727.3,330.9375 727.4406,331.0625 C727.5813,331.2031 727.8156,331.3125 728.0344,331.3125 C728.3,331.3125 728.5656,331.1719 728.7375,330.9531 C728.8469,330.7969 728.8781,330.6094 728.8781,330.1875 L728.8781,328.7656 C728.8781,328.3281 728.8625,328.2031 728.7688,328.0469 C728.6125,327.7813 728.3313,327.6406 728.0344,327.6406 C727.7375,327.6406 727.5344,327.7344 727.3156,328.0469 L727.1438,327.9688 Z " fill="#000000"/><text fill="#000000" font-family="sans-serif" font-size="14" lengthAdjust="spacing" textLength="46" x="745.2" y="337.1436">Intake</text><line style="stroke:#181818;stroke-width:0.5;" x1="682" x2="822" y1="348.2969" y2="348.2969"/><rect fill="none" height="6" style="stroke:#C82930;stroke-width:1.0;" width="6" x="689" y="358.9453"/><text fill="#000000" font-family="sans-serif" font-size="14" lengthAdjust="spacing" textLength="116" x="701" y="365.292">int totalCalories</text><rect fill="none" height="6" style="stroke:#C82930;stroke-width:1.0;" width="6" x="689" y="375.2422"/><text fill="#000000" font-family="sans-serif" font-size="14" lengthAdjust="spacing" textLength="88" x="701" y="381.5889">String name</text><rect fill="none" height="6" style="stroke:#C82930;stroke-width:1.0;" width="6" x="689" y="391.5391"/><text fill="#000000" font-family="sans-serif" font-size="14" lengthAdjust="spacing" textLength="82" x="701" y="397.8857">String time</text><line style="stroke:#181818;stroke-width:0.5;" x1="682" x2="822" y1="405.1875" y2="405.1875"/></g><!--class Food--><g id="elem_Food"><rect codeLine="22" fill="#F1F1F1" height="80.5938" id="Food" rx="2.5" ry="2.5" style="stroke:#181818;stroke-width:0.5;" width="114" x="532" y="324.2969"/><ellipse cx="568.15" cy="340.2969" fill="#ADD1B2" rx="11" ry="11" style="stroke:#181818;stroke-width:1.0;"/><path d="M570.4938,335.9688 C569.5563,335.5313 568.9625,335.3906 568.0875,335.3906 C565.4625,335.3906 563.4625,337.4688 563.4625,340.1875 L563.4625,341.3125 C563.4625,343.8906 565.5719,345.7813 568.4625,345.7813 C569.6813,345.7813 570.8375,345.4844 571.5875,344.9375 C572.1656,344.5313 572.4938,344.0781 572.4938,343.6875 C572.4938,343.2344 572.1031,342.8438 571.6344,342.8438 C571.4156,342.8438 571.2125,342.9219 571.025,343.1094 C570.5719,343.5938 570.5719,343.5938 570.3844,343.6875 C569.9625,343.9531 569.275,344.0781 568.5094,344.0781 C566.4625,344.0781 565.1656,342.9844 565.1656,341.2813 L565.1656,340.1875 C565.1656,338.4063 566.4156,337.0938 568.15,337.0938 C568.7281,337.0938 569.3375,337.25 569.8063,337.5 C570.2906,337.7813 570.4625,338 570.5563,338.4063 C570.6188,338.8125 570.65,338.9375 570.7906,339.0625 C570.9313,339.2031 571.1656,339.3125 571.3844,339.3125 C571.65,339.3125 571.9156,339.1719 572.0875,338.9531 C572.1969,338.7969 572.2281,338.6094 572.2281,338.1875 L572.2281,336.7656 C572.2281,336.3281 572.2125,336.2031 572.1188,336.0469 C571.9625,335.7813 571.6813,335.6406 571.3844,335.6406 C571.0875,335.6406 570.8844,335.7344 570.6656,336.0469 L570.4938,335.9688 Z " fill="#000000"/><text fill="#000000" font-family="sans-serif" font-size="14" lengthAdjust="spacing" textLength="35" x="586.85" y="345.1436">Food</text><line style="stroke:#181818;stroke-width:0.5;" x1="533" x2="645" y1="356.2969" y2="356.2969"/><rect fill="none" height="6" style="stroke:#C82930;stroke-width:1.0;" width="6" x="540" y="366.9453"/><text fill="#000000" font-family="sans-serif" font-size="14" lengthAdjust="spacing" textLength="88" x="552" y="373.292">String name</text><rect fill="none" height="6" style="stroke:#C82930;stroke-width:1.0;" width="6" x="540" y="383.2422"/><text fill="#000000" font-family="sans-serif" font-size="14" lengthAdjust="spacing" textLength="79" x="552" y="389.5889">int calories</text><line style="stroke:#181818;stroke-width:0.5;" x1="533" x2="645" y1="396.8906" y2="396.8906"/></g><!--class Day--><g id="elem_Day"><rect codeLine="26" fill="#F1F1F1" height="80.5938" id="Day" rx="2.5" ry="2.5" style="stroke:#181818;stroke-width:0.5;" width="142" x="858" y="324.2969"/><ellipse cx="911.25" cy="340.2969" fill="#ADD1B2" rx="11" ry="11" style="stroke:#181818;stroke-width:1.0;"/><path d="M913.5938,335.9688 C912.6563,335.5313 912.0625,335.3906 911.1875,335.3906 C908.5625,335.3906 906.5625,337.4688 906.5625,340.1875 L906.5625,341.3125 C906.5625,343.8906 908.6719,345.7813 911.5625,345.7813 C912.7813,345.7813 913.9375,345.4844 914.6875,344.9375 C915.2656,344.5313 915.5938,344.0781 915.5938,343.6875 C915.5938,343.2344 915.2031,342.8438 914.7344,342.8438 C914.5156,342.8438 914.3125,342.9219 914.125,343.1094 C913.6719,343.5938 913.6719,343.5938 913.4844,343.6875 C913.0625,343.9531 912.375,344.0781 911.6094,344.0781 C909.5625,344.0781 908.2656,342.9844 908.2656,341.2813 L908.2656,340.1875 C908.2656,338.4063 909.5156,337.0938 911.25,337.0938 C911.8281,337.0938 912.4375,337.25 912.9063,337.5 C913.3906,337.7813 913.5625,338 913.6563,338.4063 C913.7188,338.8125 913.75,338.9375 913.8906,339.0625 C914.0313,339.2031 914.2656,339.3125 914.4844,339.3125 C914.75,339.3125 915.0156,339.1719 915.1875,338.9531 C915.2969,338.7969 915.3281,338.6094 915.3281,338.1875 L915.3281,336.7656 C915.3281,336.3281 915.3125,336.2031 915.2188,336.0469 C915.0625,335.7813 914.7813,335.6406 914.4844,335.6406 C914.1875,335.6406 913.9844,335.7344 913.7656,336.0469 L913.5938,335.9688 Z " fill="#000000"/><text fill="#000000" font-family="sans-serif" font-size="14" lengthAdjust="spacing" textLength="27" x="931.75" y="345.1436">Day</text><line style="stroke:#181818;stroke-width:0.5;" x1="859" x2="999" y1="356.2969" y2="356.2969"/><rect fill="none" height="6" style="stroke:#C82930;stroke-width:1.0;" width="6" x="866" y="366.9453"/><text fill="#000000" font-family="sans-serif" font-size="14" lengthAdjust="spacing" textLength="63" x="878" y="373.292">int index</text><rect fill="none" height="6" style="stroke:#C82930;stroke-width:1.0;" width="6" x="866" y="383.2422"/><text fill="#000000" font-family="sans-serif" font-size="14" lengthAdjust="spacing" textLength="116" x="878" y="389.5889">int totalCalories</text><line style="stroke:#181818;stroke-width:0.5;" x1="859" x2="999" y1="396.8906" y2="396.8906"/></g><!--class Survey--><g id="elem_Survey"><rect codeLine="30" fill="#F1F1F1" height="64.2969" id="Survey" rx="2.5" ry="2.5" style="stroke:#181818;stroke-width:0.5;" width="114" x="695" y="473.2969"/><ellipse cx="725.3" cy="489.2969" fill="#ADD1B2" rx="11" ry="11" style="stroke:#181818;stroke-width:1.0;"/><path d="M727.6438,484.9688 C726.7063,484.5313 726.1125,484.3906 725.2375,484.3906 C722.6125,484.3906 720.6125,486.4688 720.6125,489.1875 L720.6125,490.3125 C720.6125,492.8906 722.7219,494.7813 725.6125,494.7813 C726.8313,494.7813 727.9875,494.4844 728.7375,493.9375 C729.3156,493.5313 729.6438,493.0781 729.6438,492.6875 C729.6438,492.2344 729.2531,491.8438 728.7844,491.8438 C728.5656,491.8438 728.3625,491.9219 728.175,492.1094 C727.7219,492.5938 727.7219,492.5938 727.5344,492.6875 C727.1125,492.9531 726.425,493.0781 725.6594,493.0781 C723.6125,493.0781 722.3156,491.9844 722.3156,490.2813 L722.3156,489.1875 C722.3156,487.4063 723.5656,486.0938 725.3,486.0938 C725.8781,486.0938 726.4875,486.25 726.9563,486.5 C727.4406,486.7813 727.6125,487 727.7063,487.4063 C727.7688,487.8125 727.8,487.9375 727.9406,488.0625 C728.0813,488.2031 728.3156,488.3125 728.5344,488.3125 C728.8,488.3125 729.0656,488.1719 729.2375,487.9531 C729.3469,487.7969 729.3781,487.6094 729.3781,487.1875 L729.3781,485.7656 C729.3781,485.3281 729.3625,485.2031 729.2688,485.0469 C729.1125,484.7813 728.8313,484.6406 728.5344,484.6406 C728.2375,484.6406 728.0344,484.7344 727.8156,485.0469 L727.6438,484.9688 Z " fill="#000000"/><text fill="#000000" font-family="sans-serif" font-size="14" lengthAdjust="spacing" textLength="48" x="742.7" y="494.1436">Survey</text><line style="stroke:#181818;stroke-width:0.5;" x1="696" x2="808" y1="505.2969" y2="505.2969"/><rect fill="none" height="6" style="stroke:#C82930;stroke-width:1.0;" width="6" x="703" y="515.9453"/><text fill="#000000" font-family="sans-serif" font-size="14" lengthAdjust="spacing" textLength="88" x="715" y="522.292">String name</text><line style="stroke:#181818;stroke-width:0.5;" x1="696" x2="808" y1="529.5938" y2="529.5938"/></g><!--class IDataStructure--><g id="elem_IDataStructure"><rect codeLine="35" fill="#F1F1F1" height="48" id="IDataStructure" rx="2.5" ry="2.5" style="stroke:#181818;stroke-width:0.5;" width="136" x="52" y="813.2969"/><ellipse cx="67" cy="829.2969" fill="#B4A7E5" rx="11" ry="11" style="stroke:#181818;stroke-width:1.0;"/><path d="M67.9531,826.0781 L69.6719,826.0781 C70.0625,826.0781 70.25,826.0469 70.375,825.9688 C70.6406,825.8125 70.7813,825.5313 70.7813,825.2344 C70.7813,824.9688 70.6719,824.7031 70.4375,824.5313 C70.2656,824.4219 70.125,824.3906 69.6719,824.3906 L64.5313,824.3906 C64.0938,824.3906 63.9688,824.4063 63.8125,824.5 C63.5625,824.6563 63.4063,824.9531 63.4063,825.2344 C63.4063,825.5156 63.5469,825.7656 63.7656,825.9375 C63.9219,826.0469 64.1094,826.0781 64.5313,826.0781 L66.25,826.0781 L66.25,832.5938 L64.5313,832.5938 C64.0938,832.5938 63.9688,832.6094 63.8125,832.7188 C63.5625,832.875 63.4063,833.1563 63.4063,833.4531 C63.4063,833.7031 63.5469,833.9688 63.7656,834.125 C63.9219,834.25 64.125,834.2969 64.5313,834.2969 L69.6719,834.2969 C70.4219,834.2969 70.7813,834.0156 70.7813,833.4531 C70.7813,833.1719 70.6719,832.9219 70.4375,832.75 C70.2656,832.625 70.125,832.5938 69.6719,832.5938 L67.9531,832.5938 L67.9531,826.0781 Z " fill="#000000"/><text fill="#000000" font-family="sans-serif" font-size="14" font-style="italic" lengthAdjust="spacing" textLength="104" x="81" y="834.1436">IDataStructure</text><line style="stroke:#181818;stroke-width:0.5;" x1="53" x2="187" y1="845.2969" y2="845.2969"/><line style="stroke:#181818;stroke-width:0.5;" x1="53" x2="187" y1="853.2969" y2="853.2969"/></g><!--class List--><g id="elem_List"><rect codeLine="36" fill="#F1F1F1" height="48" id="List" rx="2.5" ry="2.5" style="stroke:#181818;stroke-width:0.5;" width="58" x="199" y="705.2969"/><ellipse cx="214" cy="721.2969" fill="#ADD1B2" rx="11" ry="11" style="stroke:#181818;stroke-width:1.0;"/><path d="M216.3438,716.9688 C215.4063,716.5313 214.8125,716.3906 213.9375,716.3906 C211.3125,716.3906 209.3125,718.4688 209.3125,721.1875 L209.3125,722.3125 C209.3125,724.8906 211.4219,726.7813 214.3125,726.7813 C215.5313,726.7813 216.6875,726.4844 217.4375,725.9375 C218.0156,725.5313 218.3438,725.0781 218.3438,724.6875 C218.3438,724.2344 217.9531,723.8438 217.4844,723.8438 C217.2656,723.8438 217.0625,723.9219 216.875,724.1094 C216.4219,724.5938 216.4219,724.5938 216.2344,724.6875 C215.8125,724.9531 215.125,725.0781 214.3594,725.0781 C212.3125,725.0781 211.0156,723.9844 211.0156,722.2813 L211.0156,721.1875 C211.0156,719.4063 212.2656,718.0938 214,718.0938 C214.5781,718.0938 215.1875,718.25 215.6563,718.5 C216.1406,718.7813 216.3125,719 216.4063,719.4063 C216.4688,719.8125 216.5,719.9375 216.6406,720.0625 C216.7813,720.2031 217.0156,720.3125 217.2344,720.3125 C217.5,720.3125 217.7656,720.1719 217.9375,719.9531 C218.0469,719.7969 218.0781,719.6094 218.0781,719.1875 L218.0781,717.7656 C218.0781,717.3281 218.0625,717.2031 217.9688,717.0469 C217.8125,716.7813 217.5313,716.6406 217.2344,716.6406 C216.9375,716.6406 216.7344,716.7344 216.5156,717.0469 L216.3438,716.9688 Z " fill="#000000"/><text fill="#000000" font-family="sans-serif" font-size="14" lengthAdjust="spacing" textLength="26" x="228" y="726.1436">List</text><line style="stroke:#181818;stroke-width:0.5;" x1="200" x2="256" y1="737.2969" y2="737.2969"/><line style="stroke:#181818;stroke-width:0.5;" x1="200" x2="256" y1="745.2969" y2="745.2969"/></g><!--class ListNode--><g id="elem_ListNode"><rect codeLine="37" fill="#F1F1F1" height="48" id="ListNode" rx="2.5" ry="2.5" style="stroke:#181818;stroke-width:0.5;" width="95" x="223.5" y="813.2969"/><ellipse cx="238.5" cy="829.2969" fill="#ADD1B2" rx="11" ry="11" style="stroke:#181818;stroke-width:1.0;"/><path d="M240.8438,824.9688 C239.9063,824.5313 239.3125,824.3906 238.4375,824.3906 C235.8125,824.3906 233.8125,826.4688 233.8125,829.1875 L233.8125,830.3125 C233.8125,832.8906 235.9219,834.7813 238.8125,834.7813 C240.0313,834.7813 241.1875,834.4844 241.9375,833.9375 C242.5156,833.5313 242.8438,833.0781 242.8438,832.6875 C242.8438,832.2344 242.4531,831.8438 241.9844,831.8438 C241.7656,831.8438 241.5625,831.9219 241.375,832.1094 C240.9219,832.5938 240.9219,832.5938 240.7344,832.6875 C240.3125,832.9531 239.625,833.0781 238.8594,833.0781 C236.8125,833.0781 235.5156,831.9844 235.5156,830.2813 L235.5156,829.1875 C235.5156,827.4063 236.7656,826.0938 238.5,826.0938 C239.0781,826.0938 239.6875,826.25 240.1563,826.5 C240.6406,826.7813 240.8125,827 240.9063,827.4063 C240.9688,827.8125 241,827.9375 241.1406,828.0625 C241.2813,828.2031 241.5156,828.3125 241.7344,828.3125 C242,828.3125 242.2656,828.1719 242.4375,827.9531 C242.5469,827.7969 242.5781,827.6094 242.5781,827.1875 L242.5781,825.7656 C242.5781,825.3281 242.5625,825.2031 242.4688,825.0469 C242.3125,824.7813 242.0313,824.6406 241.7344,824.6406 C241.4375,824.6406 241.2344,824.7344 241.0156,825.0469 L240.8438,824.9688 Z " fill="#000000"/><text fill="#000000" font-family="sans-serif" font-size="14" lengthAdjust="spacing" textLength="63" x="252.5" y="834.1436">ListNode</text><line style="stroke:#181818;stroke-width:0.5;" x1="224.5" x2="317.5" y1="845.2969" y2="845.2969"/><line style="stroke:#181818;stroke-width:0.5;" x1="224.5" x2="317.5" y1="853.2969" y2="853.2969"/></g><!--class Shortcut--><g id="elem_Shortcut"><rect codeLine="38" fill="#F1F1F1" height="64.2969" id="Shortcut" rx="2.5" ry="2.5" style="stroke:#181818;stroke-width:0.5;" width="106" x="335" y="473.2969"/><ellipse cx="354.95" cy="489.2969" fill="#ADD1B2" rx="11" ry="11" style="stroke:#181818;stroke-width:1.0;"/><path d="M357.2938,484.9688 C356.3563,484.5313 355.7625,484.3906 354.8875,484.3906 C352.2625,484.3906 350.2625,486.4688 350.2625,489.1875 L350.2625,490.3125 C350.2625,492.8906 352.3719,494.7813 355.2625,494.7813 C356.4813,494.7813 357.6375,494.4844 358.3875,493.9375 C358.9656,493.5313 359.2938,493.0781 359.2938,492.6875 C359.2938,492.2344 358.9031,491.8438 358.4344,491.8438 C358.2156,491.8438 358.0125,491.9219 357.825,492.1094 C357.3719,492.5938 357.3719,492.5938 357.1844,492.6875 C356.7625,492.9531 356.075,493.0781 355.3094,493.0781 C353.2625,493.0781 351.9656,491.9844 351.9656,490.2813 L351.9656,489.1875 C351.9656,487.4063 353.2156,486.0938 354.95,486.0938 C355.5281,486.0938 356.1375,486.25 356.6063,486.5 C357.0906,486.7813 357.2625,487 357.3563,487.4063 C357.4188,487.8125 357.45,487.9375 357.5906,488.0625 C357.7313,488.2031 357.9656,488.3125 358.1844,488.3125 C358.45,488.3125 358.7156,488.1719 358.8875,487.9531 C358.9969,487.7969 359.0281,487.6094 359.0281,487.1875 L359.0281,485.7656 C359.0281,485.3281 359.0125,485.2031 358.9188,485.0469 C358.7625,484.7813 358.4813,484.6406 358.1844,484.6406 C357.8875,484.6406 357.6844,484.7344 357.4656,485.0469 L357.2938,484.9688 Z " fill="#000000"/><text fill="#000000" font-family="sans-serif" font-size="14" lengthAdjust="spacing" textLength="63" x="370.05" y="494.1436">Shortcut</text><line style="stroke:#181818;stroke-width:0.5;" x1="336" x2="440" y1="505.2969" y2="505.2969"/><line style="stroke:#181818;stroke-width:0.5;" x1="336" x2="440" y1="513.2969" y2="513.2969"/><ellipse cx="346" cy="526.9453" fill="#84BE84" rx="3" ry="3" style="stroke:#038048;stroke-width:1.0;"/><text fill="#000000" font-family="sans-serif" font-size="14" lengthAdjust="spacing" textLength="80" x="355" y="530.292">void print()</text></g><!--class Tree--><g id="elem_Tree"><rect codeLine="41" fill="#F1F1F1" height="64.2969" id="Tree" rx="2.5" ry="2.5" style="stroke:#181818;stroke-width:0.5;" width="131" x="22.5" y="473.2969"/><ellipse cx="67.25" cy="489.2969" fill="#ADD1B2" rx="11" ry="11" style="stroke:#181818;stroke-width:1.0;"/><path d="M69.5938,484.9688 C68.6563,484.5313 68.0625,484.3906 67.1875,484.3906 C64.5625,484.3906 62.5625,486.4688 62.5625,489.1875 L62.5625,490.3125 C62.5625,492.8906 64.6719,494.7813 67.5625,494.7813 C68.7813,494.7813 69.9375,494.4844 70.6875,493.9375 C71.2656,493.5313 71.5938,493.0781 71.5938,492.6875 C71.5938,492.2344 71.2031,491.8438 70.7344,491.8438 C70.5156,491.8438 70.3125,491.9219 70.125,492.1094 C69.6719,492.5938 69.6719,492.5938 69.4844,492.6875 C69.0625,492.9531 68.375,493.0781 67.6094,493.0781 C65.5625,493.0781 64.2656,491.9844 64.2656,490.2813 L64.2656,489.1875 C64.2656,487.4063 65.5156,486.0938 67.25,486.0938 C67.8281,486.0938 68.4375,486.25 68.9063,486.5 C69.3906,486.7813 69.5625,487 69.6563,487.4063 C69.7188,487.8125 69.75,487.9375 69.8906,488.0625 C70.0313,488.2031 70.2656,488.3125 70.4844,488.3125 C70.75,488.3125 71.0156,488.1719 71.1875,487.9531 C71.2969,487.7969 71.3281,487.6094 71.3281,487.1875 L71.3281,485.7656 C71.3281,485.3281 71.3125,485.2031 71.2188,485.0469 C71.0625,484.7813 70.7813,484.6406 70.4844,484.6406 C70.1875,484.6406 69.9844,484.7344 69.7656,485.0469 L69.5938,484.9688 Z " fill="#000000"/><text fill="#000000" font-family="sans-serif" font-size="14" lengthAdjust="spacing" textLength="33" x="87.75" y="494.1436">Tree</text><line style="stroke:#181818;stroke-width:0.5;" x1="23.5" x2="152.5" y1="505.2969" y2="505.2969"/><rect fill="none" height="6" style="stroke:#C82930;stroke-width:1.0;" width="6" x="30.5" y="515.9453"/><text fill="#000000" font-family="sans-serif" font-size="14" lengthAdjust="spacing" textLength="105" x="42.5" y="522.292">TreeNode root</text><line style="stroke:#181818;stroke-width:0.5;" x1="23.5" x2="152.5" y1="529.5938" y2="529.5938"/></g><!--class TreeNode--><g id="elem_TreeNode"><rect codeLine="44" fill="#F1F1F1" height="48" id="TreeNode" rx="2.5" ry="2.5" style="stroke:#181818;stroke-width:0.5;" width="102" x="124" y="597.2969"/><ellipse cx="139" cy="613.2969" fill="#ADD1B2" rx="11" ry="11" style="stroke:#181818;stroke-width:1.0;"/><path d="M141.3438,608.9688 C140.4063,608.5313 139.8125,608.3906 138.9375,608.3906 C136.3125,608.3906 134.3125,610.4688 134.3125,613.1875 L134.3125,614.3125 C134.3125,616.8906 136.4219,618.7813 139.3125,618.7813 C140.5313,618.7813 141.6875,618.4844 142.4375,617.9375 C143.0156,617.5313 143.3438,617.0781 143.3438,616.6875 C143.3438,616.2344 142.9531,615.8438 142.4844,615.8438 C142.2656,615.8438 142.0625,615.9219 141.875,616.1094 C141.4219,616.5938 141.4219,616.5938 141.2344,616.6875 C140.8125,616.9531 140.125,617.0781 139.3594,617.0781 C137.3125,617.0781 136.0156,615.9844 136.0156,614.2813 L136.0156,613.1875 C136.0156,611.4063 137.2656,610.0938 139,610.0938 C139.5781,610.0938 140.1875,610.25 140.6563,610.5 C141.1406,610.7813 141.3125,611 141.4063,611.4063 C141.4688,611.8125 141.5,611.9375 141.6406,612.0625 C141.7813,612.2031 142.0156,612.3125 142.2344,612.3125 C142.5,612.3125 142.7656,612.1719 142.9375,611.9531 C143.0469,611.7969 143.0781,611.6094 143.0781,611.1875 L143.0781,609.7656 C143.0781,609.3281 143.0625,609.2031 142.9688,609.0469 C142.8125,608.7813 142.5313,608.6406 142.2344,608.6406 C141.9375,608.6406 141.7344,608.7344 141.5156,609.0469 L141.3438,608.9688 Z " fill="#000000"/><text fill="#000000" font-family="sans-serif" font-size="14" lengthAdjust="spacing" textLength="70" x="153" y="618.1436">TreeNode</text><line style="stroke:#181818;stroke-width:0.5;" x1="125" x2="225" y1="629.2969" y2="629.2969"/><line style="stroke:#181818;stroke-width:0.5;" x1="125" x2="225" y1="637.2969" y2="637.2969"/></g><!--class TreeObject--><g id="elem_TreeObject"><rect codeLine="45" fill="#F1F1F1" height="48" id="TreeObject" rx="2.5" ry="2.5" style="stroke:#181818;stroke-width:0.5;" width="111" x="188.5" y="481.2969"/><ellipse cx="203.5" cy="497.2969" fill="#B4A7E5" rx="11" ry="11" style="stroke:#181818;stroke-width:1.0;"/><path d="M204.4531,494.0781 L206.1719,494.0781 C206.5625,494.0781 206.75,494.0469 206.875,493.9688 C207.1406,493.8125 207.2813,493.5313 207.2813,493.2344 C207.2813,492.9688 207.1719,492.7031 206.9375,492.5313 C206.7656,492.4219 206.625,492.3906 206.1719,492.3906 L201.0313,492.3906 C200.5938,492.3906 200.4688,492.4063 200.3125,492.5 C200.0625,492.6563 199.9063,492.9531 199.9063,493.2344 C199.9063,493.5156 200.0469,493.7656 200.2656,493.9375 C200.4219,494.0469 200.6094,494.0781 201.0313,494.0781 L202.75,494.0781 L202.75,500.5938 L201.0313,500.5938 C200.5938,500.5938 200.4688,500.6094 200.3125,500.7188 C200.0625,500.875 199.9063,501.1563 199.9063,501.4531 C199.9063,501.7031 200.0469,501.9688 200.2656,502.125 C200.4219,502.25 200.625,502.2969 201.0313,502.2969 L206.1719,502.2969 C206.9219,502.2969 207.2813,502.0156 207.2813,501.4531 C207.2813,501.1719 207.1719,500.9219 206.9375,500.75 C206.7656,500.625 206.625,500.5938 206.1719,500.5938 L204.4531,500.5938 L204.4531,494.0781 Z " fill="#000000"/><text fill="#000000" font-family="sans-serif" font-size="14" font-style="italic" lengthAdjust="spacing" textLength="79" x="217.5" y="502.1436">TreeObject</text><line style="stroke:#181818;stroke-width:0.5;" x1="189.5" x2="298.5" y1="513.2969" y2="513.2969"/><line style="stroke:#181818;stroke-width:0.5;" x1="189.5" x2="298.5" y1="521.2969" y2="521.2969"/></g><!--class Client--><g id="elem_Client"><rect codeLine="3" fill="#F1F1F1" height="80.5938" id="Client" rx="2.5" ry="2.5" style="stroke:#181818;stroke-width:0.5;" width="137" x="607.5" y="44.2969"/><ellipse cx="650.4" cy="60.2969" fill="#ADD1B2" rx="11" ry="11" style="stroke:#181818;stroke-width:1.0;"/><path d="M652.7438,55.9688 C651.8063,55.5313 651.2125,55.3906 650.3375,55.3906 C647.7125,55.3906 645.7125,57.4688 645.7125,60.1875 L645.7125,61.3125 C645.7125,63.8906 647.8219,65.7813 650.7125,65.7813 C651.9313,65.7813 653.0875,65.4844 653.8375,64.9375 C654.4156,64.5313 654.7438,64.0781 654.7438,63.6875 C654.7438,63.2344 654.3531,62.8438 653.8844,62.8438 C653.6656,62.8438 653.4625,62.9219 653.275,63.1094 C652.8219,63.5938 652.8219,63.5938 652.6344,63.6875 C652.2125,63.9531 651.525,64.0781 650.7594,64.0781 C648.7125,64.0781 647.4156,62.9844 647.4156,61.2813 L647.4156,60.1875 C647.4156,58.4063 648.6656,57.0938 650.4,57.0938 C650.9781,57.0938 651.5875,57.25 652.0563,57.5 C652.5406,57.7813 652.7125,58 652.8063,58.4063 C652.8688,58.8125 652.9,58.9375 653.0406,59.0625 C653.1813,59.2031 653.4156,59.3125 653.6344,59.3125 C653.9,59.3125 654.1656,59.1719 654.3375,58.9531 C654.4469,58.7969 654.4781,58.6094 654.4781,58.1875 L654.4781,56.7656 C654.4781,56.3281 654.4625,56.2031 654.3688,56.0469 C654.2125,55.7813 653.9313,55.6406 653.6344,55.6406 C653.3375,55.6406 653.1344,55.7344 652.9156,56.0469 L652.7438,55.9688 Z " fill="#000000"/><text fill="#000000" font-family="sans-serif" font-size="14" lengthAdjust="spacing" textLength="43" x="670.6" y="65.1436">Client</text><line style="stroke:#181818;stroke-width:0.5;" x1="608.5" x2="743.5" y1="76.2969" y2="76.2969"/><rect fill="none" height="6" style="stroke:#C82930;stroke-width:1.0;" width="6" x="615.5" y="86.9453"/><text fill="#000000" font-family="sans-serif" font-size="14" lengthAdjust="spacing" textLength="88" x="627.5" y="93.292">String name</text><rect fill="none" height="6" style="stroke:#C82930;stroke-width:1.0;" width="6" x="615.5" y="103.2422"/><text fill="#000000" font-family="sans-serif" font-size="14" lengthAdjust="spacing" textLength="111" x="627.5" y="109.5889">String Surname</text><line style="stroke:#181818;stroke-width:0.5;" x1="608.5" x2="743.5" y1="116.8906" y2="116.8906"/></g><!--class FoodData--><g id="elem_FoodData"><rect codeLine="8" fill="#F1F1F1" height="64.2969" id="FoodData" rx="2.5" ry="2.5" style="stroke:#181818;stroke-width:0.5;" width="172" x="526" y="185.2969"/><ellipse cx="573.25" cy="201.2969" fill="#ADD1B2" rx="11" ry="11" style="stroke:#181818;stroke-width:1.0;"/><path d="M575.5938,196.9688 C574.6563,196.5313 574.0625,196.3906 573.1875,196.3906 C570.5625,196.3906 568.5625,198.4688 568.5625,201.1875 L568.5625,202.3125 C568.5625,204.8906 570.6719,206.7813 573.5625,206.7813 C574.7813,206.7813 575.9375,206.4844 576.6875,205.9375 C577.2656,205.5313 577.5938,205.0781 577.5938,204.6875 C577.5938,204.2344 577.2031,203.8438 576.7344,203.8438 C576.5156,203.8438 576.3125,203.9219 576.125,204.1094 C575.6719,204.5938 575.6719,204.5938 575.4844,204.6875 C575.0625,204.9531 574.375,205.0781 573.6094,205.0781 C571.5625,205.0781 570.2656,203.9844 570.2656,202.2813 L570.2656,201.1875 C570.2656,199.4063 571.5156,198.0938 573.25,198.0938 C573.8281,198.0938 574.4375,198.25 574.9063,198.5 C575.3906,198.7813 575.5625,199 575.6563,199.4063 C575.7188,199.8125 575.75,199.9375 575.8906,200.0625 C576.0313,200.2031 576.2656,200.3125 576.4844,200.3125 C576.75,200.3125 577.0156,200.1719 577.1875,199.9531 C577.2969,199.7969 577.3281,199.6094 577.3281,199.1875 L577.3281,197.7656 C577.3281,197.3281 577.3125,197.2031 577.2188,197.0469 C577.0625,196.7813 576.7813,196.6406 576.4844,196.6406 C576.1875,196.6406 575.9844,196.7344 575.7656,197.0469 L575.5938,196.9688 Z " fill="#000000"/><text fill="#000000" font-family="sans-serif" font-size="14" lengthAdjust="spacing" textLength="69" x="593.75" y="206.1436">FoodData</text><line style="stroke:#181818;stroke-width:0.5;" x1="527" x2="697" y1="217.2969" y2="217.2969"/><rect fill="none" height="6" style="stroke:#C82930;stroke-width:1.0;" width="6" x="534" y="227.9453"/><text fill="#000000" font-family="sans-serif" font-size="14" lengthAdjust="spacing" textLength="146" x="546" y="234.292">List&lt;Food&gt; foodList</text><line style="stroke:#181818;stroke-width:0.5;" x1="527" x2="697" y1="241.5938" y2="241.5938"/></g><!--class Manager--><g id="elem_Manager"><rect codeLine="12" fill="#F1F1F1" height="64.2969" id="Manager" rx="2.5" ry="2.5" style="stroke:#181818;stroke-width:0.5;" width="198" x="374" y="52.7969"/><ellipse cx="438.25" cy="68.7969" fill="#ADD1B2" rx="11" ry="11" style="stroke:#181818;stroke-width:1.0;"/><path d="M440.5938,64.4688 C439.6563,64.0313 439.0625,63.8906 438.1875,63.8906 C435.5625,63.8906 433.5625,65.9688 433.5625,68.6875 L433.5625,69.8125 C433.5625,72.3906 435.6719,74.2813 438.5625,74.2813 C439.7813,74.2813 440.9375,73.9844 441.6875,73.4375 C442.2656,73.0313 442.5938,72.5781 442.5938,72.1875 C442.5938,71.7344 442.2031,71.3438 441.7344,71.3438 C441.5156,71.3438 441.3125,71.4219 441.125,71.6094 C440.6719,72.0938 440.6719,72.0938 440.4844,72.1875 C440.0625,72.4531 439.375,72.5781 438.6094,72.5781 C436.5625,72.5781 435.2656,71.4844 435.2656,69.7813 L435.2656,68.6875 C435.2656,66.9063 436.5156,65.5938 438.25,65.5938 C438.8281,65.5938 439.4375,65.75 439.9063,66 C440.3906,66.2813 440.5625,66.5 440.6563,66.9063 C440.7188,67.3125 440.75,67.4375 440.8906,67.5625 C441.0313,67.7031 441.2656,67.8125 441.4844,67.8125 C441.75,67.8125 442.0156,67.6719 442.1875,67.4531 C442.2969,67.2969 442.3281,67.1094 442.3281,66.6875 L442.3281,65.2656 C442.3281,64.8281 442.3125,64.7031 442.2188,64.5469 C442.0625,64.2813 441.7813,64.1406 441.4844,64.1406 C441.1875,64.1406 440.9844,64.2344 440.7656,64.5469 L440.5938,64.4688 Z " fill="#000000"/><text fill="#000000" font-family="sans-serif" font-size="14" lengthAdjust="spacing" textLength="61" x="458.75" y="73.6436">Manager</text><line style="stroke:#181818;stroke-width:0.5;" x1="375" x2="571" y1="84.7969" y2="84.7969"/><rect fill="none" height="6" style="stroke:#C82930;stroke-width:1.0;" width="6" x="382" y="95.4453"/><text fill="#000000" font-family="sans-serif" font-size="14" lengthAdjust="spacing" textLength="172" x="394" y="101.792">Tree&lt;TreeObject&gt; tree</text><line style="stroke:#181818;stroke-width:0.5;" x1="375" x2="571" y1="109.0938" y2="109.0938"/></g><!--link Tree to IDataStructure--><g id="link_Tree_IDataStructure"><path codeLine="48" d="M91.01,537.3429 C97.389,603.1259 110.4049,737.3419 116.0289,795.346 " fill="none" id="Tree-to-IDataStructure" style="stroke:#181818;stroke-width:1.0;"/><polygon fill="none" points="117.766,813.262,122.0009,794.767,110.0569,795.925,117.766,813.262" style="stroke:#181818;stroke-width:1.0;"/></g><!--link List to IDataStructure--><g id="link_List_IDataStructure"><path codeLine="49" d="M204.566,753.2969 C186.574,770.9549 174.6802,782.6292 156.6082,800.3668 " fill="none" id="List-to-IDataStructure" style="stroke:#181818;stroke-width:1.0;"/><polygon fill="none" points="143.762,812.9753,160.8111,804.6488,152.4054,796.0847,143.762,812.9753" style="stroke:#181818;stroke-width:1.0;"/></g><!--link TreeNode to IDataStructure--><g id="link_TreeNode_IDataStructure"><path codeLine="50" d="M169.009,645.6059 C158.43,686.7709 141.0387,754.4385 130.4637,795.5831 " fill="none" id="TreeNode-to-IDataStructure" style="stroke:#181818;stroke-width:1.0;"/><polygon fill="none" points="125.983,813.0165,136.2749,797.0767,124.6526,794.0895,125.983,813.0165" style="stroke:#181818;stroke-width:1.0;"/></g><!--link TreeNode to List--><g id="link_TreeNode_List"><path codeLine="51" d="M186.5,645.2969 C195.329,662.9549 204.7866,681.8714 213.6556,699.6084 " fill="none" id="TreeNode-to-List" style="stroke:#181818;stroke-width:1.0;"/><polygon fill="#181818" points="216.339,704.9749,215.8916,695.1362,214.1028,700.5028,208.7362,698.7141,216.339,704.9749" style="stroke:#181818;stroke-width:1.0;"/></g><!--link TreeObjects to TreeObject--><g id="link_TreeObjects_TreeObject"><path codeLine="53" d="M488.7443,367.3784 C488.6216,367.4032 488.4977,367.4282 488.3725,367.4536 C487.371,367.6565 486.2902,367.8785 485.1343,368.1198 C482.8226,368.6025 480.2107,369.1624 477.3323,369.8014 C465.8188,372.3576 450.0423,376.1805 432.1654,381.3919 C396.4115,391.8146 352.256,407.7914 317,430.2969 C295.552,443.9879 287.182,451.2796 273.571,467.4366 " fill="none" id="TreeObjects-to-TreeObject" style="stroke:#181818;stroke-width:1.0;"/><polygon fill="none" points="261.974,481.2029,278.1597,471.3023,268.9822,463.571,261.974,481.2029" style="stroke:#181818;stroke-width:1.0;"/></g><!--link Manager to Tree--><g id="link_Manager_Tree"><path codeLine="55" d="M444.377,116.9109 C373.015,194.4819 191.8962,391.3602 120.6122,468.8472 " fill="none" id="Manager-to-Tree" style="stroke:#181818;stroke-width:1.0;"/><polygon fill="#181818" points="116.55,473.2629,125.5871,469.3475,119.9352,469.5831,119.6995,463.9312,116.55,473.2629" style="stroke:#181818;stroke-width:1.0;"/></g><!--link Manager to TreeObjects--><g id="link_Manager_TreeObjects"><path codeLine="56" d="M475.683,116.8779 C478.7655,152.5829 483.9778,212.9566 488.4765,265.0663 C488.6171,266.6947 488.757,268.315 488.8961,269.9263 C488.9656,270.732 488.0028,259.5798 488.072,260.3808 " fill="none" id="Manager-to-TreeObjects" style="stroke:#181818;stroke-width:1.0;"/><polygon fill="#181818" points="489.1041,272.3363,492.5732,266.0145,488.072,260.3808,484.6029,266.7026,489.1041,272.3363" style="stroke:#181818;stroke-width:1.0;"/></g><!--link Manager to Client--><g id="link_Manager_Client"><path codeLine="57" d="M572.121,84.7969 C583.889,84.7969 589.656,84.7969 601.424,84.7969 " fill="none" id="Manager-to-Client" style="stroke:#181818;stroke-width:1.0;"/><polygon fill="#181818" points="607.424,84.7969,598.424,80.7969,602.424,84.7969,598.424,88.7969,607.424,84.7969" style="stroke:#181818;stroke-width:1.0;"/></g><!--link Manager to FoodData--><g id="link_Manager_FoodData"><path codeLine="58" d="M506.294,117.0549 C528.301,137.7159 552.6528,160.5781 574.6038,181.1871 " fill="none" id="Manager-to-FoodData" style="stroke:#181818;stroke-width:1.0;"/><polygon fill="#181818" points="578.978,185.2939,575.1545,176.2175,575.3328,181.8715,569.6788,182.0498,578.978,185.2939" style="stroke:#181818;stroke-width:1.0;"/></g><!--link Tree to TreeNode--><g id="link_Tree_TreeNode"><path codeLine="61" d="M111.773,537.4479 C126.162,556.3019 136.9238,570.4045 150.0488,587.6025 " fill="none" id="Tree-to-TreeNode" style="stroke:#181818;stroke-width:1.0;"/><polygon fill="#181818" points="157.329,597.1419,156.8687,589.9455,150.0488,587.6025,150.5091,594.7989,157.329,597.1419" style="stroke:#181818;stroke-width:1.0;"/></g><!--link List to ListNode--><g id="link_List_ListNode"><path codeLine="62" d="M237.33,753.2969 C244.493,770.9549 249.8333,784.1177 257.0283,801.8553 " fill="none" id="List-to-ListNode" style="stroke:#181818;stroke-width:1.0;"/><polygon fill="#181818" points="261.539,812.9753,262.9903,805.9117,257.0283,801.8553,255.577,808.9188,261.539,812.9753" style="stroke:#181818;stroke-width:1.0;"/></g><!--link FoodData to Food--><g id="link_FoodData_Food"><path codeLine="64" d="M607.066,249.5099 C603.621,271.3039 600.8681,288.7241 597.1581,312.1881 " fill="none" id="FoodData-to-Food" style="stroke:#181818;stroke-width:1.0;"/><polygon fill="#181818" points="595.284,324.0409,600.172,318.7392,597.1581,312.1881,592.2701,317.4898,595.284,324.0409" style="stroke:#181818;stroke-width:1.0;"/></g><!--link FoodData to List--><g id="link_FoodData_List"><path codeLine="65" d="M698.161,220.5679 C810.456,224.4339 995.07,234.2469 1016,257.2969 C1111.61,362.5839 1106.61,467.6749 1016,577.2969 C916.606,697.5459 393.8355,722.7634 263.1965,727.2394 " fill="none" id="FoodData-to-List" style="stroke:#181818;stroke-width:1.0;"/><polygon fill="#181818" points="257.2,727.4449,266.3317,731.1343,262.1971,727.2737,266.0578,723.139,257.2,727.4449" style="stroke:#181818;stroke-width:1.0;"/></g><!--SRC=[ZLJ1Ri8m3BttAtpScFe7g1VG9AID7U07lDImZDAWr4L36_- -kALDqi963r7pdFVibpXXpGN1NEFMuXuX9r05LbGb2RXF_YkO5PfAXky6SbyAAxQwt4A9Ung1gzhs-3cKUJOcdoEZ5tAa5rtnL28PRDmeqp7p5KlSaes8QqiqbU7j_PCKPy3kFwGUKEqS2_oQolDRtKN9kAD0jfNMpYmRncA6XR7QRKOSl-8-Zh0E8kT1KZ4xIdbRKefHmpg6cdCyNNMXovo-xdOtL7KdUQJJNRMU4pzs6r-pBgg0xHAJtQ0YM4WRE9bQSMrfaBLlWHXQcdouSlLXBAkQumgVu6Xq3WTN93yytZGdRJ6o9g0a0ciC_qcDol7EVBE5hTZaIjEVx9fpCNSps1VqRppDsfthuKlFjz91NSs2xaO9RTrT70zEGeKubbsUWv5CTxsJoFCatgsBsOa_qWRkdmO9oMI8jkP-0G00]--></g></svg>