<?xml version="1.0" encoding="us-ascii" standalone="no"?><svg xmlns="http://www.w3.org/2000/svg" xmlns:xlink="http://www.w3.org/1999/xlink" contentStyleType="text/css" height="680px" preserveAspectRatio="none" style="width:385px;height:680px;background:#FFFFFF;" version="1.1" viewBox="0 0 385 680" width="385px" zoomAndPan="magnify"><defs/><g><!--class Node--><g id="elem_Node"><rect codeLine="1" fill="#F1F1F1" height="80.5938" id="Node" rx="2.5" ry="2.5" style="stroke:#181818;stroke-width:0.5;" width="111" x="60.5" y="7"/><ellipse cx="94.4" cy="23" fill="#ADD1B2" rx="11" ry="11" style="stroke:#181818;stroke-width:1.0;"/><path d="M96.7438,18.6719 C95.8063,18.2344 95.2125,18.0938 94.3375,18.0938 C91.7125,18.0938 89.7125,20.1719 89.7125,22.8906 L89.7125,24.0156 C89.7125,26.5938 91.8219,28.4844 94.7125,28.4844 C95.9313,28.4844 97.0875,28.1875 97.8375,27.6406 C98.4156,27.2344 98.7438,26.7813 98.7438,26.3906 C98.7438,25.9375 98.3531,25.5469 97.8844,25.5469 C97.6656,25.5469 97.4625,25.625 97.275,25.8125 C96.8219,26.2969 96.8219,26.2969 96.6344,26.3906 C96.2125,26.6563 95.525,26.7813 94.7594,26.7813 C92.7125,26.7813 91.4156,25.6875 91.4156,23.9844 L91.4156,22.8906 C91.4156,21.1094 92.6656,19.7969 94.4,19.7969 C94.9781,19.7969 95.5875,19.9531 96.0563,20.2031 C96.5406,20.4844 96.7125,20.7031 96.8063,21.1094 C96.8688,21.5156 96.9,21.6406 97.0406,21.7656 C97.1813,21.9063 97.4156,22.0156 97.6344,22.0156 C97.9,22.0156 98.1656,21.875 98.3375,21.6563 C98.4469,21.5 98.4781,21.3125 98.4781,20.8906 L98.4781,19.4688 C98.4781,19.0313 98.4625,18.9063 98.3688,18.75 C98.2125,18.4844 97.9313,18.3438 97.6344,18.3438 C97.3375,18.3438 97.1344,18.4375 96.9156,18.75 L96.7438,18.6719 Z " fill="#000000"/><text fill="#000000" font-family="sans-serif" font-size="14" lengthAdjust="spacing" textLength="37" x="112.6" y="27.8467">Node</text><line style="stroke:#181818;stroke-width:0.5;" x1="61.5" x2="170.5" y1="39" y2="39"/><rect fill="none" height="6" style="stroke:#C82930;stroke-width:1.0;" width="6" x="68.5" y="49.6484"/><text fill="#000000" font-family="sans-serif" font-size="14" lengthAdjust="spacing" textLength="85" x="80.5" y="55.9951">Object data</text><rect fill="none" height="6" style="stroke:#C82930;stroke-width:1.0;" width="6" x="68.5" y="65.9453"/><text fill="#000000" font-family="sans-serif" font-size="14" lengthAdjust="spacing" textLength="74" x="80.5" y="72.292">Node next</text><line style="stroke:#181818;stroke-width:0.5;" x1="61.5" x2="170.5" y1="79.5938" y2="79.5938"/></g><!--class List--><g id="elem_List"><rect codeLine="6" fill="#F1F1F1" height="162.0781" id="List" rx="2.5" ry="2.5" style="stroke:#181818;stroke-width:0.5;" width="218" x="7" y="148"/><ellipse cx="98.75" cy="164" fill="#ADD1B2" rx="11" ry="11" style="stroke:#181818;stroke-width:1.0;"/><path d="M101.0938,159.6719 C100.1563,159.2344 99.5625,159.0938 98.6875,159.0938 C96.0625,159.0938 94.0625,161.1719 94.0625,163.8906 L94.0625,165.0156 C94.0625,167.5938 96.1719,169.4844 99.0625,169.4844 C100.2813,169.4844 101.4375,169.1875 102.1875,168.6406 C102.7656,168.2344 103.0938,167.7813 103.0938,167.3906 C103.0938,166.9375 102.7031,166.5469 102.2344,166.5469 C102.0156,166.5469 101.8125,166.625 101.625,166.8125 C101.1719,167.2969 101.1719,167.2969 100.9844,167.3906 C100.5625,167.6563 99.875,167.7813 99.1094,167.7813 C97.0625,167.7813 95.7656,166.6875 95.7656,164.9844 L95.7656,163.8906 C95.7656,162.1094 97.0156,160.7969 98.75,160.7969 C99.3281,160.7969 99.9375,160.9531 100.4063,161.2031 C100.8906,161.4844 101.0625,161.7031 101.1563,162.1094 C101.2188,162.5156 101.25,162.6406 101.3906,162.7656 C101.5313,162.9063 101.7656,163.0156 101.9844,163.0156 C102.25,163.0156 102.5156,162.875 102.6875,162.6563 C102.7969,162.5 102.8281,162.3125 102.8281,161.8906 L102.8281,160.4688 C102.8281,160.0313 102.8125,159.9063 102.7188,159.75 C102.5625,159.4844 102.2813,159.3438 101.9844,159.3438 C101.6875,159.3438 101.4844,159.4375 101.2656,159.75 L101.0938,159.6719 Z " fill="#000000"/><text fill="#000000" font-family="sans-serif" font-size="14" lengthAdjust="spacing" textLength="26" x="119.25" y="168.8467">List</text><line style="stroke:#181818;stroke-width:0.5;" x1="8" x2="224" y1="180" y2="180"/><rect fill="none" height="6" style="stroke:#C82930;stroke-width:1.0;" width="6" x="15" y="190.6484"/><text fill="#000000" font-family="sans-serif" font-size="14" lengthAdjust="spacing" textLength="76" x="27" y="196.9951">Node head</text><line style="stroke:#181818;stroke-width:0.5;" x1="8" x2="224" y1="204.2969" y2="204.2969"/><ellipse cx="18" cy="217.9453" fill="#84BE84" rx="3" ry="3" style="stroke:#038048;stroke-width:1.0;"/><text fill="#000000" font-family="sans-serif" font-size="14" lengthAdjust="spacing" textLength="121" x="27" y="221.292">add(Object data)</text><ellipse cx="18" cy="234.2422" fill="#84BE84" rx="3" ry="3" style="stroke:#038048;stroke-width:1.0;"/><text fill="#000000" font-family="sans-serif" font-size="14" lengthAdjust="spacing" textLength="192" x="27" y="237.5889">add(int index, Object data)</text><ellipse cx="18" cy="250.5391" fill="#84BE84" rx="3" ry="3" style="stroke:#038048;stroke-width:1.0;"/><text fill="#000000" font-family="sans-serif" font-size="14" lengthAdjust="spacing" textLength="151" x="27" y="253.8857">indexOf(Object data)</text><ellipse cx="18" cy="266.8359" fill="#84BE84" rx="3" ry="3" style="stroke:#038048;stroke-width:1.0;"/><text fill="#000000" font-family="sans-serif" font-size="14" lengthAdjust="spacing" textLength="98" x="27" y="270.1826">get(int index)</text><ellipse cx="18" cy="283.1328" fill="#84BE84" rx="3" ry="3" style="stroke:#038048;stroke-width:1.0;"/><text fill="#000000" font-family="sans-serif" font-size="14" lengthAdjust="spacing" textLength="38" x="27" y="286.4795">size()</text><ellipse cx="18" cy="299.4297" fill="#84BE84" rx="3" ry="3" style="stroke:#038048;stroke-width:1.0;"/><text fill="#000000" font-family="sans-serif" font-size="14" lengthAdjust="spacing" textLength="66" x="27" y="302.7764">iterator()</text></g><!--class Patient--><g id="elem_Patient"><rect codeLine="16" fill="#F1F1F1" height="80.5938" id="Patient" rx="2.5" ry="2.5" style="stroke:#181818;stroke-width:0.5;" width="136" x="48" y="370"/><ellipse cx="85.95" cy="386" fill="#ADD1B2" rx="11" ry="11" style="stroke:#181818;stroke-width:1.0;"/><path d="M88.2938,381.6719 C87.3563,381.2344 86.7625,381.0938 85.8875,381.0938 C83.2625,381.0938 81.2625,383.1719 81.2625,385.8906 L81.2625,387.0156 C81.2625,389.5938 83.3719,391.4844 86.2625,391.4844 C87.4813,391.4844 88.6375,391.1875 89.3875,390.6406 C89.9656,390.2344 90.2938,389.7813 90.2938,389.3906 C90.2938,388.9375 89.9031,388.5469 89.4344,388.5469 C89.2156,388.5469 89.0125,388.625 88.825,388.8125 C88.3719,389.2969 88.3719,389.2969 88.1844,389.3906 C87.7625,389.6563 87.075,389.7813 86.3094,389.7813 C84.2625,389.7813 82.9656,388.6875 82.9656,386.9844 L82.9656,385.8906 C82.9656,384.1094 84.2156,382.7969 85.95,382.7969 C86.5281,382.7969 87.1375,382.9531 87.6063,383.2031 C88.0906,383.4844 88.2625,383.7031 88.3563,384.1094 C88.4188,384.5156 88.45,384.6406 88.5906,384.7656 C88.7313,384.9063 88.9656,385.0156 89.1844,385.0156 C89.45,385.0156 89.7156,384.875 89.8875,384.6563 C89.9969,384.5 90.0281,384.3125 90.0281,383.8906 L90.0281,382.4688 C90.0281,382.0313 90.0125,381.9063 89.9188,381.75 C89.7625,381.4844 89.4813,381.3438 89.1844,381.3438 C88.8875,381.3438 88.6844,381.4375 88.4656,381.75 L88.2938,381.6719 Z " fill="#000000"/><text fill="#000000" font-family="sans-serif" font-size="14" lengthAdjust="spacing" textLength="53" x="105.05" y="390.8467">Patient</text><line style="stroke:#181818;stroke-width:0.5;" x1="49" x2="183" y1="402" y2="402"/><rect fill="none" height="6" style="stroke:#C82930;stroke-width:1.0;" width="6" x="56" y="412.6484"/><text fill="#000000" font-family="sans-serif" font-size="14" lengthAdjust="spacing" textLength="88" x="68" y="418.9951">String name</text><rect fill="none" height="6" style="stroke:#C82930;stroke-width:1.0;" width="6" x="56" y="428.9453"/><text fill="#000000" font-family="sans-serif" font-size="14" lengthAdjust="spacing" textLength="110" x="68" y="435.292">List surveyData</text><line style="stroke:#181818;stroke-width:0.5;" x1="49" x2="183" y1="442.5938" y2="442.5938"/></g><!--class SurveySystem--><g id="elem_SurveySystem"><rect codeLine="21" fill="#F1F1F1" height="162.0781" id="SurveySystem" rx="2.5" ry="2.5" style="stroke:#181818;stroke-width:0.5;" width="293" x="60.5" y="511"/><ellipse cx="151.75" cy="527" fill="#ADD1B2" rx="11" ry="11" style="stroke:#181818;stroke-width:1.0;"/><path d="M154.0938,522.6719 C153.1563,522.2344 152.5625,522.0938 151.6875,522.0938 C149.0625,522.0938 147.0625,524.1719 147.0625,526.8906 L147.0625,528.0156 C147.0625,530.5938 149.1719,532.4844 152.0625,532.4844 C153.2813,532.4844 154.4375,532.1875 155.1875,531.6406 C155.7656,531.2344 156.0938,530.7813 156.0938,530.3906 C156.0938,529.9375 155.7031,529.5469 155.2344,529.5469 C155.0156,529.5469 154.8125,529.625 154.625,529.8125 C154.1719,530.2969 154.1719,530.2969 153.9844,530.3906 C153.5625,530.6563 152.875,530.7813 152.1094,530.7813 C150.0625,530.7813 148.7656,529.6875 148.7656,527.9844 L148.7656,526.8906 C148.7656,525.1094 150.0156,523.7969 151.75,523.7969 C152.3281,523.7969 152.9375,523.9531 153.4063,524.2031 C153.8906,524.4844 154.0625,524.7031 154.1563,525.1094 C154.2188,525.5156 154.25,525.6406 154.3906,525.7656 C154.5313,525.9063 154.7656,526.0156 154.9844,526.0156 C155.25,526.0156 155.5156,525.875 155.6875,525.6563 C155.7969,525.5 155.8281,525.3125 155.8281,524.8906 L155.8281,523.4688 C155.8281,523.0313 155.8125,522.9063 155.7188,522.75 C155.5625,522.4844 155.2813,522.3438 154.9844,522.3438 C154.6875,522.3438 154.4844,522.4375 154.2656,522.75 L154.0938,522.6719 Z " fill="#000000"/><text fill="#000000" font-family="sans-serif" font-size="14" lengthAdjust="spacing" textLength="102" x="172.25" y="531.8467">SurveySystem</text><line style="stroke:#181818;stroke-width:0.5;" x1="61.5" x2="352.5" y1="543" y2="543"/><rect fill="none" height="6" style="stroke:#C82930;stroke-width:1.0;" width="6" x="68.5" y="553.6484"/><text fill="#000000" font-family="sans-serif" font-size="14" lengthAdjust="spacing" textLength="111" x="80.5" y="559.9951">Patient patient</text><rect fill="none" height="6" style="stroke:#C82930;stroke-width:1.0;" width="6" x="68.5" y="569.9453"/><text fill="#000000" font-family="sans-serif" font-size="14" lengthAdjust="spacing" textLength="118" x="80.5" y="576.292">Scanner scanner</text><line style="stroke:#181818;stroke-width:0.5;" x1="61.5" x2="352.5" y1="583.5938" y2="583.5938"/><ellipse cx="71.5" cy="597.2422" fill="#84BE84" rx="3" ry="3" style="stroke:#038048;stroke-width:1.0;"/><text fill="#000000" font-family="sans-serif" font-size="14" lengthAdjust="spacing" textLength="68" x="80.5" y="600.5889">execute()</text><rect fill="#F24D5C" height="6" style="stroke:#C82930;stroke-width:1.0;" width="6" x="68.5" y="610.5391"/><text fill="#000000" font-family="sans-serif" font-size="14" lengthAdjust="spacing" textLength="102" x="80.5" y="616.8857">fillOutSurvey()</text><rect fill="#F24D5C" height="6" style="stroke:#C82930;stroke-width:1.0;" width="6" x="68.5" y="626.8359"/><text fill="#000000" font-family="sans-serif" font-size="14" lengthAdjust="spacing" textLength="267" x="80.5" y="633.1826">fillIntake(List day, String intakeType)</text><rect fill="#F24D5C" height="6" style="stroke:#C82930;stroke-width:1.0;" width="6" x="68.5" y="643.1328"/><text fill="#000000" font-family="sans-serif" font-size="14" lengthAdjust="spacing" textLength="128" x="80.5" y="649.4795">displayStructure()</text><rect fill="#F24D5C" height="6" style="stroke:#C82930;stroke-width:1.0;" width="6" x="68.5" y="659.4297"/><text fill="#000000" font-family="sans-serif" font-size="14" lengthAdjust="spacing" textLength="124" x="80.5" y="665.7764">getIntakeTypes()</text></g><!--class Main--><g id="elem_Main"><rect codeLine="31" fill="#F1F1F1" height="64.2969" id="Main" rx="2.5" ry="2.5" style="stroke:#181818;stroke-width:0.5;" width="159" x="219.5" y="378.5"/><ellipse cx="278.25" cy="394.5" fill="#ADD1B2" rx="11" ry="11" style="stroke:#181818;stroke-width:1.0;"/><path d="M280.5938,390.1719 C279.6563,389.7344 279.0625,389.5938 278.1875,389.5938 C275.5625,389.5938 273.5625,391.6719 273.5625,394.3906 L273.5625,395.5156 C273.5625,398.0938 275.6719,399.9844 278.5625,399.9844 C279.7813,399.9844 280.9375,399.6875 281.6875,399.1406 C282.2656,398.7344 282.5938,398.2813 282.5938,397.8906 C282.5938,397.4375 282.2031,397.0469 281.7344,397.0469 C281.5156,397.0469 281.3125,397.125 281.125,397.3125 C280.6719,397.7969 280.6719,397.7969 280.4844,397.8906 C280.0625,398.1563 279.375,398.2813 278.6094,398.2813 C276.5625,398.2813 275.2656,397.1875 275.2656,395.4844 L275.2656,394.3906 C275.2656,392.6094 276.5156,391.2969 278.25,391.2969 C278.8281,391.2969 279.4375,391.4531 279.9063,391.7031 C280.3906,391.9844 280.5625,392.2031 280.6563,392.6094 C280.7188,393.0156 280.75,393.1406 280.8906,393.2656 C281.0313,393.4063 281.2656,393.5156 281.4844,393.5156 C281.75,393.5156 282.0156,393.375 282.1875,393.1563 C282.2969,393 282.3281,392.8125 282.3281,392.3906 L282.3281,390.9688 C282.3281,390.5313 282.3125,390.4063 282.2188,390.25 C282.0625,389.9844 281.7813,389.8438 281.4844,389.8438 C281.1875,389.8438 280.9844,389.9375 280.7656,390.25 L280.5938,390.1719 Z " fill="#000000"/><text fill="#000000" font-family="sans-serif" font-size="14" lengthAdjust="spacing" textLength="33" x="298.75" y="399.3467">Main</text><line style="stroke:#181818;stroke-width:0.5;" x1="220.5" x2="377.5" y1="410.5" y2="410.5"/><line style="stroke:#181818;stroke-width:0.5;" x1="220.5" x2="377.5" y1="418.5" y2="418.5"/><ellipse cx="230.5" cy="432.1484" fill="#84BE84" rx="3" ry="3" style="stroke:#038048;stroke-width:1.0;"/><text fill="#000000" font-family="sans-serif" font-size="14" lengthAdjust="spacing" textLength="133" x="239.5" y="435.4951">main(String[] args)</text></g><!--link Node to List--><g id="link_Node_List"><path codeLine="35" d="M116,88.337 C116,105.895 116,127.191 116,147.807 " fill="none" id="Node-List" style="stroke:#181818;stroke-width:1.0;"/></g><!--link List to Patient--><g id="link_List_Patient"><path codeLine="36" d="M116,310.038 C116,330.793 116,352.249 116,369.895 " fill="none" id="List-Patient" style="stroke:#181818;stroke-width:1.0;"/></g><!--link Patient to SurveySystem--><g id="link_Patient_SurveySystem"><path codeLine="37" d="M136.196,451.337 C145.097,468.895 155.894,490.191 166.345,510.807 " fill="none" id="Patient-SurveySystem" style="stroke:#181818;stroke-width:1.0;"/></g><!--link Main to SurveySystem--><g id="link_Main_SurveySystem"><path codeLine="38" d="M282.975,442.767 C273.296,461.65 260.482,486.652 248.14,510.733 " fill="none" id="Main-SurveySystem" style="stroke:#181818;stroke-width:1.0;"/></g><!--SRC=[RL7BJiCm4BpxAtnCrUOlk5G2WXHkYCDYRuCXSIDxKyKW_XspVZG2V5dlxCnerbOZU2_lpnhbfv3njDtB6ogI6WWIm4EBAual8HJpRusdmkVnAuBcTWzQDnkBtHKrbgIn6jU3_4lWGNVwHpeWNQKPy-O3cw8aT41d5_kQxm78eAqHUtB63jB2X0dW_7vn5mmtFtjMOSzO7ppXLDJ5R4urMogm5ftqgQOekA9Qg2HhJsOSkuMIvnOyMe9tR3Y5Xd2GEQ1X_37CcCdQ-7c44CUBeiLLv_WcnyhrsytlmDWSV3_5UvEidvubkC4paJ-iRVaJ1MU8JLvIb6KZj7qBmRw_m6y0]--></g></svg>