<?xml version="1.0" encoding="UTF-8" standalone="no"?><svg xmlns="http://www.w3.org/2000/svg" xmlns:xlink="http://www.w3.org/1999/xlink" contentStyleType="text/css" height="2122px" preserveAspectRatio="none" style="width:993px;height:2122px;background:#FFFFFF;" version="1.1" viewBox="0 0 993 2122" width="993px" zoomAndPan="magnify"><defs/><g><!--MD5=[84718776d214be480e4c259efcb737fc]
class Main--><g id="elem_Main"><rect codeLine="1" fill="#F1F1F1" height="64.2969" id="Main" rx="2.5" ry="2.5" style="stroke:#181818;stroke-width:0.5;" width="195" x="109.5" y="7"/><ellipse cx="186.75" cy="23" fill="#ADD1B2" rx="11" ry="11" style="stroke:#181818;stroke-width:1.0;"/><path d="M189.7188,28.6406 Q189.1406,28.9375 188.5,29.0781 Q187.8594,29.2344 187.1563,29.2344 Q184.6563,29.2344 183.3281,27.5938 Q182.0156,25.9375 182.0156,22.8125 Q182.0156,19.6875 183.3281,18.0313 Q184.6563,16.375 187.1563,16.375 Q187.8594,16.375 188.5,16.5313 Q189.1563,16.6875 189.7188,16.9844 L189.7188,19.7031 Q189.0938,19.125 188.5,18.8594 Q187.9063,18.5781 187.2813,18.5781 Q185.9375,18.5781 185.25,19.6563 Q184.5625,20.7188 184.5625,22.8125 Q184.5625,24.9063 185.25,25.9844 Q185.9375,27.0469 187.2813,27.0469 Q187.9063,27.0469 188.5,26.7813 Q189.0938,26.5 189.7188,25.9219 L189.7188,28.6406 Z " fill="#000000"/><text fill="#000000" font-family="sans-serif" font-size="14" lengthAdjust="spacing" textLength="32" x="207.25" y="27.8467">Main</text><line style="stroke:#181818;stroke-width:0.5;" x1="110.5" x2="303.5" y1="39" y2="39"/><line style="stroke:#181818;stroke-width:0.5;" x1="110.5" x2="303.5" y1="47" y2="47"/><ellipse cx="120.5" cy="60.6484" fill="#84BE84" rx="3" ry="3" style="stroke:#038048;stroke-width:1.0;"/><text fill="#000000" font-family="sans-serif" font-size="14" lengthAdjust="spacing" textLength="169" x="129.5" y="63.9951">main(args: String[]): void</text></g><!--MD5=[ed6624c6556d5e7b1bd23032162d20b7]
class Client--><g id="elem_Client"><rect codeLine="5" fill="#F1F1F1" height="129.4844" id="Client" rx="2.5" ry="2.5" style="stroke:#181818;stroke-width:0.5;" width="163" x="49.5" y="485"/><ellipse cx="107.25" cy="501" fill="#ADD1B2" rx="11" ry="11" style="stroke:#181818;stroke-width:1.0;"/><path d="M110.2188,506.6406 Q109.6406,506.9375 109,507.0781 Q108.3594,507.2344 107.6563,507.2344 Q105.1563,507.2344 103.8281,505.5938 Q102.5156,503.9375 102.5156,500.8125 Q102.5156,497.6875 103.8281,496.0313 Q105.1563,494.375 107.6563,494.375 Q108.3594,494.375 109,494.5313 Q109.6563,494.6875 110.2188,494.9844 L110.2188,497.7031 Q109.5938,497.125 109,496.8594 Q108.4063,496.5781 107.7813,496.5781 Q106.4375,496.5781 105.75,497.6563 Q105.0625,498.7188 105.0625,500.8125 Q105.0625,502.9063 105.75,503.9844 Q106.4375,505.0469 107.7813,505.0469 Q108.4063,505.0469 109,504.7813 Q109.5938,504.5 110.2188,503.9219 L110.2188,506.6406 Z " fill="#000000"/><text fill="#000000" font-family="sans-serif" font-size="14" lengthAdjust="spacing" textLength="39" x="127.75" y="505.8467">Client</text><line style="stroke:#181818;stroke-width:0.5;" x1="50.5" x2="211.5" y1="517" y2="517"/><rect fill="none" height="6" style="stroke:#C82930;stroke-width:1.0;" width="6" x="57.5" y="527.6484"/><text fill="#000000" font-family="sans-serif" font-size="14" lengthAdjust="spacing" textLength="88" x="69.5" y="533.9951">name: String</text><rect fill="none" height="6" style="stroke:#C82930;stroke-width:1.0;" width="6" x="57.5" y="543.9453"/><text fill="#000000" font-family="sans-serif" font-size="14" lengthAdjust="spacing" textLength="100" x="69.5" y="550.292">survey: Survey</text><line style="stroke:#181818;stroke-width:0.5;" x1="50.5" x2="211.5" y1="557.5938" y2="557.5938"/><ellipse cx="60.5" cy="571.2422" fill="#84BE84" rx="3" ry="3" style="stroke:#038048;stroke-width:1.0;"/><text fill="#000000" font-family="sans-serif" font-size="14" lengthAdjust="spacing" textLength="137" x="69.5" y="574.5889">Client(name: String)</text><ellipse cx="60.5" cy="587.5391" fill="#84BE84" rx="3" ry="3" style="stroke:#038048;stroke-width:1.0;"/><text fill="#000000" font-family="sans-serif" font-size="14" lengthAdjust="spacing" textLength="137" x="69.5" y="590.8857">getNombre(): String</text><ellipse cx="60.5" cy="603.8359" fill="#84BE84" rx="3" ry="3" style="stroke:#038048;stroke-width:1.0;"/><text fill="#000000" font-family="sans-serif" font-size="14" lengthAdjust="spacing" textLength="128" x="69.5" y="607.1826">getSurvey(): String</text></g><!--MD5=[5b4460e97222b45c9cf25eacd4639dbc]
class Food--><g id="elem_Food"><rect codeLine="14" fill="#F1F1F1" height="96.8906" id="Food" rx="2.5" ry="2.5" style="stroke:#181818;stroke-width:0.5;" width="159" x="82.5" y="1591.5"/><ellipse cx="140.25" cy="1607.5" fill="#ADD1B2" rx="11" ry="11" style="stroke:#181818;stroke-width:1.0;"/><path d="M143.2188,1613.1406 Q142.6406,1613.4375 142,1613.5781 Q141.3594,1613.7344 140.6563,1613.7344 Q138.1563,1613.7344 136.8281,1612.0938 Q135.5156,1610.4375 135.5156,1607.3125 Q135.5156,1604.1875 136.8281,1602.5313 Q138.1563,1600.875 140.6563,1600.875 Q141.3594,1600.875 142,1601.0313 Q142.6563,1601.1875 143.2188,1601.4844 L143.2188,1604.2031 Q142.5938,1603.625 142,1603.3594 Q141.4063,1603.0781 140.7813,1603.0781 Q139.4375,1603.0781 138.75,1604.1563 Q138.0625,1605.2188 138.0625,1607.3125 Q138.0625,1609.4063 138.75,1610.4844 Q139.4375,1611.5469 140.7813,1611.5469 Q141.4063,1611.5469 142,1611.2813 Q142.5938,1611 143.2188,1610.4219 L143.2188,1613.1406 Z " fill="#000000"/><text fill="#000000" font-family="sans-serif" font-size="14" lengthAdjust="spacing" textLength="35" x="160.75" y="1612.3467">Food</text><line style="stroke:#181818;stroke-width:0.5;" x1="83.5" x2="240.5" y1="1623.5" y2="1623.5"/><rect fill="none" height="6" style="stroke:#C82930;stroke-width:1.0;" width="6" x="90.5" y="1634.1484"/><text fill="#000000" font-family="sans-serif" font-size="14" lengthAdjust="spacing" textLength="88" x="102.5" y="1640.4951">name: String</text><line style="stroke:#181818;stroke-width:0.5;" x1="83.5" x2="240.5" y1="1647.7969" y2="1647.7969"/><ellipse cx="93.5" cy="1661.4453" fill="#84BE84" rx="3" ry="3" style="stroke:#038048;stroke-width:1.0;"/><text fill="#000000" font-family="sans-serif" font-size="14" lengthAdjust="spacing" textLength="133" x="102.5" y="1664.792">Food(name: String)</text><ellipse cx="93.5" cy="1677.7422" fill="#84BE84" rx="3" ry="3" style="stroke:#038048;stroke-width:1.0;"/><text fill="#000000" font-family="sans-serif" font-size="14" lengthAdjust="spacing" textLength="122" x="102.5" y="1681.0889">getName(): String</text></g><!--MD5=[ab6cdf463b80038c44ec17e202579763]
class Intakes--><g id="elem_Intakes"><rect codeLine="21" fill="#F1F1F1" height="145.7813" id="Intakes" rx="2.5" ry="2.5" style="stroke:#181818;stroke-width:0.5;" width="209" x="102.5" y="1295"/><ellipse cx="177.75" cy="1311" fill="#ADD1B2" rx="11" ry="11" style="stroke:#181818;stroke-width:1.0;"/><path d="M180.7188,1316.6406 Q180.1406,1316.9375 179.5,1317.0781 Q178.8594,1317.2344 178.1563,1317.2344 Q175.6563,1317.2344 174.3281,1315.5938 Q173.0156,1313.9375 173.0156,1310.8125 Q173.0156,1307.6875 174.3281,1306.0313 Q175.6563,1304.375 178.1563,1304.375 Q178.8594,1304.375 179.5,1304.5313 Q180.1563,1304.6875 180.7188,1304.9844 L180.7188,1307.7031 Q180.0938,1307.125 179.5,1306.8594 Q178.9063,1306.5781 178.2813,1306.5781 Q176.9375,1306.5781 176.25,1307.6563 Q175.5625,1308.7188 175.5625,1310.8125 Q175.5625,1312.9063 176.25,1313.9844 Q176.9375,1315.0469 178.2813,1315.0469 Q178.9063,1315.0469 179.5,1314.7813 Q180.0938,1314.5 180.7188,1313.9219 L180.7188,1316.6406 Z " fill="#000000"/><text fill="#000000" font-family="sans-serif" font-size="14" lengthAdjust="spacing" textLength="50" x="198.25" y="1315.8467">Intakes</text><line style="stroke:#181818;stroke-width:0.5;" x1="103.5" x2="310.5" y1="1327" y2="1327"/><rect fill="none" height="6" style="stroke:#C82930;stroke-width:1.0;" width="6" x="110.5" y="1337.6484"/><text fill="#000000" font-family="sans-serif" font-size="14" lengthAdjust="spacing" textLength="136" x="122.5" y="1343.9951">fooList: List&lt;Food&gt;</text><line style="stroke:#181818;stroke-width:0.5;" x1="103.5" x2="310.5" y1="1351.2969" y2="1351.2969"/><ellipse cx="113.5" cy="1364.9453" fill="#84BE84" rx="3" ry="3" style="stroke:#038048;stroke-width:1.0;"/><text fill="#000000" font-family="sans-serif" font-size="14" lengthAdjust="spacing" textLength="60" x="122.5" y="1368.292">Intakes()</text><ellipse cx="113.5" cy="1381.2422" fill="#84BE84" rx="3" ry="3" style="stroke:#038048;stroke-width:1.0;"/><text fill="#000000" font-family="sans-serif" font-size="14" lengthAdjust="spacing" textLength="183" x="122.5" y="1384.5889">addFood(food: Food): void</text><ellipse cx="113.5" cy="1397.5391" fill="#84BE84" rx="3" ry="3" style="stroke:#038048;stroke-width:1.0;"/><text fill="#000000" font-family="sans-serif" font-size="14" lengthAdjust="spacing" textLength="101" x="122.5" y="1400.8857">listFood(): void</text><ellipse cx="113.5" cy="1413.8359" fill="#84BE84" rx="3" ry="3" style="stroke:#038048;stroke-width:1.0;"/><text fill="#000000" font-family="sans-serif" font-size="14" lengthAdjust="spacing" textLength="175" x="122.5" y="1417.1826">toStringIndented(): String</text><ellipse cx="113.5" cy="1430.1328" fill="#84BE84" rx="3" ry="3" style="stroke:#038048;stroke-width:1.0;"/><text fill="#000000" font-family="sans-serif" font-size="14" lengthAdjust="spacing" textLength="113" x="122.5" y="1433.4795">toString(): String</text></g><!--MD5=[bd3a0900dca9608ed64340d302c33c3f]
class IntakeType--><g id="elem_IntakeType"><rect codeLine="32" fill="#F1F1F1" height="145.7813" id="IntakeType" rx="2.5" ry="2.5" style="stroke:#181818;stroke-width:0.5;" width="322" x="46" y="1088"/><ellipse cx="164.75" cy="1104" fill="#ADD1B2" rx="11" ry="11" style="stroke:#181818;stroke-width:1.0;"/><path d="M167.7188,1109.6406 Q167.1406,1109.9375 166.5,1110.0781 Q165.8594,1110.2344 165.1563,1110.2344 Q162.6563,1110.2344 161.3281,1108.5938 Q160.0156,1106.9375 160.0156,1103.8125 Q160.0156,1100.6875 161.3281,1099.0313 Q162.6563,1097.375 165.1563,1097.375 Q165.8594,1097.375 166.5,1097.5313 Q167.1563,1097.6875 167.7188,1097.9844 L167.7188,1100.7031 Q167.0938,1100.125 166.5,1099.8594 Q165.9063,1099.5781 165.2813,1099.5781 Q163.9375,1099.5781 163.25,1100.6563 Q162.5625,1101.7188 162.5625,1103.8125 Q162.5625,1105.9063 163.25,1106.9844 Q163.9375,1108.0469 165.2813,1108.0469 Q165.9063,1108.0469 166.5,1107.7813 Q167.0938,1107.5 167.7188,1106.9219 L167.7188,1109.6406 Z " fill="#000000"/><text fill="#000000" font-family="sans-serif" font-size="14" lengthAdjust="spacing" textLength="76" x="185.25" y="1108.8467">IntakeType</text><line style="stroke:#181818;stroke-width:0.5;" x1="47" x2="367" y1="1120" y2="1120"/><rect fill="none" height="6" style="stroke:#C82930;stroke-width:1.0;" width="6" x="54" y="1130.6484"/><text fill="#000000" font-family="sans-serif" font-size="14" lengthAdjust="spacing" textLength="79" x="66" y="1136.9951">type: String</text><rect fill="none" height="6" style="stroke:#C82930;stroke-width:1.0;" width="6" x="54" y="1146.9453"/><text fill="#000000" font-family="sans-serif" font-size="14" lengthAdjust="spacing" textLength="109" x="66" y="1153.292">intakes: Intakes</text><line style="stroke:#181818;stroke-width:0.5;" x1="47" x2="367" y1="1160.5938" y2="1160.5938"/><ellipse cx="57" cy="1174.2422" fill="#84BE84" rx="3" ry="3" style="stroke:#038048;stroke-width:1.0;"/><text fill="#000000" font-family="sans-serif" font-size="14" lengthAdjust="spacing" textLength="296" x="66" y="1177.5889">IntakeType(tipo: String, ingestas: Ingestas)</text><ellipse cx="57" cy="1190.5391" fill="#84BE84" rx="3" ry="3" style="stroke:#038048;stroke-width:1.0;"/><text fill="#000000" font-family="sans-serif" font-size="14" lengthAdjust="spacing" textLength="116" x="66" y="1193.8857">getType(): String</text><ellipse cx="57" cy="1206.8359" fill="#84BE84" rx="3" ry="3" style="stroke:#038048;stroke-width:1.0;"/><text fill="#000000" font-family="sans-serif" font-size="14" lengthAdjust="spacing" textLength="142" x="66" y="1210.1826">getIntakes(): Intakes</text><ellipse cx="57" cy="1223.1328" fill="#84BE84" rx="3" ry="3" style="stroke:#038048;stroke-width:1.0;"/><text fill="#000000" font-family="sans-serif" font-size="14" lengthAdjust="spacing" textLength="113" x="66" y="1226.4795">toString(): String</text></g><!--MD5=[ada87c1b6b1db915d6b739d58cabb54e]
class Days--><g id="elem_Days"><rect codeLine="42" fill="#F1F1F1" height="145.7813" id="Days" rx="2.5" ry="2.5" style="stroke:#181818;stroke-width:0.5;" width="342" x="36" y="881"/><ellipse cx="185.75" cy="897" fill="#ADD1B2" rx="11" ry="11" style="stroke:#181818;stroke-width:1.0;"/><path d="M188.7188,902.6406 Q188.1406,902.9375 187.5,903.0781 Q186.8594,903.2344 186.1563,903.2344 Q183.6563,903.2344 182.3281,901.5938 Q181.0156,899.9375 181.0156,896.8125 Q181.0156,893.6875 182.3281,892.0313 Q183.6563,890.375 186.1563,890.375 Q186.8594,890.375 187.5,890.5313 Q188.1563,890.6875 188.7188,890.9844 L188.7188,893.7031 Q188.0938,893.125 187.5,892.8594 Q186.9063,892.5781 186.2813,892.5781 Q184.9375,892.5781 184.25,893.6563 Q183.5625,894.7188 183.5625,896.8125 Q183.5625,898.9063 184.25,899.9844 Q184.9375,901.0469 186.2813,901.0469 Q186.9063,901.0469 187.5,900.7813 Q188.0938,900.5 188.7188,899.9219 L188.7188,902.6406 Z " fill="#000000"/><text fill="#000000" font-family="sans-serif" font-size="14" lengthAdjust="spacing" textLength="34" x="206.25" y="901.8467">Days</text><line style="stroke:#181818;stroke-width:0.5;" x1="37" x2="377" y1="913" y2="913"/><rect fill="none" height="6" style="stroke:#C82930;stroke-width:1.0;" width="6" x="44" y="923.6484"/><text fill="#000000" font-family="sans-serif" font-size="14" lengthAdjust="spacing" textLength="87" x="56" y="929.9951">dayIndex: int</text><rect fill="none" height="6" style="stroke:#C82930;stroke-width:1.0;" width="6" x="44" y="939.9453"/><text fill="#000000" font-family="sans-serif" font-size="14" lengthAdjust="spacing" textLength="215" x="56" y="946.292">intakeTree: Tree&lt;IntakeType&gt;</text><line style="stroke:#181818;stroke-width:0.5;" x1="37" x2="377" y1="953.5938" y2="953.5938"/><ellipse cx="47" cy="967.2422" fill="#84BE84" rx="3" ry="3" style="stroke:#038048;stroke-width:1.0;"/><text fill="#000000" font-family="sans-serif" font-size="14" lengthAdjust="spacing" textLength="131" x="56" y="970.5889">Days(dayIndex: int)</text><ellipse cx="47" cy="983.5391" fill="#84BE84" rx="3" ry="3" style="stroke:#038048;stroke-width:1.0;"/><text fill="#000000" font-family="sans-serif" font-size="14" lengthAdjust="spacing" textLength="316" x="56" y="986.8857">addFood(food: Food, intakeType: String): void</text><ellipse cx="47" cy="999.8359" fill="#84BE84" rx="3" ry="3" style="stroke:#038048;stroke-width:1.0;"/><text fill="#000000" font-family="sans-serif" font-size="14" lengthAdjust="spacing" textLength="113" x="56" y="1003.1826">toString(): String</text><ellipse cx="47" cy="1016.1328" fill="#84BE84" rx="3" ry="3" style="stroke:#038048;stroke-width:1.0;"/><text fill="#000000" font-family="sans-serif" font-size="14" lengthAdjust="spacing" textLength="208" x="56" y="1019.4795">getValidInktakeType(): String[]</text></g><!--MD5=[3145b4be7c5005b24cda6f18a1d594b0]
class Survey--><g id="elem_Survey"><rect codeLine="52" fill="#F1F1F1" height="113.1875" id="Survey" rx="2.5" ry="2.5" style="stroke:#181818;stroke-width:0.5;" width="400" x="7" y="691"/><ellipse cx="179.75" cy="707" fill="#ADD1B2" rx="11" ry="11" style="stroke:#181818;stroke-width:1.0;"/><path d="M182.7188,712.6406 Q182.1406,712.9375 181.5,713.0781 Q180.8594,713.2344 180.1563,713.2344 Q177.6563,713.2344 176.3281,711.5938 Q175.0156,709.9375 175.0156,706.8125 Q175.0156,703.6875 176.3281,702.0313 Q177.6563,700.375 180.1563,700.375 Q180.8594,700.375 181.5,700.5313 Q182.1563,700.6875 182.7188,700.9844 L182.7188,703.7031 Q182.0938,703.125 181.5,702.8594 Q180.9063,702.5781 180.2813,702.5781 Q178.9375,702.5781 178.25,703.6563 Q177.5625,704.7188 177.5625,706.8125 Q177.5625,708.9063 178.25,709.9844 Q178.9375,711.0469 180.2813,711.0469 Q180.9063,711.0469 181.5,710.7813 Q182.0938,710.5 182.7188,709.9219 L182.7188,712.6406 Z " fill="#000000"/><text fill="#000000" font-family="sans-serif" font-size="14" lengthAdjust="spacing" textLength="46" x="200.25" y="711.8467">Survey</text><line style="stroke:#181818;stroke-width:0.5;" x1="8" x2="406" y1="723" y2="723"/><rect fill="none" height="6" style="stroke:#C82930;stroke-width:1.0;" width="6" x="15" y="733.6484"/><text fill="#000000" font-family="sans-serif" font-size="14" lengthAdjust="spacing" textLength="163" x="27" y="739.9951">daysTree: Tree&lt;Days&gt;</text><line style="stroke:#181818;stroke-width:0.5;" x1="8" x2="406" y1="747.2969" y2="747.2969"/><ellipse cx="18" cy="760.9453" fill="#84BE84" rx="3" ry="3" style="stroke:#038048;stroke-width:1.0;"/><text fill="#000000" font-family="sans-serif" font-size="14" lengthAdjust="spacing" textLength="56" x="27" y="764.292">Survey()</text><ellipse cx="18" cy="777.2422" fill="#84BE84" rx="3" ry="3" style="stroke:#038048;stroke-width:1.0;"/><text fill="#000000" font-family="sans-serif" font-size="14" lengthAdjust="spacing" textLength="123" x="27" y="780.5889">getDietInfo(): void</text><ellipse cx="18" cy="793.5391" fill="#84BE84" rx="3" ry="3" style="stroke:#038048;stroke-width:1.0;"/><text fill="#000000" font-family="sans-serif" font-size="14" lengthAdjust="spacing" textLength="374" x="27" y="796.8857">addFood(food: Food, day: int, intakeType: String): void</text></g><!--MD5=[3d4177ac58b4411586d067f34e84928f]
class List--><g id="elem_List"><rect codeLine="60" fill="#F1F1F1" height="243.5625" id="List" rx="2.5" ry="2.5" style="stroke:#181818;stroke-width:0.5;" width="208" x="277" y="1518"/><ellipse cx="359.75" cy="1534" fill="#ADD1B2" rx="11" ry="11" style="stroke:#181818;stroke-width:1.0;"/><path d="M362.7188,1539.6406 Q362.1406,1539.9375 361.5,1540.0781 Q360.8594,1540.2344 360.1563,1540.2344 Q357.6563,1540.2344 356.3281,1538.5938 Q355.0156,1536.9375 355.0156,1533.8125 Q355.0156,1530.6875 356.3281,1529.0313 Q357.6563,1527.375 360.1563,1527.375 Q360.8594,1527.375 361.5,1527.5313 Q362.1563,1527.6875 362.7188,1527.9844 L362.7188,1530.7031 Q362.0938,1530.125 361.5,1529.8594 Q360.9063,1529.5781 360.2813,1529.5781 Q358.9375,1529.5781 358.25,1530.6563 Q357.5625,1531.7188 357.5625,1533.8125 Q357.5625,1535.9063 358.25,1536.9844 Q358.9375,1538.0469 360.2813,1538.0469 Q360.9063,1538.0469 361.5,1537.7813 Q362.0938,1537.5 362.7188,1536.9219 L362.7188,1539.6406 Z " fill="#000000"/><text fill="#000000" font-family="sans-serif" font-size="14" lengthAdjust="spacing" textLength="23" x="380.25" y="1538.8467">List</text><rect fill="#FFFFFF" height="15.9688" style="stroke:#181818;stroke-width:1.0;stroke-dasharray:2.0,2.0;" width="9" x="479" y="1515"/><text fill="#000000" font-family="sans-serif" font-size="12" font-style="italic" lengthAdjust="spacing" textLength="7" x="480" y="1527.1387">T</text><line style="stroke:#181818;stroke-width:0.5;" x1="278" x2="484" y1="1550" y2="1550"/><rect fill="none" height="6" style="stroke:#C82930;stroke-width:1.0;" width="6" x="285" y="1560.6484"/><text fill="#000000" font-family="sans-serif" font-size="14" lengthAdjust="spacing" textLength="114" x="297" y="1566.9951">head: Node&lt;T&gt;</text><rect fill="none" height="6" style="stroke:#C82930;stroke-width:1.0;" width="6" x="285" y="1576.9453"/><text fill="#000000" font-family="sans-serif" font-size="14" lengthAdjust="spacing" textLength="54" x="297" y="1583.292">size: int</text><line style="stroke:#181818;stroke-width:0.5;" x1="278" x2="484" y1="1590.5938" y2="1590.5938"/><ellipse cx="288" cy="1604.2422" fill="#84BE84" rx="3" ry="3" style="stroke:#038048;stroke-width:1.0;"/><text fill="#000000" font-family="sans-serif" font-size="14" lengthAdjust="spacing" textLength="33" x="297" y="1607.5889">List()</text><ellipse cx="288" cy="1620.5391" fill="#84BE84" rx="3" ry="3" style="stroke:#038048;stroke-width:1.0;"/><text fill="#000000" font-family="sans-serif" font-size="14" lengthAdjust="spacing" textLength="121" x="297" y="1623.8857">add(data: T): void</text><ellipse cx="288" cy="1636.8359" fill="#84BE84" rx="3" ry="3" style="stroke:#038048;stroke-width:1.0;"/><text fill="#000000" font-family="sans-serif" font-size="14" lengthAdjust="spacing" textLength="129" x="297" y="1640.1826">isEmpty(): boolean</text><ellipse cx="288" cy="1653.1328" fill="#84BE84" rx="3" ry="3" style="stroke:#038048;stroke-width:1.0;"/><text fill="#000000" font-family="sans-serif" font-size="14" lengthAdjust="spacing" textLength="114" x="297" y="1656.4795">get(index: int): T</text><ellipse cx="288" cy="1669.4297" fill="#84BE84" rx="3" ry="3" style="stroke:#038048;stroke-width:1.0;"/><text fill="#000000" font-family="sans-serif" font-size="14" lengthAdjust="spacing" textLength="162" x="297" y="1672.7764">remove(index: int): void</text><ellipse cx="288" cy="1685.7266" fill="#84BE84" rx="3" ry="3" style="stroke:#038048;stroke-width:1.0;"/><text fill="#000000" font-family="sans-serif" font-size="14" lengthAdjust="spacing" textLength="80" x="297" y="1689.0732">clear(): void</text><ellipse cx="288" cy="1702.0234" fill="#84BE84" rx="3" ry="3" style="stroke:#038048;stroke-width:1.0;"/><text fill="#000000" font-family="sans-serif" font-size="14" lengthAdjust="spacing" textLength="182" x="297" y="1705.3701">contains(data: T): boolean</text><ellipse cx="288" cy="1718.3203" fill="#84BE84" rx="3" ry="3" style="stroke:#038048;stroke-width:1.0;"/><text fill="#000000" font-family="sans-serif" font-size="14" lengthAdjust="spacing" textLength="148" x="297" y="1721.667">getHead(): Node&lt;T&gt;</text><ellipse cx="288" cy="1734.6172" fill="#84BE84" rx="3" ry="3" style="stroke:#038048;stroke-width:1.0;"/><text fill="#000000" font-family="sans-serif" font-size="14" lengthAdjust="spacing" textLength="64" x="297" y="1737.9639">size(): int</text><ellipse cx="288" cy="1750.9141" fill="#84BE84" rx="3" ry="3" style="stroke:#038048;stroke-width:1.0;"/><text fill="#000000" font-family="sans-serif" font-size="14" lengthAdjust="spacing" textLength="113" x="297" y="1754.2607">toString(): String</text></g><!--MD5=[3fee75583bb7a64f68d843a3c9534ab3]
class Node--><g id="elem_Node"><rect codeLine="76" fill="#F1F1F1" height="276.1563" id="Node" rx="2.5" ry="2.5" style="stroke:#181818;stroke-width:0.5;" width="241" x="445.5" y="1839"/><ellipse cx="537.75" cy="1855" fill="#ADD1B2" rx="11" ry="11" style="stroke:#181818;stroke-width:1.0;"/><path d="M540.7188,1860.6406 Q540.1406,1860.9375 539.5,1861.0781 Q538.8594,1861.2344 538.1563,1861.2344 Q535.6563,1861.2344 534.3281,1859.5938 Q533.0156,1857.9375 533.0156,1854.8125 Q533.0156,1851.6875 534.3281,1850.0313 Q535.6563,1848.375 538.1563,1848.375 Q538.8594,1848.375 539.5,1848.5313 Q540.1563,1848.6875 540.7188,1848.9844 L540.7188,1851.7031 Q540.0938,1851.125 539.5,1850.8594 Q538.9063,1850.5781 538.2813,1850.5781 Q536.9375,1850.5781 536.25,1851.6563 Q535.5625,1852.7188 535.5625,1854.8125 Q535.5625,1856.9063 536.25,1857.9844 Q536.9375,1859.0469 538.2813,1859.0469 Q538.9063,1859.0469 539.5,1858.7813 Q540.0938,1858.5 540.7188,1857.9219 L540.7188,1860.6406 Z " fill="#000000"/><text fill="#000000" font-family="sans-serif" font-size="14" lengthAdjust="spacing" textLength="37" x="558.25" y="1859.8467">Node</text><rect fill="#FFFFFF" height="15.9688" style="stroke:#181818;stroke-width:1.0;stroke-dasharray:2.0,2.0;" width="9" x="680.5" y="1836"/><text fill="#000000" font-family="sans-serif" font-size="12" font-style="italic" lengthAdjust="spacing" textLength="7" x="681.5" y="1848.1387">T</text><line style="stroke:#181818;stroke-width:0.5;" x1="446.5" x2="685.5" y1="1871" y2="1871"/><rect fill="none" height="6" style="stroke:#C82930;stroke-width:1.0;" width="6" x="453.5" y="1881.6484"/><text fill="#000000" font-family="sans-serif" font-size="14" lengthAdjust="spacing" textLength="48" x="465.5" y="1887.9951">data: T</text><rect fill="none" height="6" style="stroke:#C82930;stroke-width:1.0;" width="6" x="453.5" y="1897.9453"/><text fill="#000000" font-family="sans-serif" font-size="14" lengthAdjust="spacing" textLength="63" x="465.5" y="1904.292">index: int</text><rect fill="none" height="6" style="stroke:#C82930;stroke-width:1.0;" width="6" x="453.5" y="1914.2422"/><text fill="#000000" font-family="sans-serif" font-size="14" lengthAdjust="spacing" textLength="109" x="465.5" y="1920.5889">next: Node&lt;T&gt;</text><rect fill="none" height="6" style="stroke:#C82930;stroke-width:1.0;" width="6" x="453.5" y="1930.5391"/><text fill="#000000" font-family="sans-serif" font-size="14" lengthAdjust="spacing" textLength="100" x="465.5" y="1936.8857">left: Node&lt;T&gt;</text><rect fill="none" height="6" style="stroke:#C82930;stroke-width:1.0;" width="6" x="453.5" y="1946.8359"/><text fill="#000000" font-family="sans-serif" font-size="14" lengthAdjust="spacing" textLength="110" x="465.5" y="1953.1826">right: Node&lt;T&gt;</text><line style="stroke:#181818;stroke-width:0.5;" x1="446.5" x2="685.5" y1="1960.4844" y2="1960.4844"/><ellipse cx="456.5" cy="1974.1328" fill="#84BE84" rx="3" ry="3" style="stroke:#038048;stroke-width:1.0;"/><text fill="#000000" font-family="sans-serif" font-size="14" lengthAdjust="spacing" textLength="166" x="465.5" y="1977.4795">Node(data: T, index: int)</text><ellipse cx="456.5" cy="1990.4297" fill="#84BE84" rx="3" ry="3" style="stroke:#038048;stroke-width:1.0;"/><text fill="#000000" font-family="sans-serif" font-size="14" lengthAdjust="spacing" textLength="96" x="465.5" y="1993.7764">getIndex(): int</text><ellipse cx="456.5" cy="2006.7266" fill="#84BE84" rx="3" ry="3" style="stroke:#038048;stroke-width:1.0;"/><text fill="#000000" font-family="sans-serif" font-size="14" lengthAdjust="spacing" textLength="83" x="465.5" y="2010.0732">getData(): T</text><ellipse cx="456.5" cy="2023.0234" fill="#84BE84" rx="3" ry="3" style="stroke:#038048;stroke-width:1.0;"/><text fill="#000000" font-family="sans-serif" font-size="14" lengthAdjust="spacing" textLength="137" x="465.5" y="2026.3701">getLeft(): Node&lt;T&gt;</text><ellipse cx="456.5" cy="2039.3203" fill="#84BE84" rx="3" ry="3" style="stroke:#038048;stroke-width:1.0;"/><text fill="#000000" font-family="sans-serif" font-size="14" lengthAdjust="spacing" textLength="194" x="465.5" y="2042.667">setLeft(left: Node&lt;T&gt;): void</text><ellipse cx="456.5" cy="2055.6172" fill="#84BE84" rx="3" ry="3" style="stroke:#038048;stroke-width:1.0;"/><text fill="#000000" font-family="sans-serif" font-size="14" lengthAdjust="spacing" textLength="148" x="465.5" y="2058.9639">getRight(): Node&lt;T&gt;</text><ellipse cx="456.5" cy="2071.9141" fill="#84BE84" rx="3" ry="3" style="stroke:#038048;stroke-width:1.0;"/><text fill="#000000" font-family="sans-serif" font-size="14" lengthAdjust="spacing" textLength="215" x="465.5" y="2075.2607">setRight(right: Node&lt;T&gt;): void</text><ellipse cx="456.5" cy="2088.2109" fill="#84BE84" rx="3" ry="3" style="stroke:#038048;stroke-width:1.0;"/><text fill="#000000" font-family="sans-serif" font-size="14" lengthAdjust="spacing" textLength="143" x="465.5" y="2091.5576">getNext(): Node&lt;T&gt;</text><ellipse cx="456.5" cy="2104.5078" fill="#84BE84" rx="3" ry="3" style="stroke:#038048;stroke-width:1.0;"/><text fill="#000000" font-family="sans-serif" font-size="14" lengthAdjust="spacing" textLength="209" x="465.5" y="2107.8545">setNext(next: Node&lt;T&gt;): void</text></g><!--MD5=[bb7f1c801adcc1c297b2d9190618259c]
class Tree--><g id="elem_Tree"><rect codeLine="94" fill="#F1F1F1" height="243.5625" id="Tree" rx="2.5" ry="2.5" style="stroke:#181818;stroke-width:0.5;" width="462" x="520" y="1518"/><ellipse cx="725.25" cy="1534" fill="#ADD1B2" rx="11" ry="11" style="stroke:#181818;stroke-width:1.0;"/><path d="M728.2188,1539.6406 Q727.6406,1539.9375 727,1540.0781 Q726.3594,1540.2344 725.6563,1540.2344 Q723.1563,1540.2344 721.8281,1538.5938 Q720.5156,1536.9375 720.5156,1533.8125 Q720.5156,1530.6875 721.8281,1529.0313 Q723.1563,1527.375 725.6563,1527.375 Q726.3594,1527.375 727,1527.5313 Q727.6563,1527.6875 728.2188,1527.9844 L728.2188,1530.7031 Q727.5938,1530.125 727,1529.8594 Q726.4063,1529.5781 725.7813,1529.5781 Q724.4375,1529.5781 723.75,1530.6563 Q723.0625,1531.7188 723.0625,1533.8125 Q723.0625,1535.9063 723.75,1536.9844 Q724.4375,1538.0469 725.7813,1538.0469 Q726.4063,1538.0469 727,1537.7813 Q727.5938,1537.5 728.2188,1536.9219 L728.2188,1539.6406 Z " fill="#000000"/><text fill="#000000" font-family="sans-serif" font-size="14" lengthAdjust="spacing" textLength="32" x="745.75" y="1538.8467">Tree</text><rect fill="#FFFFFF" height="15.9688" style="stroke:#181818;stroke-width:1.0;stroke-dasharray:2.0,2.0;" width="9" x="976" y="1515"/><text fill="#000000" font-family="sans-serif" font-size="12" font-style="italic" lengthAdjust="spacing" textLength="7" x="977" y="1527.1387">T</text><line style="stroke:#181818;stroke-width:0.5;" x1="521" x2="981" y1="1550" y2="1550"/><rect fill="none" height="6" style="stroke:#C82930;stroke-width:1.0;" width="6" x="528" y="1560.6484"/><text fill="#000000" font-family="sans-serif" font-size="14" lengthAdjust="spacing" textLength="107" x="540" y="1566.9951">root: Node&lt;T&gt;</text><line style="stroke:#181818;stroke-width:0.5;" x1="521" x2="981" y1="1574.2969" y2="1574.2969"/><ellipse cx="531" cy="1587.9453" fill="#84BE84" rx="3" ry="3" style="stroke:#038048;stroke-width:1.0;"/><text fill="#000000" font-family="sans-serif" font-size="14" lengthAdjust="spacing" textLength="42" x="540" y="1591.292">Tree()</text><ellipse cx="531" cy="1604.2422" fill="#84BE84" rx="3" ry="3" style="stroke:#038048;stroke-width:1.0;"/><text fill="#000000" font-family="sans-serif" font-size="14" lengthAdjust="spacing" textLength="145" x="540" y="1607.5889">getRoot(): Node&lt;T&gt;</text><ellipse cx="531" cy="1620.5391" fill="#84BE84" rx="3" ry="3" style="stroke:#038048;stroke-width:1.0;"/><text fill="#000000" font-family="sans-serif" font-size="14" lengthAdjust="spacing" textLength="231" x="540" y="1623.8857">insert(newNode: Node&lt;T&gt;): void</text><ellipse cx="531" cy="1636.8359" fill="#84BE84" rx="3" ry="3" style="stroke:#038048;stroke-width:1.0;"/><text fill="#000000" font-family="sans-serif" font-size="14" lengthAdjust="spacing" textLength="177" x="540" y="1640.1826">find(index: int): Node&lt;T&gt;</text><ellipse cx="531" cy="1653.1328" fill="#84BE84" rx="3" ry="3" style="stroke:#038048;stroke-width:1.0;"/><text fill="#000000" font-family="sans-serif" font-size="14" lengthAdjust="spacing" textLength="129" x="540" y="1656.4795">printInOrder(): void</text><ellipse cx="531" cy="1669.4297" fill="#84BE84" rx="3" ry="3" style="stroke:#038048;stroke-width:1.0;"/><text fill="#000000" font-family="sans-serif" font-size="14" lengthAdjust="spacing" textLength="243" x="540" y="1672.7764">printInOrder(sb: StringBuilder): void</text><text fill="#000000" font-family="sans-serif" font-size="14" lengthAdjust="spacing" textLength="4" x="540" y="1689.0732"> </text><rect fill="#F24D5C" height="6" style="stroke:#C82930;stroke-width:1.0;" width="6" x="528" y="1699.0234"/><text fill="#000000" font-family="sans-serif" font-size="14" lengthAdjust="spacing" textLength="436" x="540" y="1705.3701">insertRecursive(current: Node&lt;T&gt;, newNode: Node&lt;T&gt;): void</text><rect fill="#F24D5C" height="6" style="stroke:#C82930;stroke-width:1.0;" width="6" x="528" y="1715.3203"/><text fill="#000000" font-family="sans-serif" font-size="14" lengthAdjust="spacing" textLength="382" x="540" y="1721.667">findRecursive(current: Node&lt;T&gt;, index: int): Node&lt;T&gt;</text><rect fill="#F24D5C" height="6" style="stroke:#C82930;stroke-width:1.0;" width="6" x="528" y="1731.6172"/><text fill="#000000" font-family="sans-serif" font-size="14" lengthAdjust="spacing" textLength="312" x="540" y="1737.9639">printInOrderRecursive(node: Node&lt;T&gt;): void</text><rect fill="#F24D5C" height="6" style="stroke:#C82930;stroke-width:1.0;" width="6" x="528" y="1747.9141"/><text fill="#000000" font-family="sans-serif" font-size="14" lengthAdjust="spacing" textLength="434" x="540" y="1754.2607">printInOrderRecursive(node: Node&lt;T&gt;, sb: StringBuilder): void</text></g><!--MD5=[335f4d9be48430461c68bf6d6fdba145]
class App--><g id="elem_App"><rect codeLine="110" fill="#F1F1F1" height="292.4531" id="App" rx="2.5" ry="2.5" style="stroke:#181818;stroke-width:0.5;" width="257" x="78.5" y="132"/><ellipse cx="189.25" cy="148" fill="#ADD1B2" rx="11" ry="11" style="stroke:#181818;stroke-width:1.0;"/><path d="M192.2188,153.6406 Q191.6406,153.9375 191,154.0781 Q190.3594,154.2344 189.6563,154.2344 Q187.1563,154.2344 185.8281,152.5938 Q184.5156,150.9375 184.5156,147.8125 Q184.5156,144.6875 185.8281,143.0313 Q187.1563,141.375 189.6563,141.375 Q190.3594,141.375 191,141.5313 Q191.6563,141.6875 192.2188,141.9844 L192.2188,144.7031 Q191.5938,144.125 191,143.8594 Q190.4063,143.5781 189.7813,143.5781 Q188.4375,143.5781 187.75,144.6563 Q187.0625,145.7188 187.0625,147.8125 Q187.0625,149.9063 187.75,150.9844 Q188.4375,152.0469 189.7813,152.0469 Q190.4063,152.0469 191,151.7813 Q191.5938,151.5 192.2188,150.9219 L192.2188,153.6406 Z " fill="#000000"/><text fill="#000000" font-family="sans-serif" font-size="14" lengthAdjust="spacing" textLength="27" x="209.75" y="152.8467">App</text><line style="stroke:#181818;stroke-width:0.5;" x1="79.5" x2="334.5" y1="164" y2="164"/><rect fill="none" height="6" style="stroke:#C82930;stroke-width:1.0;" width="6" x="86.5" y="174.6484"/><text fill="#000000" font-family="sans-serif" font-size="14" lengthAdjust="spacing" textLength="85" x="98.5" y="180.9951">client: Client</text><rect fill="none" height="6" style="stroke:#C82930;stroke-width:1.0;" width="6" x="86.5" y="190.9453"/><text fill="#000000" font-family="sans-serif" font-size="14" lengthAdjust="spacing" textLength="122" x="98.5" y="197.292">scanner: Scanner</text><rect fill="none" height="6" style="stroke:#C82930;stroke-width:1.0;" width="6" x="86.5" y="207.2422"/><text fill="#000000" font-family="sans-serif" font-size="14" lengthAdjust="spacing" textLength="100" x="98.5" y="213.5889">survey: Survey</text><line style="stroke:#181818;stroke-width:0.5;" x1="79.5" x2="334.5" y1="220.8906" y2="220.8906"/><ellipse cx="89.5" cy="234.5391" fill="#84BE84" rx="3" ry="3" style="stroke:#038048;stroke-width:1.0;"/><text fill="#000000" font-family="sans-serif" font-size="14" lengthAdjust="spacing" textLength="122" x="98.5" y="237.8857">App(client: Client)</text><ellipse cx="89.5" cy="250.8359" fill="#84BE84" rx="3" ry="3" style="stroke:#038048;stroke-width:1.0;"/><text fill="#000000" font-family="sans-serif" font-size="14" lengthAdjust="spacing" textLength="155" x="98.5" y="254.1826">showMainMenu(): void</text><rect fill="#F24D5C" height="6" style="stroke:#C82930;stroke-width:1.0;" width="6" x="86.5" y="264.1328"/><text fill="#000000" font-family="sans-serif" font-size="14" lengthAdjust="spacing" textLength="139" x="98.5" y="270.4795">registerClient(): void</text><rect fill="#F24D5C" height="6" style="stroke:#C82930;stroke-width:1.0;" width="6" x="86.5" y="280.4297"/><text fill="#000000" font-family="sans-serif" font-size="14" lengthAdjust="spacing" textLength="167" x="98.5" y="286.7764">createNewSurvey(): void</text><rect fill="#F24D5C" height="6" style="stroke:#C82930;stroke-width:1.0;" width="6" x="86.5" y="296.7266"/><text fill="#000000" font-family="sans-serif" font-size="14" lengthAdjust="spacing" textLength="182" x="98.5" y="303.0732">openExistingSurvey(): void</text><rect fill="#F24D5C" height="6" style="stroke:#C82930;stroke-width:1.0;" width="6" x="86.5" y="313.0234"/><text fill="#000000" font-family="sans-serif" font-size="14" lengthAdjust="spacing" textLength="130" x="98.5" y="319.3701">printResults(): void</text><rect fill="#F24D5C" height="6" style="stroke:#C82930;stroke-width:1.0;" width="6" x="86.5" y="329.3203"/><text fill="#000000" font-family="sans-serif" font-size="14" lengthAdjust="spacing" textLength="117" x="98.5" y="335.667">printMenu(): void</text><rect fill="#F24D5C" height="6" style="stroke:#C82930;stroke-width:1.0;" width="6" x="86.5" y="345.6172"/><text fill="#000000" font-family="sans-serif" font-size="14" lengthAdjust="spacing" textLength="137" x="98.5" y="351.9639">getValidOption(): int</text><rect fill="#F24D5C" height="6" style="stroke:#C82930;stroke-width:1.0;" width="6" x="86.5" y="361.9141"/><text fill="#000000" font-family="sans-serif" font-size="14" lengthAdjust="spacing" textLength="119" x="98.5" y="368.2607">enterFood(): void</text><rect fill="#F24D5C" height="6" style="stroke:#C82930;stroke-width:1.0;" width="6" x="86.5" y="378.2109"/><text fill="#000000" font-family="sans-serif" font-size="14" lengthAdjust="spacing" textLength="174" x="98.5" y="384.5576">printIntakeOptions(): void</text><rect fill="#F24D5C" height="6" style="stroke:#C82930;stroke-width:1.0;" width="6" x="86.5" y="394.5078"/><text fill="#000000" font-family="sans-serif" font-size="14" lengthAdjust="spacing" textLength="231" x="98.5" y="400.8545">getIntakeType(opcion: int): String</text><rect fill="#F24D5C" height="6" style="stroke:#C82930;stroke-width:1.0;" width="6" x="86.5" y="410.8047"/><text fill="#000000" font-family="sans-serif" font-size="14" lengthAdjust="spacing" textLength="146" x="98.5" y="417.1514">getValidNumber(): int</text></g><!--MD5=[9565ee374c43585bd19dccdcca1c811d]
link Main to App--><g id="link_Main_App"><path codeLine="129" d="M207,71.47 C207,86.63 207,106.01 207,126.8 " fill="none" id="Main-to-App" style="stroke:#181818;stroke-width:1.0;"/><polygon fill="#181818" points="207,131.83,211,122.83,207,126.83,203,122.83,207,131.83" style="stroke:#181818;stroke-width:1.0;"/></g><!--MD5=[7a6c1f17532296b70743435a048095d5]
link App to Client--><g id="link_App_Client"><path codeLine="130" d="M166.11,424.01 C160.62,443.48 155.21,462.67 150.34,479.92 " fill="none" id="App-to-Client" style="stroke:#181818;stroke-width:1.0;"/><polygon fill="#181818" points="148.98,484.74,155.2719,477.1629,150.3366,479.9276,147.572,474.9923,148.98,484.74" style="stroke:#181818;stroke-width:1.0;"/></g><!--MD5=[2dd3bb6f747d37dfa79de73a629ef91a]
link App to Survey--><g id="link_App_Survey"><path codeLine="131" d="M226.75,424.19 C232.21,483.13 235.35,551.85 230,614 C227.97,637.57 223.94,663.24 219.82,685.66 " fill="none" id="App-to-Survey" style="stroke:#181818;stroke-width:1.0;"/><polygon fill="#181818" points="218.88,690.69,224.4587,682.5735,219.7945,685.7743,216.5937,681.1102,218.88,690.69" style="stroke:#181818;stroke-width:1.0;"/><text fill="#000000" font-family="sans-serif" font-size="13" lengthAdjust="spacing" textLength="32" x="234" y="554.0669">Uses</text></g><!--MD5=[a19dd6ae985efbd490fb16e6de91b3a6]
link Client to Survey--><g id="link_Client_Survey"><path codeLine="132" d="M155.68,614.14 C164.62,637.2 174.69,663.17 183.52,685.96 " fill="none" id="Client-to-Survey" style="stroke:#181818;stroke-width:1.0;"/><polygon fill="#181818" points="185.39,690.77,185.8764,680.9332,183.5874,686.1062,178.4144,683.8173,185.39,690.77" style="stroke:#181818;stroke-width:1.0;"/><text fill="#000000" font-family="sans-serif" font-size="13" lengthAdjust="spacing" textLength="23" x="175" y="657.0669">Fills</text></g><!--MD5=[76be405ae4cbbba45e2ad56eaf7e99d1]
link Survey to Days--><g id="link_Survey_Days"><path codeLine="133" d="M207,804.11 C207,826.19 207,851.97 207,875.81 " fill="none" id="Survey-to-Days" style="stroke:#181818;stroke-width:1.0;"/><polygon fill="#181818" points="207,880.87,211,871.87,207,875.87,203,871.87,207,880.87" style="stroke:#181818;stroke-width:1.0;"/><text fill="#000000" font-family="sans-serif" font-size="13" lengthAdjust="spacing" textLength="56" x="208" y="847.0669">Contains</text></g><!--MD5=[5f0a0373411d31fb7a1112560f65a128]
link Days to IntakeType--><g id="link_Days_IntakeType"><path codeLine="134" d="M207,1027.28 C207,1045.19 207,1064.45 207,1082.6 " fill="none" id="Days-to-IntakeType" style="stroke:#181818;stroke-width:1.0;"/><polygon fill="#181818" points="207,1087.69,211,1078.69,207,1082.69,203,1078.69,207,1087.69" style="stroke:#181818;stroke-width:1.0;"/></g><!--MD5=[f2b15c3dc339d9e2d7c30ccaa0e37a4d]
link IntakeType to Intakes--><g id="link_IntakeType_Intakes"><path codeLine="135" d="M207,1234.28 C207,1252.19 207,1271.45 207,1289.6 " fill="none" id="IntakeType-to-Intakes" style="stroke:#181818;stroke-width:1.0;"/><polygon fill="#181818" points="207,1294.69,211,1285.69,207,1289.69,203,1285.69,207,1294.69" style="stroke:#181818;stroke-width:1.0;"/></g><!--MD5=[d8d9b858006d5361fc70d18268698198]
link Intakes to Food--><g id="link_Intakes_Food"><path codeLine="136" d="M195,1441 C187.37,1486.79 177.66,1545.03 170.75,1586.47 " fill="none" id="Intakes-to-Food" style="stroke:#181818;stroke-width:1.0;"/><polygon fill="#181818" points="169.93,1591.44,175.3667,1583.2277,170.7589,1586.5092,167.4775,1581.9014,169.93,1591.44" style="stroke:#181818;stroke-width:1.0;"/><text fill="#000000" font-family="sans-serif" font-size="13" lengthAdjust="spacing" textLength="49" x="191" y="1484.0669">Contain</text></g><!--MD5=[981417e7762aa90ff4e428118e7e9bc3]
link Intakes to List--><g id="link_Intakes_List"><path codeLine="137" d="M253.4,1441 C267.82,1463.37 284.15,1488.72 300.21,1513.63 " fill="none" id="Intakes-to-List" style="stroke:#181818;stroke-width:1.0;"/><polygon fill="#181818" points="302.99,1517.95,301.4879,1508.2164,300.2862,1513.7441,294.7585,1512.5424,302.99,1517.95" style="stroke:#181818;stroke-width:1.0;"/><text fill="#000000" font-family="sans-serif" font-size="13" lengthAdjust="spacing" textLength="49" x="285" y="1484.0669">Contain</text></g><!--MD5=[bbf043ee690f9c7afb69dd5976a72333]
link List to Node--><g id="link_List_Node"><path codeLine="138" d="M448.05,1762.42 C460.95,1785.77 474.56,1810.43 487.78,1834.36 " fill="none" id="List-to-Node" style="stroke:#181818;stroke-width:1.0;"/><polygon fill="#181818" points="490.24,1838.82,489.3794,1829.0088,487.8178,1834.4459,482.3808,1832.8843,490.24,1838.82" style="stroke:#181818;stroke-width:1.0;"/><text fill="#000000" font-family="sans-serif" font-size="13" lengthAdjust="spacing" textLength="49" x="474" y="1805.0669">Contain</text></g><!--MD5=[b8ed46582af17d25e8f4609a75212b9d]
link Tree to Node--><g id="link_Tree_Node"><path codeLine="139" d="M683.95,1762.42 C671.05,1785.77 657.44,1810.43 644.22,1834.36 " fill="none" id="Tree-to-Node" style="stroke:#181818;stroke-width:1.0;"/><polygon fill="#181818" points="641.76,1838.82,649.6192,1832.8843,644.1822,1834.4459,642.6206,1829.0088,641.76,1838.82" style="stroke:#181818;stroke-width:1.0;"/></g><!--MD5=[ad262861ed07eb12ed744c3ad1568f65]
@startuml
class Main {
    +main(args: String[]): void
}

class Client {
    -name: String
    -survey: Survey

    +Client(name: String)
    +getNombre(): String
    +getSurvey(): String
}

class Food {
    -name: String

    +Food(name: String)
    +getName(): String
}

class Intakes {
    -fooList: List<Food>

    +Intakes()
    +addFood(food: Food): void
    +listFood(): void
    +toStringIndented(): String
    +toString(): String
    
}

class IntakeType {
    -type: String
    -intakes: Intakes

    +IntakeType(tipo: String, ingestas: Ingestas)
    +getType(): String
    +getIntakes(): Intakes
    +toString(): String
}

class Days {
    -dayIndex: int
    -intakeTree: Tree<IntakeType>

    +Days(dayIndex: int)
    +addFood(food: Food, intakeType: String): void
    +toString(): String
    +getValidInktakeType(): String[]
}

class Survey {
    -daysTree: Tree<Days>

    +Survey()
    +getDietInfo(): void
    +addFood(food: Food, day: int, intakeType: String): void
}

class List<T> {
    -head: Node<T>
    -size: int

    +List()
    +add(data: T): void
    +isEmpty(): boolean
    +get(index: int): T
    +remove(index: int): void
    +clear(): void
    +contains(data: T): boolean
    +getHead(): Node<T>
    +size(): int
    +toString(): String
}

class Node<T> {
    -data: T
    -index: int
    -next: Node<T>
    -left: Node<T>
    -right: Node<T>

    +Node(data: T, index: int)
    +getIndex(): int
    +getData(): T
    +getLeft(): Node<T>
    +setLeft(left: Node<T>): void
    +getRight(): Node<T>
    +setRight(right: Node<T>): void
    +getNext(): Node<T>
    +setNext(next: Node<T>): void
}

class Tree<T> {
    -root: Node<T>

    +Tree()
    +getRoot(): Node<T>
    +insert(newNode: Node<T>): void
    +find(index: int): Node<T>
    +printInOrder(): void
    +printInOrder(sb: StringBuilder): void

    -insertRecursive(current: Node<T>, newNode: Node<T>): void
    -findRecursive(current: Node<T>, index: int): Node<T>
    -printInOrderRecursive(node: Node<T>): void
    -printInOrderRecursive(node: Node<T>, sb: StringBuilder): void
}

class App {
    -client: Client
    -scanner: Scanner
    -survey: Survey

    +App(client: Client)
    +showMainMenu(): void
    -registerClient(): void
    -createNewSurvey(): void
    -openExistingSurvey(): void
    -printResults(): void
    -printMenu(): void
    -getValidOption(): int
    -enterFood(): void
    -printIntakeOptions(): void
    -getIntakeType(opcion: int): String
    -getValidNumber(): int
}

Main - -> App
App - -> Client
App - -> Survey : Uses
Client - -> Survey : Fills
Survey - -> Days : Contains
Days - -> IntakeType
IntakeType - -> Intakes
Intakes - -> Food: Contain
Intakes - -> List: Contain
List - -> Node: Contain
Tree - -> Node
@enduml

PlantUML version 1.2022.7(Mon Aug 22 17:01:30 UTC 2022)
(GPL source distribution)
Java Runtime: OpenJDK Runtime Environment
JVM: OpenJDK 64-Bit Server VM
Default Encoding: UTF-8
Language: en
Country: null
--></g></svg>